<svg width="261" height="38" viewBox="0 0 261 38" fill="none" xmlns="http://www.w3.org/2000/svg">
<g clip-path="url(#clip0_825_3990)">
<path d="M20.0402 19.3352C19.2405 18.8379 18.3458 18.4369 17.3719 18.1161C19.0109 17.4664 20.357 16.5841 21.3546 15.4452C22.479 14.1619 23.0411 12.6219 23.0411 10.8253C23.0411 9.14899 22.6215 7.63308 21.7743 6.26957C20.935 4.91408 19.7077 3.82327 18.1003 2.99714C16.493 2.17904 14.5531 1.76196 12.2728 1.76196C10.1191 1.76196 8.22671 2.18706 6.61146 3.04527C4.98829 3.89546 3.7135 5.05845 2.79502 6.53425C1.87655 8.00204 1.41731 9.68637 1.41731 11.5873H7.64079C7.64079 10.3521 8.08419 9.33346 8.971 8.5314C9.8578 7.72131 10.9584 7.32028 12.2728 7.32028C13.2071 7.32028 13.9751 7.48069 14.569 7.7935C15.1628 8.1063 15.6141 8.5715 15.9229 9.16503C16.2317 9.76658 16.3901 10.4644 16.3901 11.2504C16.3901 11.884 16.2396 12.4936 15.9467 13.0791C15.6458 13.6646 15.2341 14.186 14.7036 14.6431C14.1731 15.1003 13.5238 15.4612 12.7637 15.7099C11.9956 15.9665 11.1326 16.0869 10.1666 16.0869V20.7308C11.3226 20.7308 12.344 20.8511 13.2308 21.0837C14.1176 21.3243 14.8698 21.6612 15.4795 22.1024C16.0892 22.5435 16.5484 23.0889 16.8572 23.7386C17.166 24.3882 17.3244 25.086 17.3244 25.848C17.3244 26.8907 17.1027 27.7569 16.6672 28.4547C16.2317 29.1525 15.63 29.6819 14.8619 30.0428C14.0939 30.4037 13.1992 30.5882 12.1698 30.5882C11.1405 30.5882 10.2537 30.3877 9.40648 29.9947C8.56718 29.6017 7.89416 29.0242 7.39533 28.2622C6.8965 27.5003 6.64313 26.5859 6.64313 25.5111H0C0 26.9308 0.277127 28.2863 0.839299 29.5696C1.40147 30.8529 2.19326 31.9838 3.22259 32.9864C4.25192 33.9809 5.50295 34.767 6.96776 35.3364C8.43258 35.9059 10.1033 36.1866 11.9798 36.1866C14.4185 36.1866 16.5326 35.7856 18.3221 34.9755C20.1194 34.1654 21.5051 33.0425 22.4869 31.5828C23.4687 30.131 23.9596 28.4547 23.9596 26.5538C23.9596 24.8775 23.6191 23.4498 22.9303 22.2628C22.2414 21.0757 21.2754 20.0972 20.0244 19.3192L20.0402 19.3352Z" fill="white"/>
<path d="M37.8951 11.9403C38.9482 11.427 39.7558 10.6971 40.3259 9.7667C40.8881 8.83631 41.1731 7.76154 41.1731 6.5424C41.1731 5.32326 40.8881 4.23245 40.3259 3.31007C39.7637 2.3877 38.9482 1.67386 37.8951 1.15252C36.842 0.639193 35.5593 0.374512 34.047 0.374512H27.6335V19.7284H31.537V12.7023H33.2394L37.7051 19.7284H42.3212L37.1508 12.2371C37.4121 12.1488 37.6655 12.0446 37.903 11.9323L37.8951 11.9403ZM31.537 3.75923H33.8015C34.4904 3.75923 35.0842 3.87152 35.591 4.10412C36.0898 4.33672 36.4778 4.66556 36.747 5.09868C37.0162 5.53179 37.1587 6.05314 37.1587 6.66271C37.1587 7.27228 37.0241 7.79362 36.747 8.22674C36.4778 8.65985 36.0898 8.9887 35.591 9.2213C35.0922 9.4539 34.4983 9.56618 33.8015 9.56618H31.537V3.75923Z" fill="white"/>
<path d="M56.3043 1.56938C54.7999 0.775336 53.05 0.382324 51.0547 0.382324H44.562V19.7362H51.0547C53.0579 19.7362 54.8078 19.3432 56.3043 18.5491C57.8087 17.7551 58.9726 16.6402 59.8119 15.1885C60.6512 13.7447 61.0709 12.0283 61.0709 10.0633C61.0709 8.0982 60.6512 6.38178 59.8119 4.93806C58.9726 3.49434 57.8087 2.37145 56.3043 1.5774V1.56938ZM56.5814 12.8063C56.2647 13.5683 55.8213 14.2019 55.2591 14.6992C54.6969 15.1965 54.0398 15.5574 53.2955 15.79C52.5512 16.0226 51.7594 16.1349 50.9201 16.1349H48.5447V3.97558H50.9201C51.7594 3.97558 52.5512 4.08787 53.2955 4.32047C54.0398 4.55307 54.6969 4.914 55.2591 5.41128C55.8213 5.90856 56.2647 6.54219 56.5814 7.30415C56.8981 8.06611 57.0565 8.98849 57.0565 10.0552C57.0565 11.122 56.8981 12.0444 56.5814 12.8063Z" fill="white"/>
<path d="M83.9378 2.3313H79.6304V35.5288H83.9378H86.0915H100.462V29.786H86.0915V20.7307H99.5282V15.0922H86.0915V8.06607H100.462V2.3313H86.0915H83.9378Z" fill="white"/>
<path d="M127.217 4.36855C124.644 3.01305 121.635 2.3313 118.207 2.3313H107.066V35.5288H118.207C121.643 35.5288 124.644 34.847 127.217 33.4916C129.79 32.1361 131.794 30.2111 133.235 27.7327C134.668 25.2543 135.388 22.3188 135.388 18.9341C135.388 15.5493 134.668 12.6218 133.235 10.1354C131.802 7.65702 129.79 5.73206 127.217 4.37657V4.36855ZM127.684 23.6502C127.138 24.9656 126.378 26.0484 125.412 26.8986C124.446 27.7488 123.322 28.3744 122.039 28.7674C120.756 29.1604 119.402 29.3609 117.969 29.3609H113.899V8.49918H117.969C119.402 8.49918 120.764 8.6997 122.039 9.09271C123.322 9.48572 124.446 10.1113 125.412 10.9695C126.378 11.8278 127.138 12.9105 127.684 14.2179C128.231 15.5333 128.5 17.1053 128.5 18.9341C128.5 20.7628 128.223 22.3428 127.684 23.6502Z" fill="white"/>
<path d="M147.368 2.3313H140.583V35.5288H147.368V2.3313Z" fill="white"/>
<path d="M151.161 8.45106H159.966V35.5288H166.656V8.45106H175.508V2.3313H151.161V8.45106Z" fill="white"/>
<path d="M186.087 2.3313H179.301V35.5288H186.087V2.3313Z" fill="white"/>
<path d="M220.989 6.50247C219.413 4.95449 217.576 3.75941 215.486 2.92526C213.396 2.09111 211.099 1.66602 208.605 1.66602C206.111 1.66602 203.855 2.08309 201.748 2.92526C199.642 3.75941 197.805 4.95449 196.245 6.50247C194.686 8.05046 193.466 9.87917 192.595 11.9806C191.724 14.082 191.281 16.4 191.281 18.9265C191.281 21.453 191.701 23.7389 192.548 25.8724C193.387 28.0059 194.591 29.8666 196.15 31.4467C197.71 33.0268 199.547 34.2539 201.653 35.1202C203.76 35.9864 206.08 36.4275 208.605 36.4275C211.131 36.4275 213.451 35.9944 215.557 35.1202C217.663 34.2539 219.492 33.0268 221.036 31.4467C222.58 29.8666 223.784 28.0059 224.639 25.8724C225.494 23.7389 225.93 21.4209 225.93 18.9265C225.93 16.432 225.502 14.082 224.639 11.9806C223.784 9.87917 222.565 8.05046 220.989 6.50247ZM217.521 24.573C216.666 26.2172 215.47 27.5166 213.942 28.463C212.414 29.4095 210.632 29.8827 208.605 29.8827C206.578 29.8827 204.797 29.4095 203.269 28.463C201.741 27.5166 200.537 26.2172 199.666 24.573C198.795 22.9288 198.352 21.0519 198.352 18.9265C198.352 16.801 198.787 14.9242 199.666 13.2799C200.537 11.6357 201.741 10.3363 203.269 9.38991C204.797 8.44347 206.578 7.97025 208.605 7.97025C210.632 7.97025 212.461 8.44347 213.99 9.38991C215.518 10.3363 216.705 11.6357 217.545 13.2799C218.384 14.9242 218.812 16.809 218.812 18.9265C218.812 21.0439 218.384 22.9288 217.521 24.573Z" fill="white"/>
<path d="M254.434 2.33191V22.9129L231.124 0.671631V35.5294H237.585V14.9484L260.895 37.1897V2.33191H254.434Z" fill="white"/>
</g>
<defs>
<clipPath id="clip0_825_3990">
<rect width="260.895" height="36.8068" fill="white" transform="translate(0 0.382324)"/>
</clipPath>
</defs>
</svg>
