<svg width="652" height="261" viewBox="0 0 652 261" fill="none" xmlns="http://www.w3.org/2000/svg">
<path d="M20.6581 5.39258L11.8799 79.8038L27.8873 79.8582L36.6655 5.44692L20.6581 5.39258Z" fill="white"/>
<path d="M104.046 5.65287L98.6919 51.0388C98.5288 50.8486 98.3929 50.6584 98.2298 50.4953C97.0884 49.1092 95.9198 47.7504 94.7511 46.473L50.262 0L40.8315 79.901L55.8877 79.9554L61.2416 34.6781C62.22 35.9283 63.2799 37.1513 64.367 38.3199L109.699 85.5539L119.129 5.70721L104.019 5.65287H104.046Z" fill="white"/>
<path d="M192.304 25.7681C190.592 20.5772 187.657 16.2832 183.553 12.9676C180.455 10.4129 176.65 8.56487 172.275 7.47778C167.954 6.41787 160.643 5.87432 149.962 5.81997L131.862 5.76562L123.084 80.2041L144.364 80.2584C153.251 80.2856 159.719 79.7964 164.122 78.7637C168.579 77.7038 172.737 75.8829 176.433 73.3826C181.298 70.0398 185.265 65.7729 188.173 60.6636C191.054 55.6087 192.902 49.7656 193.69 43.2702C194.451 36.7477 193.989 30.8774 192.304 25.7681ZM177.194 43.1071C176.677 47.3196 175.59 51.0429 173.933 54.1955C172.329 57.2393 170.128 59.8483 167.383 61.8866C165.426 63.3542 163.17 64.3869 160.643 65.012C158.007 65.6642 153.984 65.9904 148.712 65.9632H140.776L146.185 20.0337H152.707C158.632 20.088 162.98 20.4413 165.616 21.0936C168.089 21.7458 170.209 22.8057 171.84 24.2733C174.068 26.3388 175.672 28.9478 176.569 32.0188C177.466 35.1442 177.683 38.8947 177.194 43.1071Z" fill="white"/>
<path d="M207.762 6.0332L198.983 80.4444L214.991 80.4988L223.769 6.08757L207.762 6.0332Z" fill="white"/>
<path d="M264.917 0.720703L216.841 80.5402L233.881 80.5946L244.507 62.4674L270.815 62.5489L276.984 80.7305L294.078 80.7848L264.917 0.720703ZM252.361 48.9875L260.161 35.6706C260.487 35.0184 260.841 34.3661 261.167 33.6595C261.357 34.3933 261.547 35.0999 261.765 35.7521L266.385 49.0418L252.361 48.9875Z" fill="white"/>
<path d="M51.2322 123.645C53.5966 120.819 55.0642 117.259 55.5534 113.128C55.961 109.704 55.6349 106.524 54.6022 103.67C53.5423 100.762 51.8301 98.3706 49.52 96.5769C47.6991 95.1637 45.3891 94.1309 42.6714 93.533C40.0624 92.9351 36.1217 92.6362 30.659 92.609L10.1674 92.5547L1.38916 166.966L21.9895 167.047C29.2186 167.075 34.3551 166.667 37.6164 165.824C41.0407 164.928 44.0302 163.379 46.5033 161.204C48.8406 159.22 50.7702 156.802 52.2377 153.975C53.6781 151.203 54.6022 148.214 54.9555 145.143C55.5805 140.006 54.7109 135.658 52.4008 132.206C50.9876 130.114 49.1395 128.51 46.911 127.396C48.5688 126.363 50.0092 125.113 51.2322 123.645ZM38.6491 144.409C38.4589 145.985 37.9425 147.453 37.1272 148.73C36.3391 149.98 35.3607 150.959 34.0562 151.719C33.0506 152.345 31.6374 152.807 29.8437 153.078C27.8598 153.35 24.8159 153.513 20.7665 153.486H18.7282L20.9296 134.978H26.5553C28.811 135.005 30.6319 135.114 31.9092 135.359C33.1322 135.576 34.2192 135.93 35.0617 136.364C36.4478 137.125 37.399 138.158 38.0241 139.49C38.6491 140.876 38.8665 142.506 38.6491 144.409ZM39.3014 114.595C38.9753 117.449 37.8882 119.379 36.0129 120.466C34.5454 121.335 31.42 122.368 24.8975 122.341H22.4243L24.3267 106.089H26.827C33.7301 106.116 36.5293 107.176 37.6436 108.073C39.1383 109.241 39.6819 111.443 39.3014 114.595Z" fill="white"/>
<path d="M78.0342 153.021L85.1274 92.8239L69.1472 92.7695L60.3418 167.181L102.928 167.344L104.613 153.13L78.0342 153.021Z" fill="white"/>
<path d="M186.978 115.597C185.483 110.895 182.983 106.628 179.504 102.851C176.025 99.1818 171.867 96.3282 167.166 94.3986C162.437 92.469 157.273 91.4906 151.756 91.4635C146.239 91.4363 140.804 92.3875 135.613 94.2899C130.449 96.1923 125.612 99.0187 121.263 102.66C116.915 106.357 113.409 110.596 110.827 115.271C108.245 119.945 106.615 125 105.99 130.273C105.365 135.572 105.799 140.627 107.267 145.302C108.762 149.949 111.262 154.188 114.741 157.857C118.165 161.499 122.296 164.353 127.079 166.337C131.862 168.321 137.053 169.326 142.57 169.353C148.006 169.353 153.387 168.402 158.578 166.473C163.768 164.543 168.606 161.717 172.981 158.075C177.33 154.406 180.863 150.193 183.445 145.519C186.054 140.844 187.684 135.789 188.309 130.544C188.907 125.326 188.472 120.298 186.978 115.597ZM171.786 130.49C171.405 133.751 170.4 136.877 168.823 139.812C167.247 142.747 165.1 145.41 162.518 147.693C159.882 150.003 156.974 151.77 153.876 152.965C150.778 154.161 147.571 154.759 144.309 154.759C140.967 154.732 137.841 154.134 135.015 152.911C132.188 151.688 129.715 149.894 127.677 147.584C125.612 145.274 124.117 142.611 123.247 139.703C122.35 136.768 122.106 133.615 122.486 130.327C122.894 127.011 123.872 123.804 125.448 120.869C127.025 117.907 129.145 115.271 131.754 113.015C134.363 110.705 137.243 108.938 140.369 107.743C143.494 106.547 146.755 105.949 150.044 105.976C153.36 105.976 156.458 106.601 159.311 107.824C162.138 109.074 164.584 110.841 166.595 113.124C168.633 115.434 170.128 118.124 171.025 121.087C171.922 124.049 172.193 127.202 171.786 130.49Z" fill="white"/>
<path d="M243.845 153.015C240.013 154.373 236.018 155.08 231.968 155.053C225.065 155.053 219.766 152.797 215.798 148.204C211.803 143.584 210.254 137.877 211.096 130.729C211.966 123.337 214.928 117.521 220.119 112.928C225.31 108.362 231.479 106.134 238.98 106.161C242.839 106.161 246.481 106.841 249.824 108.145C253.194 109.45 256.346 111.433 259.2 114.042L262.054 116.651L264.962 99.9918L264.092 99.3668C260.586 96.8121 256.808 94.8825 252.895 93.6052C248.954 92.3279 244.687 91.6756 240.203 91.6484C234.496 91.6484 229.006 92.5453 223.87 94.3933C218.706 96.2414 213.95 99.0135 209.71 102.655C205.471 106.243 202.019 110.482 199.437 115.265C196.883 120.021 195.252 125.158 194.6 130.566C193.975 135.974 194.382 141.138 195.823 145.921C197.263 150.732 199.682 154.971 203.025 158.532C206.395 162.146 210.498 164.945 215.282 166.821C220.038 168.669 225.391 169.647 231.207 169.647C235.773 169.647 240.176 169.104 244.252 167.962C248.356 166.821 252.27 165.081 255.911 162.744L256.836 162.146L258.983 143.856L255.259 146.655C251.509 149.454 247.677 151.601 243.845 152.96V153.015Z" fill="white"/>
<path d="M300.224 126.973L335.038 93.6805L314.981 93.6261L288.647 119.39L291.69 93.5446L275.683 93.4902L266.905 167.901L282.912 167.956L286.717 135.778L308.785 168.065L329.385 168.119L300.224 126.973Z" fill="white"/>
<path d="M377.099 153.47C373.267 154.829 369.272 155.508 365.222 155.508C358.319 155.508 353.02 153.252 349.052 148.659C345.057 144.039 343.508 138.332 344.35 131.184C345.22 123.792 348.182 117.976 353.4 113.383C358.591 108.818 364.76 106.616 372.261 106.616C376.12 106.616 379.762 107.296 383.105 108.6C386.475 109.905 389.627 111.889 392.481 114.498L395.335 117.107L398.243 100.447L397.373 99.8219C393.867 97.2672 390.089 95.3376 386.176 94.0603C382.235 92.7829 377.968 92.1307 373.484 92.1035C367.777 92.1035 362.287 93.0004 357.151 94.8484C351.987 96.6965 347.231 99.4957 342.991 103.11C338.752 106.698 335.3 110.937 332.718 115.721C330.137 120.477 328.533 125.613 327.881 131.021C327.256 136.43 327.636 141.593 329.104 146.376C330.544 151.187 332.963 155.426 336.306 158.987C339.676 162.601 343.779 165.4 348.563 167.276C353.319 169.124 358.673 170.102 364.489 170.102C369.054 170.102 373.457 169.559 377.534 168.417C381.637 167.276 385.551 165.536 389.193 163.199L390.117 162.601L392.264 144.311L388.54 147.11C384.79 149.937 380.958 152.056 377.126 153.415L377.099 153.47Z" fill="white"/>
<path d="M456.821 94.083L453.75 120.064L421.899 119.956L424.942 93.9743L408.962 93.9199L400.157 168.331L416.164 168.385L420.214 134.169L452.065 134.278L448.043 168.494L464.05 168.549L472.829 94.1373L456.821 94.083Z" fill="white"/>
<path d="M513.701 88.7949L465.597 168.587L482.637 168.642L493.291 150.514L519.598 150.623L525.74 168.778L542.862 168.832L513.701 88.7949ZM501.118 137.062L508.918 123.718C509.271 123.065 509.597 122.413 509.95 121.707C510.141 122.44 510.331 123.147 510.521 123.799L515.168 137.089H501.118V137.062Z" fill="white"/>
<path d="M553.473 94.3984L544.695 168.837L560.675 168.864L569.48 94.4528L553.473 94.3984Z" fill="white"/>
<path d="M636.844 94.6841L631.49 140.07C631.327 139.88 631.191 139.69 631.028 139.499C629.886 138.113 628.718 136.782 627.549 135.504L583.06 89.0312L573.629 168.932L588.686 168.987L594.04 123.709C595.045 124.96 596.078 126.183 597.165 127.351L642.496 174.585L651.927 94.7385L636.816 94.6841H636.844Z" fill="white"/>
<path d="M86.3692 179.97L67.7528 217.094C66.8831 218.834 66.1222 220.41 65.4699 221.796C65.0623 220.111 64.6546 218.426 64.1926 216.741L51.8541 173.502L30.2754 215.898C30.1939 216.061 30.0308 216.415 29.7591 216.904C28.9709 218.535 28.21 220.192 27.449 221.905C27.0685 220.356 26.6337 218.589 26.1173 216.659L16.1161 179.753L0 179.698L21.6059 260.523L45.2501 215.763C45.9567 214.404 46.6633 212.963 47.3699 211.469C47.696 212.8 48.0765 214.186 48.5114 215.599L61.8825 260.605L102.621 180.025L86.3964 179.97H86.3692Z" fill="white"/>
<path d="M149.005 193.872L150.636 180.202L105.685 180.039L96.9067 254.45L141.858 254.613L143.516 240.4L114.599 240.291L116.828 221.511L145.744 221.593L147.402 207.57L118.458 207.488L120.089 193.764L149.005 193.872Z" fill="white"/>
<path d="M203.468 194.085L205.099 180.388L160.147 180.252L151.369 254.663L196.32 254.826L197.978 240.613L169.062 240.504L171.29 221.697L200.207 221.806L201.864 207.782L172.921 207.701L174.551 193.976L203.468 194.085Z" fill="white"/>
<path d="M239.138 213.922L273.952 180.63L253.869 180.575L227.534 206.339L230.578 180.494L214.597 180.439L205.792 254.851L221.799 254.905L225.604 222.727L247.672 254.987L268.3 255.068L239.138 213.922Z" fill="white"/>
<path d="M520.388 230.733C519.893 234.549 518.833 238.011 517.208 241.12C515.583 244.229 513.499 246.914 510.955 249.175C508.411 251.365 505.55 253.061 502.37 254.262C499.19 255.463 495.799 256.064 492.195 256.064C486.472 256.064 481.844 254.615 478.311 251.718C474.849 248.821 472.235 245.077 470.468 240.484L475.662 237.304C477.075 241.049 479.159 244.193 481.915 246.737C484.741 249.281 488.345 250.553 492.725 250.553C496.541 250.553 499.968 249.705 503.006 248.009C506.115 246.313 508.658 243.981 510.637 241.014C512.615 237.976 513.887 234.549 514.452 230.733C514.947 227.342 514.664 224.233 513.605 221.407C512.615 218.58 510.955 216.319 508.623 214.623C506.362 212.857 503.501 211.938 500.038 211.868C496.082 211.726 492.443 212.468 489.122 214.093C485.801 215.648 482.48 217.732 479.159 220.347L494.633 180.92H528.76L527.807 186.113H498.343L487.85 211.868C489.828 210.384 492.089 209.147 494.633 208.158C497.177 207.098 499.897 206.568 502.794 206.568C507.033 206.568 510.531 207.734 513.287 210.066C516.113 212.327 518.127 215.295 519.328 218.969C520.6 222.643 520.953 226.564 520.388 230.733Z" fill="white"/>
<path d="M410.031 255.11L449.14 218.545C450.906 216.778 452.566 215.012 454.121 213.245C455.746 211.479 457.088 209.571 458.148 207.522C459.279 205.473 460.021 203.283 460.374 200.951C460.798 198.407 460.586 195.97 459.738 193.638C458.89 191.236 457.442 189.257 455.393 187.703C453.344 186.078 450.659 185.265 447.338 185.265C443.593 185.195 440.307 186.148 437.481 188.127C434.655 190.035 432.358 192.614 430.592 195.864C428.896 199.043 427.66 202.506 426.883 206.25H421.265C422.113 201.446 423.668 197.065 425.929 193.108C428.19 189.081 431.157 185.866 434.831 183.463C438.506 180.99 442.816 179.754 447.762 179.754C452.354 179.754 456.099 180.814 458.996 182.933C461.893 185.053 463.978 187.738 465.249 190.988C466.521 194.168 466.874 197.418 466.309 200.739C465.744 204.837 464.225 208.653 461.752 212.186C459.279 215.648 456.523 218.827 453.485 221.724L422.961 249.493L460.268 249.599L459.314 255.11H410.031Z" fill="white"/>
<path d="M363.877 218.014C363.524 220.699 363.312 223.561 363.241 226.599C363.241 229.637 363.453 232.57 363.877 235.396C364.301 238.222 365.008 240.766 365.997 243.027C367.057 245.288 368.505 247.125 370.342 248.538C372.179 249.881 374.511 250.552 377.337 250.552C380.87 250.623 384.05 249.704 386.876 247.796C389.773 245.889 392.281 243.345 394.401 240.165C396.592 236.986 398.358 233.488 399.7 229.673C401.043 225.787 401.997 221.9 402.562 218.014C402.845 215.259 402.986 212.397 402.986 209.429C403.057 206.391 402.88 203.459 402.456 200.633C402.103 197.806 401.396 195.263 400.336 193.002C399.347 190.67 397.899 188.833 395.991 187.49C394.154 186.148 391.822 185.441 388.996 185.371C385.463 185.371 382.248 186.325 379.351 188.232C376.525 190.14 374.052 192.684 371.932 195.863C369.812 199.043 368.081 202.576 366.739 206.462C365.396 210.277 364.442 214.128 363.877 218.014ZM358.048 218.014C358.684 213.351 359.85 208.758 361.546 204.236C363.312 199.643 365.538 195.51 368.223 191.836C370.908 188.162 374.017 185.265 377.549 183.145C381.153 180.955 385.145 179.859 389.526 179.859C393.059 179.859 396.026 180.637 398.429 182.191C400.831 183.675 402.774 185.724 404.258 188.338C405.812 190.953 406.943 193.92 407.649 197.241C408.356 200.491 408.745 203.918 408.815 207.522C408.886 211.125 408.709 214.623 408.285 218.014C407.649 222.678 406.484 227.27 404.788 231.792C403.092 236.314 400.866 240.413 398.111 244.087C395.426 247.761 392.317 250.693 388.784 252.884C385.251 255.003 381.294 256.063 376.913 256.063C373.381 256.063 370.378 255.321 367.905 253.837C365.502 252.283 363.524 250.199 361.969 247.584C360.486 244.97 359.39 242.038 358.684 238.787C357.977 235.467 357.589 232.04 357.518 228.507C357.447 224.903 357.624 221.406 358.048 218.014Z" fill="white"/>
<path d="M294.005 255.11L333.114 218.545C334.88 216.778 336.541 215.012 338.095 213.245C339.72 211.479 341.063 209.571 342.122 207.522C343.253 205.473 343.995 203.283 344.348 200.951C344.772 198.407 344.56 195.97 343.712 193.638C342.864 191.236 341.416 189.257 339.367 187.703C337.318 186.078 334.633 185.265 331.312 185.265C327.567 185.195 324.281 186.148 321.455 188.127C318.629 190.035 316.333 192.614 314.566 195.864C312.87 199.043 311.634 202.506 310.857 206.25H305.239C306.087 201.446 307.642 197.065 309.903 193.108C312.164 189.081 315.131 185.866 318.806 183.463C322.48 180.99 326.79 179.754 331.736 179.754C336.329 179.754 340.073 180.814 342.97 182.933C345.867 185.053 347.952 187.738 349.223 190.988C350.495 194.168 350.849 197.418 350.283 200.739C349.718 204.837 348.199 208.653 345.726 212.186C343.253 215.648 340.497 218.827 337.459 221.724L306.935 249.493L344.242 249.599L343.288 255.11H294.005Z" fill="white"/>
</svg>
