<svg width="277" height="100" viewBox="0 0 277 100" fill="none" xmlns="http://www.w3.org/2000/svg">
<mask id="mask0_93_46112" style="mask-type:luminance" maskUnits="userSpaceOnUse" x="3" y="2" width="86" height="85">
<path d="M88.6599 2.54102H3.0957V86.4779H88.6599V2.54102Z" fill="white"/>
</mask>
<g mask="url(#mask0_93_46112)">
<path opacity="0.4" d="M88.5426 21.8974C88.3963 21.8974 88.2645 21.9119 88.1328 21.9264L88.4841 21.709C88.4841 21.709 88.528 21.8394 88.5426 21.9119V21.8974Z" fill="white"/>
<path d="M88.3545 24.327L88.3253 24.3849L88.2668 24.5441L81.3252 41.1462C81.2521 41.3199 81.1644 41.4936 81.0914 41.6529C81.0621 41.7397 81.0037 41.8121 80.9598 41.9134C80.916 42.0002 80.8722 42.0726 80.8429 42.145C80.7845 42.2608 80.7114 42.3766 80.653 42.5068C80.6237 42.5503 80.6091 42.5937 80.5945 42.6226C80.5068 42.7674 80.4191 42.9121 80.3168 43.0569V43.0713C79.0162 45.0543 77.1602 46.5886 74.9097 47.515H74.8658L64.8699 51.6691L64.373 51.8718L56.6276 55.0851L53.6026 62.438L52.6965 64.6526L49.3353 72.8451C48.4 75.0742 46.8509 76.9124 44.8634 78.2006C44.8634 78.2006 44.8488 78.2006 44.8342 78.2006C44.6881 78.302 44.5419 78.3888 44.3958 78.4757L44.2789 78.548C44.162 78.6059 44.045 78.6783 43.9281 78.7362C43.8405 78.7796 43.7674 78.823 43.6797 78.852C43.592 78.8954 43.5189 78.9388 43.4313 78.9823C43.2705 79.0691 43.0805 79.1415 42.9198 79.2139L28.7881 85.0036L26.0407 86.1326L25.9238 86.176C24.8277 86.6247 23.5855 86.5668 22.5333 86.0168L21.0719 85.2497L20.8235 85.1194L5.23044 76.9269C4.20746 76.3913 3.69597 75.2044 4.04671 74.0899L8.66471 59.1813L9.32234 57.0825L9.62923 56.0983C9.97996 54.9548 9.97996 53.7245 9.62923 52.5665L9.32234 51.5533L8.6501 49.3966L4.01748 34.6038C3.68136 33.5038 4.17823 32.3024 5.20121 31.7669L19.4936 24.2691L21.0281 23.4586L21.9926 22.952C23.074 22.3875 23.9509 21.5045 24.5208 20.4479L25.0031 19.5505L25.4561 18.6965L33.4061 3.81684C33.9468 2.80363 35.1452 2.3115 36.2704 2.64441L53.398 7.85519H53.4418L54.4356 8.17362C55.5901 8.52101 56.8322 8.52101 58.0014 8.17362L59.0389 7.86966L60.8218 7.31963L76.1519 2.65889C77.2625 2.3115 78.4755 2.8181 79.0162 3.83131L86.0016 16.8727L87.4192 19.536L88.1791 20.969C88.7345 22.0111 88.7929 23.2414 88.3399 24.327H88.3545Z" fill="url(#paint0_linear_93_46112)"/>
<path d="M88.2004 20.969L87.4405 19.536L86.0229 16.8727L79.0229 3.83131C78.4821 2.8181 77.2692 2.3115 76.1585 2.65889L60.8285 7.31963L59.0456 7.86966L58.008 8.17362C56.8389 8.52101 55.5967 8.52101 54.4422 8.17362L53.4485 7.86966H53.4046L36.2771 2.64441C35.1665 2.3115 33.9535 2.80363 33.4128 3.81684L25.4628 18.682L25.0098 19.536L24.5275 20.4334C23.9576 21.5045 23.0807 22.3875 21.9993 22.9375L21.0348 23.4441L19.5003 24.2547L5.20791 31.7669C4.18494 32.3024 3.68806 33.4893 4.02418 34.6038L8.61296 49.4256L9.2852 51.5823L9.59209 52.5955C9.94282 53.7534 9.94282 54.9837 9.59209 56.1272L9.2852 57.1115L8.62757 59.2103L4.00957 74.1189C3.65883 75.2189 4.17032 76.4203 5.1933 76.9558L20.7864 85.1483L21.0348 85.2786L22.4962 86.0458C23.5484 86.5958 24.7906 86.6537 25.8866 86.205L26.0035 86.1615L28.7509 85.0325L42.8826 79.2428C43.058 79.1704 43.2334 79.0981 43.3941 79.0112C43.4818 78.9678 43.5549 78.9244 43.6425 78.8809C43.7302 78.8375 43.8033 78.7941 43.891 78.7651C44.0079 78.7072 44.1248 78.6349 44.2417 78.577L44.3586 78.5046C44.5048 78.4178 44.6509 78.3309 44.797 78.2296C44.797 78.2296 44.8117 78.2296 44.8263 78.2296C46.8138 76.9414 48.3775 75.1031 49.2981 72.8741L52.6593 64.6816L53.5654 62.467L56.5905 55.114L64.3359 51.9007L64.8327 51.6981L74.8287 47.5584H74.8725C77.1231 46.6176 78.979 45.0833 80.2797 43.1003C80.2797 43.1003 80.2797 43.1003 80.2797 43.0858C80.3673 42.9411 80.455 42.7963 80.5573 42.6516C80.5865 42.6226 80.6012 42.5792 80.6158 42.5358C80.6742 42.4055 80.7473 42.3042 80.8058 42.1739C80.8496 42.1016 80.8934 42.0147 80.9227 41.9423C80.9665 41.8555 81.0104 41.7686 81.0542 41.6818C81.1419 41.5081 81.215 41.3344 81.288 41.1752L88.2296 24.5731L88.2881 24.4139L88.3173 24.356C88.7703 23.2704 88.7119 22.0401 88.1566 20.9979L88.2004 20.969ZM58.198 10.4461C58.4611 9.89607 58.9287 9.50526 59.4987 9.33157L76.6262 4.1208C77.0354 3.99053 77.4738 4.16422 77.6638 4.54055L86.0522 20.2163C86.3444 20.7374 86.3883 21.3598 86.1691 21.9243C85.9645 22.4888 85.5407 22.923 84.9854 23.1546L67.3025 30.4063C66.601 30.6957 65.7826 30.3628 65.4904 29.6536L64.5258 27.3377C64.5258 27.3377 64.4966 27.2653 64.482 27.2364L58.1688 12.1396C57.9496 11.5896 57.9642 10.9961 58.2126 10.4606L58.198 10.4461ZM56.722 12.7186C56.722 12.7186 56.722 12.733 56.722 12.7475L63.0645 27.9167C64.1167 30.4786 64.1313 33.3011 63.1083 35.8776L56.6343 51.3507C56.5174 51.5823 56.3128 51.6112 56.2251 51.6112C56.1375 51.6112 55.9036 51.5823 55.7867 51.3217L49.415 36.0657C49.415 36.0657 49.3858 36.0078 49.3712 35.9789C48.2898 33.3446 48.3044 30.4497 49.4004 27.8153L50.3065 25.6442L55.7136 12.7186C55.9036 12.2843 56.532 12.2843 56.7074 12.7186H56.722ZM26.3981 20.2308L34.7865 4.54055C34.9473 4.25107 35.2541 4.07737 35.561 4.07737C35.6487 4.07737 35.7364 4.07737 35.8095 4.10632L52.937 9.3171C53.5069 9.49079 53.9746 9.89607 54.2376 10.4316C54.5007 10.9817 54.5153 11.5751 54.2815 12.1396L47.9683 27.2219L46.9453 29.6536C46.653 30.3484 45.8346 30.6813 45.1185 30.3918L42.7365 29.4075C42.7365 29.4075 42.6926 29.3931 42.678 29.3786L27.4503 23.1257C26.895 22.8941 26.4712 22.4598 26.2666 21.8953C26.062 21.3308 26.1058 20.7229 26.3835 20.1873L26.3981 20.2308ZM26.8658 24.5731H26.8804L42.1665 30.855C44.797 31.955 46.843 33.9814 47.9537 36.5723C47.9537 36.6013 47.9683 36.6302 47.9829 36.6592L54.3546 51.9152C54.4569 52.1757 54.3107 52.3494 54.2523 52.4218C54.1938 52.4942 54.0038 52.6244 53.7408 52.5231L38.3377 46.1978C38.3377 46.1978 38.2792 46.1689 38.2354 46.1689C35.6049 45.0543 33.5443 42.999 32.4483 40.3791L26.1351 25.2823C25.9597 24.8481 26.3981 24.3994 26.8365 24.5876L26.8658 24.5731ZM53.4631 54.3613C53.4631 54.4482 53.4339 54.6798 53.1708 54.7811L37.7677 61.1064C37.7677 61.1064 37.7093 61.1354 37.6801 61.1498C35.0203 62.2065 32.0975 62.2065 29.4378 61.1209L14.2101 54.868H14.1955C13.7571 54.6798 13.7571 54.0574 14.1955 53.8692H14.2101L29.5401 47.5873C32.1706 46.5307 35.0496 46.5452 37.6801 47.5873C37.7093 47.5873 37.7385 47.6163 37.7677 47.6308L53.1708 53.9416C53.4193 54.0574 53.4631 54.289 53.4631 54.3758V54.3613ZM5.50019 34.1406C5.38328 33.7354 5.55865 33.3156 5.93861 33.113L21.7655 24.8047C22.0724 24.6455 22.4231 24.5586 22.7592 24.5586C22.9931 24.5586 23.2415 24.602 23.4753 24.6889C24.0453 24.8915 24.4837 25.3113 24.7175 25.8613L32.0391 43.3753C32.3314 44.0845 31.9952 44.8951 31.2792 45.1846L28.9263 46.1399C28.9263 46.1399 28.8679 46.1688 28.824 46.1833L13.5671 52.4363C13.0117 52.6534 12.4126 52.6389 11.8719 52.3928C11.3165 52.1323 10.922 51.6836 10.7466 51.1046L5.48558 34.1406H5.50019ZM24.7175 82.8469C24.4837 83.3969 24.0453 83.8022 23.4753 84.0193C22.9054 84.222 22.2916 84.1786 21.7655 83.8891L5.93861 75.5808C5.57326 75.3926 5.38328 74.9439 5.5148 74.5531L10.7758 57.5891C10.9512 57.0246 11.3458 56.5615 11.9011 56.3009C12.1934 56.1706 12.5003 56.0983 12.8072 56.0983C13.0702 56.0983 13.3625 56.1562 13.6255 56.2575L28.8532 62.5104L31.3084 63.5236C32.0099 63.8131 32.3606 64.6237 32.0683 65.3329L31.0746 67.6922C31.0746 67.6922 31.0453 67.7357 31.0453 67.7646L24.7321 82.8614L24.7175 82.8469ZM52.1771 61.8736L51.271 64.0737C51.271 64.0737 51.271 64.0881 51.271 64.1026L47.9098 72.2661V72.2951C47.3545 73.6123 46.5361 74.7702 45.5424 75.7255C45.5424 75.7255 45.5424 75.74 45.5277 75.74C45.0601 76.1887 44.5632 76.5795 44.0225 76.9269C43.891 77.0137 43.7595 77.1006 43.6279 77.173C43.5987 77.1874 43.5695 77.2019 43.5402 77.2164C43.438 77.2743 43.321 77.3322 43.2041 77.4045C43.1457 77.4335 43.0872 77.4624 43.0141 77.4914C42.9265 77.5348 42.8534 77.5782 42.7657 77.6072C42.6196 77.6651 42.4588 77.7519 42.3127 77.8098L26.8511 84.1496C26.4127 84.3233 25.9597 83.8891 26.1497 83.4404L32.4775 68.2712C33.5882 65.6658 35.6341 63.6539 38.25 62.5538C38.2792 62.5394 38.3085 62.5249 38.3377 62.5104L53.7408 56.1851L54.0477 56.0693C54.2523 55.9825 54.4569 55.8956 54.6614 55.7798L52.1625 61.8736H52.1771ZM86.3152 25.2534L79.9143 40.5528C79.8559 40.712 79.7828 40.8568 79.7097 41.016C79.6805 41.0739 79.6513 41.1607 79.6074 41.2331C79.5782 41.3055 79.5343 41.3778 79.5051 41.4502C79.4467 41.5515 79.3882 41.6528 79.3298 41.7542C79.3151 41.7976 79.2859 41.8265 79.2713 41.87C79.1982 41.9858 79.1105 42.116 79.0375 42.2318C79.0375 42.2318 79.0229 42.2463 79.0229 42.2608C78.6721 42.7818 78.2775 43.274 77.8391 43.7372C77.8391 43.7372 77.8245 43.7516 77.8245 43.7661C76.9915 44.6346 75.9978 45.3438 74.8725 45.8649C74.6971 45.9517 74.5072 46.0386 74.3172 46.1254L64.219 50.3085L63.839 50.4677L57.5404 53.0731C57.7158 52.7981 57.8473 52.5086 57.9788 52.2191L58.0957 51.9586C58.0957 51.9586 58.1103 51.9297 58.1249 51.9152L64.4966 36.6592C64.4966 36.6592 64.5405 36.5434 64.5697 36.471C65.6365 33.9235 67.624 31.955 70.1668 30.9129L85.6137 24.5731C86.0522 24.3994 86.5052 24.8336 86.3152 25.2679V25.2534Z" fill="white"/>
<path opacity="0.4" d="M5.47852 75.0119V75.229L5.53697 75.2001C5.50774 75.1422 5.49313 75.0698 5.47852 75.0264V75.0119ZM88.4856 21.6883L88.1349 21.9054C88.2664 21.9054 88.3979 21.8909 88.5441 21.8765C88.5295 21.8186 88.5149 21.7462 88.4856 21.6738V21.6883Z" fill="white"/>
<path opacity="0.4" d="M63.1156 35.861L56.6416 51.3342C56.5247 51.5657 56.3201 51.5802 56.2324 51.5802V12.3691C56.437 12.3691 56.6416 12.4705 56.7293 12.7021C56.7293 12.7021 56.7293 12.7165 56.7293 12.731L63.0717 27.9001C64.1239 30.4621 64.1386 33.2846 63.1156 35.861Z" fill="white"/>
<path opacity="0.4" d="M86.311 25.2572L79.9101 40.5566C79.8516 40.7158 79.7786 40.8605 79.7055 41.0053C79.6763 41.0632 79.6324 41.15 79.6032 41.2224C79.574 41.2948 79.5301 41.3671 79.5009 41.4395C79.4424 41.5408 79.384 41.6422 79.3255 41.7435C79.3109 41.7869 79.2817 41.8158 79.2671 41.8593C79.194 41.9751 79.1063 42.1053 79.0333 42.2211C79.0333 42.2211 79.0186 42.2356 79.0186 42.2501C78.6679 42.7712 78.2733 43.2633 77.8349 43.7265C77.8349 43.7265 77.8203 43.7409 77.8203 43.7554C76.9873 44.6239 75.9936 45.3331 74.8829 45.8542C74.7075 45.941 74.5176 46.0279 74.3276 46.1003L64.2293 50.2833L63.8494 50.4426L57.5508 53.048L86.1941 24.6348C86.3548 24.7795 86.4425 24.9966 86.3402 25.2427L86.311 25.2572Z" fill="white"/>
<path opacity="0.4" d="M54.2669 52.3953L26.252 24.7058C26.3981 24.5466 26.6173 24.4598 26.8657 24.5611H26.8804L42.1665 30.843C44.797 31.943 46.843 33.9694 47.9536 36.5604C47.9536 36.5893 47.9683 36.6182 47.9829 36.6472L54.3545 51.9032C54.4568 52.1637 54.3107 52.3374 54.2522 52.4098L54.2669 52.3953Z" fill="white"/>
<path opacity="0.4" d="M53.4495 54.3443H13.8457C13.8457 54.1561 13.9626 53.939 14.1818 53.8521H14.1964L29.5264 47.5703C32.157 46.5136 35.0359 46.5281 37.6664 47.5703C37.6956 47.5703 37.7249 47.5992 37.7541 47.6137L53.1572 53.9245C53.4202 54.0403 53.4495 54.2719 53.4495 54.3587V54.3443Z" fill="white"/>
<path opacity="0.4" d="M54.6717 55.7773L26.2623 84.0168C26.1161 83.8721 26.043 83.655 26.1453 83.4379L32.4878 68.2687C33.5838 65.6633 35.6444 63.6514 38.2603 62.5514C38.2895 62.5369 38.3187 62.5224 38.348 62.5079L53.751 56.1826L54.0579 56.0668C54.2625 55.98 54.4671 55.8931 54.6717 55.7773Z" fill="white"/>
<path opacity="0.4" d="M23.4584 84.0251C22.8885 84.2277 22.2747 84.1843 21.7486 83.9093L5.9217 75.601C5.76095 75.5141 5.62942 75.3694 5.54174 75.2102L5.45405 75.2391V75.022C5.43944 74.8773 5.43944 74.718 5.48328 74.5588L5.52712 74.4141L10.7297 57.5949C10.905 57.0304 11.2996 56.5672 11.855 56.3066L17.6275 70.1152L17.6567 70.1731L23.4438 84.0106L23.4584 84.0251Z" fill="white"/>
<path opacity="0.4" d="M54.2537 10.4508L40.3121 16.1826L26.2827 21.9434C26.0781 21.3789 26.1219 20.771 26.3996 20.2354L34.788 4.54521C34.8903 4.35704 35.051 4.22678 35.241 4.1544C35.3433 4.11098 35.4602 4.08203 35.5771 4.08203C35.6648 4.08203 35.7525 4.08203 35.8256 4.11098L52.9531 9.32175C53.523 9.49545 53.9907 9.90073 54.2537 10.4363V10.4508Z" fill="white"/>
<path opacity="0.4" d="M32.0223 64.2448L17.686 70.1793L5.55643 75.2019L5.46875 75.2308V75.0137L5.55643 74.4058L10.759 57.5866C10.9344 57.0221 11.3289 56.5589 11.8843 56.2983C12.1765 56.1681 12.4834 56.0957 12.7903 56.0957C13.0534 56.0957 13.3457 56.1536 13.6087 56.2549L28.8364 62.5079L31.2916 63.5211C31.6423 63.6658 31.8907 63.9263 32.0369 64.2448H32.0223Z" fill="white"/>
<path opacity="0.4" d="M54.2471 10.448C54.5101 10.998 54.5247 11.5915 54.2909 12.156L47.9777 27.2383L46.9547 29.67C46.8232 29.9884 46.5894 30.2345 46.2825 30.3792L40.2908 16.1799L35.2197 4.16612C35.322 4.1227 35.4389 4.09375 35.5558 4.09375C35.6435 4.09375 35.7312 4.09375 35.8043 4.1227L52.9318 9.33347C53.5018 9.50716 53.9694 9.91245 54.2325 10.448H54.2471Z" fill="white"/>
<path opacity="0.4" d="M26.8621 42.364L11.8829 52.4092C11.3275 52.1487 10.9329 51.7 10.7576 51.121L5.49656 34.1571C5.43811 33.9834 5.45272 33.7952 5.49656 33.6215L5.58425 33.4478C5.67193 33.3031 5.77423 33.1873 5.93498 33.1149L21.7619 24.8066C22.0688 24.6474 22.4049 24.5605 22.7556 24.5605C22.9894 24.5605 23.2379 24.604 23.4717 24.6908L26.8621 42.364Z" fill="white"/>
<path opacity="0.4" d="M86.0495 20.2149C86.3418 20.7505 86.3856 21.3584 86.1664 21.9229L68.4105 25.2954L58.21 10.4447C58.473 9.89468 58.9407 9.50387 59.5106 9.33018L76.6381 4.1194C76.9012 4.03256 77.1496 4.07598 77.3688 4.20625C77.5003 4.29309 77.6026 4.39441 77.6757 4.53916L86.0641 20.2149H86.0495Z" fill="white"/>
<path opacity="0.4" d="M86.0495 20.2149C86.3418 20.7505 86.3856 21.3584 86.1664 21.9229L68.4105 25.2954L58.21 10.4447C58.473 9.89468 58.9407 9.50387 59.5106 9.33018L76.6381 4.1194C76.9012 4.03256 77.1496 4.07598 77.3688 4.20625C77.5003 4.29309 77.6026 4.39441 77.6757 4.53916L86.0641 20.2149H86.0495Z" fill="#FAD9A1"/>
<path opacity="0.4" d="M32.0058 44.4628L26.8617 42.364L5.49609 33.6215L5.58378 33.4478C5.67146 33.3031 5.77376 33.1873 5.93451 33.1149L21.7614 24.8066C22.0683 24.6474 22.419 24.5605 22.7551 24.5605C22.989 24.5605 23.2374 24.604 23.4712 24.6908C24.0412 24.8935 24.4796 25.3132 24.7134 25.8632L32.035 43.3772C32.1811 43.7391 32.1665 44.1299 32.0058 44.4628Z" fill="white"/>
<path opacity="0.4" d="M86.1668 21.9248C85.9622 22.4893 85.5384 22.9235 84.9831 23.1551L67.3002 30.4068C66.9495 30.5515 66.5695 30.5515 66.2334 30.4068L68.3963 25.2973L77.34 4.22266C77.4715 4.3095 77.5738 4.41082 77.6469 4.55557L86.0353 20.2313C86.3276 20.7669 86.3714 21.3748 86.1522 21.9393L86.1668 21.9248Z" fill="#FFFACC" fill-opacity="0.79"/>
<path d="M88.1528 21.184L78.9753 4.04635C78.3469 2.84498 76.9293 2.266 75.6287 2.67128L57.4636 8.18602C56.3675 8.51893 55.213 8.51893 54.1462 8.18602L35.9957 2.65681C35.7181 2.56996 35.4404 2.54102 35.1627 2.54102C34.1251 2.54102 33.146 3.09104 32.6491 4.03188L23.7492 20.6485C23.2085 21.6617 22.3901 22.4722 21.3964 22.9933L4.60499 31.8227C3.40665 32.4451 2.82209 33.8346 3.21667 35.1373L8.79919 53.1289C9.12069 54.2145 9.12069 55.358 8.79919 56.4291L3.21667 74.3918C2.80748 75.68 3.39203 77.0696 4.60499 77.7064L21.9225 86.7963C23.0624 87.4043 24.4507 87.4766 25.6637 86.97L42.8496 79.9355C42.9666 79.8921 43.0835 79.8342 43.1712 79.7763L43.7119 79.5157C43.8142 79.4723 43.9019 79.4144 44.0188 79.342L44.2672 79.1973C44.3403 79.1539 44.428 79.1104 44.501 79.0526L44.6764 78.9512C46.7516 77.6051 48.3591 75.6945 49.2944 73.4075L53.5617 63.0294C53.6786 62.7399 57.0982 54.1711 56.9667 53.8816C56.8498 53.5921 56.426 54.7066 56.1483 54.5909C55.856 54.4606 55.1984 54.1711 54.9208 54.2869C54.6285 54.4172 51.4865 61.8425 51.3842 62.132L47.0585 72.6549C46.5177 73.8707 45.7724 74.9418 44.8225 75.8392L44.7202 75.9406C44.311 76.3169 43.858 76.6787 43.3611 76.9972C43.2296 77.084 43.1127 77.1564 42.9812 77.2433L42.762 77.359C42.762 77.359 42.6743 77.4025 42.6304 77.4314L42.5428 77.4748C42.5428 77.4748 42.4843 77.5038 42.4258 77.5327L42.0605 77.7064C41.9728 77.7499 41.8851 77.7933 41.7828 77.8222L25.9998 84.3067L32.4591 68.8626C33.5113 66.373 35.4842 64.419 37.9978 63.3478L38.0855 63.3189L53.8101 56.8633C55.6515 56.1107 57.1567 54.6198 57.9166 52.796L64.5221 37.019C65.5305 34.5873 67.4449 32.7056 69.9 31.6924L85.6392 25.2368L79.0776 40.9415C79.0337 41.0428 78.9753 41.1586 78.9314 41.2455L78.8145 41.4916C78.8145 41.4916 78.7853 41.5494 78.7415 41.6508L78.5807 41.9258L78.2154 42.4758V42.5337L78.1861 42.5771C77.8939 43.0114 77.5431 43.4456 77.1632 43.8364L76.9586 44.039C76.184 44.7917 75.2926 45.4141 74.2988 45.8918C74.1381 45.9786 73.9481 46.051 73.7727 46.1234L57.0105 53.0566C56.4552 53.2882 56.046 54.0264 56.1922 54.5764C56.3237 55.1119 55.6515 55.0975 56.1922 55.0975C56.3529 55.0975 56.4698 55.1554 56.6014 55.0975L74.6788 48.2945C76.9732 47.3537 78.8876 45.7904 80.2467 43.7496L80.349 43.6338V43.5903L80.4221 43.4601C80.4221 43.4601 80.4951 43.3443 80.5244 43.2864C80.5536 43.243 80.5828 43.1995 80.6267 43.1127L80.8605 42.6784C80.8605 42.6784 80.9189 42.5627 80.9482 42.4903L81.1528 42.0705C81.2112 41.9547 81.2697 41.8389 81.3135 41.7231L88.3428 24.8894C88.8397 23.6736 88.7812 22.3275 88.1674 21.1695L88.1528 21.184ZM26.3359 20.8221L34.7243 5.1464C34.8266 4.98718 34.9874 4.90034 35.2212 4.90034H35.2796L52.4072 10.1256C52.8748 10.2559 53.2402 10.5743 53.4594 11.0085C53.664 11.4572 53.6786 11.9494 53.5032 12.3981L46.167 29.9265C46.0647 30.1581 45.8747 30.3463 45.6263 30.4621C45.4948 30.5055 45.3779 30.5345 45.2463 30.5345C45.1148 30.5345 44.9833 30.5055 44.8664 30.4621L27.1981 23.2104C26.7451 23.0223 26.409 22.6604 26.2482 22.2117C26.0875 21.7485 26.1167 21.2564 26.3359 20.8366V20.8221ZM5.48183 34.4281C5.42337 34.2109 5.51105 33.9938 5.71565 33.878L21.5425 25.5553C21.981 25.3237 22.4778 25.2947 22.9309 25.4684C23.3839 25.6276 23.7492 25.9606 23.9392 26.4093L31.2608 43.9088C31.4654 44.4154 31.2316 44.9799 30.7347 45.197L13.0372 52.4486C12.818 52.5355 12.6134 52.5789 12.3796 52.5789C12.1312 52.5789 11.8973 52.521 11.6489 52.4197C11.2105 52.2026 10.9036 51.8552 10.7428 51.392L5.48183 34.4281ZM31.2462 65.5769L23.91 83.0909C23.7346 83.5396 23.3693 83.8725 22.9016 84.0317C22.7117 84.1041 22.5217 84.133 22.3171 84.133C22.0394 84.133 21.7764 84.0752 21.5279 83.9304L5.70103 75.6366C5.49644 75.5353 5.40876 75.2892 5.48183 75.0721L10.7428 58.1081C10.889 57.645 11.2105 57.2831 11.6343 57.0804C12.0727 56.8778 12.555 56.8633 13.0226 57.037L30.7055 64.3032C31.2023 64.5203 31.4508 65.0848 31.2462 65.5769ZM37.1941 61.1043L37.121 61.1333C35.835 61.6544 34.4905 61.9149 33.146 61.9149C31.8015 61.9149 30.4424 61.6544 29.1564 61.1333L14.1771 54.9672V54.504L29.2441 48.3235C31.7723 47.3247 34.5635 47.3247 37.0918 48.3235L52.261 54.5474L52.6118 54.7645L37.1941 61.0899V61.1043ZM38.1293 46.2102C38.1293 46.2102 38.027 46.1668 37.9978 46.1668C35.4404 45.0667 33.4675 43.0982 32.4153 40.5941L25.9852 25.2079L41.5782 31.6056C44.0918 32.6622 46.0647 34.6017 47.1315 37.0769C47.1608 37.1348 47.1608 37.1782 47.1754 37.1927L53.6055 52.5644L38.1147 46.2102H38.1293ZM62.3154 36.1071L55.8122 51.667L49.3382 36.1795C48.3153 33.6609 48.3299 30.8818 49.3821 28.3633L55.8122 12.977L62.2862 28.4501C63.2945 30.9108 63.3092 33.6175 62.3154 36.1071ZM85.3616 22.1683C85.2154 22.6314 84.8647 22.9788 84.4117 23.167L66.7288 30.4187C66.5973 30.4621 66.4804 30.4766 66.3489 30.4766C66.2173 30.4766 66.1004 30.4476 65.9835 30.4042C65.7351 30.3029 65.5451 30.1147 65.4428 29.8686L58.1212 12.3546C57.9312 11.9204 57.9458 11.4283 58.1504 11.0085C58.3696 10.5743 58.735 10.2414 59.2026 10.1111L76.3302 4.90034C76.3302 4.90034 76.4325 4.87139 76.4763 4.87139C76.6517 4.87139 76.8124 4.97271 76.8855 5.11745L85.2739 20.8077C85.4054 21.0393 85.4639 21.2998 85.4639 21.5748C85.4639 21.7919 85.4346 21.9946 85.3616 22.1683Z" fill="white"/>
<path opacity="0.38" d="M86.0622 20.3028C86.3545 20.8383 86.3983 21.4463 86.1938 22.0108L68.4378 25.3833L58.2373 10.5326C58.5004 9.98257 58.9534 9.59176 59.5379 9.41807L76.6655 4.20729C76.9285 4.12045 77.177 4.16387 77.3962 4.29414C77.5277 4.38098 77.63 4.49678 77.7031 4.62705L86.0915 20.3028H86.0622Z" fill="#FFFA87" fill-opacity="0.19"/>
</g>
<path d="M95.7327 21.5234L92.123 51.7894H98.6993L102.309 21.5524H95.7327V21.5234Z" fill="white"/>
<path d="M129.148 34.1744C130.112 33.0164 130.726 31.569 130.916 29.89C131.092 28.5004 130.945 27.1977 130.522 26.0398C130.083 24.8529 129.382 23.8831 128.432 23.1594C127.686 22.5804 126.737 22.1607 125.611 21.9291C124.544 21.683 122.922 21.5672 120.672 21.5527H112.254L108.645 51.7897L117.106 51.8186C120.073 51.8186 122.192 51.6594 123.522 51.3265C124.924 50.9647 126.152 50.3278 127.175 49.4449C128.14 48.6343 128.929 47.65 129.528 46.5065C130.112 45.3776 130.492 44.1617 130.639 42.9169C130.902 40.8326 130.536 39.0667 129.586 37.6627C129.002 36.8087 128.242 36.1574 127.336 35.7087C128.023 35.2889 128.607 34.7823 129.104 34.1889L129.148 34.1744ZM123.975 42.6129C123.901 43.2498 123.682 43.8577 123.346 44.3643C123.025 44.8709 122.615 45.2762 122.089 45.5802C121.68 45.8407 121.096 46.0289 120.365 46.1302C119.547 46.246 118.304 46.3039 116.638 46.3039H115.805L116.711 38.7772H119.02C119.941 38.7772 120.701 38.8351 121.213 38.9365C121.709 39.0233 122.162 39.168 122.513 39.3417C123.083 39.6457 123.478 40.0655 123.726 40.6155C123.975 41.18 124.077 41.8458 123.975 42.6129ZM124.238 30.4834C124.106 31.6414 123.653 32.423 122.893 32.8717C122.294 33.2336 121.008 33.6533 118.334 33.6388H117.325L118.1 27.024H119.123C121.958 27.024 123.112 27.4728 123.565 27.8346C124.179 28.3123 124.398 29.2097 124.238 30.4834Z" fill="white"/>
<path d="M169.121 22.0368L161.609 36.1783C161.259 36.8441 160.952 37.4376 160.689 37.9731C160.528 37.3362 160.353 36.6849 160.177 36.048L155.208 19.5762L146.513 35.7296C146.513 35.7296 146.411 35.9322 146.309 36.1059C145.987 36.7283 145.68 37.3652 145.373 38.0165C145.212 37.4231 145.037 36.7573 144.833 36.0191L140.799 21.9644H134.296L143.006 52.7225L152.534 35.6717C152.812 35.1506 153.104 34.6006 153.382 34.0361C153.513 34.5427 153.674 35.0638 153.849 35.6138L159.242 52.7514L175.668 22.0658H169.121V22.0513V22.0368Z" fill="white"/>
<path d="M269.016 61.5859L255.703 93.4296L55.4365 93.4296L68.7498 61.586L269.016 61.5859Z" fill="white"/>
<path d="M233.393 86.7451L234.004 83.2052H242.816L242.205 86.7451H233.393ZM235.838 72.4579L236.475 68.918H245.261L244.624 72.4579H235.838ZM234.692 79.1049L235.303 75.6414H243.605L242.994 79.1049H234.692ZM233.673 68.918H237.773L234.692 86.7451H230.643L233.673 68.918Z" fill="#111111"/>
<path d="M218.476 77.8321C218.357 78.5452 218.365 79.2158 218.501 79.844C218.637 80.4722 218.892 81.024 219.265 81.4994C219.639 81.9748 220.106 82.3483 220.666 82.62C221.226 82.8916 221.871 83.0274 222.601 83.0274C223.79 83.0444 224.843 82.8152 225.759 82.3398C226.693 81.8644 227.525 81.3296 228.255 80.7354L227.568 85.345C226.77 85.8883 225.921 86.3297 225.021 86.6693C224.121 86.9919 223.085 87.1532 221.914 87.1532C220.556 87.1532 219.325 86.9155 218.221 86.4401C217.134 85.9647 216.235 85.3025 215.521 84.4536C214.825 83.5877 214.325 82.5945 214.019 81.4739C213.713 80.3364 213.654 79.1224 213.841 77.8321C214.044 76.4908 214.46 75.2514 215.089 74.1139C215.734 72.9763 216.549 71.9916 217.533 71.1596C218.518 70.3277 219.63 69.6825 220.87 69.2241C222.109 68.7487 223.433 68.511 224.843 68.511C225.963 68.4941 226.931 68.6469 227.746 68.9695C228.578 69.292 229.35 69.742 230.063 70.3192L229.35 74.9543C228.824 74.2582 228.179 73.6979 227.415 73.2734C226.651 72.832 225.725 72.6113 224.639 72.6113C223.892 72.6113 223.179 72.7386 222.5 72.9933C221.82 73.248 221.201 73.613 220.64 74.0884C220.08 74.5468 219.613 75.0986 219.24 75.7438C218.866 76.372 218.612 77.0681 218.476 77.8321Z" fill="#111111"/>
<path d="M208.706 68.9185H212.807L209.598 87.5861L199.538 76.6861L197.806 86.7457H193.706L196.889 68.0781L206.975 78.9782L208.706 68.9185Z" fill="#111111"/>
<path d="M181.589 86.7451L182.201 83.2052H191.012L190.401 86.7451H181.589ZM184.034 72.4579L184.671 68.918H193.457L192.82 72.4579H184.034ZM182.888 79.1049L183.499 75.6414H191.802L191.191 79.1049H182.888ZM181.869 68.918H185.97L182.888 86.7451H178.839L181.869 68.918Z" fill="#111111"/>
<path d="M168.605 78.672H172.884L176.882 86.7451H172.069L168.605 78.672ZM165.88 68.918H170.133L167.052 86.7451H162.85L165.88 68.918ZM167.892 72.5598L168.503 68.918H172.094C173.436 68.918 174.565 69.1642 175.481 69.6565C176.415 70.1319 177.103 70.8026 177.544 71.6684C178.003 72.5343 178.156 73.5615 178.003 74.75C177.833 75.9215 177.4 76.9487 176.704 77.8315C176.025 78.7144 175.142 79.3935 174.055 79.8689C172.969 80.3274 171.738 80.5566 170.362 80.5566H166.491L167.103 77.2203H170.388C170.931 77.2203 171.424 77.1354 171.865 76.9657C172.323 76.7789 172.705 76.5072 173.011 76.1507C173.317 75.7942 173.512 75.3697 173.597 74.8773C173.682 74.4019 173.639 73.9945 173.47 73.6549C173.317 73.3153 173.054 73.0522 172.68 72.8654C172.323 72.6617 171.891 72.5598 171.381 72.5598H167.892Z" fill="#111111"/>
<path d="M150.7 86.7451L151.311 83.2052H160.123L159.511 86.7451H150.7ZM153.145 72.4579L153.781 68.918H162.567L161.931 72.4579H153.145ZM151.999 79.1049L152.61 75.6414H160.912L160.301 79.1049H151.999ZM150.98 68.918H155.08L151.999 86.7451H147.949L150.98 68.918Z" fill="#111111"/>
<path d="M139.439 72.6107L140.102 68.918H147.895L147.232 72.6107H139.439ZM138.242 79.5888L138.854 76.1252H146.417L145.806 79.5888H138.242ZM137.3 68.918H141.4L138.319 86.7451H134.27L137.3 68.918Z" fill="#111111"/>
<path d="M129.646 68.9185H133.746L130.537 87.5861L120.478 76.6861L118.746 86.7457H114.646L117.829 68.0781L127.914 78.9782L129.646 68.9185Z" fill="#111111"/>
<path d="M99.3663 77.8347C99.2645 78.5308 99.2645 79.2015 99.3663 79.8467C99.4682 80.4748 99.672 81.0436 99.9776 81.553C100.3 82.0453 100.725 82.4443 101.251 82.7499C101.794 83.0386 102.439 83.1829 103.186 83.1829C103.95 83.1999 104.664 83.0725 105.326 82.8009C105.988 82.5122 106.582 82.1217 107.108 81.6294C107.635 81.137 108.068 80.5682 108.407 79.9231C108.764 79.2609 109.001 78.5648 109.12 77.8347C109.222 77.1386 109.222 76.4765 109.12 75.8483C109.018 75.2031 108.806 74.6258 108.484 74.1165C108.178 73.6071 107.754 73.2082 107.21 72.9195C106.684 72.6139 106.039 72.4611 105.275 72.4611C104.511 72.4611 103.798 72.5969 103.136 72.8686C102.473 73.1402 101.879 73.5307 101.353 74.0401C100.843 74.5325 100.411 75.1012 100.054 75.7464C99.7144 76.3916 99.4852 77.0877 99.3663 77.8347ZM94.8841 77.8347C95.0878 76.5104 95.5038 75.288 96.132 74.1674C96.7772 73.0299 97.5836 72.0367 98.5514 71.1877C99.5191 70.3388 100.614 69.6852 101.837 69.2268C103.059 68.7514 104.341 68.5137 105.682 68.5137C107.024 68.5137 108.22 68.7599 109.273 69.2522C110.343 69.7276 111.226 70.3983 111.922 71.2641C112.635 72.1131 113.136 73.1063 113.424 74.2438C113.713 75.3644 113.772 76.5614 113.603 77.8347C113.399 79.159 112.983 80.3984 112.355 81.553C111.727 82.6905 110.92 83.6922 109.935 84.5581C108.968 85.424 107.872 86.1031 106.65 86.5955C105.428 87.0709 104.129 87.3086 102.754 87.3086C101.395 87.3086 100.181 87.0539 99.1117 86.5446C98.059 86.0352 97.1846 85.3476 96.4885 84.4817C95.7924 83.5988 95.3085 82.5886 95.0369 81.4511C94.7652 80.3136 94.7143 79.1081 94.8841 77.8347Z" fill="#111111"/>
<path d="M82.212 77.8321C82.0932 78.5452 82.1017 79.2158 82.2375 79.844C82.3733 80.4722 82.628 81.024 83.0015 81.4994C83.375 81.9748 83.8419 82.3483 84.4022 82.62C84.9625 82.8916 85.6077 83.0274 86.3377 83.0274C87.5262 83.0444 88.5789 82.8152 89.4957 82.3398C90.4295 81.8644 91.2614 81.3296 91.9915 80.7354L91.3039 85.345C90.5059 85.8883 89.657 86.3297 88.7571 86.6693C87.8573 86.9919 86.8216 87.1532 85.6501 87.1532C84.2919 87.1532 83.0609 86.9155 81.9574 86.4401C80.8707 85.9647 79.9709 85.3025 79.2578 84.4536C78.5617 83.5877 78.0608 82.5945 77.7552 81.4739C77.4496 80.3364 77.3902 79.1224 77.577 77.8321C77.7807 76.4908 78.1967 75.2514 78.8249 74.1139C79.47 72.9763 80.285 71.9916 81.2697 71.1596C82.2545 70.3277 83.3665 69.6825 84.606 69.2241C85.8454 68.7487 87.1697 68.511 88.5789 68.511C89.6994 68.4941 90.6672 68.6469 91.4822 68.9695C92.3141 69.292 93.0866 69.742 93.7997 70.3192L93.0866 74.9543C92.5603 74.2582 91.9151 73.6979 91.1511 73.2734C90.3871 72.832 89.4617 72.6113 88.3751 72.6113C87.6281 72.6113 86.915 72.7386 86.2359 72.9933C85.5567 73.248 84.937 73.613 84.3768 74.0884C83.8165 74.5468 83.3496 75.0986 82.976 75.7438C82.6025 76.372 82.3479 77.0681 82.212 77.8321Z" fill="#111111"/>
<path d="M271.337 42.6248C271.136 44.1727 270.706 45.5773 270.047 46.8386C269.388 48.0998 268.542 49.1891 267.51 50.1064C266.478 50.995 265.317 51.6829 264.027 52.1703C262.737 52.6576 261.361 52.9012 259.899 52.9012C257.578 52.9012 255.7 52.3136 254.267 51.1383C252.862 49.963 251.802 48.4438 251.085 46.5806L253.192 45.2907C253.765 46.8099 254.611 48.0855 255.729 49.1174C256.875 50.1494 258.337 50.6653 260.114 50.6653C261.662 50.6653 263.053 50.3214 264.285 49.6334C265.546 48.9454 266.578 47.9995 267.381 46.7956C268.184 45.563 268.7 44.1727 268.929 42.6248C269.13 41.2489 269.015 39.9876 268.585 38.841C268.184 37.6944 267.51 36.7772 266.564 36.0892C265.647 35.3726 264.486 34.9999 263.081 34.9713C261.476 34.9139 260 35.2149 258.653 35.8742C257.305 36.5048 255.958 37.3505 254.611 38.4111L260.888 22.416H274.734L274.347 24.5229H262.393L258.137 34.9713C258.939 34.3693 259.856 33.8677 260.888 33.4664C261.92 33.0364 263.024 32.8214 264.199 32.8214C265.919 32.8214 267.338 33.2944 268.456 34.2403C269.603 35.1576 270.419 36.3615 270.907 37.8521C271.423 39.3427 271.566 40.9336 271.337 42.6248Z" fill="white"/>
<path d="M226.565 52.5145L242.431 37.6804C243.148 36.9638 243.822 36.2472 244.452 35.5306C245.112 34.8139 245.656 34.04 246.086 33.2087C246.545 32.3774 246.846 31.4888 246.989 30.5428C247.161 29.5109 247.075 28.522 246.731 27.576C246.387 26.6014 245.8 25.7988 244.968 25.1682C244.137 24.5089 243.048 24.1792 241.701 24.1792C240.181 24.1506 238.848 24.5375 237.702 25.3402C236.555 26.1141 235.624 27.1604 234.907 28.479C234.219 29.7689 233.717 31.1735 233.402 32.6927H231.123C231.467 30.7435 232.098 28.9663 233.015 27.361C233.932 25.7271 235.136 24.4229 236.627 23.4483C238.117 22.445 239.866 21.9434 241.873 21.9434C243.736 21.9434 245.255 22.3733 246.43 23.2333C247.606 24.0932 248.451 25.1825 248.967 26.5011C249.483 27.791 249.626 29.1096 249.397 30.4569C249.168 32.1194 248.551 33.6673 247.548 35.1006C246.545 36.5052 245.427 37.7951 244.194 38.9703L231.811 50.2357L246.946 50.2787L246.559 52.5145H226.565Z" fill="white"/>
<path d="M207.837 37.4654C207.694 38.5547 207.608 39.7156 207.579 40.9482C207.579 42.1808 207.665 43.3704 207.837 44.517C208.009 45.6636 208.296 46.6955 208.697 47.6128C209.127 48.5301 209.715 49.2754 210.46 49.8487C211.205 50.3933 212.151 50.6656 213.298 50.6656C214.731 50.6943 216.021 50.3217 217.167 49.5477C218.343 48.7737 219.36 47.7418 220.22 46.4519C221.109 45.162 221.825 43.743 222.37 42.1951C222.915 40.6186 223.302 39.042 223.531 37.4654C223.646 36.3475 223.703 35.1865 223.703 33.9826C223.732 32.75 223.66 31.5604 223.488 30.4138C223.345 29.2672 223.058 28.2353 222.628 27.318C222.227 26.3721 221.639 25.6268 220.865 25.0821C220.12 24.5375 219.174 24.2509 218.027 24.2222C216.594 24.2222 215.29 24.6092 214.115 25.3831C212.968 26.1571 211.965 27.189 211.105 28.4789C210.245 29.7689 209.543 31.2021 208.998 32.7787C208.453 34.3266 208.066 35.8888 207.837 37.4654ZM205.472 37.4654C205.73 35.5735 206.203 33.7103 206.891 31.8757C207.608 30.0125 208.511 28.3356 209.6 26.845C210.689 25.3545 211.95 24.1792 213.384 23.3192C214.846 22.4306 216.465 21.9863 218.242 21.9863C219.676 21.9863 220.88 22.3016 221.854 22.9323C222.829 23.5342 223.617 24.3655 224.219 25.4261C224.85 26.4867 225.308 27.6907 225.595 29.0379C225.882 30.3565 226.039 31.7468 226.068 33.2087C226.097 34.6706 226.025 36.0895 225.853 37.4654C225.595 39.3573 225.122 41.2205 224.434 43.0551C223.746 44.8896 222.843 46.5522 221.725 48.0428C220.636 49.5334 219.375 50.723 217.941 51.6116C216.508 52.4715 214.903 52.9015 213.126 52.9015C211.692 52.9015 210.474 52.6005 209.471 51.9986C208.496 51.3679 207.694 50.5223 207.063 49.4617C206.461 48.4011 206.017 47.2115 205.73 45.8929C205.443 44.5457 205.286 43.1554 205.257 41.7222C205.228 40.2602 205.3 38.8413 205.472 37.4654Z" fill="white"/>
<path d="M179.494 52.5145L195.36 37.6804C196.077 36.9638 196.75 36.2472 197.381 35.5306C198.04 34.8139 198.585 34.04 199.015 33.2087C199.474 32.3774 199.775 31.4888 199.918 30.5428C200.09 29.5109 200.004 28.522 199.66 27.576C199.316 26.6014 198.728 25.7988 197.897 25.1682C197.066 24.5089 195.976 24.1792 194.629 24.1792C193.11 24.1506 191.777 24.5375 190.63 25.3402C189.484 26.1141 188.552 27.1604 187.836 28.479C187.148 29.7689 186.646 31.1735 186.331 32.6927H184.052C184.396 30.7435 185.026 28.9663 185.944 27.361C186.861 25.7271 188.065 24.4229 189.556 23.4483C191.046 22.445 192.795 21.9434 194.801 21.9434C196.664 21.9434 198.184 22.3733 199.359 23.2333C200.534 24.0932 201.38 25.1825 201.896 26.5011C202.412 27.791 202.555 29.1096 202.326 30.4569C202.096 32.1194 201.48 33.6673 200.477 35.1006C199.474 36.5052 198.356 37.7951 197.123 38.9703L184.74 50.2357L199.875 50.2787L199.488 52.5145H179.494Z" fill="white"/>
<defs>
<linearGradient id="paint0_linear_93_46112" x1="66.5359" y1="-3.72431" x2="16.6528" y2="83.5075" gradientUnits="userSpaceOnUse">
<stop offset="0.1" stop-color="#FFF42F"/>
<stop offset="0.31" stop-color="#FFA232"/>
<stop offset="0.47" stop-color="#F450B2"/>
<stop offset="0.71" stop-color="#3FCBFF"/>
<stop offset="0.96" stop-color="#D0D81D"/>
</linearGradient>
</defs>
</svg>
