<svg width="33" height="33" viewBox="0 0 33 33" fill="none" xmlns="http://www.w3.org/2000/svg">
<g clip-path="url(#clip0_170_612)">
<path d="M16.7412 6.52129C19.9475 6.52129 20.3271 6.53535 21.5881 6.5916C22.76 6.64316 23.3928 6.84004 23.8146 7.0041C24.3725 7.21973 24.7756 7.48223 25.1928 7.89941C25.6146 8.32129 25.8725 8.71973 26.0881 9.27754C26.2521 9.69941 26.449 10.3369 26.5006 11.5041C26.5568 12.7697 26.5709 13.1494 26.5709 16.351C26.5709 19.5572 26.5568 19.9369 26.5006 21.1979C26.449 22.3697 26.2521 23.0025 26.0881 23.4244C25.8725 23.9822 25.61 24.3854 25.1928 24.8025C24.7709 25.2244 24.3725 25.4822 23.8146 25.6979C23.3928 25.8619 22.7553 26.0588 21.5881 26.1104C20.3225 26.1666 19.9428 26.1807 16.7412 26.1807C13.535 26.1807 13.1553 26.1666 11.8943 26.1104C10.7225 26.0588 10.0896 25.8619 9.66777 25.6979C9.10996 25.4822 8.70684 25.2197 8.28965 24.8025C7.86777 24.3807 7.60996 23.9822 7.39434 23.4244C7.23027 23.0025 7.0334 22.365 6.98184 21.1979C6.92559 19.9322 6.91152 19.5525 6.91152 16.351C6.91152 13.1447 6.92559 12.765 6.98184 11.5041C7.0334 10.3322 7.23027 9.69941 7.39434 9.27754C7.60996 8.71973 7.87246 8.3166 8.28965 7.89941C8.71152 7.47754 9.10996 7.21973 9.66777 7.0041C10.0896 6.84004 10.7271 6.64316 11.8943 6.5916C13.1553 6.53535 13.535 6.52129 16.7412 6.52129ZM16.7412 4.36035C13.4834 4.36035 13.0756 4.37441 11.7959 4.43066C10.5209 4.48691 9.64434 4.69316 8.88496 4.98848C8.09277 5.29785 7.42246 5.70566 6.75684 6.37598C6.08652 7.0416 5.67871 7.71191 5.36934 8.49941C5.07402 9.26348 4.86777 10.1354 4.81152 11.4104C4.75527 12.6947 4.74121 13.1025 4.74121 16.3604C4.74121 19.6182 4.75527 20.026 4.81152 21.3057C4.86777 22.5807 5.07402 23.4572 5.36934 24.2166C5.67871 25.0088 6.08652 25.6791 6.75684 26.3447C7.42246 27.0104 8.09277 27.4229 8.88027 27.7275C9.64434 28.0229 10.5162 28.2291 11.7912 28.2854C13.0709 28.3416 13.4787 28.3557 16.7365 28.3557C19.9943 28.3557 20.4021 28.3416 21.6818 28.2854C22.9568 28.2291 23.8334 28.0229 24.5928 27.7275C25.3803 27.4229 26.0506 27.0104 26.7162 26.3447C27.3818 25.6791 27.7943 25.0088 28.099 24.2213C28.3943 23.4572 28.6006 22.5854 28.6568 21.3104C28.7131 20.0307 28.7271 19.6229 28.7271 16.365C28.7271 13.1072 28.7131 12.6994 28.6568 11.4197C28.6006 10.1447 28.3943 9.26816 28.099 8.50879C27.8037 7.71191 27.3959 7.0416 26.7256 6.37598C26.06 5.71035 25.3897 5.29785 24.6021 4.99316C23.8381 4.69785 22.9662 4.4916 21.6912 4.43535C20.4068 4.37441 19.999 4.36035 16.7412 4.36035Z" fill="white"/>
<path d="M16.7412 10.1963C13.3381 10.1963 10.5771 12.9572 10.5771 16.3604C10.5771 19.7635 13.3381 22.5244 16.7412 22.5244C20.1443 22.5244 22.9053 19.7635 22.9053 16.3604C22.9053 12.9572 20.1443 10.1963 16.7412 10.1963ZM16.7412 20.3588C14.5334 20.3588 12.7428 18.5682 12.7428 16.3604C12.7428 14.1525 14.5334 12.3619 16.7412 12.3619C18.949 12.3619 20.7396 14.1525 20.7396 16.3604C20.7396 18.5682 18.949 20.3588 16.7412 20.3588Z" fill="white"/>
<path d="M24.5881 9.95274C24.5881 10.7496 23.9412 11.3918 23.149 11.3918C22.3521 11.3918 21.71 10.7449 21.71 9.95274C21.71 9.15586 22.3568 8.51367 23.149 8.51367C23.9412 8.51367 24.5881 9.16055 24.5881 9.95274Z" fill="white"/>
</g>
<defs>
<clipPath id="clip0_170_612">
<rect width="24" height="24" fill="white" transform="translate(4.74121 4.36035)"/>
</clipPath>
</defs>
</svg>
