<svg width="33" height="33" viewBox="0 0 33 33" fill="none" xmlns="http://www.w3.org/2000/svg">
<g clip-path="url(#clip0_170_616)">
<path d="M26.9646 4.36035H6.51309C5.5334 4.36035 4.74121 5.13379 4.74121 6.09004V26.626C4.74121 27.5822 5.5334 28.3604 6.51309 28.3604H26.9646C27.9443 28.3604 28.7412 27.5822 28.7412 26.6307V6.09004C28.7412 5.13379 27.9443 4.36035 26.9646 4.36035ZM11.8615 24.8119H8.29902V13.3557H11.8615V24.8119ZM10.0803 11.7947C8.93652 11.7947 8.01309 10.8713 8.01309 9.73223C8.01309 8.59316 8.93652 7.66973 10.0803 7.66973C11.2193 7.66973 12.1428 8.59316 12.1428 9.73223C12.1428 10.8666 11.2193 11.7947 10.0803 11.7947ZM25.1928 24.8119H21.635V19.2432C21.635 17.9166 21.6115 16.2057 19.7834 16.2057C17.9318 16.2057 17.6506 17.6541 17.6506 19.1494V24.8119H14.0975V13.3557H17.51V14.9213H17.5568C18.0303 14.0213 19.1928 13.0697 20.9225 13.0697C24.5271 13.0697 25.1928 15.4416 25.1928 18.526V24.8119Z" fill="white"/>
</g>
<defs>
<clipPath id="clip0_170_616">
<rect width="24" height="24" fill="white" transform="translate(4.74121 4.36035)"/>
</clipPath>
</defs>
</svg>
