<svg width="20" height="20" viewBox="0 0 20 20" fill="none" xmlns="http://www.w3.org/2000/svg">
<g clip-path="url(#clip0_100_880)">
<path d="M7.5 9.16699C7.5 9.83003 7.76339 10.4659 8.23223 10.9348C8.70107 11.4036 9.33696 11.667 10 11.667C10.663 11.667 11.2989 11.4036 11.7678 10.9348C12.2366 10.4659 12.5 9.83003 12.5 9.16699C12.5 8.50395 12.2366 7.86807 11.7678 7.39922C11.2989 6.93038 10.663 6.66699 10 6.66699C9.33696 6.66699 8.70107 6.93038 8.23223 7.39922C7.76339 7.86807 7.5 8.50395 7.5 9.16699Z" stroke="white" stroke-width="1.66667" stroke-linecap="round" stroke-linejoin="round"/>
<path d="M14.7141 13.8806L11.1783 17.4164C10.8657 17.7286 10.4421 17.904 10.0003 17.904C9.5586 17.904 9.13493 17.7286 8.82242 17.4164L5.28576 13.8806C4.35344 12.9482 3.71853 11.7603 3.46133 10.4671C3.20412 9.17394 3.33616 7.83352 3.84076 6.61536C4.34535 5.39721 5.19984 4.35604 6.29616 3.62351C7.39248 2.89098 8.68139 2.5 9.99992 2.5C11.3184 2.5 12.6074 2.89098 13.7037 3.62351C14.8 4.35604 15.6545 5.39721 16.1591 6.61536C16.6637 7.83352 16.7957 9.17394 16.5385 10.4671C16.2813 11.7603 15.6464 12.9482 14.7141 13.8806Z" stroke="white" stroke-width="1.66667" stroke-linecap="round" stroke-linejoin="round"/>
</g>
<defs>
<clipPath id="clip0_100_880">
<rect width="20" height="20" fill="white"/>
</clipPath>
</defs>
</svg>
