<svg width="16" height="17" viewBox="0 0 16 17" fill="none" xmlns="http://www.w3.org/2000/svg">
<path d="M8 2.50002C6.76232 2.50002 5.57534 2.99168 4.70017 3.86685C3.825 4.74202 3.33333 5.92901 3.33333 7.16668C3.33333 9.07468 4.52133 10.9153 5.82533 12.3413C6.49209 13.0678 7.21962 13.736 8 14.3387C8.11644 14.2493 8.25311 14.1405 8.41 14.012C9.03654 13.4975 9.62621 12.9397 10.1747 12.3427C11.4787 10.9153 12.6667 9.07535 12.6667 7.16668C12.6667 5.92901 12.175 4.74202 11.2998 3.86685C10.4247 2.99168 9.23768 2.50002 8 2.50002ZM8 15.976L7.622 15.716L7.62 15.7147L7.616 15.7113L7.60267 15.702L7.55267 15.6667L7.37267 15.5353C6.46057 14.8499 5.61325 14.0822 4.84133 13.242C3.47867 11.75 2 9.59068 2 7.16602C2 5.57472 2.63214 4.04859 3.75736 2.92338C4.88258 1.79816 6.4087 1.16602 8 1.16602C9.5913 1.16602 11.1174 1.79816 12.2426 2.92338C13.3679 4.04859 14 5.57472 14 7.16602C14 9.59068 12.5213 11.7507 11.1587 13.2407C10.387 14.0809 9.53986 14.8485 8.628 15.534C8.55204 15.5908 8.47536 15.6465 8.398 15.7013L8.384 15.7107L8.38 15.714L8.37867 15.7147L8 15.976ZM8 5.83335C7.64638 5.83335 7.30724 5.97382 7.05719 6.22387C6.80714 6.47392 6.66667 6.81306 6.66667 7.16668C6.66667 7.5203 6.80714 7.85944 7.05719 8.10949C7.30724 8.35954 7.64638 8.50002 8 8.50002C8.35362 8.50002 8.69276 8.35954 8.94281 8.10949C9.19286 7.85944 9.33333 7.5203 9.33333 7.16668C9.33333 6.81306 9.19286 6.47392 8.94281 6.22387C8.69276 5.97382 8.35362 5.83335 8 5.83335ZM5.33333 7.16668C5.33333 6.45944 5.61428 5.78116 6.11438 5.28106C6.61448 4.78097 7.29276 4.50002 8 4.50002C8.70724 4.50002 9.38552 4.78097 9.88562 5.28106C10.3857 5.78116 10.6667 6.45944 10.6667 7.16668C10.6667 7.87393 10.3857 8.5522 9.88562 9.0523C9.38552 9.5524 8.70724 9.83335 8 9.83335C7.29276 9.83335 6.61448 9.5524 6.11438 9.0523C5.61428 8.5522 5.33333 7.87393 5.33333 7.16668Z" fill="white"/>
</svg>
