<svg width="160" height="40" viewBox="0 0 160 40" fill="none" xmlns="http://www.w3.org/2000/svg">
<g clip-path="url(#clip0_95_44767)">
<g clip-path="url(#clip1_95_44767)">
<path opacity="0.4" d="M44.7782 28.5266C44.7326 28.4862 44.687 28.4458 44.6439 28.4079L44.8227 28.4467C44.8095 28.475 44.7939 28.5008 44.7782 28.5266Z" fill="white"/>
<path d="M43.9474 29.2454L43.9166 29.256L43.847 29.2901L36.4282 32.4369C36.351 32.4686 36.2713 32.4977 36.1915 32.5268C36.1555 32.5426 36.1144 32.5534 36.0732 32.5692C36.0346 32.5825 35.9961 32.5958 35.9601 32.6065C35.9009 32.6251 35.8444 32.6411 35.7853 32.6598C35.7647 32.6651 35.7467 32.673 35.7287 32.6758C35.6542 32.6946 35.5797 32.7134 35.5078 32.7297C35.5052 32.7323 35.5001 32.7323 35.5001 32.7323C34.4704 32.9624 33.4085 32.8803 32.4247 32.4823L32.4068 32.4748L28.0151 30.7167L27.7984 30.6297L24.393 29.2721L21.1236 30.6789L20.1427 31.1029L16.5025 32.6729C15.5089 33.0946 14.4448 33.2021 13.4227 32.9992C13.4202 32.9967 13.4151 32.9968 13.4126 32.9942C13.3384 32.9823 13.2644 32.9653 13.1929 32.9456C13.1724 32.9408 13.152 32.9359 13.1316 32.931C13.0754 32.9163 13.0193 32.9016 12.9606 32.8844C12.9223 32.872 12.884 32.8597 12.8457 32.8473C12.8049 32.8325 12.7692 32.8226 12.7284 32.8078C12.6519 32.7831 12.5729 32.7507 12.4964 32.7209L6.30798 30.2185L5.10497 29.731L5.05399 29.7111C4.57482 29.517 4.21082 29.1167 4.06314 28.6165L3.85631 27.9224L3.82187 27.805L1.62856 20.4015C1.48329 19.914 1.70736 19.3812 2.16619 19.135L8.32953 15.8163L9.19565 15.35L9.60294 15.13C10.0773 14.8733 10.4687 14.4819 10.7279 14.005L10.9532 13.5874L11.4326 12.693L14.7329 6.56827C14.9817 6.11197 15.512 5.88537 15.9994 6.03064L22.7828 8.03928L23.5127 8.25592L23.9695 8.39131C24.4799 8.54399 25.0306 8.53483 25.5448 8.36989L25.9793 8.23407L26.3881 8.10368L33.566 5.82031C34.0571 5.66333 34.5821 5.8773 34.82 6.32776L38.4302 13.2508L38.4402 13.2711L38.648 13.6707C38.8934 14.139 39.2755 14.5212 39.7464 14.7691L40.1638 14.9895L40.8866 15.365L47.0868 18.5997C47.5373 18.8325 47.7512 19.3626 47.5942 19.8537L45.5928 26.1524L45.1856 27.4352L44.9648 28.1268C44.8051 28.6307 44.4314 29.0398 43.9474 29.2454Z" fill="url(#paint0_linear_95_44767)"/>
<path d="M44.9648 28.1268L45.1856 27.4352L45.5928 26.1524L47.5942 19.8537C47.7512 19.3626 47.5373 18.8325 47.0868 18.5997L40.8866 15.365L40.1638 14.9895L39.7464 14.7691C39.2755 14.5212 38.8934 14.139 38.648 13.6707L38.4402 13.2711L38.4302 13.2508L34.82 6.32776C34.5821 5.8773 34.0571 5.66333 33.566 5.82031L26.3881 8.10368L25.9793 8.23407L25.5448 8.36989C25.0306 8.53483 24.4799 8.54399 23.9695 8.39131L23.5127 8.25592L22.7828 8.03928L15.9994 6.03064C15.512 5.88537 14.9817 6.11197 14.7329 6.56827L11.4326 12.693L10.9532 13.5874L10.7279 14.005C10.4687 14.4819 10.0773 14.8733 9.60294 15.13L9.19565 15.35L8.32953 15.8163L2.16619 19.135C1.70736 19.3812 1.48329 19.914 1.62856 20.4015L3.82187 27.805L3.85631 27.9224L4.06314 28.6165C4.21082 29.1167 4.57482 29.517 5.05399 29.7111L5.10497 29.731L6.30798 30.2185L12.4964 32.7209C12.5729 32.7507 12.6519 32.7831 12.7284 32.8078C12.7692 32.8226 12.8049 32.8325 12.8457 32.8473C12.884 32.8597 12.9223 32.872 12.9606 32.8844C13.0193 32.9016 13.0754 32.9163 13.1316 32.931C13.152 32.9359 13.1724 32.9408 13.1929 32.9456C13.2644 32.9653 13.3384 32.9823 13.4126 32.9942C13.4151 32.9968 13.4202 32.9967 13.4227 32.9992C14.4448 33.2021 15.5089 33.0946 16.5025 32.6729L20.1427 31.1029L21.1236 30.6789L24.393 29.2721L27.7984 30.6297L28.0151 30.7167L32.4068 32.4748L32.4247 32.4823C33.4085 32.8803 34.4704 32.9624 35.5001 32.7323C35.5001 32.7323 35.5052 32.7323 35.5078 32.7297C35.5797 32.7134 35.6542 32.6946 35.7287 32.6758C35.7467 32.673 35.7647 32.6651 35.7853 32.6598C35.8444 32.6411 35.9009 32.6251 35.9601 32.6065C35.9961 32.5958 36.0346 32.5825 36.0732 32.5692C36.1144 32.5534 36.1555 32.5426 36.1915 32.5268C36.2713 32.4977 36.351 32.4686 36.4282 32.4369L43.847 29.2901L43.9166 29.256L43.9474 29.2454C44.4314 29.0398 44.8051 28.6307 44.9648 28.1268ZM39.0814 15.5505C39.336 15.4578 39.6048 15.4725 39.8364 15.5953L46.7594 19.2055C46.9274 19.2906 47.0045 19.4817 46.946 19.6617L44.5402 27.2253C44.4603 27.4823 44.2785 27.6894 44.0364 27.805C43.7943 27.9206 43.5252 27.9315 43.2805 27.832L35.5323 24.6977C35.2213 24.5734 35.0771 24.2166 35.2115 23.9L35.6516 22.8626C35.6595 22.8445 35.6673 22.8316 35.6726 22.8162L38.5322 16.0693C38.6401 15.8247 38.8344 15.6406 39.0814 15.5505ZM37.9052 15.8156C37.9052 15.8156 37.9026 15.8233 37.9 15.8259L35.0247 22.6037C34.5321 23.7442 33.6377 24.6436 32.5048 25.1489L25.5906 28.0796C25.4825 28.1168 25.4115 28.0613 25.3837 28.0334C25.3558 28.0056 25.2927 27.927 25.3403 27.8086L28.2314 20.9947C28.2314 20.9947 28.2419 20.969 28.2446 20.9561C28.753 19.7848 29.6782 18.8696 30.8521 18.3689L31.8225 17.9604L37.599 15.5094C37.7972 15.4276 37.9895 15.6199 37.9052 15.8156ZM26.1893 8.8744L33.7554 6.47113C33.8968 6.4259 34.0449 6.4651 34.1436 6.5638C34.1689 6.58911 34.1941 6.61954 34.2117 6.65262L37.8244 13.5781C37.9446 13.8123 37.9593 14.0811 37.8692 14.3331C37.774 14.5853 37.5872 14.7821 37.3401 14.8875L30.6009 17.7445L29.512 18.2057C29.198 18.3375 28.8412 18.1933 28.7143 17.8798L28.2914 16.8348C28.2914 16.8348 28.284 16.8169 28.2815 16.8093L25.5851 10.1366C25.4856 9.8919 25.4965 9.62285 25.6121 9.38072C25.7303 9.136 25.9348 8.95684 26.1893 8.8744ZM24.9494 10.3977L24.9545 10.4028L27.6582 17.1036C28.1181 18.2634 28.1054 19.5364 27.6202 20.705C27.6123 20.7178 27.6071 20.7282 27.6044 20.741L24.7133 27.5549L24.7158 27.5574C24.6632 27.6707 24.5632 27.6847 24.5222 27.6852C24.4812 27.6857 24.3814 27.6741 24.3316 27.562L21.6054 20.8128C21.6005 20.7975 21.5929 20.7848 21.5854 20.7721C21.1307 19.6071 21.1512 18.3212 21.6467 17.1474L24.5088 10.403C24.5931 10.2074 24.8698 10.204 24.9494 10.3977ZM23.6521 28.0542C23.6236 28.0827 23.5409 28.1451 23.4287 28.1004L16.6796 25.3742C16.6796 25.3742 16.6541 25.3643 16.6388 25.3593C15.4843 24.8789 14.5885 23.9778 14.1158 22.8156L11.422 16.1404L11.417 16.1353C11.3399 15.939 11.5369 15.742 11.7332 15.819C11.7357 15.8216 11.7383 15.8241 11.7409 15.8215L18.4543 18.5379C19.5985 19.0133 20.4817 19.9017 20.9547 21.0434C20.9597 21.0536 20.9646 21.0689 20.9696 21.0842L23.7009 27.8282C23.7431 27.943 23.6806 28.0257 23.6521 28.0542ZM15.3336 6.87865C15.4227 6.71367 15.6157 6.63197 15.7944 6.68617L23.3051 8.90893C23.4531 8.95326 23.5828 9.0311 23.6891 9.13739C23.7625 9.21078 23.8254 9.29967 23.8703 9.40158C23.9801 9.64101 23.9846 9.90987 23.8792 10.157L20.5611 17.9799C20.4242 18.294 20.0638 18.4469 19.7528 18.3226L18.7231 17.9046C18.7231 17.9046 18.6951 17.8921 18.6798 17.8872L11.9969 15.1859C11.7574 15.0863 11.5804 14.8938 11.4911 14.649C11.4045 14.3964 11.4282 14.1298 11.554 13.8927L15.3336 6.87865ZM5.7498 28.2813C5.50526 28.3841 5.23893 28.3822 4.99697 28.2699C4.75754 28.16 4.58322 27.9598 4.50944 27.7046L2.28157 20.1939C2.22989 20.0178 2.31419 19.8221 2.47917 19.7331L9.4906 15.956C9.72773 15.8303 9.99437 15.8066 10.2469 15.8932C10.3769 15.9403 10.4964 16.0131 10.5901 16.1068C10.6736 16.1903 10.7415 16.2945 10.7888 16.4092L13.4851 23.0819L13.9179 24.1575C14.0422 24.4684 13.8919 24.8314 13.5753 24.9658L12.5224 25.4112C12.5224 25.4112 12.5019 25.4166 12.4916 25.4218L5.7498 28.2813ZM20.8673 30.0545L19.889 30.4759C19.889 30.4759 19.8813 30.4786 19.8787 30.4812L16.2488 32.0459C16.2488 32.0459 16.2436 32.0511 16.241 32.0537C15.649 32.3016 15.0329 32.4216 14.4209 32.4161C14.4183 32.4187 14.4132 32.4188 14.4106 32.4163C14.1238 32.4146 13.845 32.3846 13.5716 32.329C13.5026 32.317 13.4362 32.3024 13.3724 32.2853C13.3596 32.2829 13.3443 32.2779 13.3315 32.2755C13.2779 32.2634 13.2243 32.2461 13.1707 32.2339C13.1426 32.2214 13.1146 32.2141 13.0839 32.2042C13.0457 32.1919 13.0074 32.1795 12.9691 32.1672C12.9028 32.1424 12.8314 32.1176 12.7677 32.0902L5.99566 29.3515C5.80197 29.2719 5.80528 28.9952 6.00346 28.9134L6.01118 28.9108L12.7787 26.0407C13.9447 25.553 15.2177 25.5403 16.3725 25.9951C16.3878 26.0001 16.398 26.0051 16.4133 26.01L23.1625 28.7362L23.2975 28.7935C23.3893 28.8282 23.4811 28.863 23.5755 28.89L20.8698 30.057L20.8673 30.0545ZM43.0141 28.9083L36.1771 31.8073C36.1076 31.8364 36.0407 31.8628 35.9687 31.8892C35.9378 31.8999 35.9043 31.9131 35.8684 31.9237C35.8349 31.9369 35.7989 31.9476 35.7681 31.9582C35.7166 31.9742 35.6678 31.9876 35.619 32.001C35.601 32.0089 35.583 32.0117 35.565 32.0196C35.5033 32.0357 35.4392 32.0492 35.3775 32.0653C35.3724 32.0654 35.3672 32.0655 35.3647 32.0681C35.0925 32.1277 34.8129 32.1643 34.531 32.1728C34.531 32.1728 34.5208 32.1729 34.5182 32.1755C33.9853 32.1921 33.4561 32.114 32.9434 31.9383C32.8592 31.9111 32.7776 31.8813 32.6935 31.8491L28.2533 30.0736L28.0825 30.0065L25.3144 28.8974C25.4557 28.8624 25.5894 28.8147 25.7207 28.7593L25.8391 28.7118C25.8391 28.7118 25.8545 28.7065 25.8622 28.7038L32.6761 25.8127C32.7019 25.8022 32.7302 25.789 32.7585 25.7759L32.7637 25.7707C33.8937 25.2936 35.1335 25.2788 36.2498 25.7315L43.0194 28.4677C43.2131 28.5473 43.2098 28.824 43.0141 28.9083Z" fill="white"/>
<path opacity="0.4" d="M2.32527 19.8743L2.25282 19.9366L2.28849 19.9516C2.29904 19.9258 2.31219 19.8975 2.32527 19.8743ZM44.8241 28.4471L44.6453 28.4083C44.6884 28.4462 44.734 28.4866 44.7796 28.5271C44.7953 28.5013 44.811 28.4755 44.8241 28.4471Z" fill="white"/>
<path opacity="0.4" d="M32.5074 25.1461L25.5932 28.0769C25.4852 28.114 25.4142 28.0585 25.3863 28.0307L37.8597 15.5573L37.8623 15.5547C37.9256 15.618 37.95 15.715 37.9079 15.8128C37.9078 15.8179 37.9052 15.8205 37.9026 15.8231L35.0273 22.6009C34.5347 23.7414 33.6404 24.6408 32.5074 25.1461Z" fill="white"/>
<path opacity="0.4" d="M43.017 28.9065L36.18 31.8056C36.1105 31.8346 36.0436 31.861 35.9715 31.8875C35.9407 31.8981 35.9072 31.9113 35.8712 31.9219C35.8378 31.9352 35.8018 31.9458 35.771 31.9564C35.7195 31.9724 35.6707 31.9858 35.6219 31.9992C35.6039 32.0071 35.5859 32.0099 35.5679 32.0178C35.5062 32.0339 35.442 32.0475 35.3804 32.0636C35.3778 32.0662 35.3701 32.0637 35.3675 32.0663C35.0954 32.1259 34.8158 32.1625 34.5339 32.171C34.5288 32.1711 34.5237 32.1711 34.5211 32.1737C33.9882 32.1904 33.459 32.1122 32.9463 31.9365C32.8621 31.9093 32.7805 31.8796 32.6964 31.8473L28.2562 30.0718L28.0854 30.0047L25.3173 28.8956L43.1633 28.6691C43.1698 28.7638 43.1225 28.8617 43.017 28.9065Z" fill="white"/>
<path opacity="0.4" d="M24.5249 27.6816L24.7182 10.2535C24.8131 10.2446 24.9099 10.2896 24.9522 10.3941L24.9572 10.3991L27.6609 17.0999C28.1208 18.2597 28.1082 19.5327 27.6229 20.7013C27.6151 20.7142 27.6098 20.7245 27.6071 20.7373L24.716 27.5512L24.7185 27.5537C24.666 27.6671 24.5659 27.6811 24.5249 27.6816Z" fill="white"/>
<path opacity="0.4" d="M23.6565 28.0527L11.4731 15.8746C11.5379 15.8098 11.6381 15.7804 11.7376 15.8176C11.7401 15.8201 11.7426 15.8227 11.7452 15.8201L18.4587 18.5364C19.6029 19.0119 20.4861 19.9003 20.9616 21.0394C20.9666 21.0496 20.9716 21.0649 20.9765 21.0802L23.7079 27.8242C23.75 27.9389 23.6876 28.0216 23.6591 28.0501L23.6565 28.0527Z" fill="white"/>
<path opacity="0.4" d="M23.5759 28.8844L5.85261 29.1299C5.85372 29.0377 5.90346 28.9475 6.00382 28.9079L6.01153 28.9052L12.779 26.0352C13.9451 25.5474 15.2181 25.5347 16.3728 25.9896C16.3881 25.9945 16.3983 25.9995 16.4136 26.0044L23.1628 28.7306L23.2978 28.7879C23.3896 28.8226 23.4814 28.8574 23.5759 28.8844Z" fill="white"/>
<path opacity="0.4" d="M4.99467 28.2667C4.75524 28.1569 4.58092 27.9567 4.50714 27.7015L2.27926 20.1908C2.25716 20.1117 2.26073 20.0271 2.28727 19.95L2.25159 19.935L2.32405 19.8727C2.36058 19.8159 2.41243 19.7641 2.47686 19.73L2.53871 19.6985L9.4883 15.9529C9.72543 15.8271 9.99206 15.8035 10.2446 15.8901L7.62752 22.0604L7.61697 22.0861L4.99467 28.2667Z" fill="white"/>
<path opacity="0.4" d="M37.8687 14.3324L31.7567 11.8649L25.6116 9.37995C25.7298 9.13523 25.9343 8.95606 26.1888 8.87362L33.7549 6.47035C33.8449 6.4411 33.9396 6.44765 34.0185 6.48512C34.067 6.50247 34.1077 6.52759 34.1431 6.56303C34.1684 6.58833 34.1963 6.61617 34.2112 6.65185L37.8239 13.5774C37.9441 13.8116 37.9588 14.0803 37.8687 14.3324Z" fill="white"/>
<path opacity="0.4" d="M13.9158 24.6106L7.61755 22.0864L2.28785 19.9503L2.25218 19.9353L2.32463 19.873L2.53929 19.6988L9.48889 15.9532C9.72601 15.8275 9.99265 15.8038 10.2452 15.8904C10.3752 15.9375 10.4947 16.0103 10.5884 16.104C10.6719 16.1875 10.7398 16.2917 10.7871 16.4064L13.4834 23.0791L13.9162 24.1547C13.9784 24.305 13.9739 24.4664 13.9158 24.6106Z" fill="white"/>
<path opacity="0.4" d="M37.8678 14.3315C37.7726 14.5836 37.5859 14.7805 37.3387 14.8859L30.5995 17.7428L29.5107 18.2041C29.3691 18.2647 29.2179 18.269 29.0828 18.222L31.7558 11.8641L34.0177 6.48427C34.0661 6.50161 34.1068 6.52674 34.1422 6.56217C34.1676 6.58748 34.1954 6.61532 34.2103 6.65099L37.8231 13.5765C37.9432 13.8107 37.9579 14.0794 37.8678 14.3315Z" fill="white"/>
<path opacity="0.4" d="M19.2915 16.0622L11.4894 14.6472C11.4028 14.3946 11.4265 14.128 11.5522 13.8909L15.3319 6.87686C15.3712 6.80211 15.4308 6.74762 15.5029 6.7109L15.5827 6.68177C15.652 6.66301 15.7238 6.66215 15.7926 6.68438L23.3034 8.90713C23.4514 8.95146 23.5811 9.0293 23.6874 9.1356C23.7607 9.20899 23.8237 9.29788 23.8686 9.39978L19.2915 16.0622Z" fill="white"/>
<path opacity="0.4" d="M44.5374 27.2231C44.4575 27.4801 44.2758 27.6872 44.0336 27.8028L37.4965 23.4119L37.494 23.4094L39.0786 15.5483C39.3333 15.4556 39.602 15.4703 39.8336 15.5931L46.7566 19.2033C46.861 19.2558 46.929 19.3498 46.9533 19.457C46.9679 19.5235 46.9645 19.5926 46.9432 19.6595L44.5374 27.2231Z" fill="white"/>
<path opacity="0.4" d="M44.5374 27.2231C44.4575 27.4801 44.2758 27.6872 44.0336 27.8028L37.4965 23.4119L37.494 23.4094L39.0786 15.5483C39.3333 15.4556 39.602 15.4703 39.8336 15.5931L46.7566 19.2033C46.861 19.2558 46.929 19.3498 46.9533 19.457C46.9679 19.5235 46.9645 19.5926 46.9432 19.6595L44.5374 27.2231Z" fill="#FAD9A1"/>
<path opacity="0.4" d="M20.208 18.3163L19.2925 16.0632L15.5039 6.7119L15.5837 6.68278C15.653 6.66402 15.7248 6.66316 15.7936 6.68538L23.3044 8.90814C23.4524 8.95247 23.5821 9.03031 23.6884 9.1366C23.7618 9.20999 23.8247 9.29888 23.8696 9.40079C23.9794 9.64022 23.9839 9.90908 23.8785 10.1562L20.5604 17.9791C20.4893 18.1413 20.3598 18.2607 20.208 18.3163Z" fill="white"/>
<path opacity="0.4" d="M44.0365 27.8059C43.7944 27.9215 43.5254 27.9324 43.2807 27.8329L35.5324 24.6986C35.377 24.6365 35.2631 24.5175 35.206 24.3722L37.4968 23.4125L37.4994 23.415L46.9562 19.4601C46.9708 19.5266 46.9674 19.5957 46.9461 19.6626L44.5403 27.2262C44.4604 27.4832 44.2787 27.6903 44.0365 27.8059Z" fill="#FFFACC" fill-opacity="0.79"/>
<path d="M44.8803 28.1783L47.5098 19.9052C47.6959 19.3293 47.4472 18.7125 46.9178 18.4371L39.5774 14.6065C39.1345 14.3762 38.7802 14.0219 38.555 13.584L34.727 6.24108C34.6668 6.12911 34.5937 6.03523 34.5076 5.94918C34.1888 5.6303 33.7113 5.5054 33.2588 5.64912L25.2377 8.1987C24.7492 8.35309 24.2394 8.36175 23.7673 8.22142L15.7972 5.86075C15.2307 5.68825 14.6078 5.95182 14.3171 6.48545L10.3122 13.9222C10.0686 14.3682 9.70573 14.7311 9.26233 14.972L1.82558 18.977C1.29202 19.2625 1.02845 19.8855 1.20088 20.4571L3.63546 28.6722C3.79283 29.2184 4.1998 29.6668 4.72995 29.8807L12.2539 32.9254C12.3049 32.9453 12.3584 32.9626 12.4018 32.9749L12.6518 33.059C12.6977 33.0738 12.7463 33.086 12.8024 33.1007L12.9275 33.1325C12.9633 33.1423 13.0041 33.1521 13.0425 33.1593L13.1293 33.1787C14.1973 33.3913 15.2974 33.2731 16.3143 32.8384L20.9302 30.8495C21.0614 30.7941 24.8335 29.1206 24.8889 28.9893C24.9416 28.8606 24.4641 29.0851 24.4118 28.9602C24.3647 28.8302 24.254 28.5359 24.1265 28.4862C23.9991 28.4365 20.6683 29.8359 20.5421 29.8912L15.8644 31.9064C15.3111 32.1307 14.7412 32.24 14.1677 32.2315L14.1011 32.2323C13.8578 32.2275 13.6046 32.2024 13.3491 32.1491C13.2827 32.1345 13.2213 32.125 13.1524 32.1079L13.0452 32.0785C13.0196 32.0736 13.0018 32.0662 12.9813 32.0613L12.9431 32.049C12.9431 32.049 12.9125 32.0391 12.8895 32.0317L12.7237 31.9747C12.6829 31.9599 12.6421 31.945 12.5988 31.9276L5.68393 29.1343L12.5853 26.2062C13.6999 25.7396 14.9294 25.7248 16.0434 26.1597L16.0816 26.1772L22.9709 28.9606C23.7789 29.2864 24.7113 29.2752 25.5273 28.93L32.5754 25.9413C33.6591 25.4801 34.8477 25.4659 35.9233 25.8986L42.8177 28.6871L35.8004 31.6652C35.7516 31.6837 35.7027 31.7022 35.6564 31.7181L35.5407 31.7579C35.5407 31.7579 35.5149 31.7685 35.4686 31.7844L35.3299 31.8219L35.0397 31.8843L35.0216 31.9024L34.9959 31.9079C34.7648 31.9567 34.5237 31.9852 34.2778 31.9933L34.1522 31.9973C33.6759 31.9979 33.2004 31.9217 32.7438 31.7658C32.6673 31.7411 32.5857 31.7113 32.5092 31.6815L25.1481 28.7301C24.9034 28.6306 24.5399 28.741 24.4118 28.9602C24.2838 29.1692 24.0799 28.958 24.247 29.1251C24.2976 29.1757 24.3097 29.2293 24.3735 29.2516L32.0981 32.6494C33.0998 33.0549 34.1922 33.1468 35.2527 32.9164L35.3219 32.913L35.3375 32.8975L35.4017 32.8788C35.43 32.8708 35.4634 32.8627 35.4891 32.8572C35.5122 32.8544 35.5353 32.8464 35.579 32.8331L35.7898 32.7691C35.8155 32.7586 35.8438 32.7506 35.8772 32.7373L36.0753 32.6658C36.1293 32.6472 36.1859 32.6261 36.2374 32.605L43.754 29.416C44.2946 29.1842 44.7047 28.7336 44.8803 28.1783ZM25.983 9.04774L33.5491 6.64447C33.6314 6.623 33.7079 6.6477 33.7788 6.71856L33.7913 6.74146L37.4015 13.6644C37.5018 13.8476 37.5171 14.0652 37.4455 14.2683C37.3662 14.4742 37.2157 14.6348 37.0175 14.7217L29.1894 18.0398C29.0839 18.0846 28.9661 18.086 28.8564 18.0438C28.8029 18.0214 28.7572 17.9912 28.7167 17.9507C28.6787 17.9128 28.646 17.8645 28.6236 17.811L25.4944 10.0678C25.4175 9.86639 25.4252 9.65116 25.5171 9.45798C25.6143 9.25961 25.7799 9.1142 25.983 9.04774ZM15.236 6.96362C15.2831 6.87598 15.3809 6.83383 15.4805 6.86081L22.9938 9.08097C23.2031 9.14506 23.3627 9.28913 23.4474 9.48276C23.5374 9.6712 23.5425 9.88884 23.4555 10.0922L20.1375 17.91C20.04 18.134 19.7852 18.2421 19.5659 18.1576L11.8152 15.0208C11.7234 14.981 11.6447 14.9281 11.5764 14.8598C11.5004 14.7839 11.4452 14.6923 11.4055 14.5852C11.3388 14.3837 11.3566 14.1735 11.4563 13.9777L15.236 6.96362ZM13.2527 24.7999L5.42722 28.1154C5.22897 28.2023 5.01134 28.1973 4.81783 28.1022C4.73629 28.0674 4.66518 28.017 4.60444 27.9563C4.52093 27.8727 4.45815 27.7685 4.42629 27.6485L2.19582 20.1404C2.16878 20.046 2.21871 19.9404 2.30635 19.8932L9.31779 16.1162C9.51109 16.014 9.72132 15.9961 9.92285 16.0628C10.1243 16.1347 10.2763 16.2763 10.3635 16.4776L13.4951 24.2284C13.5821 24.4502 13.4741 24.705 13.2527 24.7999ZM16.5029 25.2092L16.4698 25.1967C15.9092 24.9627 15.4137 24.6331 15.0012 24.2206C14.5886 23.8081 14.254 23.3076 14.0251 22.7469L11.3787 16.1811L11.5239 16.036L18.1226 18.705C19.2184 19.1632 20.0763 20.0211 20.5319 21.1195L23.2183 27.7667L23.2572 27.9404L16.5029 25.2092ZM21.5248 20.7593C21.5148 20.7389 21.5048 20.7134 21.4998 20.7032C21.0601 19.5688 21.0851 18.3341 21.557 17.2143L24.4744 10.3438L27.2354 17.1745C27.6729 18.2859 27.6633 19.5102 27.2018 20.6247C27.1887 20.6531 27.1808 20.666 27.1807 20.6762L24.2659 27.5441L21.5248 20.7593ZM32.1771 24.9831L25.2242 27.9322L28.1601 21.0128C28.6473 19.8929 29.5363 19.014 30.6612 18.537L37.5343 15.6221L34.6036 22.5363C34.1321 23.6253 33.2714 24.4962 32.1771 24.9831ZM43.7036 27.6392C43.5128 27.7388 43.2951 27.744 43.0937 27.667L35.3454 24.5328C35.2894 24.5079 35.2462 24.4751 35.2057 24.4346C35.1678 24.3966 35.1376 24.3509 35.1177 24.2999C35.0729 24.1929 35.0743 24.075 35.1217 23.9669L38.4424 16.1414C38.5242 15.9432 38.6822 15.7953 38.8828 15.7212C39.0886 15.647 39.3087 15.6598 39.4919 15.76L46.42 19.3702C46.443 19.3776 46.4607 19.3953 46.4708 19.4054C46.524 19.4586 46.5409 19.5378 46.5196 19.6097L44.1086 27.1785C44.0739 27.2942 44.0112 27.3974 43.9257 27.4829C43.8557 27.5529 43.7834 27.605 43.7036 27.6392Z" fill="white"/>
<path opacity="0.38" d="M44.515 27.2582C44.4351 27.5153 44.2533 27.7224 44.0112 27.838L37.474 23.4471L37.4715 23.4446L39.0562 15.5835C39.3108 15.4908 39.5796 15.5055 39.8112 15.6282L46.7342 19.2384C46.8385 19.291 46.9066 19.3849 46.9309 19.4922C46.9455 19.5586 46.9421 19.6278 46.9208 19.6946L44.515 27.2582Z" fill="#FFFA87" fill-opacity="0.19"/>
</g>
<path d="M58.2385 13.0702H61.7511V30.0273H58.2385V13.0702ZM67.9985 21.4277V19.8531H70.7359C71.2365 19.8531 71.6725 19.7723 72.044 19.6108C72.4154 19.4493 72.698 19.2152 72.8918 18.9083C73.1018 18.6015 73.2068 18.2381 73.2068 17.8182C73.2068 17.1722 72.9807 16.6797 72.5285 16.3405C72.0924 16.0014 71.4949 15.8318 70.7359 15.8318H68.8706V27.2658H71.0992C71.6806 27.2658 72.2055 27.185 72.6738 27.0235C73.1422 26.8459 73.5055 26.5713 73.7639 26.1999C74.0385 25.8284 74.1757 25.352 74.1757 24.7706C74.1757 24.3508 74.095 23.9955 73.9335 23.7048C73.7881 23.3979 73.5701 23.1476 73.2794 22.9538C73.0049 22.7439 72.6819 22.5985 72.3104 22.5178C71.939 22.4209 71.5353 22.3724 71.0992 22.3724H67.9985V20.4829H71.4141C72.2378 20.4829 73.021 20.5717 73.7639 20.7494C74.5229 20.927 75.2012 21.2097 75.7988 21.5972C76.3963 21.9687 76.8646 22.4532 77.2038 23.0507C77.5591 23.6482 77.7367 24.3669 77.7367 25.2067C77.7367 26.321 77.4703 27.2335 76.9373 27.944C76.4205 28.6546 75.6857 29.1795 74.7329 29.5186C73.7801 29.8578 72.6738 30.0273 71.4141 30.0273H65.4065V13.0702H71.0508C72.1813 13.0702 73.1745 13.2317 74.0304 13.5547C74.8863 13.8616 75.5565 14.3299 76.041 14.9597C76.5255 15.5896 76.7677 16.389 76.7677 17.358C76.7677 18.2139 76.5255 18.9487 76.041 19.5624C75.5565 20.1761 74.8863 20.6444 74.0304 20.9674C73.1745 21.2743 72.1813 21.4277 71.0508 21.4277H67.9985ZM95.8859 23.6079L99.5196 13.0702H103.589L96.4431 30.9721L91.1137 19.8289L85.7601 30.9721L78.6381 13.0702H82.7078L86.3899 23.6079L91.1137 12.2224L95.8859 23.6079ZM104.195 30.0273L112.214 21.4761C112.585 21.0724 112.9 20.6767 113.158 20.2891C113.433 19.8854 113.635 19.4816 113.764 19.0779C113.909 18.658 113.982 18.222 113.982 17.7698C113.982 17.3983 113.909 17.035 113.764 16.6797C113.619 16.3244 113.401 16.0014 113.11 15.7107C112.835 15.42 112.496 15.1858 112.092 15.0082C111.689 14.8306 111.228 14.7417 110.712 14.7417C109.985 14.7417 109.355 14.9113 108.822 15.2504C108.305 15.5734 107.91 16.0498 107.635 16.6797C107.361 17.2934 107.223 18.0282 107.223 18.8841H105.164C105.164 17.6729 105.382 16.6151 105.818 15.7107C106.254 14.7902 106.884 14.0796 107.708 13.579C108.548 13.0622 109.549 12.8038 110.712 12.8038C111.648 12.8038 112.456 12.9653 113.134 13.2883C113.812 13.5951 114.37 13.9988 114.806 14.4995C115.242 14.984 115.565 15.5088 115.775 16.0741C115.985 16.6393 116.089 17.1803 116.089 17.6971C116.089 18.5692 115.88 19.4332 115.46 20.2891C115.04 21.1451 114.499 21.9122 113.837 22.5904L108.435 28.0894H116.162V30.0273H104.195ZM120.531 21.5488C120.531 22.5339 120.628 23.4464 120.821 24.2862C121.015 25.1098 121.298 25.8284 121.669 26.4421C122.041 27.0397 122.485 27.508 123.002 27.8471C123.535 28.1701 124.124 28.3316 124.77 28.3316C125.432 28.3316 126.022 28.1701 126.538 27.8471C127.055 27.508 127.499 27.0397 127.871 26.4421C128.242 25.8284 128.525 25.1098 128.719 24.2862C128.912 23.4464 129.009 22.5339 129.009 21.5488C129.009 20.5637 128.912 19.6593 128.719 18.8357C128.525 17.9959 128.242 17.2772 127.871 16.6797C127.499 16.066 127.055 15.5977 126.538 15.2747C126.022 14.9355 125.432 14.766 124.77 14.766C124.124 14.766 123.535 14.9355 123.002 15.2747C122.485 15.5977 122.041 16.066 121.669 16.6797C121.298 17.2772 121.015 17.9959 120.821 18.8357C120.628 19.6593 120.531 20.5637 120.531 21.5488ZM118.472 21.5488C118.472 19.8531 118.738 18.3512 119.271 17.0431C119.804 15.7349 120.539 14.7094 121.475 13.9665C122.428 13.2075 123.526 12.828 124.77 12.828C126.013 12.828 127.104 13.2075 128.04 13.9665C128.993 14.7094 129.736 15.7349 130.269 17.0431C130.802 18.3512 131.068 19.8531 131.068 21.5488C131.068 23.2445 130.802 24.7464 130.269 26.0545C129.736 27.3627 128.993 28.3962 128.04 29.1553C127.104 29.8981 126.013 30.2696 124.77 30.2696C123.526 30.2696 122.428 29.8981 121.475 29.1553C120.539 28.3962 119.804 27.3627 119.271 26.0545C118.738 24.7464 118.472 23.2445 118.472 21.5488ZM132.512 30.0273L140.531 21.4761C140.902 21.0724 141.217 20.6767 141.475 20.2891C141.75 19.8854 141.952 19.4816 142.081 19.0779C142.226 18.658 142.299 18.222 142.299 17.7698C142.299 17.3983 142.226 17.035 142.081 16.6797C141.936 16.3244 141.718 16.0014 141.427 15.7107C141.152 15.42 140.813 15.1858 140.409 15.0082C140.006 14.8306 139.545 14.7417 139.029 14.7417C138.302 14.7417 137.672 14.9113 137.139 15.2504C136.622 15.5734 136.227 16.0498 135.952 16.6797C135.678 17.2934 135.54 18.0282 135.54 18.8841H133.481C133.481 17.6729 133.699 16.6151 134.135 15.7107C134.571 14.7902 135.201 14.0796 136.025 13.579C136.865 13.0622 137.866 12.8038 139.029 12.8038C139.965 12.8038 140.773 12.9653 141.451 13.2883C142.129 13.5951 142.687 13.9988 143.123 14.4995C143.559 14.984 143.882 15.5088 144.092 16.0741C144.302 16.6393 144.407 17.1803 144.407 17.6971C144.407 18.5692 144.197 19.4332 143.777 20.2891C143.357 21.1451 142.816 21.9122 142.154 22.5904L136.752 28.0894H144.479V30.0273H132.512ZM158.513 24.4557C158.513 25.4247 158.36 26.2726 158.053 26.9993C157.746 27.726 157.318 28.3316 156.769 28.8161C156.22 29.3006 155.59 29.664 154.88 29.9062C154.169 30.1485 153.402 30.2696 152.578 30.2696C151.545 30.2696 150.64 30.1081 149.865 29.7851C149.106 29.4621 148.452 29.0341 147.903 28.5012C147.37 27.9521 146.918 27.3546 146.546 26.7086L148.291 25.5216C148.549 26.0061 148.888 26.4664 149.308 26.9024C149.744 27.3223 150.245 27.6695 150.81 27.944C151.375 28.2024 151.965 28.3316 152.578 28.3316C153.386 28.3316 154.072 28.1701 154.637 27.8471C155.203 27.5242 155.631 27.072 155.921 26.4906C156.228 25.9092 156.382 25.2309 156.382 24.4557C156.382 23.6805 156.212 23.0023 155.873 22.4209C155.55 21.8395 155.098 21.3873 154.516 21.0643C153.951 20.7413 153.305 20.5798 152.578 20.5798C152.045 20.5798 151.553 20.6283 151.101 20.7252C150.665 20.8059 150.22 20.9593 149.768 21.1854C149.332 21.3954 148.823 21.7022 148.242 22.106L150.471 13.0702H158.465V14.8871H152.07L150.931 19.3686C151.335 19.1587 151.747 19.0052 152.166 18.9083C152.602 18.7953 153.03 18.7388 153.45 18.7388C154.419 18.7388 155.283 18.981 156.042 19.4655C156.818 19.95 157.423 20.6202 157.859 21.4761C158.295 22.3321 158.513 23.3253 158.513 24.4557Z" fill="white"/>
</g>
<defs>
<linearGradient id="paint0_linear_95_44767" x1="46.1605" y1="13.609" x2="2.74818" y2="24.7556" gradientUnits="userSpaceOnUse">
<stop offset="0.1" stop-color="#FFF42F"/>
<stop offset="0.3125" stop-color="#FFA232"/>
<stop offset="0.46875" stop-color="#F450B2"/>
<stop offset="0.71" stop-color="#3FCBFF"/>
<stop offset="0.96" stop-color="#D0D81D"/>
</linearGradient>
<clipPath id="clip0_95_44767">
<rect width="160" height="40" fill="white"/>
</clipPath>
<clipPath id="clip1_95_44767">
<rect width="39.3647" height="40.8787" fill="white" transform="translate(24.9131 -6) rotate(45)"/>
</clipPath>
</defs>
</svg>
