<svg width="33" height="33" viewBox="0 0 33 33" fill="none" xmlns="http://www.w3.org/2000/svg">
<path d="M7.96621 6.83984H25.5162C27.7691 6.83984 29.6102 8.53541 29.7346 10.6718L29.7412 10.9023V22.7773C29.7412 24.9436 27.9778 26.7138 25.7559 26.8335L25.5162 26.8398H7.96621C5.71327 26.8398 3.87219 25.1442 3.74789 23.0078L3.74121 22.7773V10.9023C3.74121 8.73606 5.5046 6.96578 7.72646 6.84627L7.96621 6.83984ZM27.7912 13.5561L17.1953 18.9195C16.9517 19.0427 16.6672 19.0603 16.4121 18.9723L16.2871 18.9195L5.69121 13.5573V22.7773C5.69121 23.9251 6.61045 24.8663 7.77962 24.9576L7.96621 24.9648H25.5162C26.7099 24.9648 27.6888 24.081 27.7837 22.9567L27.7912 22.7773V13.5561ZM25.5162 8.71484H7.96621C6.77259 8.71484 5.79366 9.59873 5.69875 10.7229L5.69121 10.9023V11.4386L16.7412 17.0305L27.7912 11.4373V10.9023C27.7912 9.75463 26.872 8.81336 25.7028 8.72209L25.5162 8.71484Z" fill="white"/>
</svg>
