<svg width="33" height="33" viewBox="0 0 33 33" fill="none" xmlns="http://www.w3.org/2000/svg">
<path d="M16 4C13.4288 4 10.9154 4.76244 8.77759 6.19089C6.63975 7.61935 4.97351 9.64967 3.98957 12.0251C3.00563 14.4006 2.74819 17.0144 3.2498 19.5362C3.7514 22.0579 4.98953 24.3743 6.80762 26.1924C8.6257 28.0105 10.9421 29.2486 13.4638 29.7502C15.9856 30.2518 18.5994 29.9944 20.9749 29.0104C23.3503 28.0265 25.3806 26.3602 26.8091 24.2224C28.2376 22.0846 29 19.5712 29 17C28.9964 13.5533 27.6256 10.2488 25.1884 7.81163C22.7512 5.37445 19.4467 4.00364 16 4ZM21 19C21 19.2652 20.8946 19.5196 20.7071 19.7071C20.5196 19.8946 20.2652 20 20 20C19.7348 20 19.4804 19.8946 19.2929 19.7071C19.1054 19.5196 19 19.2652 19 19V15.4137L12.7075 21.7075C12.6146 21.8004 12.5043 21.8741 12.3829 21.9244C12.2615 21.9747 12.1314 22.0006 12 22.0006C11.8686 22.0006 11.7385 21.9747 11.6171 21.9244C11.4957 21.8741 11.3854 21.8004 11.2925 21.7075C11.1996 21.6146 11.1259 21.5043 11.0756 21.3829C11.0253 21.2615 10.9994 21.1314 10.9994 21C10.9994 20.8686 11.0253 20.7385 11.0756 20.6171C11.1259 20.4957 11.1996 20.3854 11.2925 20.2925L17.5863 14H14C13.7348 14 13.4804 13.8946 13.2929 13.7071C13.1054 13.5196 13 13.2652 13 13C13 12.7348 13.1054 12.4804 13.2929 12.2929C13.4804 12.1054 13.7348 12 14 12H20C20.2652 12 20.5196 12.1054 20.7071 12.2929C20.8946 12.4804 21 12.7348 21 13V19Z" fill="white"/>
</svg>
