<svg width="41" height="41" viewBox="0 0 41 41" fill="none" xmlns="http://www.w3.org/2000/svg">
<path d="M20.5001 34.4401C12.7921 34.4401 6.56006 28.2081 6.56006 20.5001C6.56006 12.7921 12.7921 6.56006 20.5001 6.56006C28.2081 6.56006 34.4401 12.7921 34.4401 20.5001C34.4401 28.2081 28.2081 34.4401 20.5001 34.4401ZM20.5001 8.20006C13.6941 8.20006 8.20006 13.6941 8.20006 20.5001C8.20006 27.3061 13.6941 32.8001 20.5001 32.8001C27.3061 32.8001 32.8001 27.3061 32.8001 20.5001C32.8001 13.6941 27.3061 8.20006 20.5001 8.20006Z" fill="white"/>
<path d="M18.8596 26.5679L11.7256 19.4339L12.8736 18.2859L18.8596 24.2719L28.1256 15.0059L29.2736 16.1539L18.8596 26.5679Z" fill="white"/>
</svg>
