<svg width="125" height="40" viewBox="0 0 125 40" fill="none" xmlns="http://www.w3.org/2000/svg">
<g clip-path="url(#clip0_128_45589)">
<path fill-rule="evenodd" clip-rule="evenodd" d="M39.1668 23.7237C39.1668 25.2666 38.2612 26.1523 36.4798 26.1523H32.2191V24.3237H35.9749C36.5242 24.3237 36.7915 24.138 36.7915 23.6666C36.7915 23.2809 36.4946 23.0381 35.8414 22.5952L33.6146 20.938C32.4863 20.1094 32.0112 19.338 32.0112 18.4237C32.0112 16.8666 32.9614 16.1523 34.8319 16.1523H38.9886V17.9809H35.2476C34.6686 17.9809 34.3865 18.1666 34.3865 18.6523C34.3865 19.0238 34.6834 19.2666 35.3515 19.6951L37.5634 21.1809C38.6917 21.9238 39.1668 22.8238 39.1668 23.7237Z" fill="white"/>
<path fill-rule="evenodd" clip-rule="evenodd" d="M47.8779 17.9809H45.1856V26.1523H42.7924V17.9809H40.1001V16.1523H47.8779V17.9809Z" fill="white"/>
<path fill-rule="evenodd" clip-rule="evenodd" d="M54.2982 22.5523L52.8704 18.5951L51.4279 22.5523H54.2982ZM54.9101 24.2237H50.8014L50.1021 26.1523H47.5669L51.6319 16.1523H54.0796L58.1447 26.1523H55.6095L54.9101 24.2237Z" fill="white"/>
<path fill-rule="evenodd" clip-rule="evenodd" d="M62.1805 20.8666C63.4867 20.8666 63.8726 20.4237 63.8726 19.3666C63.8726 18.3095 63.4867 17.8666 62.1805 17.8666H61.1415V20.8666H62.1805ZM66.5444 26.1523H64.1547L63.6945 24.238C63.3977 22.9095 63.1305 22.5523 62.0914 22.538H61.1415V26.1523H58.7666V16.1523H63.0266C65.2382 16.1523 66.2475 17.0952 66.2475 19.1523C66.2475 20.5381 65.6835 21.3809 64.5406 21.7238C65.357 22.0952 65.7577 22.8381 66.0842 24.238L66.5444 26.1523Z" fill="white"/>
<path fill-rule="evenodd" clip-rule="evenodd" d="M70.4135 20.9952L74.1004 16.1523H76.8621L72.9871 20.9952L77.1223 26.1523H74.3607L70.4135 20.9952ZM68.1001 26.1523H70.4135V16.1523H68.1001V26.1523Z" fill="white"/>
<path fill-rule="evenodd" clip-rule="evenodd" d="M92.3667 16.1523L89.262 26.1523H87.8112L85.3594 18.1523L82.9076 26.1523H81.4423L78.3667 16.1523H79.7885L82.2113 24.5952L84.7792 16.1523H85.9398L88.5077 24.5952L90.945 16.1523H92.3667Z" fill="white"/>
<path fill-rule="evenodd" clip-rule="evenodd" d="M98.5178 22.5952L96.5742 17.5809L94.6158 22.5952H98.5178ZM98.886 23.5524H94.2477L93.2317 26.1523H91.7446L95.8527 16.1523H97.281L101.389 26.1523H99.9019L98.886 23.5524Z" fill="white"/>
<path fill-rule="evenodd" clip-rule="evenodd" d="M105.855 21.0523C107.488 21.0523 108.096 20.4381 108.096 19.0952C108.096 17.7809 107.488 17.1524 105.855 17.1524H103.999V21.0523H105.855ZM109.789 26.1523H108.408L108.037 24.438C107.666 22.6523 107.206 22.0523 105.81 22.0238H103.999V26.1523H102.633V16.1523H106.315C108.497 16.1523 109.462 17.0809 109.462 18.9809C109.462 20.4094 108.854 21.2809 107.577 21.5666C108.586 21.938 109.047 22.7809 109.403 24.438L109.789 26.1523Z" fill="white"/>
<path d="M113.324 17.2094V20.2523H117.895V21.238H113.324V23.3809C113.324 24.5667 113.855 25.0952 115.064 25.0952H118.5V26.1523H114.857C112.704 26.1523 111.967 25.4666 111.967 23.4952V16.1523H118.5V17.2094H113.324Z" fill="white"/>
<path fill-rule="evenodd" clip-rule="evenodd" d="M16.441 22.2825L14.6816 24.0498C14.6804 24.0508 14.6794 24.0519 14.6781 24.0527C14.6737 24.0555 14.6686 24.0571 14.6631 24.0571C14.6478 24.0571 14.6354 24.0446 14.6354 24.0292C14.6354 24.0262 14.6358 24.0231 14.6368 24.0203C14.6368 24.0204 14.6368 24.0202 14.6368 24.0203L15.3061 21.5124C15.3632 21.3326 15.3208 21.128 15.1787 20.9854L13.4193 19.218C13.4183 19.2169 13.4173 19.2158 13.4164 19.2145C13.4137 19.2102 13.412 19.205 13.412 19.1995C13.412 19.1841 13.4244 19.1716 13.4398 19.1716C13.4429 19.1716 13.4459 19.1722 13.4487 19.1731L15.9455 19.8454C16.1244 19.9028 16.3281 19.8602 16.4701 19.7175L18.2296 17.9503C18.2307 17.9492 18.2318 17.9481 18.2331 17.9473C18.2374 17.9445 18.2425 17.9429 18.2481 17.9429C18.2634 17.9429 18.2758 17.9554 18.2758 17.9708C18.2758 17.9739 18.2753 17.9769 18.2743 17.9797L17.605 20.4876C17.548 20.6673 17.5904 20.872 17.7323 21.0146L19.4918 22.782C19.4928 22.7831 19.4939 22.7842 19.4947 22.7854C19.4975 22.7898 19.4991 22.795 19.4991 22.8005C19.4991 22.8158 19.4866 22.8283 19.4714 22.8283C19.4683 22.8283 19.4653 22.8278 19.4625 22.8269C19.4626 22.8269 19.4624 22.8269 19.4625 22.8269L16.9657 22.1546C16.7868 22.0972 16.5829 22.1399 16.441 22.2825ZM26.3352 20.8158L22.1327 16.5946C21.9907 16.452 21.787 16.4094 21.608 16.4667L18.8445 17.2111C18.8442 17.211 18.8441 17.2106 18.8436 17.2108C18.841 17.2116 18.8382 17.2121 18.8353 17.2121C18.82 17.2121 18.8076 17.1996 18.8076 17.1842C18.8076 17.1744 18.8127 17.1658 18.8204 17.1608C19.122 16.9593 19.5792 16.5946 20.6726 15.4963C20.7738 15.3946 20.7738 15.2297 20.6726 15.128L16.6389 11.0763C16.5377 10.9746 16.3735 10.9746 16.2723 11.0763L12.0698 15.2975C11.9278 15.4401 11.8854 15.6448 11.9425 15.8246L12.6835 18.6004C12.6834 18.6007 12.6831 18.6008 12.6832 18.6014C12.6841 18.604 12.6845 18.6068 12.6845 18.6096C12.6845 18.625 12.6721 18.6375 12.6567 18.6375C12.647 18.6375 12.6384 18.6324 12.6334 18.6246C12.4328 18.3216 12.0698 17.8625 10.9764 16.7642C10.8751 16.6624 10.7109 16.6624 10.6097 16.7642L6.57596 20.8158C6.47468 20.9176 6.47468 21.0825 6.57596 21.1842L10.7784 25.4054C10.9204 25.548 11.1242 25.5906 11.3031 25.5333L14.0666 24.7889C14.067 24.789 14.067 24.7894 14.0676 24.7892C14.0702 24.7884 14.073 24.7879 14.0758 24.7879C14.0911 24.7879 14.1035 24.8004 14.1035 24.8158C14.1035 24.8256 14.0985 24.8342 14.0908 24.8392C14.0908 24.8392 14.0907 24.8392 14.0908 24.8392C13.7891 25.0407 13.332 25.4054 12.2385 26.5037C12.1373 26.6054 12.1373 26.7703 12.2385 26.872L16.2723 30.9237C16.3735 31.0254 16.5377 31.0254 16.6389 30.9237L20.8413 26.7025C20.9833 26.5599 21.0258 26.3552 20.9687 26.1754L20.2277 23.3996C20.2277 23.3992 20.2281 23.3992 20.2279 23.3987C20.2271 23.396 20.2267 23.3933 20.2267 23.3904C20.2267 23.375 20.2391 23.3625 20.2544 23.3625C20.2642 23.3625 20.2728 23.3676 20.2777 23.3754C20.4783 23.6784 20.8413 24.1376 21.9348 25.2358C22.0361 25.3376 22.2002 25.3376 22.3015 25.2358L26.3352 21.1842C26.4364 21.0825 26.4364 20.9176 26.3352 20.8158Z" fill="white"/>
</g>
<defs>
<clipPath id="clip0_128_45589">
<rect width="112" height="20" fill="white" transform="translate(6.5 11)"/>
</clipPath>
</defs>
</svg>
