<svg width="105" height="30" viewBox="0 0 105 30" fill="none" xmlns="http://www.w3.org/2000/svg">
<g clip-path="url(#clip0_127_45451)">
<path fill-rule="evenodd" clip-rule="evenodd" d="M1 15V27H13.321H25.6419V15V3H13.321H1V15ZM46.854 9.33191V10.4553H49.0438H51.2336V16.0979V21.7404H52.5H53.7664V16.0979V10.4553H55.9562H58.146V9.33191V8.20851H52.5H46.854V9.33191ZM62.6839 14.9745V21.7404H67.5648H72.4457V20.617V19.4936H68.8048H65.1639V13.8511V8.20851H63.9239H62.6839V14.9745ZM76.9308 14.9745V21.7404H82.1019H87.273V20.6426V19.5447H83.21H79.147V17.783V16.0213H82.2602H85.3735V14.9234V13.8255H82.2602H79.147V12.1149V10.4043H83.21H87.273V9.30638V8.20851H82.1019H76.9308V14.9745ZM92.1803 14.9745V21.7404H93.4203H94.6603V19.3915V17.0426L96.1774 17.0453L97.6944 17.0481L99.3861 19.3815L101.078 21.7149L102.545 21.7285C103.724 21.7394 104.007 21.7291 103.986 21.6763C103.971 21.6402 103.19 20.5656 102.25 19.2883C101.309 18.011 100.485 16.8912 100.419 16.7998C100.306 16.6436 100.305 16.6317 100.395 16.602C100.687 16.5059 101.356 16.2113 101.616 16.0637C101.781 15.9702 102.132 15.6862 102.395 15.4326C102.786 15.0577 102.916 14.8908 103.095 14.539C103.445 13.8485 103.539 13.4245 103.539 12.5234C103.539 11.6283 103.445 11.1951 103.106 10.5319C102.444 9.23796 101.086 8.44948 99.194 8.26162C98.8864 8.23103 97.2849 8.20851 95.4197 8.20851H92.1803V14.9745ZM17.4205 14.9234C19.0663 18.5745 20.4252 21.5905 20.4402 21.6255C20.4616 21.6756 20.1969 21.6891 19.216 21.6883L17.9644 21.6872L15.6475 16.3904C14.3732 13.4772 13.3147 11.0757 13.2953 11.0539C13.2759 11.0321 12.2073 13.4161 10.9207 16.3518L8.58137 21.6894H7.37893H6.17649L6.2482 21.5234C6.43198 21.098 12.1492 8.42906 12.1936 8.34878C12.24 8.26494 12.333 8.25866 13.3361 8.27132L14.4282 8.28511L17.4205 14.9234ZM30.2326 15V21.7404H31.4459H32.6593L32.6728 17.0199L32.6862 12.2994L36.459 17.0194L40.2318 21.7394L41.3003 21.7399L42.3688 21.7404V15V8.25957H41.1291H39.8894L39.8759 12.8555L39.8624 17.4514L36.1952 12.8581L32.5279 8.26488L31.3802 8.26223L30.2326 8.25957V15ZM99.1455 10.5276C99.908 10.6844 100.541 11.1148 100.806 11.6559C101.334 12.736 100.922 13.9751 99.8536 14.5243C99.2188 14.8504 99.1228 14.8617 96.7842 14.8844L94.6603 14.9051V12.6802V10.4553L96.7314 10.4562C98.2896 10.4569 98.8875 10.4746 99.1455 10.5276Z" fill="white"/>
</g>
<defs>
<clipPath id="clip0_127_45451">
<rect width="103" height="24" fill="white" transform="translate(1 3)"/>
</clipPath>
</defs>
</svg>
