<svg width="160" height="51" viewBox="0 0 160 51" fill="none" xmlns="http://www.w3.org/2000/svg">
<path d="M6.89032 17.7461H9.79032V31.7461H6.89032V17.7461ZM14.5483 24.6461V23.3461H16.8083C17.2216 23.3461 17.5816 23.2794 17.8883 23.1461C18.195 23.0128 18.4283 22.8194 18.5883 22.5661C18.7616 22.3128 18.8483 22.0128 18.8483 21.6661C18.8483 21.1328 18.6616 20.7261 18.2883 20.4461C17.9283 20.1661 17.435 20.0261 16.8083 20.0261H15.2683V29.4661H17.1083C17.5883 29.4661 18.0216 29.3994 18.4083 29.2661C18.795 29.1194 19.095 28.8928 19.3083 28.5861C19.535 28.2794 19.6483 27.8861 19.6483 27.4061C19.6483 27.0594 19.5816 26.7661 19.4483 26.5261C19.3283 26.2728 19.1483 26.0661 18.9083 25.9061C18.6816 25.7328 18.415 25.6128 18.1083 25.5461C17.8016 25.4661 17.4683 25.4261 17.1083 25.4261H14.5483V23.8661H17.3683C18.0483 23.8661 18.695 23.9394 19.3083 24.0861C19.935 24.2328 20.495 24.4661 20.9883 24.7861C21.4816 25.0928 21.8683 25.4928 22.1483 25.9861C22.4416 26.4794 22.5883 27.0728 22.5883 27.7661C22.5883 28.6861 22.3683 29.4394 21.9283 30.0261C21.5016 30.6128 20.895 31.0461 20.1083 31.3261C19.3216 31.6061 18.4083 31.7461 17.3683 31.7461H12.4083V17.7461H17.0683C18.0016 17.7461 18.8216 17.8794 19.5283 18.1461C20.235 18.3994 20.7883 18.7861 21.1883 19.3061C21.5883 19.8261 21.7883 20.4861 21.7883 21.2861C21.7883 21.9928 21.5883 22.5994 21.1883 23.1061C20.7883 23.6128 20.235 23.9994 19.5283 24.2661C18.8216 24.5194 18.0016 24.6461 17.0683 24.6461H14.5483ZM37.1725 26.4461L40.1725 17.7461H43.5325L37.6325 32.5261L33.2325 23.3261L28.8125 32.5261L22.9325 17.7461H26.2925L29.3325 26.4461L33.2325 17.0461L37.1725 26.4461ZM53.4289 23.8861L52.5289 31.7461H49.5489L51.6289 17.0461L57.4889 26.0861L63.3489 17.0461L65.4289 31.7461H62.4489L61.5489 23.8861L57.4889 30.4461L53.4289 23.8861ZM71.3731 31.9461C70.3731 31.9461 69.4998 31.7461 68.7531 31.3461C68.0065 30.9461 67.4265 30.3928 67.0131 29.6861C66.6131 28.9661 66.4131 28.1194 66.4131 27.1461C66.4131 26.1594 66.6131 25.3128 67.0131 24.6061C67.4265 23.8861 68.0065 23.3328 68.7531 22.9461C69.4998 22.5461 70.3798 22.3461 71.3931 22.3461C72.4065 22.3461 73.2665 22.5328 73.9731 22.9061C74.6931 23.2661 75.2398 23.7994 75.6131 24.5061C75.9865 25.1994 76.1731 26.0394 76.1731 27.0261C76.1731 27.1461 76.1665 27.2728 76.1531 27.4061C76.1531 27.5394 76.1465 27.6461 76.1331 27.7261H67.8931V26.1261H73.8731L73.1731 27.0461C73.2265 26.9661 73.2731 26.8594 73.3131 26.7261C73.3665 26.5794 73.3931 26.4594 73.3931 26.3661C73.3931 25.9128 73.3065 25.5261 73.1331 25.2061C72.9731 24.8861 72.7398 24.6328 72.4331 24.4461C72.1265 24.2594 71.7665 24.1661 71.3531 24.1661C70.8465 24.1661 70.4198 24.2794 70.0731 24.5061C69.7398 24.7194 69.4798 25.0461 69.2931 25.4861C69.1198 25.9128 69.0265 26.4461 69.0131 27.0861C69.0131 27.6994 69.0998 28.2194 69.2731 28.6461C69.4598 29.0728 69.7331 29.3994 70.0931 29.6261C70.4531 29.8528 70.8865 29.9661 71.3931 29.9661C71.9665 29.9661 72.4531 29.8594 72.8531 29.6461C73.2665 29.4194 73.6065 29.0861 73.8731 28.6461L76.1331 29.3461C75.6531 30.2128 75.0131 30.8661 74.2131 31.3061C73.4265 31.7328 72.4798 31.9461 71.3731 31.9461ZM80.2669 22.5461V31.7461H77.7269V22.5461H80.2669ZM82.9669 25.2461C82.7935 25.0861 82.6135 24.9661 82.4269 24.8861C82.2535 24.7928 82.0335 24.7461 81.7669 24.7461C81.4469 24.7461 81.1735 24.8328 80.9469 25.0061C80.7202 25.1794 80.5469 25.4261 80.4269 25.7461C80.3202 26.0528 80.2669 26.4261 80.2669 26.8661L79.5469 26.1461C79.5469 25.4128 79.6869 24.7661 79.9669 24.2061C80.2469 23.6328 80.6135 23.1794 81.0669 22.8461C81.5202 22.4994 81.9869 22.3261 82.4669 22.3261C82.8002 22.3261 83.1135 22.3861 83.4069 22.5061C83.7135 22.6261 83.9602 22.8061 84.1469 23.0461L82.9669 25.2461ZM86.7869 27.1461C86.7869 27.6794 86.9069 28.1461 87.1469 28.5461C87.3869 28.9461 87.7069 29.2594 88.1069 29.4861C88.5202 29.7128 88.9735 29.8261 89.4669 29.8261C89.8669 29.8261 90.2535 29.7661 90.6269 29.6461C91.0002 29.5128 91.3335 29.3394 91.6269 29.1261C91.9335 28.8994 92.1669 28.6394 92.3269 28.3461V31.0061C92.0069 31.2994 91.5869 31.5328 91.0669 31.7061C90.5602 31.8661 89.9669 31.9461 89.2869 31.9461C88.3135 31.9461 87.4335 31.7461 86.6469 31.3461C85.8735 30.9461 85.2602 30.3861 84.8069 29.6661C84.3669 28.9328 84.1469 28.0928 84.1469 27.1461C84.1469 26.1861 84.3669 25.3461 84.8069 24.6261C85.2602 23.9061 85.8735 23.3461 86.6469 22.9461C87.4335 22.5461 88.3135 22.3461 89.2869 22.3461C89.9669 22.3461 90.5602 22.4328 91.0669 22.6061C91.5869 22.7661 92.0069 22.9861 92.3269 23.2661V25.9261C92.1669 25.6328 91.9269 25.3794 91.6069 25.1661C91.3002 24.9394 90.9602 24.7661 90.5869 24.6461C90.2135 24.5261 89.8402 24.4661 89.4669 24.4661C88.9735 24.4661 88.5202 24.5861 88.1069 24.8261C87.7069 25.0528 87.3869 25.3661 87.1469 25.7661C86.9069 26.1661 86.7869 26.6261 86.7869 27.1461ZM96.812 16.1461V31.7461H94.212V16.1461H96.812ZM100.152 26.1461C100.152 25.5328 100.032 25.0661 99.792 24.7461C99.5654 24.4261 99.1787 24.2661 98.632 24.2661C98.272 24.2661 97.952 24.3461 97.672 24.5061C97.392 24.6528 97.1787 24.8661 97.032 25.1461C96.8854 25.4261 96.812 25.7594 96.812 26.1461H96.292C96.292 25.4128 96.412 24.7528 96.652 24.1661C96.9054 23.5794 97.2787 23.1128 97.772 22.7661C98.2654 22.4194 98.872 22.2461 99.592 22.2461C100.312 22.2461 100.905 22.3794 101.372 22.6461C101.839 22.9128 102.185 23.3128 102.412 23.8461C102.639 24.3661 102.752 25.0061 102.752 25.7661V31.7461H100.152V26.1461ZM111.962 27.0461C112.255 27.5661 112.575 28.0194 112.922 28.4061C113.282 28.7928 113.675 29.0928 114.102 29.3061C114.529 29.5194 114.989 29.6261 115.482 29.6261C116.055 29.6261 116.522 29.4794 116.882 29.1861C117.242 28.8928 117.422 28.4928 117.422 27.9861C117.422 27.5461 117.309 27.1928 117.082 26.9261C116.869 26.6594 116.542 26.4261 116.102 26.2261C115.675 26.0128 115.149 25.7861 114.522 25.5461C114.189 25.4261 113.802 25.2661 113.362 25.0661C112.935 24.8528 112.529 24.5861 112.142 24.2661C111.755 23.9328 111.435 23.5328 111.182 23.0661C110.929 22.5861 110.802 22.0128 110.802 21.3461C110.802 20.5461 111.002 19.8594 111.402 19.2861C111.815 18.6994 112.369 18.2528 113.062 17.9461C113.769 17.6261 114.555 17.4661 115.422 17.4661C116.315 17.4661 117.082 17.6194 117.722 17.9261C118.375 18.2194 118.915 18.5994 119.342 19.0661C119.782 19.5194 120.122 19.9928 120.362 20.4861L118.122 21.7261C117.935 21.3928 117.709 21.0928 117.442 20.8261C117.189 20.5461 116.895 20.3261 116.562 20.1661C116.229 19.9928 115.849 19.9061 115.422 19.9061C114.862 19.9061 114.442 20.0394 114.162 20.3061C113.882 20.5594 113.742 20.8594 113.742 21.2061C113.742 21.5528 113.855 21.8594 114.082 22.1261C114.309 22.3794 114.655 22.6261 115.122 22.8661C115.589 23.0928 116.175 23.3261 116.882 23.5661C117.335 23.7261 117.769 23.9261 118.182 24.1661C118.609 24.4061 118.989 24.6994 119.322 25.0461C119.669 25.3794 119.935 25.7794 120.122 26.2461C120.322 26.6994 120.422 27.2261 120.422 27.8261C120.422 28.5061 120.289 29.1128 120.022 29.6461C119.755 30.1794 119.389 30.6328 118.922 31.0061C118.455 31.3661 117.929 31.6394 117.342 31.8261C116.769 32.0261 116.162 32.1261 115.522 32.1261C114.669 32.1261 113.869 31.9661 113.122 31.6461C112.389 31.3128 111.749 30.8661 111.202 30.3061C110.655 29.7461 110.229 29.1394 109.922 28.4861L111.962 27.0461ZM120.934 22.5461H126.614V24.7261H120.934V22.5461ZM122.514 19.3461H125.014V31.7461H122.514V19.3461ZM126.972 27.1461C126.972 26.1861 127.192 25.3461 127.632 24.6261C128.086 23.9061 128.693 23.3461 129.453 22.9461C130.226 22.5461 131.099 22.3461 132.073 22.3461C133.046 22.3461 133.913 22.5461 134.673 22.9461C135.446 23.3461 136.053 23.9061 136.493 24.6261C136.946 25.3461 137.173 26.1861 137.173 27.1461C137.173 28.0928 136.946 28.9328 136.493 29.6661C136.053 30.3861 135.446 30.9461 134.673 31.3461C133.913 31.7461 133.046 31.9461 132.073 31.9461C131.099 31.9461 130.226 31.7461 129.453 31.3461C128.693 30.9461 128.086 30.3861 127.632 29.6661C127.192 28.9328 126.972 28.0928 126.972 27.1461ZM129.613 27.1461C129.613 27.6661 129.719 28.1261 129.933 28.5261C130.159 28.9128 130.459 29.2194 130.833 29.4461C131.206 29.6594 131.619 29.7661 132.073 29.7661C132.526 29.7661 132.939 29.6594 133.313 29.4461C133.686 29.2194 133.979 28.9128 134.193 28.5261C134.419 28.1261 134.533 27.6661 134.533 27.1461C134.533 26.6261 134.419 26.1661 134.193 25.7661C133.979 25.3661 133.686 25.0594 133.313 24.8461C132.939 24.6328 132.526 24.5261 132.073 24.5261C131.619 24.5261 131.206 24.6328 130.833 24.8461C130.459 25.0594 130.159 25.3661 129.933 25.7661C129.719 26.1661 129.613 26.6261 129.613 27.1461ZM141.256 22.5461V31.7461H138.716V22.5461H141.256ZM143.956 25.2461C143.783 25.0861 143.603 24.9661 143.416 24.8861C143.243 24.7928 143.023 24.7461 142.756 24.7461C142.436 24.7461 142.163 24.8328 141.936 25.0061C141.709 25.1794 141.536 25.4261 141.416 25.7461C141.309 26.0528 141.256 26.4261 141.256 26.8661L140.536 26.1461C140.536 25.4128 140.676 24.7661 140.956 24.2061C141.236 23.6328 141.603 23.1794 142.056 22.8461C142.509 22.4994 142.976 22.3261 143.456 22.3261C143.789 22.3261 144.103 22.3861 144.396 22.5061C144.703 22.6261 144.949 22.8061 145.136 23.0461L143.956 25.2461ZM150.156 31.9461C149.156 31.9461 148.283 31.7461 147.536 31.3461C146.789 30.9461 146.209 30.3928 145.796 29.6861C145.396 28.9661 145.196 28.1194 145.196 27.1461C145.196 26.1594 145.396 25.3128 145.796 24.6061C146.209 23.8861 146.789 23.3328 147.536 22.9461C148.283 22.5461 149.163 22.3461 150.176 22.3461C151.189 22.3461 152.049 22.5328 152.756 22.9061C153.476 23.2661 154.023 23.7994 154.396 24.5061C154.769 25.1994 154.956 26.0394 154.956 27.0261C154.956 27.1461 154.949 27.2728 154.936 27.4061C154.936 27.5394 154.929 27.6461 154.916 27.7261H146.676V26.1261H152.656L151.956 27.0461C152.009 26.9661 152.056 26.8594 152.096 26.7261C152.149 26.5794 152.176 26.4594 152.176 26.3661C152.176 25.9128 152.089 25.5261 151.916 25.2061C151.756 24.8861 151.523 24.6328 151.216 24.4461C150.909 24.2594 150.549 24.1661 150.136 24.1661C149.629 24.1661 149.203 24.2794 148.856 24.5061C148.523 24.7194 148.263 25.0461 148.076 25.4861C147.903 25.9128 147.809 26.4461 147.796 27.0861C147.796 27.6994 147.883 28.2194 148.056 28.6461C148.243 29.0728 148.516 29.3994 148.876 29.6261C149.236 29.8528 149.669 29.9661 150.176 29.9661C150.749 29.9661 151.236 29.8594 151.636 29.6461C152.049 29.4194 152.389 29.0861 152.656 28.6461L154.916 29.3461C154.436 30.2128 153.796 30.8661 152.996 31.3061C152.209 31.7328 151.263 31.9461 150.156 31.9461Z" fill="white"/>
</svg>
