<svg width="136" height="30" viewBox="0 0 136 30" fill="none" xmlns="http://www.w3.org/2000/svg">
<g clip-path="url(#clip0_127_45462)">
<path d="M40.75 16.6032C40.75 13.6689 42.8484 11.6562 45.9565 11.6562C47.3807 11.6562 48.6094 12.1368 49.66 13.1149L48.3146 14.5142C47.7193 13.9375 46.87 13.6124 45.9974 13.6124C44.2142 13.6124 42.968 14.8393 42.968 16.6032C42.968 18.3672 44.1967 19.594 45.9974 19.594C46.9488 19.594 47.8185 19.2491 48.4138 18.6159L49.7797 20.0548C48.6911 21.0725 47.4828 21.5502 45.977 21.5502C42.8104 21.553 40.75 19.5968 40.75 16.6032Z" fill="white"/>
<path d="M61.3955 9.14352C61.3955 8.35767 61.991 7.80078 62.8023 7.80078C63.6135 7.80078 64.2468 8.35767 64.2468 9.14352C64.2468 9.9294 63.6515 10.4467 62.8023 10.4467C61.953 10.4467 61.3955 9.8898 61.3955 9.14352ZM61.6934 11.8658H63.9111V21.3413H61.6934V11.8658Z" fill="white"/>
<path d="M75.69 16.1044V21.3397H73.4717V16.2372C73.4717 14.5694 72.5819 13.6111 71.0963 13.6111C69.4739 13.6111 68.3442 14.7616 68.3442 16.3531V21.3397H66.1265V11.8641H68.1048L68.1251 13.1107C68.9572 12.1524 70.1243 11.6719 71.5105 11.6719C74.0264 11.6719 75.69 13.399 75.69 16.1016" fill="white"/>
<path d="M77.0186 20.1709L78.0482 18.6162C78.9184 19.2862 80.2082 19.6706 81.495 19.6706C82.7824 19.6706 83.4562 19.2862 83.4562 18.5964C83.4562 17.9067 82.8229 17.5985 81.3171 17.4459C78.7637 17.2169 77.3162 16.1794 77.3162 14.5314C77.3162 12.8833 79.0172 11.6367 81.5533 11.6367C83.0389 11.6367 84.3466 12.0014 85.4352 12.7307L84.4663 14.2657C83.5937 13.7286 82.6652 13.46 81.6558 13.46C80.2487 13.46 79.4958 13.8445 79.4958 14.5342C79.4958 15.1476 80.0708 15.4728 81.495 15.6282C84.3871 15.9363 85.6536 16.8353 85.6536 18.619C85.6536 20.4028 83.9698 21.5731 81.4367 21.5731C79.7934 21.5731 78.3287 21.1123 77.021 20.1738" fill="#4E47BC"/>
<path d="M102.22 11.8672L98.9725 21.3427H96.6174L95.6865 18.6375L94.2794 14.841L92.876 18.6375L91.9451 21.3427H89.5691L86.3003 11.8672H88.656L89.7649 15.3583L90.8154 18.889L93.3313 11.8672H95.2103L97.706 18.9258L98.7945 15.3583L99.8653 11.8672H102.22Z" fill="#4E47BC"/>
<path d="M103.033 9.14352C103.033 8.35767 103.628 7.80078 104.439 7.80078C105.251 7.80078 105.884 8.35767 105.884 9.14352C105.884 9.9294 105.288 10.4467 104.439 10.4467C103.59 10.4467 103.033 9.8898 103.033 9.14352ZM103.33 11.8658H105.549V21.3413H103.33V11.8658Z" fill="#4E47BC"/>
<path d="M114.239 21.0173C113.486 21.3423 112.853 21.4781 112.042 21.4781C110.022 21.4781 108.834 20.3473 108.834 18.083V13.6901H106.993V11.8696H108.834V9.37349L111.032 9.14453V11.8668H113.842V13.6873H111.032V18.0802C111.032 19.0385 111.487 19.5756 112.398 19.5756C112.795 19.5756 113.25 19.4597 113.627 19.2872L114.239 21.0145V21.0173Z" fill="#4E47BC"/>
<path d="M114.756 16.6032C114.756 13.6689 116.854 11.6562 119.962 11.6562C121.386 11.6562 122.615 12.1368 123.666 13.1149L122.32 14.5142C121.725 13.9375 120.876 13.6124 120.003 13.6124C118.22 13.6124 116.974 14.8392 116.974 16.6032C116.974 18.3672 118.202 19.594 120.003 19.594C120.954 19.594 121.824 19.2491 122.42 18.6159L123.786 20.0548C122.697 21.0725 121.489 21.5502 119.983 21.5502C116.816 21.5502 114.756 19.594 114.756 16.6032Z" fill="#4E47BC"/>
<path d="M134.634 16.1073V21.3426H132.416V16.2402C132.416 14.5724 131.525 13.614 130.04 13.614C128.417 13.614 127.288 14.7646 127.288 16.3561V21.3426H125.07V7.91797H127.288V12.9809C128.079 12.1187 129.15 11.6777 130.458 11.6777C133.011 11.6777 134.636 13.4219 134.636 16.1073" fill="#4E47BC"/>
<path d="M50.1655 16.7095C50.1655 13.9308 52.1617 11.8672 55.2815 11.8672C58.4013 11.8672 60.3771 13.9308 60.3771 16.7095C60.3771 19.4884 58.3809 21.552 55.2815 21.552C52.1821 21.552 50.1655 19.4884 50.1655 16.7095ZM55.2815 19.6382C57.0647 19.6382 58.2087 18.3237 58.2087 16.7095C58.2087 15.0954 57.0647 13.7809 55.2815 13.7809C53.4984 13.7809 52.3368 15.0954 52.3368 16.7095C52.3368 18.3237 53.4808 19.6382 55.2815 19.6382Z" fill="white"/>
<path d="M11.4184 14.7766V4.28516C5.49237 4.28516 0.688477 8.9823 0.688477 14.7766C0.688477 20.5708 5.49237 25.268 11.4184 25.268V14.7766Z" fill="white"/>
<path d="M12.9219 4.28516C12.9219 9.71517 17.4233 14.1123 22.9767 14.1166V4.28516H12.9219Z" fill="#6E90FF"/>
<path d="M23.9194 20.4357C23.9194 17.4983 21.484 15.1172 18.4799 15.1172C15.4758 15.1172 13.0405 17.4983 13.0405 20.4357C13.0405 23.3731 15.4758 25.7543 18.4799 25.7543C21.484 25.7543 23.9194 23.3731 23.9194 20.4357Z" fill="#514DE1"/>
</g>
<defs>
<clipPath id="clip0_127_45462">
<rect width="135" height="24" fill="white" transform="translate(0.25 3)"/>
</clipPath>
</defs>
</svg>
