<svg width="173" height="50" viewBox="0 0 173 50" fill="none" xmlns="http://www.w3.org/2000/svg">
<path d="M14.2855 18H17.0455V32.7L7.08547 23.32V32H4.32547V17.3L14.2855 26.68V18ZM23.7872 32.2C22.7872 32.2 21.9139 32 21.1672 31.6C20.4205 31.2 19.8405 30.6467 19.4272 29.94C19.0272 29.22 18.8272 28.3733 18.8272 27.4C18.8272 26.4133 19.0272 25.5667 19.4272 24.86C19.8405 24.14 20.4205 23.5867 21.1672 23.2C21.9139 22.8 22.7939 22.6 23.8072 22.6C24.8205 22.6 25.6805 22.7867 26.3872 23.16C27.1072 23.52 27.6539 24.0533 28.0272 24.76C28.4005 25.4533 28.5872 26.2933 28.5872 27.28C28.5872 27.4 28.5805 27.5267 28.5672 27.66C28.5672 27.7933 28.5605 27.9 28.5472 27.98H20.3072V26.38H26.2872L25.5872 27.3C25.6405 27.22 25.6872 27.1133 25.7272 26.98C25.7805 26.8333 25.8072 26.7133 25.8072 26.62C25.8072 26.1667 25.7205 25.78 25.5472 25.46C25.3872 25.14 25.1539 24.8867 24.8472 24.7C24.5405 24.5133 24.1805 24.42 23.7672 24.42C23.2605 24.42 22.8339 24.5333 22.4872 24.76C22.1539 24.9733 21.8939 25.3 21.7072 25.74C21.5339 26.1667 21.4405 26.7 21.4272 27.34C21.4272 27.9533 21.5139 28.4733 21.6872 28.9C21.8739 29.3267 22.1472 29.6533 22.5072 29.88C22.8672 30.1067 23.3005 30.22 23.8072 30.22C24.3805 30.22 24.8672 30.1133 25.2672 29.9C25.6805 29.6733 26.0205 29.34 26.2872 28.9L28.5472 29.6C28.0672 30.4667 27.4272 31.12 26.6272 31.56C25.8405 31.9867 24.8939 32.2 23.7872 32.2ZM28.9609 22.8H34.6409V24.98H28.9609V22.8ZM30.5409 19.6H33.0409V32H30.5409V19.6ZM34.2598 22.8H37.0198L39.0398 27.9L41.6398 22.1L44.3398 27.92L46.3798 22.8H49.1198L44.6198 32.62L41.6598 26.76L38.7798 32.62L34.2598 22.8ZM49.0334 27.4C49.0334 26.44 49.2534 25.6 49.6934 24.88C50.1468 24.16 50.7534 23.6 51.5134 23.2C52.2868 22.8 53.1601 22.6 54.1334 22.6C55.1068 22.6 55.9734 22.8 56.7334 23.2C57.5068 23.6 58.1134 24.16 58.5534 24.88C59.0068 25.6 59.2334 26.44 59.2334 27.4C59.2334 28.3467 59.0068 29.1867 58.5534 29.92C58.1134 30.64 57.5068 31.2 56.7334 31.6C55.9734 32 55.1068 32.2 54.1334 32.2C53.1601 32.2 52.2868 32 51.5134 31.6C50.7534 31.2 50.1468 30.64 49.6934 29.92C49.2534 29.1867 49.0334 28.3467 49.0334 27.4ZM51.6734 27.4C51.6734 27.92 51.7801 28.38 51.9934 28.78C52.2201 29.1667 52.5201 29.4733 52.8934 29.7C53.2668 29.9133 53.6801 30.02 54.1334 30.02C54.5868 30.02 55.0001 29.9133 55.3734 29.7C55.7468 29.4733 56.0401 29.1667 56.2534 28.78C56.4801 28.38 56.5934 27.92 56.5934 27.4C56.5934 26.88 56.4801 26.42 56.2534 26.02C56.0401 25.62 55.7468 25.3133 55.3734 25.1C55.0001 24.8867 54.5868 24.78 54.1334 24.78C53.6801 24.78 53.2668 24.8867 52.8934 25.1C52.5201 25.3133 52.2201 25.62 51.9934 26.02C51.7801 26.42 51.6734 26.88 51.6734 27.4ZM63.3169 22.8V32H60.7769V22.8H63.3169ZM66.0169 25.5C65.8435 25.34 65.6635 25.22 65.4769 25.14C65.3035 25.0467 65.0835 25 64.8169 25C64.4969 25 64.2235 25.0867 63.9969 25.26C63.7702 25.4333 63.5969 25.68 63.4769 26C63.3702 26.3067 63.3169 26.68 63.3169 27.12L62.5969 26.4C62.5969 25.6667 62.7369 25.02 63.0169 24.46C63.2969 23.8867 63.6635 23.4333 64.1169 23.1C64.5702 22.7533 65.0369 22.58 65.5169 22.58C65.8502 22.58 66.1635 22.64 66.4569 22.76C66.7635 22.88 67.0102 23.06 67.1969 23.3L66.0169 25.5ZM68.1098 16.4H70.6098V32H68.1098V16.4ZM73.9898 22.8H77.0898L73.1298 26.6L77.4898 32H74.4098L70.0298 26.6L73.9898 22.8ZM78.3334 19.24C78.3334 18.8133 78.4868 18.4667 78.7934 18.2C79.1001 17.92 79.4668 17.78 79.8934 17.78C80.3201 17.78 80.6801 17.92 80.9734 18.2C81.2801 18.4667 81.4334 18.8133 81.4334 19.24C81.4334 19.6533 81.2801 20 80.9734 20.28C80.6801 20.56 80.3201 20.7 79.8934 20.7C79.4668 20.7 79.1001 20.56 78.7934 20.28C78.4868 20 78.3334 19.6533 78.3334 19.24ZM78.6134 22.8H81.1334V32H78.6134V22.8ZM89.4231 26.4C89.4231 25.7867 89.3031 25.32 89.0631 25C88.8231 24.68 88.4365 24.52 87.9031 24.52C87.5431 24.52 87.2231 24.6 86.9431 24.76C86.6631 24.9067 86.4498 25.12 86.3031 25.4C86.1565 25.68 86.0831 26.0133 86.0831 26.4V32H83.4831V22.8H86.0831V24.2C86.3631 23.68 86.7298 23.2867 87.1831 23.02C87.6498 22.74 88.2098 22.6 88.8631 22.6C89.9565 22.6 90.7698 22.9133 91.3031 23.54C91.8365 24.1533 92.1031 25.0133 92.1031 26.12V32H89.4231V26.4ZM93.815 32.64H96.355C96.3683 33.04 96.475 33.38 96.675 33.66C96.875 33.9533 97.1483 34.18 97.495 34.34C97.8417 34.5 98.2483 34.58 98.715 34.58C99.1417 34.58 99.5417 34.48 99.915 34.28C100.302 34.08 100.608 33.7733 100.835 33.36C101.075 32.9467 101.195 32.4267 101.195 31.8V22.8H103.695V31.8C103.695 32.9333 103.468 33.8667 103.015 34.6C102.575 35.3333 101.982 35.8667 101.235 36.2C100.488 36.5467 99.675 36.72 98.795 36.72C97.7283 36.72 96.835 36.5467 96.115 36.2C95.395 35.8667 94.8417 35.3867 94.455 34.76C94.0817 34.1467 93.8683 33.44 93.815 32.64ZM93.635 27.32C93.635 26.2933 93.8417 25.4333 94.255 24.74C94.6683 24.0333 95.215 23.5 95.895 23.14C96.575 22.78 97.295 22.6 98.055 22.6C98.8283 22.6 99.5083 22.7867 100.095 23.16C100.695 23.5333 101.162 24.0733 101.495 24.78C101.842 25.4733 102.015 26.32 102.015 27.32C102.015 28.3067 101.842 29.1533 101.495 29.86C101.162 30.5667 100.695 31.1067 100.095 31.48C99.5083 31.84 98.8283 32.02 98.055 32.02C97.295 32.02 96.575 31.84 95.895 31.48C95.215 31.12 94.6683 30.5933 94.255 29.9C93.8417 29.1933 93.635 28.3333 93.635 27.32ZM96.315 27.32C96.315 27.8667 96.4283 28.3333 96.655 28.72C96.8817 29.0933 97.1883 29.38 97.575 29.58C97.9617 29.78 98.375 29.88 98.815 29.88C99.2017 29.88 99.575 29.7867 99.935 29.6C100.308 29.4 100.608 29.1133 100.835 28.74C101.075 28.3533 101.195 27.88 101.195 27.32C101.195 26.8933 101.128 26.52 100.995 26.2C100.862 25.88 100.675 25.6133 100.435 25.4C100.208 25.1867 99.955 25.0267 99.675 24.92C99.395 24.8 99.1083 24.74 98.815 24.74C98.375 24.74 97.9617 24.84 97.575 25.04C97.1883 25.24 96.8817 25.5333 96.655 25.92C96.4283 26.2933 96.315 26.76 96.315 27.32ZM111.404 16.4H114.004V32H111.404V16.4ZM115.54 27.4C115.54 26.44 115.76 25.6 116.2 24.88C116.654 24.16 117.26 23.6 118.02 23.2C118.794 22.8 119.667 22.6 120.64 22.6C121.614 22.6 122.48 22.8 123.24 23.2C124.014 23.6 124.62 24.16 125.06 24.88C125.514 25.6 125.74 26.44 125.74 27.4C125.74 28.3467 125.514 29.1867 125.06 29.92C124.62 30.64 124.014 31.2 123.24 31.6C122.48 32 121.614 32.2 120.64 32.2C119.667 32.2 118.794 32 118.02 31.6C117.26 31.2 116.654 30.64 116.2 29.92C115.76 29.1867 115.54 28.3467 115.54 27.4ZM118.18 27.4C118.18 27.92 118.287 28.38 118.5 28.78C118.727 29.1667 119.027 29.4733 119.4 29.7C119.774 29.9133 120.187 30.02 120.64 30.02C121.094 30.02 121.507 29.9133 121.88 29.7C122.254 29.4733 122.547 29.1667 122.76 28.78C122.987 28.38 123.1 27.92 123.1 27.4C123.1 26.88 122.987 26.42 122.76 26.02C122.547 25.62 122.254 25.3133 121.88 25.1C121.507 24.8867 121.094 24.78 120.64 24.78C120.187 24.78 119.774 24.8867 119.4 25.1C119.027 25.3133 118.727 25.62 118.5 26.02C118.287 26.42 118.18 26.88 118.18 27.4ZM129.964 28.4C129.964 29 130.084 29.4667 130.324 29.8C130.564 30.12 130.951 30.28 131.484 30.28C131.857 30.28 132.177 30.2067 132.444 30.06C132.724 29.9 132.937 29.68 133.084 29.4C133.244 29.12 133.324 28.7867 133.324 28.4V22.8H135.904V32H133.324V30.6C133.031 31.12 132.657 31.52 132.204 31.8C131.751 32.0667 131.197 32.2 130.544 32.2C129.451 32.2 128.631 31.8867 128.084 31.26C127.551 30.6333 127.284 29.7733 127.284 28.68V22.8H129.964V28.4ZM143.996 26.4C143.996 25.7867 143.876 25.32 143.636 25C143.396 24.68 143.009 24.52 142.476 24.52C142.116 24.52 141.796 24.6 141.516 24.76C141.236 24.9067 141.022 25.12 140.876 25.4C140.729 25.68 140.656 26.0133 140.656 26.4V32H138.056V22.8H140.656V24.2C140.936 23.68 141.302 23.2867 141.756 23.02C142.222 22.74 142.782 22.6 143.436 22.6C144.529 22.6 145.342 22.9133 145.876 23.54C146.409 24.1533 146.676 25.0133 146.676 26.12V32H143.996V26.4ZM148.388 32.64H150.928C150.941 33.04 151.048 33.38 151.248 33.66C151.448 33.9533 151.721 34.18 152.068 34.34C152.414 34.5 152.821 34.58 153.288 34.58C153.714 34.58 154.114 34.48 154.488 34.28C154.874 34.08 155.181 33.7733 155.408 33.36C155.648 32.9467 155.768 32.4267 155.768 31.8V22.8H158.268V31.8C158.268 32.9333 158.041 33.8667 157.588 34.6C157.148 35.3333 156.554 35.8667 155.808 36.2C155.061 36.5467 154.248 36.72 153.368 36.72C152.301 36.72 151.408 36.5467 150.688 36.2C149.968 35.8667 149.414 35.3867 149.028 34.76C148.654 34.1467 148.441 33.44 148.388 32.64ZM148.208 27.32C148.208 26.2933 148.414 25.4333 148.828 24.74C149.241 24.0333 149.788 23.5 150.468 23.14C151.148 22.78 151.868 22.6 152.628 22.6C153.401 22.6 154.081 22.7867 154.668 23.16C155.268 23.5333 155.734 24.0733 156.068 24.78C156.414 25.4733 156.588 26.32 156.588 27.32C156.588 28.3067 156.414 29.1533 156.068 29.86C155.734 30.5667 155.268 31.1067 154.668 31.48C154.081 31.84 153.401 32.02 152.628 32.02C151.868 32.02 151.148 31.84 150.468 31.48C149.788 31.12 149.241 30.5933 148.828 29.9C148.414 29.1933 148.208 28.3333 148.208 27.32ZM150.888 27.32C150.888 27.8667 151.001 28.3333 151.228 28.72C151.454 29.0933 151.761 29.38 152.148 29.58C152.534 29.78 152.948 29.88 153.388 29.88C153.774 29.88 154.148 29.7867 154.508 29.6C154.881 29.4 155.181 29.1133 155.408 28.74C155.648 28.3533 155.768 27.88 155.768 27.32C155.768 26.8933 155.701 26.52 155.568 26.2C155.434 25.88 155.248 25.6133 155.008 25.4C154.781 25.1867 154.528 25.0267 154.248 24.92C153.968 24.8 153.681 24.74 153.388 24.74C152.948 24.74 152.534 24.84 152.148 25.04C151.761 25.24 151.454 25.5333 151.228 25.92C151.001 26.2933 150.888 26.76 150.888 27.32ZM164.721 32.2C163.721 32.2 162.847 32 162.101 31.6C161.354 31.2 160.774 30.6467 160.361 29.94C159.961 29.22 159.761 28.3733 159.761 27.4C159.761 26.4133 159.961 25.5667 160.361 24.86C160.774 24.14 161.354 23.5867 162.101 23.2C162.847 22.8 163.727 22.6 164.741 22.6C165.754 22.6 166.614 22.7867 167.321 23.16C168.041 23.52 168.587 24.0533 168.961 24.76C169.334 25.4533 169.521 26.2933 169.521 27.28C169.521 27.4 169.514 27.5267 169.501 27.66C169.501 27.7933 169.494 27.9 169.481 27.98H161.241V26.38H167.221L166.521 27.3C166.574 27.22 166.621 27.1133 166.661 26.98C166.714 26.8333 166.741 26.7133 166.741 26.62C166.741 26.1667 166.654 25.78 166.481 25.46C166.321 25.14 166.087 24.8867 165.781 24.7C165.474 24.5133 165.114 24.42 164.701 24.42C164.194 24.42 163.767 24.5333 163.421 24.76C163.087 24.9733 162.827 25.3 162.641 25.74C162.467 26.1667 162.374 26.7 162.361 27.34C162.361 27.9533 162.447 28.4733 162.621 28.9C162.807 29.3267 163.081 29.6533 163.441 29.88C163.801 30.1067 164.234 30.22 164.741 30.22C165.314 30.22 165.801 30.1133 166.201 29.9C166.614 29.6733 166.954 29.34 167.221 28.9L169.481 29.6C169.001 30.4667 168.361 31.12 167.561 31.56C166.774 31.9867 165.827 32.2 164.721 32.2Z" fill="white"/>
</svg>
