<svg width="127" height="50" viewBox="0 0 127 50" fill="none" xmlns="http://www.w3.org/2000/svg">
<g clip-path="url(#clip0_131_44933)">
<path d="M75.2451 21.1825L76.6973 10.5355C77.0666 7.84227 78.051 6.55859 79.7244 6.55859C81.1271 6.55859 82.7025 7.51506 82.7025 9.42799C82.7025 10.0824 82.5053 10.8627 82.0379 11.7688L76.845 21.6355C76.4266 22.4158 76.1313 23.0954 76.1313 23.5988C76.1313 24.2532 76.6728 24.6811 77.0912 24.6811C77.6081 24.6811 78.3217 24.1274 79.5768 23.1457L81.8412 21.3586C82.7761 20.6287 83.6378 20.3267 84.3759 20.3267C86.0003 20.3267 87.0832 21.7614 87.0832 23.196C87.0832 24.6308 86.0248 26.0655 83.4406 26.0655H78.5429C75.8606 26.0655 75.147 25.1341 75.147 22.5416C75.147 22.1389 75.1715 21.6859 75.2451 21.1825Z" fill="white"/>
<path d="M63.3306 24.8321L62.2723 26.2164H62.1985V9.85583C62.1985 9.43632 62.0836 9.05038 61.854 8.69799C61.6407 8.34561 61.2961 8.07713 60.8203 7.89255V7.81704C61.5258 7.74992 62.2067 7.57373 62.863 7.28847C63.5193 7.00321 64.0607 6.60887 64.4873 6.10547H64.5611V14.3865C64.5611 14.571 64.5529 14.7472 64.5365 14.915C64.5365 15.0828 64.5283 15.301 64.5119 15.5694H64.5365C64.8319 15.2171 65.2339 14.8479 65.7424 14.462C66.2675 14.0592 66.8582 13.7152 67.5144 13.43C68.1707 13.1447 68.868 13.0021 69.6065 13.0021C70.5088 13.0021 71.321 13.2538 72.0426 13.7572C72.7812 14.2606 73.3553 14.9486 73.7656 15.8211C74.192 16.6769 74.4056 17.6502 74.4056 18.7409C74.4056 19.8148 74.217 20.8132 73.8396 21.7361C73.4618 22.6423 72.9369 23.4477 72.2643 24.1525C71.5917 24.8405 70.8205 25.3774 69.9508 25.7633C69.0813 26.1493 68.1543 26.3423 67.1699 26.3423C66.3003 26.3423 65.5374 26.1997 64.8811 25.9144C64.2412 25.6124 63.7244 25.2516 63.3306 24.8321ZM71.8459 19.5463C71.8129 18.0026 71.4521 16.7944 70.763 15.9218C70.0904 15.0325 69.2126 14.5878 68.1297 14.5878C67.4898 14.5878 66.8664 14.7221 66.2593 14.9905C65.6522 15.2422 65.0862 15.5527 64.5611 15.9218V23.6239C64.5611 24.379 64.8154 24.9495 65.3241 25.3355C65.8327 25.7214 66.4397 25.9144 67.1453 25.9144C68.0477 25.9144 68.8516 25.6375 69.557 25.0838C70.2791 24.53 70.8451 23.7749 71.2554 22.8184C71.6653 21.862 71.8624 20.7713 71.8459 19.5463Z" fill="white"/>
<path d="M58.8003 26.193C57.4467 26.193 57.0529 25.3624 57.0283 24.4059H57.0037C56.1669 25.5134 54.7887 26.3188 52.9921 26.3188C50.4572 26.3188 49.0298 24.6073 49.0298 22.644C49.0298 19.3216 51.5155 18.6419 54.0504 18.491C57.5451 18.2896 58.3819 18.063 58.3819 16.3767C58.3819 14.7658 57.1514 14.3882 55.7731 14.363C53.7058 14.3379 52.5245 15.0678 52.1799 16.9807H50.1865C50.6295 14.3882 52.623 12.7773 55.9208 12.7773C58.3819 12.7773 60.6953 13.9603 60.08 17.2073L58.9233 23.2229C58.751 24.1794 58.8495 24.7835 60.0308 24.557H60.1046L59.8093 26.0168C59.5632 26.0923 59.2679 26.193 58.8003 26.193ZM51.0232 22.493C51.0232 23.8522 51.8846 24.7583 53.4105 24.7583C55.8716 24.7583 57.176 23.0216 57.5451 21.1086L57.8897 19.3216C57.1021 19.7746 56.0931 19.8501 53.9765 20.0263C52.9921 20.1018 51.0232 20.2528 51.0232 22.493Z" fill="white"/>
<path d="M36.5825 23.2577V14.8378H37.9546V13.4345H39.3268V12.0312H43.4431V13.4345H40.6989V14.8378H39.3268V23.2577H40.6989V24.661H43.4431V26.0643H39.3268V24.661H37.9546V23.2577H36.5825ZM44.8152 24.661H43.4431V23.2577H44.8152V14.8378H43.4431V13.4345H44.8152V6.41797H47.5595V26.0643H44.8152V24.661Z" fill="white"/>
<path d="M35.9237 10.6288H34.5516V13.4355H33.1795V16.2421H31.8074V19.0487H30.4353V21.8553H29.0631V24.6619H27.691V27.4686H24.9468V24.6619H26.3189V21.8553H27.691V19.0487H29.0631V16.2421H30.4353V13.4355H31.8074V10.6288H33.1795V7.82224H34.5516V5.01562H37.2959V7.82224H35.9237V10.6288Z" fill="white"/>
<path d="M86.564 44.6692L90.1111 25.875H92.1673L90.8564 32.9458H90.9077C91.9358 31.6315 93.4264 30.7641 95.1997 30.7641C98.1042 30.7641 99.8775 33.0247 99.8775 36.3892C99.8775 40.4898 97.6929 45.0634 93.1695 45.0634C91.2159 45.0634 89.8284 44.196 89.0313 42.6715H88.98L88.6201 44.6692H86.564ZM89.674 39.2018C89.6482 41.5149 90.728 43.3023 93.0923 43.3023C96.3821 43.3023 97.7701 39.5435 97.7701 36.5207C97.7701 34.4178 96.9989 32.5515 94.66 32.5515C91.4474 32.5515 89.6999 35.9686 89.674 39.2018Z" fill="white"/>
<path d="M81.7344 44.6678L82.0685 42.7752H82.0172C80.9374 44.0894 79.4981 44.9832 77.545 44.9832C74.9492 44.9832 73.7155 43.3009 74.2293 40.5409L76.0285 31.0781H78.0588L76.26 40.5146C75.9001 42.3809 76.4139 43.222 78.0334 43.222C80.3977 43.222 82.3767 41.198 82.865 38.6746L84.3043 31.0781H86.3605L83.7905 44.6678H81.7344Z" fill="white"/>
<path d="M68.6948 44.6692L72.2416 25.875H74.2977L70.751 44.6692H68.6948Z" fill="white"/>
<path d="M61.7317 45.0376C58.4419 45.0376 56.1802 43.0399 56.1802 39.2022C56.1802 34.9703 58.956 30.7383 63.2738 30.7383C66.2552 30.7383 67.9771 32.4468 68.2341 35.4697H66.1524C65.9724 33.6823 65.0986 32.4731 63.171 32.4731C59.9583 32.4731 58.262 35.9428 58.262 39.2548C58.262 41.4891 59.2129 43.2765 61.7574 43.2765C63.6336 43.2765 65.0986 42.0411 65.6383 39.8857H67.6173C66.872 43.1714 64.5846 45.0376 61.7317 45.0376Z" fill="white"/>
<path d="M51.77 44.6687L52.2584 42.0664H54.7257L54.2374 44.6687H51.77Z" fill="white"/>
</g>
<defs>
<clipPath id="clip0_131_44933">
<rect width="74.9305" height="40.1413" fill="white" transform="translate(24.9468 5.01562)"/>
</clipPath>
</defs>
</svg>
