<svg width="173" height="50" viewBox="0 0 173 50" fill="none" xmlns="http://www.w3.org/2000/svg">
<path fill-rule="evenodd" clip-rule="evenodd" d="M1 25.3771C1 36.0789 9.74107 44.7541 20.524 44.7541C31.3069 44.7541 40.0485 36.0789 40.0485 25.3771C40.0485 14.6753 31.3069 6 20.524 6C9.74107 6 1 14.6753 1 25.3771Z" fill="#0C0C4F"/>
<path fill-rule="evenodd" clip-rule="evenodd" d="M11.9127 20.8125L12.3947 19.3348C12.4926 19.0342 12.7316 18.8003 13.0356 18.7081L14.5319 18.2514C14.739 18.1886 14.7407 17.8986 14.5352 17.8325L13.0457 17.3542C12.7434 17.257 12.5077 17.0197 12.4143 16.7181L11.9547 15.2331C11.8914 15.0281 11.5992 15.0258 11.5326 15.2303L11.0507 16.7081C10.9527 17.0081 10.7137 17.242 10.4097 17.3348L8.91344 17.7909C8.70633 17.8542 8.70408 18.1436 8.91007 18.2098L10.3996 18.6881C10.7019 18.7853 10.9376 19.0231 11.0311 19.3248L11.4906 20.8092C11.5539 21.0148 11.8461 21.017 11.9127 20.8125Z" fill="#FAFAFA"/>
<path fill-rule="evenodd" clip-rule="evenodd" d="M35.5625 19.955C34.9458 19.2704 33.983 18.8849 33.047 18.7268C32.1037 18.575 31.1144 18.5891 30.1832 18.7533C28.2987 19.0697 26.5867 19.8441 25.0935 20.7995C24.3181 21.2683 23.6569 21.8109 22.9718 22.3634C22.6417 22.6428 22.3408 22.9404 22.0273 23.2337L21.1709 24.0794C20.2404 25.0447 19.3232 25.924 18.4357 26.6528C17.5447 27.3783 16.7117 27.9293 15.8907 28.314C15.0703 28.7008 14.1924 28.9282 13.0481 28.9647C11.914 29.0044 10.5721 28.8012 9.13671 28.4659C7.69364 28.132 6.17826 27.6561 4.48486 27.2467C5.07573 28.8735 5.9655 30.3112 7.10786 31.6253C8.26363 32.9167 9.70684 34.0939 11.5608 34.868C13.388 35.6592 15.6842 35.9433 17.8312 35.5148C19.984 35.1034 21.8731 34.1147 23.4001 32.9714C24.931 31.8164 26.1696 30.5007 27.2137 29.1327C27.5019 28.7548 27.6544 28.5432 27.863 28.2478L28.4396 27.4003C28.8402 26.876 29.205 26.2791 29.6016 25.7596C30.3791 24.6718 31.1455 23.5852 32.0362 22.584C32.4845 22.0763 32.9573 21.5906 33.5154 21.1238C33.7939 20.896 34.0944 20.6731 34.4276 20.4722C34.7657 20.2556 35.1228 20.086 35.5625 19.955Z" fill="#EC796B"/>
<path fill-rule="evenodd" clip-rule="evenodd" d="M35.5625 19.9524C34.8999 18.2928 33.6679 16.8958 32.0145 15.865C30.3707 14.8454 28.0881 14.3251 25.8263 14.7686C24.7087 14.9831 23.626 15.3961 22.676 15.946C21.7302 16.4938 20.8827 17.1531 20.149 17.8605C19.7827 18.2154 19.4503 18.5856 19.12 18.9578L18.2639 20.0411L16.9417 21.7847C15.2561 24.0282 13.441 26.6574 10.4622 27.4365C7.53797 28.2012 6.26966 27.5239 4.48486 27.2441C4.81122 28.0803 5.21544 28.8924 5.76348 29.6067C6.30129 30.3356 6.93652 31.0202 7.72629 31.6069C8.1254 31.8887 8.54678 32.1669 9.01479 32.4028C9.48066 32.6307 9.98305 32.8313 10.5193 32.9824C11.586 33.2726 12.7869 33.3741 13.9496 33.2181C15.1129 33.0641 16.2248 32.6981 17.1967 32.2122C18.1758 31.731 19.0287 31.1448 19.7902 30.5262C21.3041 29.2784 22.4816 27.8997 23.4763 26.5061C23.9766 25.8094 24.4308 25.0995 24.8508 24.3894L25.3452 23.544C25.4963 23.2969 25.6492 23.0482 25.8045 22.8167C26.4308 21.8863 27.0434 21.1404 27.7876 20.5804C28.5214 20.006 29.5433 19.5816 30.9088 19.483C32.2685 19.3833 33.8384 19.5676 35.5625 19.9524Z" fill="#FAFAFA"/>
<path fill-rule="evenodd" clip-rule="evenodd" d="M28.2056 33.7427C28.2056 34.9615 29.2018 35.9503 30.4299 35.9503C31.6582 35.9503 32.6529 34.9615 32.6529 33.7427C32.6529 32.5239 31.6582 31.5352 30.4299 31.5352C29.2018 31.5352 28.2056 32.5239 28.2056 33.7427Z" fill="#EC796B"/>
<path d="M171.636 19.9593V17.7303C171.636 17.642 171.564 17.5703 171.475 17.5703H158.678C158.589 17.5703 158.517 17.642 158.517 17.7303V19.9593H163.717V34.3796H166.435V19.9593H171.636Z" fill="white"/>
<path d="M145.142 17.5703C145.053 17.5703 144.98 17.6419 144.98 17.7303V34.2195C144.98 34.3078 145.053 34.3796 145.142 34.3796H155.911C156 34.3796 156.072 34.3078 156.072 34.2195V32.0141H147.698V26.7314H154.617V24.4134H147.698V19.9357H155.476V17.7303C155.476 17.642 155.403 17.5703 155.314 17.5703H145.142Z" fill="white"/>
<path d="M138.897 34.2818L138.956 34.3796H141.043C141.132 34.3796 141.204 34.3078 141.204 34.2195V17.7303C141.204 17.642 141.132 17.5703 141.043 17.5703H138.535V29.2116C138.099 28.5235 137.594 27.766 137.018 26.9393C136.284 25.8635 135.496 24.7721 134.651 23.6652C133.823 22.5425 132.978 21.4592 132.118 20.4153C131.272 19.3548 130.474 18.4273 129.722 17.6333L129.662 17.5703H127.698C127.608 17.5703 127.536 17.6419 127.536 17.7303V34.2195C127.536 34.3078 127.608 34.3796 127.698 34.3796H130.206V21.9086C130.549 22.3106 130.914 22.7561 131.301 23.2453C131.824 23.9062 132.364 24.6146 132.919 25.3706L132.92 25.3714L132.92 25.3722C133.475 26.112 134.031 26.8833 134.586 27.6864L134.587 27.6875L134.587 27.6886C135.159 28.492 135.706 29.2875 136.23 30.0749L136.23 30.0757L136.231 30.0765C136.754 30.8476 137.238 31.5949 137.681 32.3183L137.682 32.3195L137.683 32.321C138.144 33.0458 138.548 33.6995 138.897 34.2818Z" fill="white"/>
<path d="M124.254 17.9051L124.316 17.8381C124.41 17.7354 124.337 17.5703 124.196 17.5703H121.221L121.161 17.6397C120.766 18.0944 120.276 18.6286 119.688 19.2428C119.116 19.8419 118.505 20.4726 117.853 21.135C117.202 21.7972 116.543 22.4593 115.876 23.1215C115.342 23.6385 114.844 24.115 114.382 24.5511V17.5703H111.826C111.737 17.5703 111.665 17.6419 111.665 17.7303V34.2195C111.665 34.3078 111.737 34.3796 111.826 34.3796H114.382V26.7539C114.943 27.1184 115.516 27.5451 116.102 28.0341L116.103 28.0348L116.104 28.0355C116.814 28.6147 117.508 29.2491 118.187 29.9388L118.189 29.9404L118.191 29.942C118.885 30.6155 119.54 31.3281 120.155 32.0799L120.156 32.0806L120.157 32.0816C120.772 32.8177 121.316 33.5528 121.788 34.2872L121.847 34.3796H124.747C124.871 34.3796 124.949 34.2464 124.887 34.1397L124.853 34.0799C124.417 33.3281 123.871 32.539 123.215 31.7124C122.575 30.887 121.887 30.0779 121.152 29.2847C120.417 28.4914 119.665 27.7455 118.897 27.0469C118.202 26.4142 117.537 25.8709 116.904 25.4179C117.443 24.896 118.014 24.3356 118.617 23.7367C119.286 23.0731 119.954 22.4017 120.623 21.7224C121.307 21.0272 121.96 20.3557 122.581 19.7078L122.582 19.7069L122.583 19.706C123.203 19.0427 123.76 18.4423 124.254 17.9051Z" fill="white"/>
<path fill-rule="evenodd" clip-rule="evenodd" d="M96.2398 17.4457C96.1508 17.4457 96.0786 17.5173 96.0786 17.6057V34.2309C96.0786 34.3194 96.1508 34.3911 96.2398 34.3911H98.5424V28.2784H101.906C102.284 28.7281 102.653 29.1986 103.013 29.6899L103.015 29.6918L103.016 29.6936C103.605 30.4597 104.149 31.2588 104.648 32.0913L104.649 32.092L104.649 32.093C105.102 32.8296 105.496 33.5571 105.834 34.2755L105.888 34.3911H108.612C108.729 34.3911 108.807 34.2716 108.759 34.1661C108.445 33.4847 108.106 32.8173 107.729 32.1673C107.216 31.2588 106.654 30.3592 106.042 29.4687C105.692 28.9598 105.335 28.4655 104.971 27.9856C105.987 27.6772 106.791 27.1196 107.373 26.3102L107.373 26.3095C108.071 25.33 108.417 24.1779 108.417 22.862C108.417 21.9578 108.259 21.1304 107.939 20.3828C107.617 19.6243 107.133 18.9953 106.488 18.499C105.847 18.0001 105.058 17.6826 104.128 17.5403C103.912 17.5006 103.688 17.4769 103.457 17.4688C103.231 17.4534 103.035 17.4456 102.867 17.4456C102.161 17.4456 101.454 17.4455 100.748 17.4454C99.2453 17.4453 97.7426 17.4452 96.2398 17.4457ZM105.907 22.862C105.907 23.2987 105.834 23.7285 105.687 24.1521C105.543 24.5589 105.313 24.9155 104.996 25.2237C104.695 25.5155 104.298 25.7224 103.795 25.8382C103.636 25.8741 103.464 25.8996 103.28 25.9142L103.279 25.9142L103.279 25.9143C103.098 25.9293 102.938 25.9366 102.798 25.9366H98.5424V19.7874H102.798C102.938 19.7874 103.098 19.7947 103.279 19.8097L103.283 19.8101L103.288 19.8102C103.467 19.8173 103.633 19.8422 103.787 19.8838L103.792 19.8852L103.797 19.8863C104.298 19.9944 104.694 20.2005 104.994 20.4986L104.995 20.4995L104.996 20.5003C105.313 20.8079 105.543 21.1681 105.687 21.5829V21.5834L105.687 21.5839C105.834 21.9994 105.907 22.4251 105.907 22.862Z" fill="white"/>
<path fill-rule="evenodd" clip-rule="evenodd" d="M90.0329 32.1603L90.0331 32.161L90.0334 32.1618C90.2723 32.8422 90.5274 33.5383 90.7985 34.2501L90.8477 34.3796H93.5734C93.6854 34.3796 93.7632 34.2693 93.7249 34.1648C93.1296 32.5412 92.5285 30.9197 91.9154 29.3027C91.3583 27.8178 90.8091 26.4115 90.2677 25.084C89.7422 23.7564 89.2166 22.4918 88.6909 21.2901C88.1635 20.0688 87.6084 18.8595 87.0303 17.6611C87.0034 17.6056 86.947 17.5703 86.885 17.5703H84.7109C84.6489 17.5703 84.5923 17.6056 84.5656 17.6611C83.9873 18.8596 83.4324 20.0688 82.905 21.2902C82.3794 22.4915 81.846 23.7557 81.3048 25.083L81.3043 25.0839L81.304 25.0849C80.7786 26.412 80.2374 27.8179 79.6805 29.3026C79.0671 30.9197 78.4661 32.5412 77.8707 34.1648C77.8324 34.2693 77.9103 34.3796 78.0222 34.3796H80.6316L80.6318 34.3794H80.6827L80.7425 34.3156C81.372 33.645 82.0756 32.9867 82.8536 32.3411L82.8544 32.3406L82.8551 32.3399C83.6361 31.6781 84.4504 31.0644 85.2979 30.4985L85.2998 30.4973L85.3016 30.4958C86.1364 29.9104 86.9767 29.3851 87.8222 28.9197L87.8232 28.9192L87.8242 28.9186C88.1286 28.7466 88.4284 28.5864 88.7235 28.4379L89.2939 30.0549L89.2944 30.0562C89.5485 30.7656 89.7946 31.4669 90.0329 32.1603ZM87.1005 24.1869L87.101 24.1883L87.1015 24.1896C87.3311 24.7665 87.5607 25.3529 87.7903 25.9491C87.7732 25.9566 87.7557 25.9644 87.7379 25.9725C86.93 26.3377 86.0615 26.8098 85.133 27.3878C84.244 27.9412 83.362 28.5424 82.4871 29.1914L82.8576 28.1414C83.3477 26.7767 83.8377 25.459 84.3278 24.1882C84.7784 23.0422 85.2477 21.9399 85.7355 20.8813C86.2091 21.9395 86.6641 23.0413 87.1005 24.1869Z" fill="white"/>
<path d="M78.5363 19.9593V17.7303C78.5363 17.642 78.4642 17.5703 78.3749 17.5703H65.5781C65.4892 17.5703 65.417 17.642 65.417 17.7303V19.9593H70.6179V34.2195C70.6179 34.3078 70.69 34.3796 70.7793 34.3796H73.1741C73.263 34.3796 73.3352 34.3078 73.3352 34.2195V19.9593H78.5363Z" fill="white"/>
<path d="M53.675 34.1772L53.6743 34.1769C52.6887 33.7599 51.8689 33.1646 51.2189 32.3905L51.2182 32.3895L51.2175 32.3888C50.5741 31.6049 50.1562 30.6807 49.9622 29.621C49.9526 29.568 49.9647 29.5134 49.9961 29.4694C50.0275 29.4255 50.0754 29.396 50.129 29.3876L52.2967 29.0486C52.3993 29.0325 52.4974 29.0965 52.5231 29.1963C52.7866 30.2121 53.3288 31.0005 54.1508 31.572C54.9852 32.1386 55.969 32.4249 57.1108 32.4249C57.8515 32.4249 58.5134 32.3113 59.0993 32.0878C59.692 31.8568 60.1522 31.5328 60.488 31.1197C60.8185 30.7135 60.9853 30.2325 60.9853 29.667C60.9853 29.316 60.9225 29.0287 60.8061 28.7978C60.8051 28.7957 60.8041 28.7936 60.8031 28.7915C60.6899 28.5455 60.5318 28.34 60.3279 28.1726C60.3259 28.171 60.3239 28.1694 60.3222 28.1678C60.1176 27.9864 59.8825 27.8332 59.6164 27.7084C59.344 27.5807 59.06 27.4754 58.7642 27.3926L58.7615 27.3919L54.4377 26.1173C53.9563 25.974 53.4909 25.7949 53.0416 25.5798L53.0404 25.5792L53.0389 25.5785C52.5827 25.3521 52.1739 25.0724 51.8136 24.7393L51.8126 24.7382L51.8118 24.7376C51.4466 24.3916 51.1569 23.9802 50.9426 23.5056L50.9421 23.5044C50.7242 23.0138 50.6186 22.4435 50.6186 21.7986C50.6186 20.7649 50.8878 19.8723 51.4352 19.1316L51.4354 19.1313C51.9851 18.3903 52.7263 17.8272 53.6516 17.4404C54.5759 17.0543 55.6126 16.8673 56.7589 16.8752C57.9205 16.8832 58.9654 17.09 59.8897 17.5002C60.8212 17.9022 61.5938 18.4827 62.2037 19.2415C62.823 20.0018 63.236 20.9092 63.4458 21.9585C63.4565 22.0113 63.4451 22.0661 63.4144 22.1105C63.3838 22.1549 63.3364 22.1852 63.283 22.1944L61.0565 22.5803C61.0036 22.5894 60.9494 22.5773 60.9057 22.5467C60.8617 22.516 60.8321 22.4693 60.8232 22.4168C60.7107 21.7621 60.4611 21.2068 60.077 20.7451L60.0748 20.7424C59.6952 20.2696 59.2192 19.9074 58.6434 19.655L58.6414 19.6541C58.0643 19.3938 57.4287 19.2587 56.7317 19.2512H56.7315C56.0634 19.2436 55.4663 19.3491 54.937 19.5637C54.4061 19.7789 53.9919 20.0758 53.6864 20.4512L53.6852 20.4527C53.3854 20.8138 53.2364 21.2286 53.2364 21.7051C53.2364 22.1783 53.3723 22.5433 53.6296 22.8193C53.9071 23.1091 54.2484 23.3431 54.6567 23.5202C55.0894 23.6965 55.5093 23.8417 55.9169 23.9562L55.9179 23.9564L59.1446 24.8798C59.5207 24.9831 59.9503 25.1253 60.4327 25.3058C60.9376 25.4917 61.4245 25.7538 61.893 26.0905C62.3755 26.4291 62.7716 26.8813 63.0828 27.4421C63.4026 28.0102 63.5558 28.7166 63.5558 29.5501C63.5558 30.3879 63.3853 31.1411 63.0388 31.8043C62.7027 32.4634 62.2306 33.017 61.6251 33.4636L61.6237 33.4646C61.0216 33.9007 60.3244 34.2299 59.535 34.4538C58.7452 34.6856 57.9014 34.8009 57.0048 34.8009C55.7802 34.8009 54.6691 34.5944 53.675 34.1772Z" fill="white"/>
</svg>
