<svg width="105" height="32" viewBox="0 0 105 32" fill="none" xmlns="http://www.w3.org/2000/svg">
<g clip-path="url(#clip0_127_45454)">
<mask id="mask0_127_45454" style="mask-type:luminance" maskUnits="userSpaceOnUse" x="1" y="0" width="104" height="32">
<path d="M1.5 0H104.5V32H1.5V0Z" fill="white"/>
</mask>
<g mask="url(#mask0_127_45454)">
<path d="M41.8721 16.0735C42.6471 15.6335 43.2671 15.0855 43.7191 14.4395C44.2327 13.7092 44.5045 12.8363 44.4961 11.9435C44.4961 10.2215 43.8521 8.8765 42.5831 7.9475C41.3291 7.0275 39.6041 6.5625 37.4541 6.5625H29.6801V26.5135H37.7651C40.0291 26.5135 41.8421 25.9875 43.1531 24.9485C44.4741 23.9005 45.1451 22.4335 45.1451 20.5865C45.1451 19.4615 44.8291 18.4945 44.2081 17.7115C43.6511 17.0115 42.8661 16.4615 41.8721 16.0735ZM33.8871 10.1585H37.1161C38.1291 10.1585 38.8931 10.3545 39.3901 10.7415C39.8801 11.1215 40.1201 11.6235 40.1201 12.2715C40.1201 12.9215 39.8801 13.4475 39.3901 13.8305C38.8931 14.2165 38.1291 14.4125 37.1161 14.4125H33.8871V10.1585ZM39.9661 22.2415C39.4061 22.6905 38.5511 22.9175 37.4261 22.9175H33.8871V18.0355H37.4271C38.5511 18.0355 39.4071 18.2555 39.9691 18.6855C40.5261 19.1155 40.7961 19.6825 40.7961 20.4215C40.7961 21.1995 40.5251 21.7945 39.9661 22.2415ZM50.8301 11.5945H46.5941V26.5125H50.8291L50.8301 11.5945ZM92.6611 13.8395C91.983 13.0356 91.1285 12.399 90.1641 11.9795C89.1781 11.5425 88.0691 11.3205 86.8701 11.3205C85.4001 11.3205 84.0741 11.6545 82.9271 12.3125C81.7929 12.9581 80.856 13.9005 80.2171 15.0385C79.5661 16.1885 79.2371 17.5205 79.2371 18.9995C79.2371 20.4795 79.5571 21.8995 80.1871 23.0665C80.8027 24.2195 81.7409 25.1682 82.8871 25.7965C84.0441 26.4355 85.4031 26.7595 86.9271 26.7595C88.7971 26.7595 90.3841 26.2895 91.6471 25.3605C92.8621 24.4675 93.6971 23.2085 94.1531 21.6305H89.8891C89.6651 22.1675 89.3491 22.6245 88.8961 22.9465C88.3611 23.3265 87.6701 23.5185 86.8421 23.5185C86.1241 23.5185 85.5081 23.3445 85.0121 23.0005C84.5151 22.6555 84.1351 22.1475 83.8851 21.4865C83.7254 21.0522 83.6183 20.6003 83.5661 20.1405H94.2271L94.2481 20.0085C94.4381 18.8055 94.3901 17.6655 94.1041 16.6205C93.8306 15.5995 93.3382 14.6502 92.6611 13.8385V13.8395ZM83.6341 17.3795C83.6988 17.0704 83.7874 16.7669 83.8991 16.4715C84.1591 15.8015 84.5341 15.2865 85.0151 14.9425C85.4941 14.5985 86.0901 14.4255 86.7861 14.4255C87.6591 14.4255 88.3761 14.7085 88.9161 15.2655C89.4291 15.7955 89.7191 16.5195 89.7811 17.3785L83.6341 17.3795ZM50.9181 6.5625H46.5061V10.1585H50.9181V6.5625ZM74.1101 13.2875C73.6326 12.7046 73.0359 12.2307 72.3601 11.8975C71.5701 11.5145 70.6451 11.3205 69.6111 11.3205C68.3461 11.3205 67.2111 11.6335 66.2411 12.2475C65.2711 12.8625 64.5011 13.7305 63.9561 14.8265C63.4111 15.9205 63.1351 17.2045 63.1351 18.6445C63.1351 20.0845 63.4251 21.2935 63.9991 22.3945C64.5741 23.4995 65.3711 24.3795 66.3681 25.0115C67.3661 25.6445 68.5051 25.9665 69.7531 25.9665C70.6951 25.9665 71.5561 25.7625 72.3101 25.3595C72.8913 25.0533 73.3996 24.6252 73.8001 24.1045V25.7285C73.8001 26.7355 73.5361 27.5085 73.0161 28.0235C72.4941 28.5385 71.7001 28.7985 70.6561 28.7985C69.7561 28.7985 69.0491 28.5945 68.5541 28.1915C68.1491 27.8615 67.7951 27.4295 67.7131 26.5135H63.6291C63.6671 27.7955 64.0431 28.6585 64.5751 29.4155C65.1701 30.2625 66.0081 30.9255 67.0681 31.3835C68.1161 31.8355 69.3341 32.0655 70.6841 32.0655C72.9521 32.0655 74.7571 31.4955 76.0491 30.3725C77.3491 29.2435 78.0071 27.6625 78.0071 25.6745V11.5945H74.1111L74.1101 13.2875ZM73.3651 20.6265C73.1196 21.1552 72.7283 21.6027 72.2371 21.9165C71.7571 22.2165 71.1771 22.3705 70.5151 22.3705C69.5551 22.3705 68.8101 22.0435 68.2351 21.3725C67.6611 20.7035 67.3701 19.7855 67.3701 18.6435C67.3701 17.5015 67.6601 16.5835 68.2341 15.9145C68.8031 15.2525 69.5701 14.9165 70.5141 14.9165C71.4591 14.9165 72.2931 15.2565 72.8801 15.9295C73.4721 16.6085 73.7721 17.5305 73.7721 18.6695C73.7721 19.4085 73.6351 20.0655 73.3651 20.6255V20.6265ZM104.502 15.1635V11.5955H101.445V6.5625H97.2381V11.5955H94.6271V15.1635H97.2381V21.0035C97.2381 24.2505 97.8781 26.6365 101.864 26.5625L104.367 26.5125V23.1695H103.125C101.353 23.1695 101.452 22.1365 101.452 20.2175L101.445 15.1645L104.502 15.1635ZM62.1061 15.1635V11.5955H59.0491V6.5625H54.8421V11.5955H52.2301V15.1635H54.8401V21.0035C54.8401 24.2505 55.4801 26.6365 59.4671 26.5625L61.9691 26.5125V23.1695H60.7301C58.9581 23.1695 59.0561 22.1365 59.0561 20.2175L59.0491 15.1645L62.1061 15.1635ZM12.0601 10.1585H18.4131L24.9121 16.6155C25.3351 17.0355 25.3371 17.7195 24.9161 18.1415L16.5811 26.5185H10.0381L12.0171 24.5945L19.2811 17.3765L12.1091 10.1575" fill="white"/>
<path d="M14.67 17.36H8.31897L1.81897 10.903C1.71839 10.8031 1.63848 10.6844 1.58383 10.5536C1.52918 10.4228 1.50086 10.2826 1.50049 10.1408C1.50012 9.99909 1.52771 9.85867 1.58167 9.7276C1.63563 9.59653 1.71491 9.47739 1.81497 9.377L10.15 1H16.694L14.716 2.924L7.45097 10.142L14.624 17.36" fill="white"/>
</g>
</g>
<defs>
<clipPath id="clip0_127_45454">
<rect width="103" height="32" fill="white" transform="translate(1.5)"/>
</clipPath>
</defs>
</svg>
