<svg width="135" height="50" viewBox="0 0 135 50" fill="none" xmlns="http://www.w3.org/2000/svg">
<g clip-path="url(#clip0_131_44883)">
<path fill-rule="evenodd" clip-rule="evenodd" d="M2.39062 25.0293C2.39062 33.0904 8.97316 39.625 17.0933 39.625C25.2135 39.625 31.7965 33.0904 31.7965 25.0293C31.7965 16.9683 25.2135 10.4336 17.0933 10.4336C8.97316 10.4336 2.39062 16.9683 2.39062 25.0293Z" fill="#0C0C4F"/>
<path fill-rule="evenodd" clip-rule="evenodd" d="M10.6085 21.5929L10.9714 20.4797C11.0452 20.2533 11.2252 20.0772 11.4541 20.0077L12.5809 19.6637C12.7368 19.6164 12.7381 19.398 12.5834 19.3482L11.4617 18.9879C11.2341 18.9147 11.0566 18.736 10.9862 18.5087L10.6401 17.3901C10.5925 17.2357 10.3724 17.234 10.3223 17.3881L9.95931 18.5012C9.88554 18.7272 9.70555 18.9033 9.47665 18.9732L8.34986 19.3168C8.1939 19.3645 8.19221 19.5825 8.34733 19.6323L9.46905 19.9926C9.69669 20.0659 9.87417 20.245 9.94455 20.4722L10.2906 21.5904C10.3383 21.7452 10.5583 21.7469 10.6085 21.5929Z" fill="#FAFAFA"/>
<path fill-rule="evenodd" clip-rule="evenodd" d="M28.4184 20.9461C27.954 20.4305 27.2289 20.1401 26.5241 20.0211C25.8137 19.9067 25.0687 19.9173 24.3674 20.041C22.9483 20.2793 21.6591 20.8626 20.5347 21.5823C19.9507 21.9354 19.4528 22.3441 18.9369 22.7603C18.6883 22.9708 18.4617 23.1949 18.2256 23.4158L17.5807 24.0528C16.88 24.78 16.1893 25.4423 15.521 25.9913C14.85 26.5377 14.2226 26.9528 13.6044 27.2426C12.9866 27.5339 12.3255 27.7052 11.4638 27.7327C10.6097 27.7626 9.59916 27.6095 8.51825 27.357C7.43153 27.1055 6.29036 26.747 5.01514 26.4386C5.4601 27.664 6.13014 28.7469 6.99041 29.7368C7.86077 30.7096 8.94759 31.5962 10.3437 32.1793C11.7197 32.7754 13.4489 32.9893 15.0657 32.6665C16.6869 32.3567 18.1095 31.6119 19.2594 30.7508C20.4123 29.8807 21.345 28.8897 22.1313 27.8592C22.3483 27.5746 22.4631 27.4152 22.6202 27.1927L23.0544 26.5543C23.3561 26.1594 23.6308 25.7098 23.9295 25.3185C24.515 24.4991 25.0922 23.6806 25.7629 22.9265C26.1005 22.544 26.4566 22.1782 26.8768 21.8266C27.0866 21.655 27.3129 21.4871 27.5638 21.3358C27.8184 21.1726 28.0873 21.0449 28.4184 20.9461Z" fill="#EC796B"/>
<path fill-rule="evenodd" clip-rule="evenodd" d="M28.4184 20.9426C27.9194 19.6925 26.9916 18.6402 25.7465 17.8637C24.5087 17.0958 22.7898 16.7039 21.0865 17.0379C20.2448 17.1995 19.4295 17.5106 18.7141 17.9248C18.0019 18.3374 17.3636 18.834 16.8111 19.3669C16.5353 19.6342 16.285 19.913 16.0362 20.1934L15.3916 21.0094L14.3959 22.3228C13.1265 24.0127 11.7596 25.9931 9.51645 26.5799C7.3143 27.156 6.35919 26.6458 5.01514 26.435C5.2609 27.0649 5.56531 27.6766 5.97801 28.2147C6.38301 28.7637 6.86138 29.2794 7.45612 29.7213C7.75667 29.9336 8.074 30.1431 8.42644 30.3208C8.77726 30.4925 9.15559 30.6436 9.55942 30.7574C10.3627 30.976 11.267 31.0525 12.1426 30.935C13.0186 30.8189 13.856 30.5433 14.5879 30.1773C15.3252 29.8148 15.9675 29.3732 16.541 28.9072C17.681 27.9673 18.5678 26.9289 19.3168 25.8792C19.6936 25.3544 20.0356 24.8196 20.3519 24.2847L20.7242 23.648C20.838 23.4618 20.9531 23.2745 21.0701 23.1001C21.5417 22.3993 22.0031 21.8374 22.5635 21.4156C23.116 20.983 23.8856 20.6633 24.9139 20.5891C25.9379 20.5139 27.1201 20.6527 28.4184 20.9426Z" fill="#FAFAFA"/>
<path fill-rule="evenodd" clip-rule="evenodd" d="M22.8779 31.3308C22.8779 32.2489 23.6282 32.9936 24.5529 32.9936C25.4779 32.9936 26.227 32.2489 26.227 31.3308C26.227 30.4127 25.4779 29.668 24.5529 29.668C23.6282 29.668 22.8779 30.4127 22.8779 31.3308Z" fill="#EC796B"/>
<path d="M130.889 20.948V19.269C130.889 19.2024 130.835 19.1484 130.768 19.1484H121.131C121.064 19.1484 121.01 19.2024 121.01 19.269V20.948H124.926V31.81H126.973V20.948H130.889Z" fill="white"/>
<path d="M110.938 19.1484C110.871 19.1484 110.816 19.2024 110.816 19.269V31.6894C110.816 31.7559 110.871 31.81 110.938 31.81H119.048C119.115 31.81 119.169 31.7559 119.169 31.6894V30.0282H112.863V26.049H118.073V24.303H112.863V20.9301H118.72V19.269C118.72 19.2024 118.666 19.1484 118.598 19.1484H110.938Z" fill="white"/>
<path d="M106.235 31.7363L106.279 31.81H107.851C107.918 31.81 107.973 31.7559 107.973 31.6894V19.269C107.973 19.2024 107.918 19.1484 107.851 19.1484H105.962V27.9172C105.634 27.3989 105.254 26.8283 104.82 26.2056C104.268 25.3952 103.674 24.5732 103.038 23.7394C102.414 22.8937 101.778 22.0778 101.13 21.2914C100.493 20.4926 99.8918 19.7939 99.3255 19.1959L99.2806 19.1484H97.8012C97.734 19.1484 97.6797 19.2024 97.6797 19.269V31.6894C97.6797 31.7559 97.734 31.81 97.8012 31.81H99.6901V22.4163C99.9484 22.7191 100.223 23.0546 100.515 23.4231C100.909 23.9209 101.315 24.4545 101.733 25.024L101.734 25.0246L101.734 25.0252C102.152 25.5824 102.57 26.1635 102.989 26.7684L102.989 26.7692L102.99 26.77C103.42 27.3752 103.832 27.9744 104.227 28.5675L104.227 28.5681L104.228 28.5687C104.622 29.1495 104.986 29.7125 105.32 30.2573L105.32 30.2582L105.321 30.2593C105.668 30.8053 105.973 31.2977 106.235 31.7363Z" fill="white"/>
<path d="M95.2081 19.4006L95.2545 19.3502C95.3256 19.2728 95.2703 19.1484 95.1648 19.1484H92.9243L92.8789 19.2007C92.5815 19.5432 92.2121 19.9456 91.7699 20.4082C91.3392 20.8595 90.8786 21.3346 90.388 21.8335C89.8976 22.3323 89.401 22.8311 88.8987 23.3298C88.4969 23.7193 88.1219 24.0782 87.7737 24.4067V19.1484H85.8489C85.7819 19.1484 85.7275 19.2024 85.7275 19.269V31.6894C85.7275 31.7559 85.7819 31.81 85.8489 31.81H87.7737V26.0659C88.1961 26.3405 88.6281 26.6619 89.0694 27.0303L89.0701 27.0308L89.0707 27.0313C89.6052 27.4676 90.1282 27.9455 90.6396 28.465L90.6407 28.4662L90.642 28.4674C91.1648 28.9747 91.658 29.5114 92.1216 30.0777L92.122 30.0783L92.1226 30.079C92.586 30.6335 92.9954 31.1872 93.3511 31.7404L93.3958 31.81H95.5796C95.673 31.81 95.7315 31.7097 95.685 31.6293L95.6589 31.5842C95.3312 31.018 94.9197 30.4236 94.4253 29.8009C93.9435 29.1792 93.4257 28.5697 92.872 27.9723C92.3184 27.3747 91.7524 26.8128 91.1741 26.2867C90.6504 25.8101 90.15 25.4008 89.6729 25.0596C90.0787 24.6665 90.5088 24.2444 90.9633 23.7932C91.4667 23.2934 91.9701 22.7877 92.4736 22.276C92.9891 21.7523 93.4806 21.2465 93.9483 20.7585L93.9489 20.7578L93.9496 20.7571C94.417 20.2575 94.8365 19.8053 95.2081 19.4006Z" fill="white"/>
<path fill-rule="evenodd" clip-rule="evenodd" d="M74.1116 19.055C74.0446 19.055 73.9902 19.1089 73.9902 19.1755V31.6984C73.9902 31.7651 74.0446 31.819 74.1116 31.819H75.8456V27.2147H78.3786C78.6635 27.5534 78.9414 27.9078 79.2126 28.2779L79.2135 28.2793L79.2146 28.2807C79.6579 28.8577 80.0676 29.4597 80.4437 30.0867L80.4441 30.0873L80.4445 30.088C80.785 30.6429 81.0823 31.1908 81.3363 31.732L81.3771 31.819H83.429C83.517 31.819 83.5756 31.7291 83.5391 31.6496C83.3031 31.1363 83.0474 30.6336 82.7634 30.144C82.3774 29.4597 81.954 28.782 81.4934 28.1113C81.23 27.728 80.9611 27.3556 80.6866 26.9942C81.4519 26.7619 82.0575 26.3418 82.4954 25.7321L82.4958 25.7316C83.0216 24.9938 83.2821 24.126 83.2821 23.1348C83.2821 22.4537 83.1628 21.8304 82.9214 21.2673C82.6791 20.696 82.3145 20.2222 81.8288 19.8484C81.3464 19.4726 80.7521 19.2335 80.0521 19.1262C79.8889 19.0963 79.7203 19.0785 79.5465 19.0724C79.3767 19.0608 79.2286 19.0549 79.1026 19.0549C78.5707 19.0549 78.0386 19.0548 77.5067 19.0548C76.3749 19.0547 75.2433 19.0546 74.1116 19.055ZM81.392 23.1348C81.392 23.4638 81.3369 23.7875 81.2259 24.1065C81.1176 24.413 80.9445 24.6816 80.7054 24.9137C80.4787 25.1335 80.1798 25.2894 79.8011 25.3766C79.681 25.4037 79.5519 25.4229 79.413 25.4339L79.4128 25.4339L79.4126 25.4339C79.2762 25.4452 79.1556 25.4507 79.0503 25.4507H75.8456V20.8189H79.0503C79.1556 20.8189 79.2762 20.8244 79.4126 20.8357L79.4158 20.8359L79.4192 20.8361C79.5541 20.8414 79.6792 20.8601 79.7951 20.8915L79.7988 20.8925L79.8027 20.8933C80.18 20.9748 80.4779 21.1301 80.7041 21.3546L80.7046 21.3552L80.7054 21.3558C80.9442 21.5876 81.1173 21.8589 81.2259 22.1713V22.1717L81.2261 22.1721C81.3367 22.485 81.392 22.8057 81.392 23.1348Z" fill="white"/>
<path fill-rule="evenodd" clip-rule="evenodd" d="M69.4377 30.1383L69.4379 30.1389L69.4381 30.1394C69.6181 30.6519 69.8101 31.1763 70.0143 31.7125L70.0513 31.81H72.104C72.1883 31.81 72.2469 31.7269 72.2181 31.6482C71.7697 30.4252 71.3171 29.2038 70.8554 27.9858C70.4359 26.8673 70.0223 25.8081 69.6145 24.8081C69.2189 23.8081 68.823 22.8555 68.4271 21.9504C68.03 21.0304 67.612 20.1195 67.1766 19.2168C67.1564 19.175 67.1139 19.1484 67.0672 19.1484H65.43C65.3833 19.1484 65.3406 19.175 65.3205 19.2168C64.885 20.1196 64.4672 21.0304 64.0701 21.9504C63.6742 22.8553 63.2726 23.8076 62.865 24.8073L62.8646 24.808L62.8644 24.8088C62.4687 25.8084 62.0611 26.8674 61.6418 27.9858C61.1799 29.2038 60.7273 30.4252 60.2789 31.6482C60.2501 31.7269 60.3087 31.81 60.393 31.81H62.358L62.3582 31.8098H62.3965L62.4416 31.7618C62.9156 31.2567 63.4455 30.7608 64.0313 30.2745L64.0319 30.2741L64.0325 30.2736C64.6206 29.7751 65.2338 29.3128 65.872 28.8866L65.8735 28.8857L65.8748 28.8845C66.5035 28.4436 67.1363 28.0479 67.773 27.6973L67.7737 27.6969L67.7744 27.6965C68.0037 27.567 68.2295 27.4463 68.4517 27.3344L68.8813 28.5524L68.8816 28.5534C69.073 29.0877 69.2583 29.616 69.4377 30.1383ZM67.2295 24.1324L67.2299 24.1334L67.2302 24.1344C67.4031 24.5689 67.576 25.0107 67.7489 25.4598C67.7361 25.4654 67.7229 25.4713 67.7095 25.4774C67.1011 25.7525 66.4471 26.1081 65.7479 26.5435C65.0784 26.9603 64.4142 27.4132 63.7553 27.902L64.0343 27.1111C64.4034 26.0831 64.7724 25.0906 65.1415 24.1334C65.4808 23.2701 65.8342 22.4398 66.2016 21.6424C66.5582 22.4395 66.9008 23.2695 67.2295 24.1324Z" fill="white"/>
<path d="M60.78 20.948V19.269C60.78 19.2024 60.7257 19.1484 60.6585 19.1484H51.0217C50.9547 19.1484 50.9004 19.2024 50.9004 19.269V20.948H54.817V31.6894C54.817 31.7559 54.8713 31.81 54.9385 31.81H56.7419C56.8089 31.81 56.8633 31.7559 56.8633 31.6894V20.948H60.78Z" fill="white"/>
<path d="M42.0582 31.6578L42.0576 31.6576C41.3154 31.3435 40.6981 30.8951 40.2086 30.312L40.208 30.3113L40.2075 30.3107C39.723 29.7202 39.4083 29.0241 39.2622 28.2259C39.2549 28.186 39.2641 28.1448 39.2877 28.1117C39.3113 28.0786 39.3474 28.0564 39.3878 28.0501L41.0202 27.7947C41.0975 27.7826 41.1713 27.8308 41.1907 27.906C41.3891 28.6711 41.7974 29.265 42.4164 29.6955C43.0448 30.1223 43.7857 30.3379 44.6455 30.3379C45.2033 30.3379 45.7017 30.2524 46.143 30.084C46.5893 29.91 46.9358 29.6659 47.1888 29.3548C47.4376 29.0488 47.5632 28.6865 47.5632 28.2606C47.5632 27.9962 47.5159 27.7797 47.4283 27.6058C47.4275 27.6042 47.4268 27.6027 47.426 27.6011C47.3408 27.4158 47.2217 27.261 47.0682 27.1349C47.0667 27.1337 47.0652 27.1325 47.0639 27.1312C46.9098 26.9947 46.7328 26.8792 46.5323 26.7852C46.3272 26.689 46.1134 26.6097 45.8906 26.5474L45.8886 26.5468L42.6325 25.5868C42.27 25.4788 41.9195 25.3439 41.5812 25.1819L41.5802 25.1814L41.5791 25.1809C41.2356 25.0104 40.9277 24.7997 40.6564 24.5487L40.6556 24.5479L40.6551 24.5475C40.38 24.2868 40.1619 23.977 40.0005 23.6195L40.0001 23.6186C39.836 23.249 39.7565 22.8194 39.7565 22.3337C39.7565 21.5551 39.9592 20.8827 40.3714 20.3248L40.3716 20.3245C40.7855 19.7664 41.3437 19.3422 42.0405 19.0509C42.7366 18.76 43.5173 18.6192 44.3805 18.6252C45.2552 18.6312 46.0421 18.7869 46.7382 19.0959C47.4396 19.3988 48.0214 19.836 48.4808 20.4075C48.9472 20.9803 49.2581 21.6637 49.4162 22.4541C49.4242 22.4939 49.4156 22.5352 49.3925 22.5686C49.3694 22.6021 49.3337 22.6249 49.2935 22.6319L47.6168 22.9225C47.577 22.9294 47.5362 22.9203 47.5033 22.8972C47.4702 22.874 47.4478 22.8389 47.4411 22.7994C47.3564 22.3062 47.1685 21.8879 46.8792 21.5402L46.8776 21.5381C46.5917 21.182 46.2332 20.9091 45.7996 20.719L45.7981 20.7184C45.3635 20.5223 44.8849 20.4205 44.36 20.4148H44.3598C43.8568 20.4092 43.4071 20.4886 43.0085 20.6502C42.6087 20.8123 42.2968 21.036 42.0667 21.3188L42.0658 21.3199C41.8401 21.5919 41.7278 21.9043 41.7278 22.2633C41.7278 22.6197 41.8302 22.8946 42.0239 23.1025C42.2329 23.3208 42.49 23.4971 42.7974 23.6304C43.1233 23.7633 43.4395 23.8726 43.7464 23.9589L43.7472 23.9591L46.177 24.6546C46.4603 24.7324 46.7838 24.8395 47.1471 24.9755C47.5273 25.1155 47.8939 25.3129 48.2468 25.5665C48.6101 25.8216 48.9084 26.1622 49.1428 26.5846C49.3836 27.0125 49.499 27.5447 49.499 28.1725C49.499 28.8036 49.3706 29.3709 49.1096 29.8705C48.8565 30.3669 48.501 30.7839 48.0451 31.1204L48.0439 31.1211C47.5906 31.4496 47.0655 31.6975 46.4711 31.8662C45.8763 32.0408 45.2409 32.1277 44.5657 32.1277C43.6435 32.1277 42.8067 31.9721 42.0582 31.6578Z" fill="white"/>
</g>
<defs>
<clipPath id="clip0_131_44883">
<rect width="130.279" height="29.3767" fill="white" transform="translate(2.36035 10.3867)"/>
</clipPath>
</defs>
</svg>
