<svg width="126" height="50" viewBox="0 0 126 50" fill="none" xmlns="http://www.w3.org/2000/svg">
<path d="M39.22 33.5657V26.3651C39.22 24.6652 38.5555 23.695 37.0966 23.695C35.5973 23.695 34.876 24.569 34.876 26.1968V33.5577H30.9209V16.1016H34.876V21.7145C35.4514 20.656 36.74 20.0146 38.3123 20.0146C41.3435 20.0146 43.1751 21.8989 43.1751 25.3227V33.5577H39.22V33.5657Z" fill="#FFB0C2"/>
<path d="M52.0498 24.7383C53.3657 24.7383 54.4325 23.6828 54.4325 22.3809C54.4325 21.0789 53.3657 20.0234 52.0498 20.0234C50.7338 20.0234 49.667 21.0789 49.667 22.3809C49.667 23.6828 50.7338 24.7383 52.0498 24.7383Z" fill="#FFB0C2"/>
<path d="M49.0184 20.4727H45.2983V33.5667H49.0184V20.4727Z" fill="#FFB0C2"/>
<path d="M86.7617 33.5666V26.5103C86.7617 24.4576 86.0971 23.7039 84.7355 23.7039C83.2362 23.7039 82.5392 24.602 82.5392 26.3259V33.5666H78.5841V26.35C78.5841 24.6501 77.9601 23.7039 76.6066 23.7039C75.0586 23.7039 74.3616 24.6982 74.3616 26.5103V33.5666H70.3984V20.4725H74.0942V21.8677H74.1428C74.8317 20.6409 76.096 20.0234 77.7899 20.0234C79.5081 20.0234 80.7724 20.8734 81.6072 22.3568C82.5635 20.8734 83.9899 20.0234 85.8054 20.0234C88.7636 20.0234 90.7168 21.8196 90.7168 25.476V33.5666H86.7617Z" fill="#FFF8F8"/>
<path d="M92.8486 33.5667V20.4727H96.8037V33.5667H92.8486Z" fill="#FFF8F8"/>
<path d="M108.944 33.5668V32.1475H108.895C108.32 33.3021 106.748 34.0078 105.005 34.0078C101.091 34.0078 98.3755 30.9608 98.3755 26.9997C98.3755 23.1268 101.212 20.0156 105.005 20.0156C106.626 20.0156 108.125 20.6491 108.895 21.8599H108.944V20.4647H112.899V33.5587H108.944V33.5668ZM108.944 27.0077C108.944 25.1635 107.445 23.68 105.581 23.68C103.765 23.68 102.339 25.1635 102.339 27.0558C102.339 28.876 103.797 30.3594 105.629 30.3594C107.493 30.3594 108.944 28.892 108.944 27.0077Z" fill="#FFF8F8"/>
<path d="M94.8261 19.5742C96.1421 19.5742 97.2089 18.5188 97.2089 17.2168C97.2089 15.9148 96.1421 14.8594 94.8261 14.8594C93.5102 14.8594 92.4434 15.9148 92.4434 17.2168C92.4434 18.5188 93.5102 19.5742 94.8261 19.5742Z" fill="#FFF8F8"/>
<path d="M61.7917 20.0547C57.9095 20.0547 54.7568 23.1739 54.7568 27.0147C54.7568 30.8555 57.9095 33.9747 61.7917 33.9747C65.6738 33.9747 68.8265 30.8555 68.8265 27.0147C68.8265 23.1739 65.6738 20.0547 61.7917 20.0547ZM61.7917 30.3183C59.9438 30.3183 58.4526 28.8429 58.4526 27.0147C58.4526 25.1865 59.9438 23.7111 61.7917 23.7111C63.6395 23.7111 65.1308 25.1865 65.1308 27.0147C65.1308 28.8429 63.6314 30.3183 61.7917 30.3183Z" fill="#FFB0C2"/>
<path d="M24.3722 26.9593C23.6022 28.4027 22.0624 29.3889 20.2956 29.3889C17.7507 29.3889 15.684 27.3442 15.684 24.8264C15.684 22.3087 17.7507 20.264 20.2956 20.264C22.0624 20.264 23.5941 21.2502 24.3722 22.6935H29.1701C28.2057 18.7244 24.6072 15.7656 20.2956 15.7656C15.2545 15.7656 11.1616 19.8149 11.1616 24.8024C11.1616 29.7898 15.2545 33.8391 20.2956 33.8391C24.591 33.8391 28.1814 30.9044 29.162 26.9513H24.3722V26.9593Z" fill="#FFB0C2"/>
<path d="M27.5169 19.2925C28.5462 18.4586 29.2027 17.1916 29.2027 15.7804C29.2027 13.2787 27.1522 11.25 24.6236 11.25C22.0949 11.25 20.0444 13.2787 20.0444 15.7804C20.1255 15.7804 20.2146 15.7804 20.3038 15.7804C23.2377 15.7724 25.8555 17.1516 27.5169 19.2925Z" fill="#CC91F0"/>
<path d="M24.6234 20.3117C25.7175 20.3117 26.7306 19.9268 27.5167 19.2933C25.8472 17.1524 23.2375 15.7812 20.2955 15.7812C20.2063 15.7812 20.1253 15.7812 20.0361 15.7812C20.0442 18.283 22.0947 20.3117 24.6234 20.3117Z" fill="#CB65B7"/>
</svg>
