<svg width="110" height="40" viewBox="0 0 110 40" fill="none" xmlns="http://www.w3.org/2000/svg">
<g clip-path="url(#clip0_128_45585)">
<path d="M82.8531 16.3747H80.661C80.4109 16.3747 80.1607 16.2686 79.9826 16.0733L79.0922 15.0759C78.8251 14.7915 78.3969 14.7533 78.0958 15.0207C78.0789 15.0377 78.0619 15.0547 78.0407 15.0759L77.2733 15.9333C77.0231 16.2177 76.6669 16.3789 76.2938 16.3789H64.2734C63.9342 17.3764 63.7053 18.412 63.6162 19.4647H74.9582C75.1533 19.4647 75.3483 19.3755 75.4925 19.2312L76.544 18.1277C76.6669 17.9834 76.862 17.9154 77.0401 17.9154H77.074C77.269 17.9154 77.4641 18.0046 77.6082 18.1489L78.4986 19.1463C78.6597 19.3416 78.9099 19.4477 79.177 19.4477H88.4372C88.3481 18.3951 88.1361 17.3637 87.78 16.362H82.8489V16.3747H82.8531ZM70.4977 25.929C70.6928 25.929 70.8878 25.8399 71.032 25.6956L72.0835 24.592C72.2065 24.4477 72.4057 24.3798 72.5838 24.3798H72.6389C72.834 24.3798 73.029 24.4689 73.1732 24.6132L74.0636 25.6107C74.2417 25.8059 74.4749 25.912 74.742 25.912H87.2881C87.7673 24.9316 88.1065 23.8789 88.3227 22.8093H76.2684C76.0182 22.8093 75.7681 22.7032 75.6112 22.508L74.7208 21.5105C74.5978 21.3662 74.3985 21.2771 74.1865 21.2771C73.9915 21.2771 73.7965 21.3662 73.6693 21.5105L72.9018 22.3679C72.6517 22.6523 72.2955 22.8136 71.9054 22.8136H63.8197C64.0148 23.8832 64.3709 24.9358 64.8331 25.9333H70.4977V25.929ZM79.3975 13.0046C79.5925 13.0046 79.7876 12.9154 79.9317 12.7711L80.9833 11.6676C81.1062 11.5233 81.3055 11.4553 81.4836 11.4553H81.5387C81.7337 11.4553 81.9288 11.5445 82.056 11.6888L82.9464 12.6862C83.1245 12.8815 83.3577 12.9876 83.6205 12.9876H86.0077C81.8779 7.47826 74.0763 6.3747 68.577 10.5088C67.6357 11.2219 66.7962 12.0411 66.1009 12.9876H79.4017L79.3975 13.0046ZM74.5936 29.0105H71.333C71.0829 29.0105 70.8327 28.9044 70.6758 28.7092L69.7854 27.7117C69.5183 27.4273 69.0731 27.3891 68.789 27.6565C68.7721 27.6735 68.7551 27.6905 68.7339 27.7117L67.9665 28.5861C67.7163 28.8705 67.3601 29.0317 66.987 29.0317H66.9319C71.6129 34.0572 79.5035 34.3416 84.5237 29.6557C84.7357 29.4604 84.9519 29.244 85.1469 29.0317L74.5936 29.0105ZM20.9576 32.1684L18.4305 26.0012H7.1055L4.57846 32.1684H1.64014L12.7489 8.85348L23.8959 32.1684H20.9576ZM8.06798 23.6625H17.4511L12.732 13.7177L8.06798 23.6625ZM27.9409 32.1684V8.85348H34.4238C39.4991 8.85348 42.1533 11.171 42.1533 15.5555C42.1533 19.7788 39.321 22.2024 34.3899 22.2024H30.6672V32.1472H27.9409V32.1684ZM30.6841 19.7788H33.7793C37.6971 19.7788 39.4228 18.4969 39.4228 15.5555C39.4228 12.525 37.6759 11.2771 33.7963 11.2771H30.6969L30.6841 19.7788ZM52.0834 11.328H44.0529V8.83225H62.8573V11.328H54.8267V32.1642H52.1004V11.328H52.0834ZM92.2913 27.907L94.6403 26.3025L94.8184 26.6761C96.26 29.3161 97.8457 30.3645 100.25 30.3645C102.921 30.3645 104.791 28.5097 104.791 26.2813C104.791 24.1761 103.739 22.7542 99.5205 21.0054C94.6785 18.9893 93.0376 16.9222 93.0376 13.9469C93.0376 10.721 95.5646 8.19134 99.9445 8.19134C103.167 8.19134 105.376 9.5623 106.623 11.8076L104.719 13.1277L104.168 12.9834C103.171 11.4384 101.959 10.547 99.8937 10.547C97.3666 10.547 95.8869 11.9732 95.8869 13.8789C95.8869 15.6616 96.8324 16.6761 100.962 18.5649C106.321 21.0054 107.64 23.0046 107.64 26.2474C107.64 29.7788 104.613 32.7711 100.305 32.7711C96.6713 32.8093 94.1781 31.4171 92.2913 27.907Z" fill="white"/>
</g>
<defs>
<clipPath id="clip0_128_45585">
<rect width="106" height="25" fill="white" transform="translate(1.64014 8)"/>
</clipPath>
</defs>
</svg>
