<svg width="150" height="50" viewBox="0 0 150 50" fill="none" xmlns="http://www.w3.org/2000/svg">
<path d="M58.9203 18.9442C59.6182 19.6071 60.316 20.27 61.0138 20.9329C61.7117 21.5958 61.7117 22.9216 61.7117 24.2474C61.7117 25.5733 61.7117 26.8991 61.0138 27.562C61.0138 29.5507 59.6182 30.2136 58.9203 30.8766C57.5247 30.8766 56.8268 31.5395 55.4312 31.5395C54.7333 31.5395 54.0355 31.5395 53.3377 30.8766C52.6398 30.8766 51.942 30.2136 51.2441 30.2136V36.8428H47.0571V18.9442H50.5463L51.2441 20.27C52.6398 18.9442 54.0355 18.2812 56.129 18.2812C56.8268 18.2812 58.2225 18.2812 58.9203 18.9442ZM56.8268 27.562C57.5247 26.8991 58.2225 26.2362 58.2225 24.9104C58.2225 23.5845 57.5247 22.9216 56.8268 22.2587C56.129 21.5958 55.4312 21.5958 54.7333 21.5958C54.0355 21.5958 53.3376 21.5958 52.6398 22.2587C51.942 22.2587 51.942 22.9216 51.2441 23.5845V26.2362C51.2441 26.8991 51.942 27.562 52.6398 27.562C52.6398 28.2249 53.3376 28.2249 54.0355 28.2249C55.4312 28.2249 56.129 28.2249 56.8268 27.562Z" fill="white"/>
<path d="M64.503 21.597C65.2008 20.934 65.8987 19.6082 67.2944 19.6082C68.69 18.9453 69.3879 18.9453 70.7835 18.9453C72.1792 18.9453 73.5749 18.9453 74.2727 19.6082C74.9705 20.2711 76.3662 20.934 77.064 22.2599C77.7619 22.9228 77.7619 24.2486 77.7619 25.5744C77.7619 26.9002 77.7619 27.5632 77.064 28.889C76.3662 29.5519 75.6684 30.8777 74.2727 30.8777C73.5749 31.5406 72.1792 31.5406 70.7835 31.5406C69.3879 31.5406 67.9922 31.5406 67.2944 30.8777C66.5965 30.2148 65.2008 29.5519 64.503 28.889C63.8052 28.2261 63.8052 26.9002 63.8052 25.5744C63.8052 23.5857 63.8052 22.2599 64.503 21.597ZM68.69 27.5632C69.3879 28.2261 70.0857 28.2261 70.7835 28.2261C71.4814 28.2261 72.1792 27.5632 72.877 27.5632C73.5749 27.5632 73.5749 26.2373 73.5749 24.9115C73.5749 23.5857 73.5749 22.9228 72.877 22.2599C72.1792 21.597 71.4814 21.597 70.7835 21.597C70.0857 21.597 69.3879 22.2599 68.69 22.2599C67.9922 22.9228 67.9922 23.5857 67.9922 24.9115C67.9922 25.5744 67.9922 26.9002 68.69 27.5632Z" fill="white"/>
<path d="M84.7402 9V30.8761H80.5532V9H84.7402Z" fill="white"/>
<path d="M101.488 18.9453L93.1141 36.8439H88.9271L91.7184 30.2148L86.1357 18.9453H91.0206L94.5098 26.2373L97.9989 18.9453C97.3011 18.9453 101.488 18.9453 101.488 18.9453Z" fill="white"/>
<path d="M116.841 18.9442V30.8766C116.841 32.2024 116.841 32.8653 116.143 34.1911C115.445 35.5169 114.748 35.5169 113.352 36.1798C111.956 36.8428 110.561 36.8428 109.165 36.8428C108.467 36.8428 107.071 36.8428 106.374 36.1798C105.676 36.1798 104.978 35.5169 104.28 35.5169C103.582 35.5169 102.884 34.854 102.187 34.1911L104.28 31.5395C105.676 32.8653 106.374 32.8653 107.071 33.5282C107.769 34.1911 108.467 34.1911 109.165 34.1911C109.863 34.1911 111.258 34.1911 111.956 33.5282C112.654 32.8653 112.654 32.2024 112.654 31.5395V29.5507C111.956 30.2136 111.956 30.8766 110.561 30.8766C109.863 31.5395 108.467 31.5395 107.769 31.5395C107.071 31.5395 105.676 31.5395 104.28 30.8766C103.582 30.2136 102.884 29.5507 102.187 28.8878C101.489 26.8991 101.489 26.2362 101.489 24.9104C101.489 23.5845 101.489 22.9216 102.187 21.5958C102.884 20.27 103.582 19.6071 104.978 18.9442C105.676 18.2812 107.071 18.2812 107.769 18.2812C108.467 18.2812 109.863 18.2812 110.561 18.9442C111.258 18.9442 111.956 19.6071 112.654 20.27L113.352 19.6071H116.841V18.9442ZM112.654 26.2362V23.5845C112.654 22.9216 111.956 22.2587 111.258 22.2587C110.561 22.2587 109.863 21.5958 109.165 21.5958C108.467 21.5958 107.071 22.2587 106.374 22.2587C105.676 22.9216 105.676 23.5845 105.676 24.9104C105.676 25.5733 105.676 26.8991 106.374 27.562C107.071 28.2249 107.769 28.8878 109.165 28.8878C110.561 28.2249 111.956 27.562 112.654 26.2362Z" fill="white"/>
<path d="M120.33 21.5958C121.028 20.27 121.725 19.6071 122.423 18.9442C123.819 18.2812 124.517 18.2812 125.912 18.2812C127.308 18.2812 128.704 18.2812 129.402 18.9442C130.099 19.6071 131.495 20.27 132.193 20.9329C132.891 22.2587 132.891 22.9216 132.891 24.2474C132.891 25.5733 132.891 26.8991 132.193 27.562C131.495 28.8878 130.797 29.5507 129.402 30.2136C128.704 30.8766 127.308 30.8766 125.912 30.8766C124.517 30.8766 123.121 30.8766 122.423 30.2136C121.028 29.5507 120.33 28.8878 119.632 28.2249C118.934 26.8991 118.934 26.2362 118.934 24.9104C118.934 23.5845 119.632 22.2587 120.33 21.5958ZM123.819 27.562C124.517 28.2249 125.215 28.2249 125.912 28.2249C126.61 28.2249 127.308 27.562 128.006 27.562C128.704 27.562 129.402 25.5733 129.402 24.9104C129.402 23.5845 129.402 22.9216 128.704 22.2587C128.006 21.5958 127.308 21.5958 126.61 21.5958C125.912 21.5958 125.215 22.2587 124.517 22.2587C123.819 22.9216 123.819 23.5845 123.819 24.9104C123.121 25.5733 123.819 26.8991 123.819 27.562Z" fill="white"/>
<path d="M148.243 19.6071C148.941 20.27 149.639 20.9329 149.639 22.2587V31.5395H145.452V23.5845C145.452 22.2587 144.754 21.5958 143.358 21.5958C142.66 21.5958 141.963 22.2587 141.265 22.9216C140.567 23.5845 139.869 24.9104 139.869 26.2362V30.8766H136.38V18.9442H139.869V20.9329C140.567 20.27 141.265 19.6071 141.963 18.9442C142.66 18.2812 144.056 18.2812 144.754 18.2812C146.15 18.2812 146.847 18.9442 148.243 19.6071Z" fill="white"/>
<path d="M29.6112 18.942C28.9134 18.2791 28.2156 18.2791 27.5177 18.942L21.9351 21.5936L18.4459 23.5824L12.8632 26.8969C12.1654 27.5598 11.4675 27.5598 10.7697 26.8969L5.88485 24.2453C5.18701 24.2453 5.18701 23.5824 5.18701 22.2566V17.6162C5.18701 16.9533 5.88485 16.2904 6.58268 15.6274L10.7697 13.6387C11.4675 12.9758 12.1654 12.9758 12.8632 13.6387L17.0502 15.6274C17.748 16.2904 18.4459 16.9533 18.4459 17.6162V20.9307L21.9351 18.942V15.6274C21.9351 14.9645 21.2372 14.3016 20.5394 13.6387L12.8632 9.66125C12.1654 8.99833 11.4675 8.99833 10.7697 9.66125L2.39567 13.6387C1.69783 14.3016 1 14.9645 1 15.6274V24.2453C1 25.5711 1.69783 26.234 2.39567 26.234L10.7697 30.8744C11.4675 31.5373 12.1654 31.5373 12.8632 30.8744L18.4459 28.2228L21.9351 26.234L27.5177 23.5824C28.2156 22.9195 28.9134 22.9195 29.6112 23.5824L33.7983 25.5711C34.4961 25.5711 35.1939 26.234 35.1939 26.8969V31.5373C35.1939 32.2002 34.4961 32.8631 33.7983 33.526L29.6112 36.1777C28.9134 36.8406 28.2156 36.8406 27.5177 36.1777L23.3307 33.526C22.6329 33.526 21.9351 32.8631 21.9351 32.2002V28.8857L18.4459 30.8744V34.1889C18.4459 34.8519 19.1437 35.5148 19.8416 36.1777L28.2156 40.8181C28.9134 41.481 29.6112 41.481 30.3091 40.8181L38.6831 36.1777C38.6831 35.5148 39.3809 34.8519 39.3809 34.1889V24.9082C39.3809 24.2453 38.6831 23.5824 37.9853 22.9195L29.6112 18.942Z" fill="#7E19FF"/>
</svg>
