<svg width="125" height="50" viewBox="0 0 125 50" fill="none" xmlns="http://www.w3.org/2000/svg">
<g clip-path="url(#clip0_131_44859)">
<path d="M28.2949 24.7507C28.2949 31.4638 22.7281 36.9077 15.8631 36.9077C8.99745 36.9077 3.43066 31.4638 3.43066 24.7507C3.43066 18.0376 8.99745 12.5938 15.8631 12.5938C22.7281 12.5938 28.2949 18.0376 28.2949 24.7507Z" fill="white"/>
<path d="M22.9935 18.9014C22.6955 18.1586 22.1954 17.5076 21.637 16.9617C21.0481 16.425 20.3627 15.9973 19.6147 15.6998C19.1305 15.5104 18.6224 15.3843 18.1038 15.3248C16.2497 15.0622 14.2964 15.619 12.8796 17.0073C11.2438 18.6072 10.6691 20.9492 11.3906 23.1296V23.1508C10.9374 23.4275 10.5223 23.7588 10.1552 24.1368C9.58607 24.7203 9.12489 25.3986 8.82622 26.1414C8.53356 26.8867 8.38674 27.6782 8.39328 28.4756C8.39328 29.2858 8.56708 30.056 8.89273 30.772C9.1914 31.5148 9.69148 32.1658 10.2493 32.7117C10.8382 33.2484 11.5236 33.6761 12.2716 33.9736C13.0038 34.2653 13.7938 34.3972 14.5925 34.3972C14.4796 34.3972 14.3685 34.3918 14.2581 34.3869C15.1189 34.4322 15.9798 34.2998 16.7837 33.9984C17.5877 33.697 18.3163 33.2336 18.9214 32.6387C19.7249 31.8587 20.2904 30.8788 20.5556 29.8072C20.8207 28.7356 20.7752 27.6139 20.4241 26.5657C20.9073 26.2826 21.348 25.9363 21.7336 25.5366C22.3027 24.9531 22.7645 24.2747 23.0626 23.5319C23.3556 22.7867 23.5028 21.9952 23.4968 21.1978C23.4976 20.4069 23.3272 19.6246 22.9967 18.9014M17.6338 19.3335C17.5905 19.143 17.5701 18.9482 17.573 18.753C17.797 18.7907 18.0097 18.8552 18.2224 18.9415C18.521 19.063 18.7808 19.2606 18.9822 19.4873C19.1755 19.7226 19.3468 19.9766 19.4434 20.2684C19.5488 20.5602 19.5789 20.8519 19.5789 21.1437C19.5455 21.6978 19.3048 22.2212 18.9019 22.6159L17.6344 19.3366L17.6338 19.3335ZM19.082 23.0809C19.1203 23.0457 19.1592 23.0104 19.1924 22.9697C19.4516 22.7053 19.6147 22.4244 19.7502 22.0944C19.8858 21.7649 19.9134 21.4081 19.9134 21.0872C19.9134 20.7304 19.8167 20.4088 19.6812 20.1171C19.5457 19.8253 19.3167 19.5603 19.0845 19.3366C18.8523 19.139 18.5537 18.9415 18.2556 18.8473C18.0404 18.7719 17.8051 18.7391 17.5679 18.7233C17.5773 18.3437 17.6764 17.9712 17.8578 17.6346C18.1283 17.6857 18.388 17.7641 18.6396 17.8777C19.1008 18.0747 19.4679 18.3665 19.7942 18.688C20.0928 19.0448 20.3633 19.4308 20.5264 19.8551C20.6895 20.2794 20.7586 20.7225 20.7586 21.1814C20.7586 21.6409 20.6619 22.0944 20.4605 22.481C20.2951 22.8876 20.0351 23.2519 19.7007 23.5453C19.5926 23.64 19.4782 23.7275 19.3581 23.8073L19.0789 23.0834L19.082 23.0809ZM19.5319 24.245C19.7045 24.12 19.868 23.9837 20.0213 23.8371C20.3582 23.4803 20.6563 23.0268 20.8194 22.5752C21.0208 22.0865 21.0898 21.5978 21.0898 21.1164C21.0898 20.6362 20.9656 20.1468 20.7617 19.6958C20.5618 19.254 20.2703 18.8568 19.9052 18.5288C19.54 18.2096 19.1454 17.9452 18.6836 17.7854C18.4231 17.6976 18.1539 17.6361 17.8804 17.6018C17.9959 17.3939 18.137 17.2018 18.3108 17.0292C18.4464 16.8967 18.5957 16.7836 18.7501 16.6864C18.8743 16.7289 18.996 16.7775 19.1146 16.8322C19.6913 17.0699 20.2099 17.4223 20.6368 17.8668C21.071 18.2911 21.3967 18.8448 21.6288 19.3901C21.861 19.9736 21.9576 20.5845 21.9576 21.168C21.9313 21.7693 21.7975 22.3616 21.5623 22.9186C21.3302 23.4371 20.9662 23.9155 20.532 24.3398C20.3091 24.5581 20.0618 24.7518 19.7948 24.9172L19.5319 24.2395V24.245ZM13.0647 32.9657C12.9672 32.93 12.8713 32.8902 12.7773 32.8466C12.2006 32.609 11.682 32.2565 11.2551 31.8121C10.8209 31.3878 10.4953 30.834 10.2631 30.2857C10.0427 29.7175 9.93211 29.1148 9.93682 28.5078C9.96186 27.9063 10.0957 27.3138 10.3321 26.7572C10.5643 26.2387 10.9288 25.7603 11.363 25.3366C11.5687 25.1343 11.7954 24.953 12.0394 24.7957L12.3073 25.4765C12.1545 25.5896 12.0097 25.7124 11.8738 25.8442C11.5368 26.201 11.2382 26.6551 11.0756 27.1061C10.8736 27.5948 10.8046 28.0841 10.8046 28.5649C10.8046 29.0451 10.9288 29.5344 11.1334 29.9861C11.3333 30.4278 11.6248 30.8251 11.9899 31.1531C12.3544 31.4717 12.7491 31.7367 13.2134 31.8959C13.4487 31.9768 13.6947 32.0333 13.9406 32.0686C13.827 32.2683 13.6855 32.452 13.5202 32.6144C13.3841 32.7476 13.232 32.8645 13.0672 32.9627M13.2523 31.7987C12.7911 31.6011 12.4241 31.3094 12.0978 30.9878C11.7991 30.6316 11.5312 30.245 11.3655 29.8207C11.2066 29.3957 11.1279 28.9464 11.1334 28.4944C11.1334 28.0355 11.23 27.5814 11.432 27.1948C11.5952 26.7815 11.865 26.4229 12.1913 26.1311C12.2829 26.0497 12.3795 25.9767 12.4786 25.9062L12.766 26.6417C12.7441 26.663 12.7221 26.6818 12.7001 26.7061C12.4404 26.9681 12.2772 27.252 12.1417 27.5814C12.0062 27.9109 11.9786 28.2677 11.9786 28.5892C11.9786 28.9479 12.0752 29.267 12.2107 29.5588C12.3462 29.8505 12.5753 30.1155 12.8074 30.3398C13.0396 30.5368 13.3383 30.7343 13.6363 30.8286C13.8352 30.896 14.0479 30.9319 14.2663 30.9477C14.2488 31.3257 14.1439 31.695 13.9594 32.0284C13.7156 31.9776 13.4785 31.9005 13.2523 31.7987ZM14.2167 30.3313C14.2581 30.5258 14.2719 30.7204 14.2663 30.9124C14.0635 30.8728 13.8654 30.8131 13.6752 30.7343C13.3765 30.6128 13.1168 30.4152 12.9154 30.1885C12.7221 29.9533 12.5508 29.6992 12.4542 29.4074C12.3488 29.1156 12.3186 28.8239 12.3186 28.5321C12.3509 27.9998 12.5747 27.4952 12.9511 27.1061L14.2167 30.3313ZM10.4018 32.6089C9.83203 32.0528 9.43987 31.4121 9.1412 30.6991C8.88206 30.0207 8.74591 29.2402 8.74591 28.4975C8.78481 27.7541 8.94795 27.0113 9.24662 26.3335C9.54466 25.6467 10.0058 25.0339 10.5367 24.5179C10.8594 24.2052 11.2214 23.933 11.614 23.7076L11.8186 24.2261C11.5061 24.4261 11.2162 24.6504 10.9621 24.9233C10.4989 25.398 10.1391 25.9583 9.90419 26.5706C9.67203 27.1815 9.57791 27.8325 9.57791 28.481C9.61681 29.1211 9.74105 29.7697 10.0115 30.3532C10.2804 30.9367 10.6632 31.4643 11.139 31.9069C11.6068 32.3391 12.1554 32.681 12.7553 32.9141C12.8407 32.9469 12.9266 32.9737 13.0126 33.0034C12.62 33.2288 12.1749 33.3542 11.7188 33.3681C11.5563 33.3711 11.394 33.3548 11.2357 33.3195C10.9366 33.1099 10.6583 32.8739 10.4043 32.6144M22.6541 23.3484C22.3554 24.034 21.8942 24.6473 21.3634 25.1634C21.0231 25.4944 20.6386 25.7797 20.2202 26.012L20.0213 25.4953C20.36 25.2899 20.6693 25.0422 20.9411 24.7586C21.4023 24.2772 21.7694 23.7234 21.999 23.1101C22.2312 22.4998 22.3253 21.8488 22.3253 21.2002C22.2864 20.5602 22.1622 19.9116 21.8911 19.3281C21.3553 18.1613 20.3713 17.2427 19.1479 16.7672C19.0357 16.7247 18.9213 16.6878 18.8053 16.6566C19.3644 16.3314 20.0312 16.2269 20.6676 16.3648C20.9687 16.5751 21.2473 16.8128 21.4958 17.0699C22.0655 17.6261 22.4577 18.2637 22.7557 18.9798C23.0155 19.6575 23.151 20.4386 23.151 21.1814C23.1128 21.9242 22.9496 22.67 22.651 23.3453" fill="#DD1438"/>
<path d="M36.2881 32.7077C35.0558 32.3558 34.0644 31.9023 33.3184 31.3431L34.6304 28.4953C35.3457 29.009 36.1971 29.4223 37.1835 29.7329C38.1698 30.0429 39.1556 30.2003 40.1419 30.2003C41.2419 30.2003 42.0513 30.0405 42.5765 29.722C43.101 29.4035 43.3633 28.9792 43.3633 28.4497C43.3633 28.0607 43.2089 27.7361 42.899 27.4796C42.5897 27.2231 42.1918 27.0177 41.7056 26.8608C41.2193 26.704 40.5648 26.5338 39.736 26.3478C38.4622 26.053 37.4207 25.7564 36.6112 25.4616C35.8015 25.1668 35.0828 24.6769 34.5231 24.038C33.9427 23.3839 33.6528 22.5141 33.6528 21.4254C33.6528 20.4772 33.9151 19.6153 34.4396 18.8457C34.9648 18.0756 35.7548 17.4653 36.8133 17.0137C37.8712 16.5627 39.1644 16.3359 40.6916 16.3359C41.7583 16.3359 42.7998 16.4599 43.8163 16.7085C44.8328 16.9572 45.7257 17.3164 46.4905 17.7814L45.2971 20.6529C43.753 19.7995 42.2113 19.3697 40.6665 19.3697C39.5841 19.3697 38.7854 19.5423 38.269 19.8827C37.7526 20.2262 37.4928 20.6772 37.4928 21.2364C37.4928 21.7956 37.7909 22.2144 38.3876 22.4843C38.9843 22.7579 39.896 23.0253 41.1201 23.2897C42.3939 23.5839 43.4355 23.8812 44.2449 24.1754C45.0505 24.4661 45.7683 24.9473 46.3331 25.5752C46.9134 26.2129 47.2033 27.0766 47.2033 28.1659C47.2112 29.0764 46.9328 29.9677 46.4052 30.7213C45.8719 31.4914 45.0706 32.1017 44.0071 32.5533C42.9404 33.0043 41.6447 33.228 40.1168 33.228C38.8203 33.2313 37.53 33.0541 36.2856 32.7016M51.8114 31.2939C50.4824 30.0028 49.8198 28.1574 49.8198 25.7643V16.6162H53.685V25.6239C53.685 28.5494 54.9248 30.0107 57.4089 30.0107C58.6161 30.0107 59.5416 29.6569 60.1772 28.9494C60.8122 28.2412 61.1329 27.1338 61.1329 25.6239V16.6168H64.9509V25.7643C64.9509 28.1604 64.2852 30.0028 62.9588 31.2939C61.6304 32.5855 59.7738 33.2311 57.3869 33.2311C54.9995 33.2311 53.1428 32.5855 51.8145 31.2939M78.9488 17.3407C80.0375 17.8209 80.8776 18.5078 81.4656 19.394C82.0541 20.2797 82.3497 21.3306 82.3497 22.5439C82.3497 23.7565 82.0573 24.7887 81.4656 25.6828C80.8776 26.577 80.0375 27.2632 78.9488 27.7361C77.8608 28.2115 76.5733 28.4491 75.095 28.4491H71.73V32.9533H67.8648V16.6162H75.095C76.5758 16.6162 77.8608 16.8563 78.9488 17.3395V17.3407ZM77.5289 24.6318C78.1338 24.1431 78.435 23.4465 78.435 22.5439C78.435 21.6412 78.1338 20.9228 77.5289 20.434C76.924 19.9447 76.04 19.6986 74.8798 19.6986H71.73V25.3698H74.8798C76.04 25.3698 76.924 25.1236 77.5289 24.6343M95.7879 32.9527L92.5665 28.4005H89.0107V32.9533H85.1456V16.6162H92.3758C93.8566 16.6162 95.1416 16.8563 96.2296 17.3395C97.3182 17.8209 98.1584 18.5066 98.7463 19.3934C99.3349 20.279 99.6304 21.33 99.6304 22.5433C99.6304 23.7559 99.3324 24.8045 98.7357 25.6822C98.139 26.5636 97.2906 27.2328 96.1938 27.7003L99.9404 32.9521L95.7879 32.9527ZM94.8097 20.434C94.2048 19.9447 93.3207 19.6986 92.1606 19.6986H89.0107V25.3941H92.1606C93.3207 25.3941 94.2048 25.1449 94.8097 24.6483C95.4145 24.151 95.7157 23.4514 95.7157 22.5494C95.7157 21.6467 95.4145 20.9282 94.8097 20.4365M114.527 29.4515H106.772L105.291 32.9527H101.33L108.776 16.6168H112.594L120.064 32.9527H116.008L114.527 29.4515ZM113.309 26.58L110.659 20.3252L108.01 26.58H113.309Z" fill="white"/>
</g>
<defs>
<clipPath id="clip0_131_44859">
<rect width="116.707" height="24.3139" fill="white" transform="translate(3.43066 12.5938)"/>
</clipPath>
</defs>
</svg>
