<svg width="125" height="50" viewBox="0 0 125 50" fill="none" xmlns="http://www.w3.org/2000/svg">
<g clip-path="url(#clip0_131_45344)">
<path d="M23.7622 10.2111C23.7875 10.0945 23.9037 10 24.0219 10H29.8003C29.9185 10 29.9939 10.0945 29.9687 10.2111L28.7357 15.9116C28.7105 16.0282 28.5943 16.1227 28.4761 16.1227H22.6976C22.5794 16.1227 22.5041 16.0282 22.5293 15.9116L23.7622 10.2111Z" fill="white"/>
<path d="M31.2527 10.2111C31.2779 10.0945 31.3941 10 31.5123 10H41.143C42.5614 10 43.4659 11.1343 43.1633 12.5335L39.7841 28.157C39.7588 28.2735 39.6426 28.3681 39.5244 28.3681H34.0486C33.9304 28.3681 33.8141 28.4626 33.789 28.5792L32.556 34.2796C32.5308 34.3963 32.6061 34.4908 32.7244 34.4908H38.2001C38.3183 34.4908 38.3937 34.5853 38.3685 34.7019L37.1355 40.4024C37.1103 40.519 36.994 40.6135 36.8759 40.6135H31.0974C30.9792 40.6135 30.9038 40.519 30.9291 40.4024L32.162 34.7019C32.1872 34.5853 32.1119 34.4908 31.9937 34.4908H26.2152C26.097 34.4908 26.0216 34.3963 26.0469 34.2796L27.2798 28.5792C27.305 28.4626 27.4213 28.3681 27.5395 28.3681H33.3179C33.4361 28.3681 33.5524 28.2735 33.5776 28.157L35.9065 17.3895C36.0578 16.6898 35.6056 16.1227 34.8964 16.1227H30.1881C30.0699 16.1227 29.9945 16.0282 30.0197 15.9116L31.2527 10.2111Z" fill="white"/>
<path d="M22.4239 17.3906C22.3057 17.3906 22.1894 17.4851 22.1642 17.6017L17.2324 40.4036C17.2072 40.5201 17.2826 40.6147 17.4008 40.6147H23.1792C23.2974 40.6147 23.4136 40.5201 23.4389 40.4036L28.3707 17.6017C28.3959 17.4851 28.3205 17.3906 28.2023 17.3906H22.4239Z" fill="white"/>
</g>
<path d="M107.621 26.9666V31.6793H105.878V27.1603C105.878 26.6007 105.776 26.1865 105.572 25.9175C105.378 25.6378 105.066 25.4979 104.635 25.4979C104.345 25.4979 104.087 25.5624 103.861 25.6916C103.646 25.8207 103.473 26.009 103.344 26.2564C103.226 26.5039 103.167 26.8052 103.167 27.1603V31.6793H101.424V27.1603C101.424 26.6007 101.321 26.1865 101.117 25.9175C100.923 25.6378 100.611 25.4979 100.181 25.4979C99.8797 25.4979 99.6161 25.5624 99.3901 25.6916C99.1749 25.8207 99.0081 26.009 98.8898 26.2564C98.7714 26.5039 98.7122 26.8052 98.7122 27.1603V31.6793H97.0015V24.2551H98.7122V25.3365C98.9274 24.9276 99.2072 24.621 99.5515 24.4165C99.9066 24.2013 100.321 24.0938 100.794 24.0938C101.343 24.0938 101.795 24.2067 102.15 24.4327C102.516 24.6586 102.779 24.9868 102.941 25.4172C103.199 24.9868 103.522 24.6586 103.909 24.4327C104.307 24.2067 104.759 24.0938 105.265 24.0938C105.792 24.0938 106.228 24.2067 106.572 24.4327C106.927 24.6479 107.191 24.9707 107.363 25.401C107.535 25.8314 107.621 26.3533 107.621 26.9666Z" fill="white"/>
<path d="M91.3589 21.2996C91.3589 20.9983 91.4665 20.7455 91.6817 20.541C91.9076 20.3366 92.1659 20.2344 92.4564 20.2344C92.7684 20.2344 93.0266 20.3366 93.2311 20.541C93.4463 20.7455 93.5539 20.9983 93.5539 21.2996C93.5539 21.5901 93.4463 21.8429 93.2311 22.0581C93.0266 22.2626 92.7684 22.3648 92.4564 22.3648C92.1659 22.3648 91.9076 22.2626 91.6817 22.0581C91.4665 21.8429 91.3589 21.5901 91.3589 21.2996ZM91.601 24.2531H93.3118V31.6773H91.601V24.2531Z" fill="white"/>
<path d="M83.0971 29.3719C83.0971 29.6193 83.1563 29.8345 83.2746 30.0175C83.393 30.1896 83.5544 30.3187 83.7588 30.4048C83.974 30.4909 84.2161 30.5339 84.4851 30.5339C84.8294 30.5339 85.1414 30.464 85.4212 30.3241C85.7117 30.1842 85.943 29.9798 86.1152 29.7108C86.2981 29.4311 86.3895 29.1083 86.3895 28.7424L86.6478 29.7108C86.6478 30.1842 86.5079 30.5823 86.2282 30.9051C85.9592 31.2172 85.6149 31.4539 85.1952 31.6153C84.7864 31.7659 84.3667 31.8412 83.9363 31.8412C83.4737 31.8412 83.0433 31.7498 82.6452 31.5668C82.2471 31.3839 81.9297 31.1149 81.693 30.7599C81.4562 30.4048 81.3379 29.9744 81.3379 29.4687C81.3379 28.7478 81.5907 28.1776 82.0964 27.7579C82.6021 27.3275 83.3177 27.1123 84.243 27.1123C84.7379 27.1123 85.1629 27.1661 85.518 27.2737C85.8838 27.3813 86.1851 27.5105 86.4218 27.6611C86.6585 27.801 86.8253 27.9301 86.9222 28.0484V28.9361C86.5886 28.6994 86.2335 28.5272 85.8569 28.4196C85.4804 28.312 85.0822 28.2583 84.6626 28.2583C84.2968 28.2583 84.0009 28.3067 83.775 28.4035C83.549 28.4896 83.3768 28.6133 83.2585 28.7747C83.1509 28.9361 83.0971 29.1352 83.0971 29.3719ZM82.5484 26.1924L81.8382 24.9658C82.1718 24.7614 82.6021 24.5623 83.1294 24.3686C83.6674 24.175 84.2807 24.0781 84.9693 24.0781C85.5826 24.0781 86.1206 24.1696 86.5832 24.3525C87.0566 24.5354 87.4279 24.799 87.6968 25.1433C87.9658 25.4769 88.1003 25.8911 88.1003 26.3861V31.6798H86.3895V26.725C86.3895 26.4883 86.3465 26.2946 86.2604 26.144C86.1851 25.9933 86.0775 25.8696 85.9376 25.7728C85.7978 25.6759 85.631 25.606 85.4373 25.563C85.2436 25.5199 85.0338 25.4984 84.8079 25.4984C84.4636 25.4984 84.1354 25.5414 83.8234 25.6275C83.5221 25.7028 83.2585 25.7997 83.0325 25.918C82.8173 26.0256 82.6559 26.1171 82.5484 26.1924Z" fill="white"/>
<path d="M76.7363 19.0898H78.4794V31.6786H76.7363V19.0898Z" fill="white"/>
<path d="M68.79 27.9672C68.79 28.4406 68.8922 28.8549 69.0967 29.21C69.3011 29.5543 69.5755 29.8286 69.9198 30.0331C70.2749 30.2375 70.6676 30.3397 71.098 30.3397C71.453 30.3397 71.792 30.2859 72.1147 30.1783C72.4375 30.0707 72.7227 29.9201 72.9701 29.7264C73.2176 29.5328 73.4005 29.3176 73.5189 29.0808V31.0014C73.2607 31.2597 72.911 31.4641 72.4698 31.6147C72.0287 31.7654 71.5445 31.8407 71.0173 31.8407C70.2533 31.8407 69.5647 31.6793 68.9514 31.3565C68.3489 31.023 67.8701 30.5657 67.515 29.9847C67.1707 29.3929 66.9985 28.7204 66.9985 27.9672C66.9985 27.2033 67.1707 26.5308 67.515 25.9498C67.8701 25.3688 68.3489 24.9169 68.9514 24.5941C69.5647 24.2605 70.2533 24.0938 71.0173 24.0938C71.5445 24.0938 72.0287 24.1691 72.4698 24.3197C72.911 24.4703 73.2607 24.6748 73.5189 24.933V26.8536C73.4005 26.6061 73.2122 26.3909 72.954 26.208C72.7065 26.0143 72.4214 25.8637 72.0986 25.7561C71.7758 25.6485 71.4423 25.5947 71.098 25.5947C70.6676 25.5947 70.2749 25.6969 69.9198 25.9014C69.5755 26.1058 69.3011 26.3856 69.0967 26.7406C68.8922 27.0957 68.79 27.5046 68.79 27.9672Z" fill="white"/>
<path d="M60.8802 31.8407C60.127 31.8407 59.4599 31.6793 58.8789 31.3565C58.3086 31.0337 57.8675 30.5818 57.5554 30.0008C57.2434 29.4198 57.0874 28.7419 57.0874 27.9672C57.0874 27.1818 57.2434 26.4985 57.5554 25.9175C57.8782 25.3365 58.3301 24.89 58.9112 24.5779C59.4922 24.2551 60.1754 24.0938 60.9609 24.0938C61.7463 24.0938 62.4134 24.2444 62.9622 24.5457C63.5109 24.8469 63.9305 25.2827 64.2211 25.853C64.5223 26.4125 64.673 27.0903 64.673 27.8865C64.673 27.9726 64.6676 28.0641 64.6568 28.1609C64.6568 28.2577 64.6514 28.3277 64.6407 28.3707H58.1203V27.1764H63.1558L62.6232 27.9188C62.6555 27.8542 62.6878 27.7682 62.7201 27.6606C62.7631 27.5422 62.7846 27.4454 62.7846 27.3701C62.7846 26.972 62.7039 26.6276 62.5425 26.3371C62.3919 26.0466 62.1767 25.8207 61.897 25.6593C61.628 25.4979 61.3106 25.4172 60.9447 25.4172C60.5036 25.4172 60.127 25.514 59.815 25.7077C59.5029 25.9014 59.2662 26.1811 59.1048 26.547C58.9434 26.9128 58.8574 27.3647 58.8466 27.9027C58.8466 28.4406 58.9273 28.8979 59.0887 29.2745C59.2501 29.6404 59.4868 29.9201 59.7988 30.1138C60.1216 30.3075 60.509 30.4043 60.9609 30.4043C61.4343 30.4043 61.8485 30.3075 62.2036 30.1138C62.5587 29.9201 62.8546 29.6242 63.0913 29.2261L64.5923 29.8394C64.2049 30.5065 63.7046 31.0068 63.0913 31.3404C62.478 31.6739 61.741 31.8407 60.8802 31.8407Z" fill="white"/>
<path d="M52.3509 24.2551V31.6793H50.624V24.2551H52.3509ZM54.5621 26.1112C54.4007 25.9821 54.25 25.8852 54.1102 25.8207C53.9703 25.7561 53.7927 25.7238 53.5775 25.7238C53.287 25.7238 53.0503 25.7992 52.8674 25.9498C52.6845 26.1004 52.55 26.3102 52.4639 26.5792C52.3886 26.8375 52.3509 27.1441 52.3509 27.4992L51.7699 27.1603C51.7699 26.5685 51.8775 26.0466 52.0927 25.5947C52.3187 25.1321 52.6038 24.7662 52.9481 24.4972C53.3032 24.2282 53.669 24.0938 54.0456 24.0938C54.3146 24.0938 54.5674 24.1368 54.8041 24.2229C55.0409 24.2982 55.2399 24.4381 55.4013 24.6425L54.5621 26.1112Z" fill="white"/>
<defs>
<clipPath id="clip0_131_45344">
<rect width="26.8991" height="30.934" fill="white" transform="translate(17 10)"/>
</clipPath>
</defs>
</svg>
