<svg width="133" height="50" viewBox="0 0 133 50" fill="none" xmlns="http://www.w3.org/2000/svg">
<g clip-path="url(#clip0_131_44901)">
<path d="M28.242 36.8816C28.242 36.8816 38.6642 33.4605 38.6642 20.8797V16.355C38.6642 15.8662 38.2728 15.4563 37.7672 15.4248C35.8752 15.346 31.3899 14.9676 28.242 13.3438C25.0942 14.9676 20.6089 15.346 18.7169 15.4248C18.2113 15.4563 17.8198 15.8662 17.8198 16.355V20.8797C17.8198 33.4605 28.242 36.8816 28.242 36.8816Z" fill="#009FE8"/>
<path d="M32.45 22.535C32.3195 21.1634 31.1125 20.6904 29.5631 20.5485V18.6251H28.3561V20.4855C28.0462 20.4855 27.7037 20.4855 27.3775 20.4855V18.6094H26.1705L26.1869 20.517C25.9259 20.517 23.7729 20.5328 23.7729 20.5328V21.7467H25.3061V27.8795H23.9524L23.9361 29.2826C23.9361 29.2826 25.8443 29.2668 26.1216 29.2826V31.206H27.3123V29.2984C27.6385 29.3141 27.9647 29.3141 28.2746 29.3141V31.206H29.4815V29.2826C31.504 29.188 32.9067 28.6993 33.1024 26.8705C33.2492 25.4043 32.5478 24.7264 31.4061 24.4584C32.1075 24.1431 32.5478 23.544 32.45 22.535ZM30.7374 26.634C30.7211 28.0687 28.193 27.8953 27.3938 27.8953V25.3412C28.193 25.3412 30.7537 25.1363 30.7374 26.634ZM30.1992 23.0395C30.1829 24.348 28.0788 24.1904 27.4101 24.1746V21.8571C28.0788 21.8571 30.2155 21.6679 30.1992 23.0395Z" fill="white"/>
<path d="M59.3615 28.9518C59.3615 29.9608 59.1495 30.7964 58.7417 31.4743C58.334 32.1522 57.7794 32.704 57.1107 33.1139C56.4257 33.5238 55.6591 33.8234 54.7947 34.0126C53.9302 34.186 53.0331 34.2806 52.1361 34.2806H44.5845V15.9453H52.1361C52.87 15.9453 53.6203 16.0241 54.3869 16.166C55.1535 16.3079 55.8548 16.5602 56.4746 16.9228C57.0944 17.2854 57.6 17.7583 58.0078 18.3574C58.3992 18.9565 58.5949 19.729 58.5949 20.6592C58.5949 21.6839 58.3177 22.5195 57.7305 23.1817C57.1596 23.8438 56.4094 24.3326 55.4797 24.6163V24.6636C56.0179 24.7582 56.5235 24.9159 56.9965 25.1524C57.4695 25.3888 57.8773 25.6884 58.2198 26.051C58.5623 26.4136 58.8396 26.8393 59.0516 27.328C59.2473 27.801 59.3615 28.337 59.3615 28.9518ZM54.1586 21.2583C54.1586 20.6434 53.9139 20.1862 53.4246 19.9025C52.9353 19.6187 52.2013 19.4768 51.239 19.4768H48.9882V23.2605H51.4511C52.3155 23.2605 52.9679 23.0871 53.4409 22.756C53.9302 22.4092 54.1586 21.9047 54.1586 21.2583ZM54.7783 28.5262C54.7783 27.7694 54.4848 27.2334 53.8976 26.9496C53.3104 26.6501 52.5275 26.5082 51.5326 26.5082H48.9882V30.7018H51.5652C51.9241 30.7018 52.2992 30.6703 52.6743 30.6072C53.0495 30.5442 53.4083 30.4338 53.7182 30.2919C54.0281 30.1343 54.289 29.9135 54.4848 29.6298C54.6805 29.346 54.7783 28.9834 54.7783 28.5262Z" fill="white"/>
<path d="M65.4454 17.2709C65.4454 17.602 65.3802 17.9016 65.2497 18.1853C65.1192 18.4691 64.9398 18.7214 64.7115 18.9263C64.4831 19.1313 64.2221 19.2889 63.9123 19.415C63.6024 19.5412 63.2762 19.5885 62.9336 19.5885C62.216 19.5885 61.6288 19.3677 61.1395 18.8948C60.6502 18.4376 60.4219 17.8858 60.4219 17.2552C60.4219 16.9399 60.4871 16.6403 60.6176 16.3565C60.7481 16.0728 60.9275 15.8205 61.1558 15.6156C61.3842 15.4106 61.6614 15.2372 61.955 15.1111C62.2649 14.9849 62.5911 14.9219 62.95 14.9219C63.2925 14.9219 63.6187 14.9849 63.9286 15.0953C64.2385 15.2214 64.5157 15.3791 64.7278 15.584C64.9561 15.789 65.1355 16.0412 65.266 16.325C65.3802 16.6245 65.4454 16.9399 65.4454 17.2709ZM60.7318 21.3857H65.1355V34.2819H60.7318V21.3857Z" fill="white"/>
<path d="M73.0952 24.5388V29.4734C73.0952 30.0882 73.2093 30.5297 73.454 30.845C73.6986 31.1445 74.1227 31.3022 74.7588 31.3022C74.9708 31.3022 75.1992 31.2864 75.4438 31.2549C75.6885 31.2233 75.8842 31.176 76.0473 31.0972L76.0962 34.203C75.7863 34.3134 75.4112 34.3922 74.9382 34.471C74.4652 34.5499 74.0085 34.5814 73.5355 34.5814C72.6385 34.5814 71.8882 34.471 71.2847 34.2503C70.6813 34.0296 70.1919 33.7301 69.8168 33.3202C69.458 32.9102 69.1807 32.4373 69.0176 31.8697C68.8545 31.3022 68.773 30.6873 68.773 29.9936V24.5388H66.6689V21.3857H68.7893V17.9961H73.1115V21.3857H76.243V24.5388H73.0952Z" fill="white"/>
<path d="M92.1451 34.3126C90.9055 34.6121 89.5518 34.754 88.0838 34.754C86.567 34.754 85.1643 34.5175 83.8921 34.0603C82.6199 33.5873 81.5108 32.941 80.5975 32.0896C79.6841 31.2383 78.9501 30.2293 78.4445 29.0469C77.9226 27.8645 77.6616 26.5402 77.6616 25.0897C77.6616 23.6236 77.9226 22.2993 78.4608 21.1011C78.9827 19.9029 79.7167 18.8939 80.6464 18.0583C81.5761 17.2228 82.6689 16.5764 83.9084 16.135C85.1643 15.6935 86.5017 15.457 87.9534 15.457C89.4539 15.457 90.8403 15.6778 92.1288 16.1192C93.4173 16.5606 94.4611 17.1439 95.2603 17.9007L92.3734 21.0853C91.933 20.5808 91.3296 20.1709 90.6119 19.8556C89.878 19.5403 89.0461 19.3826 88.1165 19.3826C87.3173 19.3826 86.567 19.5245 85.8983 19.8083C85.2132 20.0921 84.6261 20.4862 84.1368 21.0065C83.6312 21.511 83.2397 22.1258 82.9787 22.8195C82.7015 23.5132 82.5547 24.2857 82.5547 25.1055C82.5547 25.9568 82.6852 26.7294 82.9298 27.4388C83.1745 28.1483 83.5496 28.7631 84.0389 29.2676C84.5282 29.7721 85.1317 30.182 85.8657 30.4658C86.5833 30.7496 87.4151 30.8914 88.3448 30.8914C88.883 30.8914 89.3886 30.8599 89.878 30.7811C90.3509 30.7023 90.8076 30.5761 91.2154 30.4027V27.0604H87.5945V23.4501H95.4234V33.1617C94.4611 33.6346 93.3846 34.013 92.1451 34.3126Z" fill="white"/>
<path d="M111.913 27.7873C111.913 28.8435 111.717 29.7895 111.326 30.6566C110.934 31.5079 110.396 32.2331 109.711 32.8322C109.026 33.4313 108.243 33.8885 107.346 34.2196C106.449 34.5506 105.503 34.7083 104.476 34.7083C103.481 34.7083 102.518 34.5506 101.621 34.2196C100.724 33.8885 99.9251 33.4313 99.2564 32.8322C98.5876 32.2331 98.0494 31.5079 97.658 30.6566C97.2665 29.8052 97.0708 28.8435 97.0708 27.7873C97.0708 26.731 97.2665 25.785 97.658 24.9337C98.0494 24.0824 98.5876 23.3729 99.2564 22.7896C99.9251 22.2063 100.708 21.7491 101.621 21.4495C102.518 21.1342 103.481 20.9766 104.476 20.9766C105.487 20.9766 106.449 21.1342 107.346 21.4495C108.243 21.7648 109.026 22.2063 109.711 22.7896C110.396 23.3729 110.918 24.0981 111.326 24.9337C111.717 25.785 111.913 26.731 111.913 27.7873ZM107.689 27.7873C107.689 27.3774 107.623 26.9674 107.477 26.5733C107.33 26.1792 107.134 25.8323 106.857 25.517C106.596 25.2175 106.253 24.9652 105.862 24.776C105.471 24.5869 105.014 24.4923 104.492 24.4923C103.97 24.4923 103.513 24.5869 103.122 24.776C102.73 24.9652 102.404 25.2175 102.143 25.517C101.882 25.8166 101.687 26.1634 101.556 26.5733C101.426 26.9674 101.36 27.3774 101.36 27.7873C101.36 28.1972 101.426 28.6071 101.556 29.0012C101.687 29.3953 101.882 29.7579 102.16 30.0733C102.421 30.3886 102.763 30.6566 103.155 30.8458C103.546 31.0349 104.003 31.1295 104.525 31.1295C105.046 31.1295 105.503 31.0349 105.895 30.8458C106.286 30.6566 106.612 30.4043 106.89 30.0733C107.15 29.7579 107.363 29.3953 107.493 29.0012C107.623 28.6071 107.689 28.1972 107.689 27.7873Z" fill="white"/>
<path d="M114.148 31.7617C114.979 31.7617 115.681 32.3923 115.681 33.2279C115.681 34.0792 114.963 34.7099 114.148 34.7099C113.316 34.7099 112.598 34.0792 112.598 33.2279C112.598 32.3766 113.299 31.7617 114.148 31.7617ZM114.148 31.9982C113.446 31.9982 112.892 32.5342 112.892 33.2279C112.892 33.9531 113.446 34.4576 114.148 34.4576C114.849 34.4576 115.387 33.9374 115.387 33.2279C115.387 32.5185 114.833 31.9982 114.148 31.9982ZM113.821 34.0792H113.544V32.3766H114.213C114.637 32.3766 114.833 32.5342 114.833 32.8653C114.833 33.1648 114.637 33.3067 114.376 33.3383L114.882 34.0792H114.588L114.115 33.3383H113.805V34.0792H113.821ZM113.821 33.1333H114.148C114.474 33.1333 114.588 33.0387 114.588 32.8495C114.588 32.6919 114.506 32.5973 114.197 32.5973H113.838V33.1333H113.821Z" fill="white"/>
</g>
<defs>
<clipPath id="clip0_131_44901">
<rect width="98.0243" height="23.8059" fill="white" transform="translate(17.7378 13.2031)"/>
</clipPath>
</defs>
</svg>
