<svg width="141" height="40" viewBox="0 0 141 40" fill="none" xmlns="http://www.w3.org/2000/svg">
<g clip-path="url(#clip0_128_45564)">
<path fill-rule="evenodd" clip-rule="evenodd" d="M15.9396 35.0331C23.8866 35.0331 30.329 28.5487 30.329 20.5497C30.329 12.5508 23.8866 6.06641 15.9396 6.06641C7.99261 6.06641 1.55029 12.5508 1.55029 20.5497C1.55029 28.5487 7.99261 35.0331 15.9396 35.0331ZM20.4286 12.8134C20.6471 12.0321 19.8939 11.5702 19.206 12.0634L9.60337 18.9491C8.85736 19.4839 8.9747 20.5497 9.77965 20.5497H12.3082V20.53H17.2364L13.221 21.9562L11.4506 28.2862C11.2322 29.0674 11.9853 29.5293 12.6733 29.0361L22.2759 22.1505C23.022 21.6155 22.9045 20.5497 22.0996 20.5497H18.2651L20.4286 12.8134Z" fill="#E8E8E8"/>
<path d="M40.6195 24.4845H45.0755V26.6905H38.3164V14.9922H40.6195V24.4845Z" fill="#E8E8E8"/>
<path d="M47.9395 23.3992C48.2288 24.4464 49.0131 24.9701 50.2926 24.9701C51.1159 24.9701 51.739 24.6916 52.1618 24.1345L53.8974 25.1372C53.0741 26.3294 51.8614 26.9254 50.2592 26.9254C48.8796 26.9254 47.7726 26.5076 46.9382 25.672C46.1037 24.8364 45.6865 23.7836 45.6865 22.5135C45.6865 21.2545 46.0982 20.2073 46.9215 19.3717C47.7448 18.5249 48.8017 18.1016 50.0924 18.1016C51.3162 18.1016 52.3231 18.5249 53.113 19.3717C53.9141 20.2184 54.3146 21.2656 54.3146 22.5135C54.3146 22.792 54.2869 23.0873 54.2312 23.3992H47.9395ZM47.9061 21.728H52.1618C52.0394 21.1598 51.7835 20.7364 51.3941 20.4579C51.0158 20.1794 50.5819 20.0401 50.0924 20.0401C49.5139 20.0401 49.0354 20.1905 48.6572 20.4913C48.2789 20.781 48.0285 21.1932 47.9061 21.728Z" fill="#E8E8E8"/>
<path d="M60.9823 18.3359H63.3521L60.1812 26.6919H57.728L54.5571 18.3359H56.9269L58.9462 24.1851L60.9823 18.3359Z" fill="#E8E8E8"/>
<path d="M65.4581 17.333C65.1021 17.333 64.7905 17.2049 64.5235 16.9486C64.2676 16.6812 64.1396 16.3693 64.1396 16.0127C64.1396 15.6562 64.2676 15.3442 64.5235 15.0769C64.7905 14.8095 65.1021 14.6758 65.4581 14.6758C65.8252 14.6758 66.1368 14.8095 66.3927 15.0769C66.6596 15.3442 66.7932 15.6562 66.7932 16.0127C66.7932 16.3693 66.6596 16.6812 66.3927 16.9486C66.1368 17.2049 65.8252 17.333 65.4581 17.333ZM64.39 26.6916V18.3357H66.5428V26.6916H64.39Z" fill="#E8E8E8"/>
<path d="M73.2865 20.408H71.4006V23.8841C71.4006 24.1737 71.473 24.3854 71.6176 24.5191C71.7623 24.6528 71.9737 24.7308 72.2518 24.7531C72.53 24.7642 72.8749 24.7587 73.2865 24.7363V26.6917C71.8068 26.8588 70.7609 26.7196 70.149 26.2738C69.5482 25.8282 69.2478 25.0316 69.2478 23.8841V20.408H67.7959V18.3357H69.2478V16.6478L71.4006 15.9961V18.3357H73.2865V20.408Z" fill="#E8E8E8"/>
<path d="M80.8856 18.3355H83.0384V26.6914H80.8856V25.7054C80.2403 26.5187 79.3335 26.9254 78.1653 26.9254C77.0527 26.9254 76.0959 26.5021 75.2948 25.6553C74.5048 24.7974 74.1099 23.7502 74.1099 22.5135C74.1099 21.2768 74.5048 20.235 75.2948 19.3883C76.0959 18.5304 77.0527 18.1016 78.1653 18.1016C79.3335 18.1016 80.2403 18.5082 80.8856 19.3215V18.3355ZM76.9136 24.2181C77.3476 24.6526 77.8983 24.8698 78.5658 24.8698C79.2334 24.8698 79.7841 24.6526 80.218 24.2181C80.6631 23.7724 80.8856 23.2042 80.8856 22.5135C80.8856 21.8227 80.6631 21.2601 80.218 20.8256C79.7841 20.3799 79.2334 20.1571 78.5658 20.1571C77.8983 20.1571 77.3476 20.3799 76.9136 20.8256C76.4797 21.2601 76.2628 21.8227 76.2628 22.5135C76.2628 23.2042 76.4797 23.7724 76.9136 24.2181Z" fill="#E8E8E8"/>
<path d="M89.7636 20.408H87.8778V23.8841C87.8778 24.1737 87.9501 24.3854 88.0947 24.5191C88.2394 24.6528 88.4508 24.7308 88.7289 24.7531C89.007 24.7642 89.3519 24.7587 89.7636 24.7363V26.6917C88.2838 26.8588 87.238 26.7196 86.6261 26.2738C86.0253 25.8282 85.7249 25.0316 85.7249 23.8841V20.408H84.2729V18.3357H85.7249V16.6478L87.8778 15.9961V18.3357H89.7636V20.408Z" fill="#E8E8E8"/>
<path d="M92.8398 23.3992C93.1296 24.4464 93.9133 24.9701 95.1933 24.9701C96.0164 24.9701 96.639 24.6916 97.062 24.1345L98.7979 25.1372C97.9748 26.3294 96.7616 26.9254 95.1594 26.9254C93.7797 26.9254 92.673 26.5076 91.8386 25.672C91.0041 24.8364 90.5869 23.7836 90.5869 22.5135C90.5869 21.2545 90.9986 20.2073 91.8218 19.3717C92.6452 18.5249 93.7018 18.1016 94.9928 18.1016C96.2169 18.1016 97.2231 18.5249 98.0132 19.3717C98.8143 20.2184 99.2154 21.2656 99.2154 22.5135C99.2154 22.792 99.187 23.0873 99.1311 23.3992H92.8398ZM92.8065 21.728H97.062C96.9402 21.1598 96.6838 20.7364 96.2947 20.4579C95.9166 20.1794 95.4826 20.0401 94.9928 20.0401C94.4141 20.0401 93.9362 20.1905 93.5572 20.4913C93.1791 20.781 92.9289 21.1932 92.8065 21.728Z" fill="#E8E8E8"/>
<path d="M107.293 24.4845H111.749V26.6905H104.99V14.9922H107.293V24.4845Z" fill="#E8E8E8"/>
<path d="M119.136 18.3355H121.289V26.6914H119.136V25.7054C118.491 26.5187 117.584 26.9254 116.416 26.9254C115.303 26.9254 114.347 26.5021 113.546 25.6553C112.755 24.7974 112.361 23.7502 112.361 22.5135C112.361 21.2768 112.755 20.235 113.546 19.3883C114.347 18.5304 115.303 18.1016 116.416 18.1016C117.584 18.1016 118.491 18.5082 119.136 19.3215V18.3355ZM115.164 24.2181C115.598 24.6526 116.149 24.8698 116.816 24.8698C117.484 24.8698 118.035 24.6526 118.469 24.2181C118.914 23.7724 119.136 23.2042 119.136 22.5135C119.136 21.8227 118.914 21.2601 118.469 20.8256C118.035 20.3799 117.484 20.1571 116.816 20.1571C116.149 20.1571 115.598 20.3799 115.164 20.8256C114.73 21.2601 114.513 21.8227 114.513 22.5135C114.513 23.2042 114.73 23.7724 115.164 24.2181Z" fill="#E8E8E8"/>
<path d="M128.097 18.1006C129.221 18.1006 130.178 18.5295 130.968 19.3874C131.769 20.2341 132.17 21.2758 132.17 22.5125C132.17 23.7492 131.769 24.7965 130.968 25.6543C130.178 26.5012 129.221 26.9245 128.097 26.9245C126.929 26.9245 126.028 26.5178 125.394 25.7045V26.6905H123.241V14.9922H125.394V19.3206C126.028 18.5073 126.929 18.1006 128.097 18.1006ZM126.045 24.2171C126.479 24.6516 127.029 24.8689 127.697 24.8689C128.365 24.8689 128.915 24.6516 129.349 24.2171C129.794 23.7715 130.016 23.2033 130.016 22.5125C130.016 21.8218 129.794 21.2592 129.349 20.8247C128.915 20.379 128.365 20.1562 127.697 20.1562C127.029 20.1562 126.479 20.379 126.045 20.8247C125.611 21.2592 125.394 21.8218 125.394 22.5125C125.394 23.2033 125.611 23.7715 126.045 24.2171Z" fill="#E8E8E8"/>
<path d="M135.494 20.7086C135.494 20.9314 135.639 21.1153 135.928 21.2601C136.229 21.3938 136.59 21.5163 137.013 21.6277C137.436 21.728 137.859 21.8617 138.281 22.0288C138.704 22.1848 139.061 22.4522 139.35 22.831C139.65 23.2098 139.8 23.6833 139.8 24.2515C139.8 25.1094 139.478 25.7723 138.833 26.2402C138.198 26.697 137.402 26.9254 136.446 26.9254C134.733 26.9254 133.564 26.2625 132.941 24.9367L134.811 23.8839C135.055 24.608 135.601 24.9701 136.446 24.9701C137.214 24.9701 137.597 24.7306 137.597 24.2515C137.597 24.0287 137.447 23.8505 137.147 23.7168C136.858 23.5719 136.502 23.4437 136.079 23.3323C135.656 23.221 135.233 23.0817 134.811 22.9146C134.388 22.7475 134.026 22.4856 133.726 22.1291C133.436 21.7614 133.292 21.3046 133.292 20.7587C133.292 19.9342 133.592 19.2881 134.193 18.8201C134.805 18.3411 135.561 18.1016 136.463 18.1016C137.142 18.1016 137.759 18.2575 138.315 18.5695C138.871 18.8703 139.31 19.3048 139.634 19.873L137.798 20.8757C137.531 20.3075 137.086 20.0234 136.463 20.0234C136.185 20.0234 135.951 20.0847 135.762 20.2073C135.584 20.3297 135.494 20.4969 135.494 20.7086Z" fill="#E8E8E8"/>
</g>
<defs>
<clipPath id="clip0_128_45564">
<rect width="138.25" height="28.9667" fill="white" transform="translate(1.55029 6.06641)"/>
</clipPath>
</defs>
</svg>
