<svg width="125" height="50" viewBox="0 0 125 50" fill="none" xmlns="http://www.w3.org/2000/svg">
<g clip-path="url(#clip0_131_44915)">
<path d="M24.4181 27.9686C24.9162 27.4331 25.3568 26.8473 25.7329 26.2208C26.6551 24.6802 27.1186 22.9889 27.1186 21.1469C27.1186 19.3048 26.6598 17.5805 25.7423 16.0353C24.8249 14.4853 23.5952 13.2651 22.0487 12.37C20.5022 11.4749 18.8281 11.0273 17.0309 11.0273C15.2338 11.0273 13.5312 11.4749 11.9753 12.37C10.4193 13.2651 9.18022 14.4853 8.25327 16.0259C7.32632 17.5664 6.86758 19.2483 6.86758 21.0762C6.86758 22.9041 7.33105 24.6897 8.25327 26.2396C8.64581 26.8992 9.09982 27.5022 9.60586 28.0393C7.88911 29.0804 6.83447 30.4796 6.83447 32.0155C6.83447 35.2238 11.4219 37.8337 17.064 37.8337C22.7061 37.8337 27.2936 35.2238 27.2936 32.0155C27.2936 30.4467 26.1964 29.0192 24.4134 27.9733L24.4181 27.9686ZM9.72882 34.503C8.71202 33.7492 8.15869 32.887 8.15869 32.0108C8.15869 30.9319 9.00051 29.8672 10.5234 29.0098C10.5517 28.9956 10.5801 28.9768 10.6132 28.9627C11.0341 29.3019 11.4787 29.6081 11.9563 29.886C12.0036 29.9143 12.0557 29.9379 12.1029 29.9661C10.4666 30.767 9.42615 31.9589 9.42615 33.2828C9.42615 33.7068 9.53019 34.1119 9.72882 34.503ZM17.0735 36.3403C14.7514 36.3403 13.4839 35.3368 13.4839 34.8186C13.4839 34.3004 14.7514 33.2969 17.0735 33.2969C19.3956 33.2969 20.663 34.3004 20.663 34.8186C20.663 35.3368 19.3956 36.3403 17.0735 36.3403ZM21.9447 35.1625C21.9683 35.0494 21.9825 34.9364 21.9825 34.8186C21.9825 33.2545 19.7787 31.9872 17.0735 31.9872C14.3683 31.9872 12.1644 33.2592 12.1644 34.8186C12.1644 34.9364 12.1786 35.0494 12.2023 35.1625C11.3037 34.6302 10.7456 33.9706 10.7456 33.2828C10.7456 32.2463 12.0084 31.2758 13.7913 30.7152C14.7892 31.0497 15.8249 31.2146 16.908 31.2146C18.0666 31.2146 19.1733 31.0356 20.2279 30.6775C22.0818 31.2287 23.4013 32.2275 23.4013 33.2828C23.4013 33.9706 22.8433 34.6302 21.9447 35.1625ZM24.4181 34.503C24.6168 34.1166 24.7208 33.7068 24.7208 33.2828C24.7208 31.926 23.6331 30.7152 21.9352 29.9096C21.9589 29.8955 21.9825 29.886 22.0062 29.8719C22.5122 29.5845 22.9851 29.2595 23.4202 28.9014C23.4865 28.9391 23.5574 28.9721 23.6236 29.0098C25.1465 29.8672 25.9883 30.9319 25.9883 32.0108C25.9883 32.8823 25.4397 33.7492 24.4181 34.503Z" fill="white"/>
<path d="M85.4833 24.2928C84.8685 23.8029 84.0267 23.3082 82.9815 22.8324C82.0687 22.4225 81.3594 22.0645 80.8722 21.7724C80.3993 21.485 80.0493 21.1788 79.8365 20.8584C79.6284 20.5428 79.5196 20.1659 79.5196 19.7277C79.5196 19.2896 79.6284 18.8892 79.8507 18.5405C80.0682 18.1872 80.3804 17.9045 80.7682 17.7019C81.1607 17.4947 81.6053 17.391 82.0924 17.391C82.7356 17.391 83.2936 17.5465 83.7524 17.8527C84.2111 18.1589 84.6368 18.6395 85.0151 19.2755L85.0719 19.3697L86.7981 18.3756L86.7508 18.2814C86.2826 17.3957 85.6489 16.6938 84.8732 16.1944C84.0929 15.695 83.1612 15.4453 82.1019 15.4453C81.2411 15.4453 80.4466 15.6385 79.7372 16.0154C79.0325 16.3922 78.4697 16.9152 78.0677 17.5653C77.6657 18.2155 77.4577 18.9457 77.4577 19.7372C77.4577 20.5286 77.6185 21.1788 77.94 21.7253C78.2616 22.2718 78.7298 22.757 79.3352 23.1716C79.9311 23.5814 80.7398 24.0149 81.7424 24.4577C82.641 24.8676 83.3457 25.2586 83.8423 25.6261C84.3294 25.9841 84.6841 26.3752 84.8922 26.7897C85.1003 27.2043 85.2043 27.6943 85.2043 28.2549C85.2043 28.8155 85.0813 29.2866 84.8401 29.7154C84.5989 30.1394 84.249 30.4833 83.8091 30.733C83.3646 30.9827 82.8444 31.1099 82.2532 31.1099C81.3877 31.1099 80.6263 30.8649 79.9878 30.3891C79.3447 29.9085 78.8528 29.216 78.517 28.335L78.4792 28.2313L76.5591 29.0275L76.5922 29.1265C76.8618 29.9085 77.2685 30.6011 77.7982 31.1852C78.3279 31.7741 78.9805 32.2405 79.7325 32.5703C80.4892 32.9001 81.3357 33.0697 82.2532 33.0697C83.1707 33.0697 84.0503 32.8671 84.8165 32.4667C85.5826 32.0662 86.1927 31.5009 86.6326 30.7801C87.0724 30.064 87.2947 29.2254 87.2947 28.2879C87.2947 27.4163 87.1481 26.6531 86.8596 26.0171C86.5711 25.3811 86.1076 24.8063 85.4881 24.307L85.4833 24.2928Z" fill="white"/>
<path d="M120.003 26.003C119.714 25.367 119.251 24.7922 118.631 24.2928C118.016 23.8029 117.175 23.3082 116.129 22.8324C115.217 22.4225 114.507 22.0645 114.02 21.7724C113.547 21.485 113.197 21.1788 112.984 20.8584C112.776 20.5428 112.668 20.1659 112.668 19.7277C112.668 19.2896 112.776 18.8892 112.999 18.5405C113.216 18.1872 113.528 17.9045 113.916 17.7019C114.309 17.4947 114.753 17.391 115.24 17.391C115.884 17.391 116.442 17.5465 116.9 17.8527C117.359 18.1589 117.785 18.6395 118.163 19.2755L118.22 19.3697L119.946 18.3756L119.899 18.2814C119.431 17.3957 118.797 16.6938 118.021 16.1944C117.241 15.695 116.309 15.4453 115.25 15.4453C114.389 15.4453 113.595 15.6385 112.885 16.0154C112.18 16.3922 111.618 16.9152 111.216 17.5653C110.814 18.2155 110.606 18.9457 110.606 19.7372C110.606 20.5286 110.766 21.1788 111.088 21.7253C111.41 22.2718 111.878 22.757 112.483 23.1716C113.079 23.5815 113.888 24.0149 114.89 24.4577C115.789 24.8676 116.494 25.2586 116.99 25.6261C117.477 25.9841 117.832 26.3752 118.04 26.7897C118.248 27.2043 118.352 27.6943 118.352 28.2549C118.352 28.8155 118.229 29.2866 117.988 29.7154C117.747 30.1394 117.397 30.4833 116.957 30.7283C116.513 30.9779 115.992 31.1051 115.401 31.1051C114.536 31.1051 113.774 30.8602 113.136 30.3843C112.493 29.9038 112.001 29.2113 111.665 28.3303L111.627 28.2266L109.707 29.0228L109.74 29.1218C110.01 29.9038 110.416 30.5963 110.946 31.1805C111.476 31.7694 112.128 32.2311 112.88 32.5656C113.637 32.8954 114.484 33.065 115.401 33.065C116.319 33.065 117.198 32.8624 117.964 32.462C118.731 32.0615 119.341 31.4962 119.781 30.7754C120.22 30.0593 120.443 29.2207 120.443 28.2832C120.443 27.4116 120.296 26.6484 120.008 26.0124L120.003 26.003Z" fill="white"/>
<path d="M104.746 15.9688L103.866 17.792L96.8052 32.4766L98.8908 32.5284L106.76 15.9688H104.746Z" fill="white"/>
<path d="M58.3179 32.5284L59.1928 30.7052L66.2537 16.0159L64.1681 15.9688L56.3032 32.5284H58.3179Z" fill="white"/>
<path d="M65.4023 20.6856L70.1601 30.7062L71.0255 32.5294H73.0497L66.4192 18.5703L65.4023 20.6856Z" fill="white"/>
<path d="M45.4353 15.4609C40.5593 15.4609 36.6104 19.3995 36.6104 24.2519C36.6104 29.1044 40.5641 33.0429 45.4353 33.0429C50.3065 33.0429 54.2602 29.1044 54.2602 24.2519C54.2602 19.3995 50.3065 15.4609 45.4353 15.4609ZM45.4353 31.0925C41.6471 31.0925 38.573 28.0303 38.573 24.2566C38.573 20.483 41.6471 17.4208 45.4353 17.4208C49.2235 17.4208 52.2975 20.483 52.2975 24.2566C52.2975 28.0303 49.2235 31.0925 45.4353 31.0925Z" fill="white"/>
<path d="M85.4833 24.2928C84.8685 23.8029 84.0267 23.3082 82.9815 22.8324C82.0687 22.4225 81.3594 22.0645 80.8722 21.7724C80.3993 21.485 80.0493 21.1788 79.8365 20.8584C79.6284 20.5428 79.5196 20.1659 79.5196 19.7277C79.5196 19.2896 79.6284 18.8892 79.8507 18.5405C80.0682 18.1872 80.3804 17.9045 80.7682 17.7019C81.1607 17.4947 81.6053 17.391 82.0924 17.391C82.7356 17.391 83.2936 17.5465 83.7524 17.8527C84.2111 18.1589 84.6368 18.6395 85.0151 19.2755L85.0719 19.3697L86.7981 18.3756L86.7508 18.2814C86.2826 17.3957 85.6489 16.6938 84.8732 16.1944C84.0929 15.695 83.1612 15.4453 82.1019 15.4453C81.2411 15.4453 80.4466 15.6385 79.7372 16.0154C79.0325 16.3922 78.4697 16.9152 78.0677 17.5653C77.6657 18.2155 77.4577 18.9457 77.4577 19.7372C77.4577 20.5286 77.6185 21.1788 77.94 21.7253C78.2616 22.2718 78.7298 22.757 79.3352 23.1716C79.9311 23.5814 80.7398 24.0149 81.7424 24.4577C82.641 24.8676 83.3457 25.2586 83.8423 25.6261C84.3294 25.9841 84.6841 26.3752 84.8922 26.7897C85.1003 27.2043 85.2043 27.6943 85.2043 28.2549C85.2043 28.8155 85.0813 29.2866 84.8401 29.7154C84.5989 30.1394 84.249 30.4833 83.8091 30.733C83.3646 30.9827 82.8444 31.1099 82.2532 31.1099C81.3877 31.1099 80.6263 30.8649 79.9878 30.3891C79.3447 29.9085 78.8528 29.216 78.517 28.335L78.4792 28.2313L76.5591 29.0275L76.5922 29.1265C76.8618 29.9085 77.2685 30.6011 77.7982 31.1852C78.3279 31.7741 78.9805 32.2405 79.7325 32.5703C80.4892 32.9001 81.3357 33.0697 82.2532 33.0697C83.1707 33.0697 84.0503 32.8671 84.8165 32.4667C85.5826 32.0662 86.1927 31.5009 86.6326 30.7801C87.0724 30.064 87.2947 29.2254 87.2947 28.2879C87.2947 27.4163 87.1481 26.6531 86.8596 26.0171C86.5711 25.3811 86.1076 24.8063 85.4881 24.307L85.4833 24.2928Z" fill="white"/>
<path d="M120.003 26.003C119.714 25.367 119.251 24.7922 118.631 24.2928C118.016 23.8029 117.175 23.3082 116.129 22.8324C115.217 22.4225 114.507 22.0645 114.02 21.7724C113.547 21.485 113.197 21.1788 112.984 20.8584C112.776 20.5428 112.668 20.1659 112.668 19.7277C112.668 19.2896 112.776 18.8892 112.999 18.5405C113.216 18.1872 113.528 17.9045 113.916 17.7019C114.309 17.4947 114.753 17.391 115.24 17.391C115.884 17.391 116.442 17.5465 116.9 17.8527C117.359 18.1589 117.785 18.6395 118.163 19.2755L118.22 19.3697L119.946 18.3756L119.899 18.2814C119.431 17.3957 118.797 16.6938 118.021 16.1944C117.241 15.695 116.309 15.4453 115.25 15.4453C114.389 15.4453 113.595 15.6385 112.885 16.0154C112.18 16.3922 111.618 16.9152 111.216 17.5653C110.814 18.2155 110.606 18.9457 110.606 19.7372C110.606 20.5286 110.766 21.1788 111.088 21.7253C111.41 22.2718 111.878 22.757 112.483 23.1716C113.079 23.5815 113.888 24.0149 114.89 24.4577C115.789 24.8676 116.494 25.2586 116.99 25.6261C117.477 25.9841 117.832 26.3752 118.04 26.7897C118.248 27.2043 118.352 27.6943 118.352 28.2549C118.352 28.8155 118.229 29.2866 117.988 29.7154C117.747 30.1394 117.397 30.4833 116.957 30.7283C116.513 30.9779 115.992 31.1051 115.401 31.1051C114.536 31.1051 113.774 30.8602 113.136 30.3843C112.493 29.9038 112.001 29.2113 111.665 28.3303L111.627 28.2266L109.707 29.0228L109.74 29.1218C110.01 29.9038 110.416 30.5963 110.946 31.1805C111.476 31.7694 112.128 32.2311 112.88 32.5656C113.637 32.8954 114.484 33.065 115.401 33.065C116.319 33.065 117.198 32.8624 117.964 32.462C118.731 32.0615 119.341 31.4962 119.781 30.7754C120.22 30.0593 120.443 29.2207 120.443 28.2832C120.443 27.4116 120.296 26.6484 120.008 26.0124L120.003 26.003Z" fill="white"/>
<path d="M104.746 15.9688L103.866 17.792L96.8052 32.4766L98.8908 32.5284L106.76 15.9688H104.746Z" fill="white"/>
<path d="M58.3179 32.5284L59.1928 30.7052L66.2537 16.0159L64.1681 15.9688L56.3032 32.5284H58.3179Z" fill="white"/>
<path d="M65.4023 20.6856L70.1601 30.7062L71.0255 32.5294H73.0497L66.4192 18.5703L65.4023 20.6856Z" fill="white"/>
<path d="M45.4353 15.4609C40.5593 15.4609 36.6104 19.3995 36.6104 24.2519C36.6104 29.1044 40.5641 33.0429 45.4353 33.0429C50.3065 33.0429 54.2602 29.1044 54.2602 24.2519C54.2602 19.3995 50.3065 15.4609 45.4353 15.4609ZM45.4353 31.0925C41.6471 31.0925 38.573 28.0303 38.573 24.2566C38.573 20.483 41.6471 17.4208 45.4353 17.4208C49.2235 17.4208 52.2975 20.483 52.2975 24.2566C52.2975 28.0303 49.2235 31.0925 45.4353 31.0925Z" fill="white"/>
<path d="M95.0366 17.792L94.1711 15.9688H92.147L97.7134 27.6759L98.7302 25.5606L95.0366 17.792Z" fill="white"/>
</g>
<defs>
<clipPath id="clip0_131_44915">
<rect width="113.608" height="26.8064" fill="white" transform="translate(6.83447 11.0273)"/>
</clipPath>
</defs>
</svg>
