<svg width="20" height="21" viewBox="0 0 20 21" fill="none" xmlns="http://www.w3.org/2000/svg">
<path d="M18.125 8.625C18.2908 8.625 18.4497 8.55915 18.5669 8.44194C18.6842 8.32473 18.75 8.16576 18.75 8V5.5C18.75 5.16848 18.6183 4.85054 18.3839 4.61612C18.1495 4.3817 17.8315 4.25 17.5 4.25H2.5C2.16848 4.25 1.85054 4.3817 1.61612 4.61612C1.3817 4.85054 1.25 5.16848 1.25 5.5V8C1.25 8.16576 1.31585 8.32473 1.43306 8.44194C1.55027 8.55915 1.70924 8.625 1.875 8.625C2.37228 8.625 2.84919 8.82254 3.20083 9.17417C3.55246 9.52581 3.75 10.0027 3.75 10.5C3.75 10.9973 3.55246 11.4742 3.20083 11.8258C2.84919 12.1775 2.37228 12.375 1.875 12.375C1.70924 12.375 1.55027 12.4408 1.43306 12.5581C1.31585 12.6753 1.25 12.8342 1.25 13V15.5C1.25 15.8315 1.3817 16.1495 1.61612 16.3839C1.85054 16.6183 2.16848 16.75 2.5 16.75H17.5C17.8315 16.75 18.1495 16.6183 18.3839 16.3839C18.6183 16.1495 18.75 15.8315 18.75 15.5V13C18.75 12.8342 18.6842 12.6753 18.5669 12.5581C18.4497 12.4408 18.2908 12.375 18.125 12.375C17.6277 12.375 17.1508 12.1775 16.7992 11.8258C16.4475 11.4742 16.25 10.9973 16.25 10.5C16.25 10.0027 16.4475 9.52581 16.7992 9.17417C17.1508 8.82254 17.6277 8.625 18.125 8.625ZM2.5 13.5625C3.20643 13.4191 3.84155 13.0358 4.29774 12.4777C4.75393 11.9195 5.00313 11.2208 5.00313 10.5C5.00313 9.77915 4.75393 9.08047 4.29774 8.52234C3.84155 7.96421 3.20643 7.58095 2.5 7.4375V5.5H6.875V15.5H2.5V13.5625ZM17.5 13.5625V15.5H8.125V5.5H17.5V7.4375C16.7936 7.58095 16.1585 7.96421 15.7023 8.52234C15.2461 9.08047 14.9969 9.77915 14.9969 10.5C14.9969 11.2208 15.2461 11.9195 15.7023 12.4777C16.1585 13.0358 16.7936 13.4191 17.5 13.5625Z" fill="white"/>
</svg>
