<svg width="141" height="45" viewBox="0 0 141 45" fill="none" xmlns="http://www.w3.org/2000/svg">
<g clip-path="url(#clip0_245_1121)">
<path d="M80.399 21.3725C75.207 21.3725 74.886 18.3631 75.8453 14.9422H80.0379C79.6294 16.8297 79.3705 18.4171 81.6738 18.4171C83.0908 18.4171 83.9789 17.5146 84.2689 16.1736C85.0348 12.616 76.6441 12.3984 77.9134 6.51284C78.579 3.42083 80.6106 0.958008 85.7187 0.958008C89.8001 0.958008 91.4378 2.76288 90.2688 6.89754H86.1874C86.5066 5.41805 86.5813 3.91339 84.8889 3.91339C83.5285 3.91339 82.5637 4.65224 82.2701 6.02027C81.4604 9.76844 89.9716 9.44126 88.6311 15.654C87.526 20.772 83.5941 21.3725 80.4027 21.3725H80.399Z" fill="white"/>
<path d="M109.673 21.4243L113.937 1.66602H124.875L124.219 4.70409H117.473L116.422 9.57401H122.639L121.985 12.6121H115.766L114.52 18.3862H121.488L120.834 21.4243H109.673Z" fill="white"/>
<path d="M103.211 9.57401L104.918 1.66602H109.111L104.847 21.4261H100.656L102.558 12.6121H97.7549L95.8528 21.4261H91.6602L95.9221 1.66602H100.115L98.4096 9.57401H103.211Z" fill="white"/>
<path d="M67.1758 7.27657L68.0238 21.4261H72.4408L71.2627 1.66602H65.7369L55.9219 21.4261H60.1492L67.1758 7.27657Z" fill="white"/>
<path d="M135.912 1.66406H128.916C127.496 8.25076 126.075 14.8375 124.654 21.4242H131.482C138.646 21.4242 139.674 14.4743 140.329 11.4344C141.658 5.2774 141.408 1.66406 135.912 1.66406ZM136.058 11.5441C134.989 16.4967 134.081 18.3861 131.528 18.3861H129.502C130.486 13.8236 131.469 9.26285 132.454 4.70214H134.621C137.537 4.70214 136.844 7.90381 136.06 11.5441H136.058Z" fill="white"/>
<path d="M52.5406 21.4261L56.8025 1.66602H52.6117L50.9066 9.57401H46.103L47.8081 1.66602H43.6173L39.3535 21.4261H43.5462L45.4483 12.6139H50.25L48.3498 21.4261H52.5406Z" fill="white"/>
<path d="M35.9795 18.9974L36.9934 14.3018H30.5157L33.1509 2.08301H26.6714L24.0362 14.3018H16.6101L19.2435 2.08301H12.764L10.1269 14.3018H3.64919L2.63522 18.9974H9.11295L7.48987 26.5279H1.01214L0 31.2252H6.47773L3.53977 44.848H10.0193L12.9591 31.2252H20.3833L17.4454 44.848H23.9249L26.8665 31.2252H33.3442L34.3582 26.5279H27.8787L29.5036 18.9974H35.9813H35.9795ZM21.3955 26.5279H13.9694L15.5961 18.9974H23.0185L21.3955 26.5279Z" fill="white"/>
<path d="M38.7189 23.5498L34.2637 44.9602H133.665L138.179 23.5498H38.7189ZM48.3316 32.8348C48.3735 32.9625 48.3918 32.9894 48.3881 33.0128C48.2373 34.4797 47.4404 35.2131 45.9973 35.2131H43.1104C42.8386 36.4931 42.5815 37.7047 42.3025 39.0188H47.6459C47.4817 39.8655 47.3395 40.6044 47.1918 41.3648H38.8922C39.8934 36.6064 40.8855 31.8946 41.8848 27.1524H49.9601C49.7996 27.92 49.6446 28.6516 49.4768 29.4534H44.3176C44.0769 30.5823 43.849 31.6519 43.5955 32.8348H48.3279H48.3316ZM59.9667 41.3378C60.7144 37.7694 61.4566 34.2226 62.1989 30.6776C62.1515 30.6614 62.104 30.6452 62.0548 30.6273C61.929 30.8951 61.7977 31.1594 61.6791 31.429C60.3734 34.424 59.0348 37.4045 57.7874 40.4228C57.4591 41.2174 57.0488 41.5428 56.2062 41.408C55.8743 41.3558 55.526 41.399 55.0281 41.399V30.4799C54.9351 30.4709 54.844 30.4637 54.7509 30.4547C53.9886 34.0626 53.2263 37.6724 52.4513 41.3378H49.7905C50.1133 39.7936 50.4343 38.2548 50.7571 36.7178C51.3826 33.748 52.0245 30.7801 52.6209 27.8049C52.7248 27.2926 52.8871 27.0787 53.4434 27.0984C54.6196 27.138 55.7996 27.1092 57.0488 27.1092V37.0953C57.2731 36.6711 57.3971 36.4733 57.4846 36.2612C58.6591 33.4586 59.8445 30.6596 60.9861 27.8445C61.2141 27.2854 61.4968 27.0661 62.1205 27.0948C63.2621 27.147 64.4074 27.1092 65.631 27.1092C64.6244 31.9018 63.6396 36.5902 62.642 41.336H59.9667V41.3378ZM74.2024 34.877C74.1513 35.0406 73.7665 35.1934 73.5313 35.1988C72.1525 35.2293 70.772 35.2131 69.2948 35.2131C69.0231 36.5165 68.7696 37.7263 68.4997 39.0206H73.8395C73.6808 39.844 73.5404 40.5756 73.3908 41.3504H65.0894C66.0833 36.6261 67.0718 31.9252 68.0711 27.1703H76.1555C75.9896 27.9361 75.8309 28.6786 75.6595 29.4768H70.5003C70.2632 30.6093 70.0371 31.6825 69.7945 32.842H74.6291C74.485 33.5827 74.3993 34.246 74.2042 34.877H74.2024ZM86.9755 29.7122C86.8879 31.803 86.1548 33.5377 83.9226 34.3035C85.2995 34.9327 85.5548 35.339 85.3998 36.8239C85.3104 37.6688 85.0879 38.4975 85.0022 39.3424C84.9366 40.0004 84.9895 40.6691 84.9895 41.3684H81.9403C81.9786 40.7374 81.9767 40.1316 82.057 39.5348C82.1828 38.609 82.4126 37.6957 82.5056 36.7681C82.5986 35.8459 82.2248 35.481 81.2856 35.3911C81.229 35.3857 81.1707 35.3803 81.1141 35.3767C79.5932 35.2851 79.5859 35.2833 79.2813 36.7268C78.9585 38.2512 78.6485 39.7793 78.3202 41.3738H75.4005C76.3999 36.6243 77.3883 31.9216 78.3677 27.2638C80.6181 27.2638 82.8266 27.1649 85.0186 27.3016C86.2715 27.3807 87.0302 28.4341 86.9773 29.714L86.9755 29.7122ZM98.4555 31.3427C97.7115 31.3679 96.9656 31.3535 96.1978 31.3535C96.1759 30.8915 96.1924 30.55 96.1395 30.2174C95.9389 28.9644 94.8574 28.533 93.8781 29.3743C93.4404 29.75 92.9991 30.2803 92.866 30.8142C92.3152 33.0344 91.8283 35.2725 91.4307 37.525C91.2958 38.289 91.4034 39.1734 92.3754 39.4988C93.0647 39.7307 94.0459 39.2723 94.5109 38.3861C94.9067 37.6274 95.1018 36.7663 95.4337 35.8118H93.4331C93.579 35.0837 93.703 34.4545 93.838 33.7732H98.5632C98.0233 36.3349 97.4945 38.8481 96.9638 41.3756H94.8574C94.9067 40.9963 94.9504 40.6511 95.0161 40.146C93.8471 41.4098 92.5122 41.8376 90.9511 41.6255C89.4228 41.4187 88.5311 40.59 88.469 39.0512C88.3377 35.7668 88.9797 32.6065 90.4751 29.6673C91.8848 26.8953 94.6586 26.4333 97.1936 27.1182C98.7656 27.5425 99.6774 29.7428 98.9334 31.1073C98.8622 31.2367 98.6197 31.3356 98.4537 31.3409L98.4555 31.3427ZM108.271 34.8105C108.209 35.001 107.815 35.1898 107.567 35.197C106.188 35.2347 104.809 35.2149 103.358 35.2149C103.088 36.4715 102.831 37.6796 102.548 38.9991H107.897C107.733 39.8548 107.59 40.59 107.443 41.3612H99.1394C100.137 36.6207 101.125 31.9144 102.125 27.1649H110.211C110.04 27.9541 109.879 28.6948 109.71 29.4714H104.559C104.322 30.5877 104.091 31.6771 103.841 32.8546H108.685C108.544 33.5665 108.471 34.21 108.271 34.8123V34.8105ZM119.235 41.3612H115.899C115.414 38.12 114.934 34.9111 114.455 31.7005C114.411 31.7005 114.365 31.6969 114.322 31.6969C113.798 34.1903 113.275 36.6837 112.751 39.177C112.746 39.204 112.746 39.2328 112.74 39.2615C112.422 40.871 111.384 41.5578 109.627 41.3217C110.621 36.6064 111.613 31.8928 112.611 27.1559H115.978C116.455 30.3199 116.929 33.4514 117.404 36.583C117.451 36.583 117.498 36.583 117.546 36.5848C118.208 33.4694 118.872 30.354 119.548 27.1775H122.216C121.224 31.909 120.236 36.6117 119.24 41.3612H119.235ZM133.412 29.1406C133.368 29.2952 133.04 29.4534 132.836 29.4624C131.977 29.4983 131.114 29.4768 130.199 29.4768C129.362 33.4586 128.535 37.3919 127.702 41.3576H124.793C125.616 37.4045 126.433 33.482 127.266 29.4786H124.126C124.27 28.7649 124.366 28.1231 124.547 27.5047C124.596 27.3357 124.899 27.129 125.087 27.1272C127.965 27.1038 130.842 27.111 133.839 27.111C133.695 27.8409 133.596 28.5024 133.412 29.1388V29.1406Z" fill="white"/>
<path d="M83.3935 29.5668C82.6494 29.3043 81.7813 29.3763 80.9662 29.3223C80.9151 29.3187 80.8184 29.4877 80.7966 29.5866C80.5358 30.8 80.2859 32.0152 80.0215 33.2844C82.354 33.5666 83.5047 32.9285 83.8439 31.2225C83.9661 30.6059 84.0865 29.8113 83.3916 29.565L83.3935 29.5668Z" fill="white"/>
</g>
<defs>
<clipPath id="clip0_245_1121">
<rect width="141" height="44" fill="white" transform="translate(0 0.958008)"/>
</clipPath>
</defs>
</svg>
