<svg width="421" height="173" viewBox="0 0 421 173" fill="none" xmlns="http://www.w3.org/2000/svg">
<mask id="path-1-outside-1_95_147" maskUnits="userSpaceOnUse" x="4.64651" y="47.5302" width="231" height="52" fill="black">
<rect fill="white" x="4.64651" y="47.5302" width="231" height="52"/>
<path d="M5.54883 52.6811H8.83697V94.5302H5.54883V52.6811ZM21.317 72.0513V70.1382H27.8334C29.4675 70.1382 30.9622 69.8791 32.3173 69.361C33.6724 68.8428 34.7485 68.0656 35.5456 67.0294C36.3427 65.9533 36.7413 64.5982 36.7413 62.9641C36.7413 60.6524 35.9243 58.8589 34.2902 57.5835C32.6959 56.2682 30.5437 55.6106 27.8334 55.6106H22.0344V91.6007H28.4313C30.5437 91.6007 32.397 91.242 33.9912 90.5246C35.5855 89.8072 36.821 88.771 37.6979 87.4158C38.5747 86.0209 39.0131 84.2871 39.0131 82.2146C39.0131 80.7399 38.7341 79.4446 38.1761 78.3286C37.6181 77.1728 36.841 76.2162 35.8445 75.459C34.8481 74.6619 33.7122 74.064 32.4368 73.6654C31.2013 73.2669 29.8661 73.0676 28.4313 73.0676H21.317V71.1545H28.6704C30.3842 71.1545 32.0582 71.3936 33.6923 71.8719C35.3264 72.3103 36.7812 72.9879 38.0566 73.9046C39.3718 74.8213 40.4081 75.997 41.1654 77.4319C41.9625 78.8268 42.361 80.4809 42.361 82.394C42.361 85.144 41.7632 87.4158 40.5675 89.2094C39.3718 91.0029 37.7178 92.3381 35.6054 93.2149C33.5329 94.0918 31.1415 94.5302 28.4313 94.5302H18.7462V52.6811H27.8334C30.3444 52.6811 32.4966 53.0598 34.2902 53.817C36.1235 54.5743 37.5384 55.7102 38.5348 57.2248C39.5312 58.6994 40.0295 60.5527 40.0295 62.7847C40.0295 64.8174 39.5113 66.5312 38.4751 67.9261C37.4787 69.2813 36.0837 70.3175 34.2902 71.0349C32.4966 71.7125 30.4241 72.0513 28.0726 72.0513H21.317ZM86.5748 87.2963L98.4719 52.6811H102.119L86.6346 96.1444L73.8408 60.0944L61.0469 96.1444L45.5628 52.6811H49.2096L61.2861 87.2963L73.8408 51.067L86.5748 87.2963ZM104.249 94.5302L123.799 73.9046C124.715 72.8683 125.532 71.852 126.25 70.8556C127.007 69.8592 127.585 68.803 127.983 67.687C128.422 66.5312 128.641 65.2956 128.641 63.9804C128.641 62.9441 128.462 61.9079 128.103 60.8716C127.744 59.8353 127.186 58.8987 126.429 58.0617C125.672 57.1849 124.715 56.4874 123.559 55.9693C122.443 55.4113 121.108 55.1323 119.554 55.1323C117.521 55.1323 115.767 55.6305 114.293 56.6269C112.818 57.5835 111.682 58.9585 110.885 60.752C110.088 62.5456 109.689 64.638 109.689 67.0294H106.401C106.401 64.0402 106.919 61.4296 107.956 59.1976C109.032 56.9258 110.546 55.1722 112.499 53.9366C114.492 52.6612 116.844 52.0235 119.554 52.0235C121.746 52.0235 123.619 52.4021 125.174 53.1594C126.768 53.9167 128.063 54.8932 129.06 56.0889C130.096 57.2447 130.853 58.5201 131.331 59.915C131.81 61.2702 132.049 62.5854 132.049 63.8608C132.049 66.1326 131.491 68.2649 130.375 70.2577C129.299 72.2506 127.963 74.064 126.369 75.6981L111.124 91.4214H132.826V94.5302H104.249ZM141.667 73.6057C141.667 76.1963 141.926 78.6076 142.444 80.8396C142.962 83.0715 143.699 85.0245 144.656 86.6984C145.652 88.3724 146.848 89.6877 148.243 90.6442C149.638 91.5609 151.212 92.0192 152.966 92.0192C154.759 92.0192 156.334 91.5609 157.689 90.6442C159.084 89.6877 160.259 88.3724 161.216 86.6984C162.212 85.0245 162.97 83.0715 163.488 80.8396C164.006 78.6076 164.265 76.1963 164.265 73.6057C164.265 71.015 164.006 68.6037 163.488 66.3718C162.97 64.1398 162.212 62.1869 161.216 60.5129C160.259 58.8389 159.084 57.5436 157.689 56.6269C156.334 55.6704 154.759 55.1921 152.966 55.1921C151.212 55.1921 149.638 55.6704 148.243 56.6269C146.848 57.5436 145.652 58.8389 144.656 60.5129C143.699 62.1869 142.962 64.1398 142.444 66.3718C141.926 68.6037 141.667 71.015 141.667 73.6057ZM138.378 73.6057C138.378 69.5005 138.976 65.8337 140.172 62.6053C141.368 59.377 143.062 56.8262 145.254 54.9529C147.446 53.0398 150.016 52.0833 152.966 52.0833C155.915 52.0833 158.486 53.0398 160.678 54.9529C162.87 56.8262 164.564 59.377 165.76 62.6053C166.955 65.8337 167.553 69.5005 167.553 73.6057C167.553 77.7109 166.955 81.3776 165.76 84.606C164.564 87.8343 162.87 90.4051 160.678 92.3182C158.486 94.1914 155.915 95.128 152.966 95.128C150.016 95.128 147.446 94.1914 145.254 92.3182C143.062 90.4051 141.368 87.8343 140.172 84.606C138.976 81.3776 138.378 77.7109 138.378 73.6057ZM171.623 94.5302L191.173 73.9046C192.089 72.8683 192.906 71.852 193.624 70.8556C194.381 69.8592 194.959 68.803 195.358 67.687C195.796 66.5312 196.015 65.2956 196.015 63.9804C196.015 62.9441 195.836 61.9079 195.477 60.8716C195.118 59.8353 194.56 58.8987 193.803 58.0617C193.046 57.1849 192.089 56.4874 190.934 55.9693C189.818 55.4113 188.482 55.1323 186.928 55.1323C184.895 55.1323 183.142 55.6305 181.667 56.6269C180.192 57.5835 179.056 58.9585 178.259 60.752C177.462 62.5456 177.064 64.638 177.064 67.0294H173.775C173.775 64.0402 174.294 61.4296 175.33 59.1976C176.406 56.9258 177.92 55.1722 179.873 53.9366C181.866 52.6612 184.218 52.0235 186.928 52.0235C189.12 52.0235 190.993 52.4021 192.548 53.1594C194.142 53.9167 195.437 54.8932 196.434 56.0889C197.47 57.2447 198.227 58.5201 198.706 59.915C199.184 61.2702 199.423 62.5854 199.423 63.8608C199.423 66.1326 198.865 68.2649 197.749 70.2577C196.673 72.2506 195.338 74.064 193.743 75.6981L178.498 91.4214H200.2V94.5302H171.623ZM233.493 80.7798C233.493 83.1712 233.114 85.2636 232.357 87.0571C231.639 88.8507 230.623 90.3453 229.308 91.541C228.032 92.7367 226.538 93.6334 224.824 94.2313C223.11 94.8291 221.277 95.128 219.324 95.128C216.932 95.128 214.84 94.7494 213.046 93.9921C211.293 93.2349 209.778 92.1986 208.503 90.8833C207.267 89.5282 206.231 88.0137 205.394 86.3397L208.204 84.4864C208.881 85.8814 209.738 87.1568 210.774 88.3126C211.851 89.4684 213.106 90.3851 214.541 91.0627C215.976 91.7004 217.57 92.0192 219.324 92.0192C221.476 92.0192 223.349 91.5808 224.943 90.704C226.577 89.7873 227.833 88.492 228.71 86.818C229.626 85.144 230.085 83.1313 230.085 80.7798C230.085 78.6674 229.626 76.8141 228.71 75.2198C227.833 73.6256 226.637 72.39 225.123 71.5132C223.608 70.5965 221.874 70.1382 219.921 70.1382C218.447 70.1382 217.092 70.2976 215.856 70.6164C214.621 70.9353 213.425 71.4534 212.269 72.1708C211.113 72.8883 209.898 73.8249 208.622 74.9807L214.122 52.6811H233.851V55.6106H216.633L213.046 70.1382C214.003 69.3012 215.179 68.6037 216.574 68.0457C218.008 67.4479 219.563 67.149 221.237 67.149C223.548 67.149 225.621 67.7269 227.454 68.8827C229.328 70.0385 230.802 71.6328 231.878 73.6654C232.954 75.6981 233.493 78.0696 233.493 80.7798Z"/>
</mask>
<path d="M5.54883 52.6811H8.83697V94.5302H5.54883V52.6811ZM21.317 72.0513V70.1382H27.8334C29.4675 70.1382 30.9622 69.8791 32.3173 69.361C33.6724 68.8428 34.7485 68.0656 35.5456 67.0294C36.3427 65.9533 36.7413 64.5982 36.7413 62.9641C36.7413 60.6524 35.9243 58.8589 34.2902 57.5835C32.6959 56.2682 30.5437 55.6106 27.8334 55.6106H22.0344V91.6007H28.4313C30.5437 91.6007 32.397 91.242 33.9912 90.5246C35.5855 89.8072 36.821 88.771 37.6979 87.4158C38.5747 86.0209 39.0131 84.2871 39.0131 82.2146C39.0131 80.7399 38.7341 79.4446 38.1761 78.3286C37.6181 77.1728 36.841 76.2162 35.8445 75.459C34.8481 74.6619 33.7122 74.064 32.4368 73.6654C31.2013 73.2669 29.8661 73.0676 28.4313 73.0676H21.317V71.1545H28.6704C30.3842 71.1545 32.0582 71.3936 33.6923 71.8719C35.3264 72.3103 36.7812 72.9879 38.0566 73.9046C39.3718 74.8213 40.4081 75.997 41.1654 77.4319C41.9625 78.8268 42.361 80.4809 42.361 82.394C42.361 85.144 41.7632 87.4158 40.5675 89.2094C39.3718 91.0029 37.7178 92.3381 35.6054 93.2149C33.5329 94.0918 31.1415 94.5302 28.4313 94.5302H18.7462V52.6811H27.8334C30.3444 52.6811 32.4966 53.0598 34.2902 53.817C36.1235 54.5743 37.5384 55.7102 38.5348 57.2248C39.5312 58.6994 40.0295 60.5527 40.0295 62.7847C40.0295 64.8174 39.5113 66.5312 38.4751 67.9261C37.4787 69.2813 36.0837 70.3175 34.2902 71.0349C32.4966 71.7125 30.4241 72.0513 28.0726 72.0513H21.317ZM86.5748 87.2963L98.4719 52.6811H102.119L86.6346 96.1444L73.8408 60.0944L61.0469 96.1444L45.5628 52.6811H49.2096L61.2861 87.2963L73.8408 51.067L86.5748 87.2963ZM104.249 94.5302L123.799 73.9046C124.715 72.8683 125.532 71.852 126.25 70.8556C127.007 69.8592 127.585 68.803 127.983 67.687C128.422 66.5312 128.641 65.2956 128.641 63.9804C128.641 62.9441 128.462 61.9079 128.103 60.8716C127.744 59.8353 127.186 58.8987 126.429 58.0617C125.672 57.1849 124.715 56.4874 123.559 55.9693C122.443 55.4113 121.108 55.1323 119.554 55.1323C117.521 55.1323 115.767 55.6305 114.293 56.6269C112.818 57.5835 111.682 58.9585 110.885 60.752C110.088 62.5456 109.689 64.638 109.689 67.0294H106.401C106.401 64.0402 106.919 61.4296 107.956 59.1976C109.032 56.9258 110.546 55.1722 112.499 53.9366C114.492 52.6612 116.844 52.0235 119.554 52.0235C121.746 52.0235 123.619 52.4021 125.174 53.1594C126.768 53.9167 128.063 54.8932 129.06 56.0889C130.096 57.2447 130.853 58.5201 131.331 59.915C131.81 61.2702 132.049 62.5854 132.049 63.8608C132.049 66.1326 131.491 68.2649 130.375 70.2577C129.299 72.2506 127.963 74.064 126.369 75.6981L111.124 91.4214H132.826V94.5302H104.249ZM141.667 73.6057C141.667 76.1963 141.926 78.6076 142.444 80.8396C142.962 83.0715 143.699 85.0245 144.656 86.6984C145.652 88.3724 146.848 89.6877 148.243 90.6442C149.638 91.5609 151.212 92.0192 152.966 92.0192C154.759 92.0192 156.334 91.5609 157.689 90.6442C159.084 89.6877 160.259 88.3724 161.216 86.6984C162.212 85.0245 162.97 83.0715 163.488 80.8396C164.006 78.6076 164.265 76.1963 164.265 73.6057C164.265 71.015 164.006 68.6037 163.488 66.3718C162.97 64.1398 162.212 62.1869 161.216 60.5129C160.259 58.8389 159.084 57.5436 157.689 56.6269C156.334 55.6704 154.759 55.1921 152.966 55.1921C151.212 55.1921 149.638 55.6704 148.243 56.6269C146.848 57.5436 145.652 58.8389 144.656 60.5129C143.699 62.1869 142.962 64.1398 142.444 66.3718C141.926 68.6037 141.667 71.015 141.667 73.6057ZM138.378 73.6057C138.378 69.5005 138.976 65.8337 140.172 62.6053C141.368 59.377 143.062 56.8262 145.254 54.9529C147.446 53.0398 150.016 52.0833 152.966 52.0833C155.915 52.0833 158.486 53.0398 160.678 54.9529C162.87 56.8262 164.564 59.377 165.76 62.6053C166.955 65.8337 167.553 69.5005 167.553 73.6057C167.553 77.7109 166.955 81.3776 165.76 84.606C164.564 87.8343 162.87 90.4051 160.678 92.3182C158.486 94.1914 155.915 95.128 152.966 95.128C150.016 95.128 147.446 94.1914 145.254 92.3182C143.062 90.4051 141.368 87.8343 140.172 84.606C138.976 81.3776 138.378 77.7109 138.378 73.6057ZM171.623 94.5302L191.173 73.9046C192.089 72.8683 192.906 71.852 193.624 70.8556C194.381 69.8592 194.959 68.803 195.358 67.687C195.796 66.5312 196.015 65.2956 196.015 63.9804C196.015 62.9441 195.836 61.9079 195.477 60.8716C195.118 59.8353 194.56 58.8987 193.803 58.0617C193.046 57.1849 192.089 56.4874 190.934 55.9693C189.818 55.4113 188.482 55.1323 186.928 55.1323C184.895 55.1323 183.142 55.6305 181.667 56.6269C180.192 57.5835 179.056 58.9585 178.259 60.752C177.462 62.5456 177.064 64.638 177.064 67.0294H173.775C173.775 64.0402 174.294 61.4296 175.33 59.1976C176.406 56.9258 177.92 55.1722 179.873 53.9366C181.866 52.6612 184.218 52.0235 186.928 52.0235C189.12 52.0235 190.993 52.4021 192.548 53.1594C194.142 53.9167 195.437 54.8932 196.434 56.0889C197.47 57.2447 198.227 58.5201 198.706 59.915C199.184 61.2702 199.423 62.5854 199.423 63.8608C199.423 66.1326 198.865 68.2649 197.749 70.2577C196.673 72.2506 195.338 74.064 193.743 75.6981L178.498 91.4214H200.2V94.5302H171.623ZM233.493 80.7798C233.493 83.1712 233.114 85.2636 232.357 87.0571C231.639 88.8507 230.623 90.3453 229.308 91.541C228.032 92.7367 226.538 93.6334 224.824 94.2313C223.11 94.8291 221.277 95.128 219.324 95.128C216.932 95.128 214.84 94.7494 213.046 93.9921C211.293 93.2349 209.778 92.1986 208.503 90.8833C207.267 89.5282 206.231 88.0137 205.394 86.3397L208.204 84.4864C208.881 85.8814 209.738 87.1568 210.774 88.3126C211.851 89.4684 213.106 90.3851 214.541 91.0627C215.976 91.7004 217.57 92.0192 219.324 92.0192C221.476 92.0192 223.349 91.5808 224.943 90.704C226.577 89.7873 227.833 88.492 228.71 86.818C229.626 85.144 230.085 83.1313 230.085 80.7798C230.085 78.6674 229.626 76.8141 228.71 75.2198C227.833 73.6256 226.637 72.39 225.123 71.5132C223.608 70.5965 221.874 70.1382 219.921 70.1382C218.447 70.1382 217.092 70.2976 215.856 70.6164C214.621 70.9353 213.425 71.4534 212.269 72.1708C211.113 72.8883 209.898 73.8249 208.622 74.9807L214.122 52.6811H233.851V55.6106H216.633L213.046 70.1382C214.003 69.3012 215.179 68.6037 216.574 68.0457C218.008 67.4479 219.563 67.149 221.237 67.149C223.548 67.149 225.621 67.7269 227.454 68.8827C229.328 70.0385 230.802 71.6328 231.878 73.6654C232.954 75.6981 233.493 78.0696 233.493 80.7798Z" fill="white"/>
<path d="M5.54883 52.6811V51.8084H4.67607V52.6811H5.54883ZM8.83697 52.6811H9.70973V51.8084H8.83697V52.6811ZM8.83697 94.5302V95.4029H9.70973V94.5302H8.83697ZM5.54883 94.5302H4.67607V95.4029H5.54883V94.5302ZM5.54883 52.6811V53.5539H8.83697V52.6811V51.8084H5.54883V52.6811ZM8.83697 52.6811H7.96421V94.5302H8.83697H9.70973V52.6811H8.83697ZM8.83697 94.5302V93.6574H5.54883V94.5302V95.4029H8.83697V94.5302ZM5.54883 94.5302H6.4216V52.6811H5.54883H4.67607V94.5302H5.54883ZM21.317 72.0513H20.4442V72.924H21.317V72.0513ZM21.317 70.1382V69.2654H20.4442V70.1382H21.317ZM32.3173 69.361L32.0056 68.5458V68.5458L32.3173 69.361ZM35.5456 67.0294L36.2374 67.5615L36.2422 67.5552L36.2469 67.5489L35.5456 67.0294ZM34.2902 57.5835L33.7347 58.2567L33.7439 58.2642L33.7532 58.2715L34.2902 57.5835ZM22.0344 55.6106V54.7378H21.1616V55.6106H22.0344ZM22.0344 91.6007H21.1616V92.4735H22.0344V91.6007ZM33.9912 90.5246L33.6331 89.7287L33.9912 90.5246ZM37.6979 87.4158L38.4307 87.89L38.4368 87.8803L37.6979 87.4158ZM38.1761 78.3286L37.3901 78.7081L37.3955 78.7189L38.1761 78.3286ZM35.8445 75.459L35.2993 76.1405L35.3078 76.1473L35.3165 76.1538L35.8445 75.459ZM32.4368 73.6654L32.1689 74.4961L32.1765 74.4985L32.4368 73.6654ZM21.317 73.0676H20.4442V73.9404H21.317V73.0676ZM21.317 71.1545V70.2817H20.4442V71.1545H21.317ZM33.6923 71.8719L33.4472 72.7095L33.4566 72.7123L33.4662 72.7149L33.6923 71.8719ZM38.0566 73.9046L37.5471 74.6134L37.5575 74.6206L38.0566 73.9046ZM41.1654 77.4319L40.3935 77.8392L40.4003 77.8522L40.4076 77.8649L41.1654 77.4319ZM40.5675 89.2094L41.2937 89.6935L40.5675 89.2094ZM35.6054 93.2149L35.2708 92.4088L35.2653 92.4111L35.6054 93.2149ZM18.7462 94.5302H17.8735V95.4029H18.7462V94.5302ZM18.7462 52.6811V51.8084H17.8735V52.6811H18.7462ZM34.2902 53.817L33.9507 54.6211L33.957 54.6237L34.2902 53.817ZM38.5348 57.2248L37.8057 57.7045L37.8117 57.7134L38.5348 57.2248ZM38.4751 67.9261L37.7744 67.4057L37.7719 67.4091L38.4751 67.9261ZM34.2902 71.0349L34.5986 71.8514L34.6065 71.8484L34.6143 71.8453L34.2902 71.0349ZM21.317 72.0513H22.1897V70.1382H21.317H20.4442V72.0513H21.317ZM21.317 70.1382V71.0109H27.8334V70.1382V69.2654H21.317V70.1382ZM27.8334 70.1382V71.0109C29.5607 71.0109 31.1626 70.7369 32.629 70.1762L32.3173 69.361L32.0056 68.5458C30.7617 69.0213 29.3744 69.2654 27.8334 69.2654V70.1382ZM32.3173 69.361L32.629 70.1762C34.1175 69.607 35.3316 68.7391 36.2374 67.5615L35.5456 67.0294L34.8539 66.4973C34.1654 67.3922 33.2273 68.0786 32.0056 68.5458L32.3173 69.361ZM35.5456 67.0294L36.2469 67.5489C37.1781 66.2918 37.6141 64.7431 37.6141 62.9641H36.7413H35.8685C35.8685 64.4532 35.5074 65.6147 34.8443 66.5099L35.5456 67.0294ZM36.7413 62.9641H37.6141C37.6141 60.4189 36.6995 58.3568 34.8271 56.8954L34.2902 57.5835L33.7532 58.2715C35.149 59.3609 35.8685 60.8859 35.8685 62.9641H36.7413ZM34.2902 57.5835L34.8456 56.9102C33.052 55.4305 30.6826 54.7378 27.8334 54.7378V55.6106V56.4833C30.4048 56.4833 32.3398 57.1059 33.7347 58.2567L34.2902 57.5835ZM27.8334 55.6106V54.7378H22.0344V55.6106V56.4833H27.8334V55.6106ZM22.0344 55.6106H21.1616V91.6007H22.0344H22.9071V55.6106H22.0344ZM22.0344 91.6007V92.4735H28.4313V91.6007V90.728H22.0344V91.6007ZM28.4313 91.6007V92.4735C30.6419 92.4735 32.6216 92.098 34.3494 91.3205L33.9912 90.5246L33.6331 89.7287C32.1724 90.3861 30.4454 90.728 28.4313 90.728V91.6007ZM33.9912 90.5246L34.3494 91.3205C36.0836 90.5401 37.4549 89.3979 38.4306 87.89L37.6979 87.4158L36.9651 86.9417C36.1872 88.144 35.0874 89.0743 33.6331 89.7287L33.9912 90.5246ZM37.6979 87.4158L38.4368 87.8803C39.4211 86.3144 39.8859 84.4094 39.8859 82.2146H39.0131H38.1404C38.1404 84.1649 37.7283 85.7273 36.9589 86.9514L37.6979 87.4158ZM39.0131 82.2146H39.8859C39.8859 80.6289 39.5854 79.1956 38.9568 77.9383L38.1761 78.3286L37.3955 78.7189C37.8828 79.6936 38.1404 80.8509 38.1404 82.2146H39.0131ZM38.1761 78.3286L38.9621 77.9492C38.3458 76.6726 37.4816 75.6069 36.3726 74.7641L35.8445 75.459L35.3165 76.1538C36.2004 76.8256 36.8905 77.673 37.3902 78.7081L38.1761 78.3286ZM35.8445 75.459L36.3898 74.7775C35.3047 73.9094 34.0712 73.2618 32.6972 72.8324L32.4368 73.6654L32.1765 74.4985C33.3533 74.8662 34.3916 75.4143 35.2993 76.1405L35.8445 75.459ZM32.4368 73.6654L32.7048 72.8348C31.3741 72.4056 29.9476 72.1948 28.4313 72.1948V73.0676V73.9404C29.7846 73.9404 31.0285 74.1282 32.1689 74.4961L32.4368 73.6654ZM28.4313 73.0676V72.1948H21.317V73.0676V73.9404H28.4313V73.0676ZM21.317 73.0676H22.1897V71.1545H21.317H20.4442V73.0676H21.317ZM21.317 71.1545V72.0273H28.6704V71.1545V70.2817H21.317V71.1545ZM28.6704 71.1545V72.0273C30.3018 72.0273 31.8932 72.2547 33.4472 72.7095L33.6923 71.8719L33.9375 71.0343C32.2232 70.5326 30.4667 70.2817 28.6704 70.2817V71.1545ZM33.6923 71.8719L33.4662 72.7149C35.0064 73.1281 36.3637 73.7627 37.5472 74.6133L38.0566 73.9046L38.5659 73.1959C37.1986 72.2131 35.6464 71.4926 33.9185 71.029L33.6923 71.8719ZM38.0566 73.9046L37.5575 74.6206C38.7571 75.4567 39.7004 76.526 40.3935 77.8392L41.1654 77.4319L41.9372 77.0245C41.1157 75.468 39.9865 74.1859 38.5556 73.1886L38.0566 73.9046ZM41.1654 77.4319L40.4076 77.8649C41.1161 79.1049 41.4883 80.6037 41.4883 82.394H42.361H43.2338C43.2338 80.358 42.8088 78.5488 41.9231 76.9988L41.1654 77.4319ZM42.361 82.394H41.4883C41.4883 85.019 40.9182 87.1099 39.8413 88.7253L40.5675 89.2094L41.2937 89.6935C42.6082 87.7218 43.2338 85.2691 43.2338 82.394H42.361ZM40.5675 89.2094L39.8413 88.7253C38.7474 90.3661 37.2339 91.594 35.2708 92.4088L35.6054 93.2149L35.94 94.021C38.2016 93.0822 39.9962 91.6397 41.2937 89.6935L40.5675 89.2094ZM35.6054 93.2149L35.2653 92.4111C33.32 93.2342 31.048 93.6574 28.4313 93.6574V94.5302V95.4029C31.235 95.4029 33.7457 94.9494 35.9455 94.0187L35.6054 93.2149ZM28.4313 94.5302V93.6574H18.7462V94.5302V95.4029H28.4313V94.5302ZM18.7462 94.5302H19.619V52.6811H18.7462H17.8735V94.5302H18.7462ZM18.7462 52.6811V53.5539H27.8334V52.6811V51.8084H18.7462V52.6811ZM27.8334 52.6811V53.5539C30.2601 53.5539 32.2908 53.9202 33.9507 54.6211L34.2902 53.817L34.6296 53.013C32.7024 52.1993 30.4287 51.8084 27.8334 51.8084V52.6811ZM34.2902 53.817L33.957 54.6237C35.6445 55.3207 36.9146 56.3499 37.8057 57.7044L38.5348 57.2248L39.264 56.7451C38.1623 55.0705 36.6026 53.8279 34.6233 53.0104L34.2902 53.817ZM38.5348 57.2248L37.8117 57.7134C38.6884 59.0109 39.1567 60.6826 39.1567 62.7847H40.0294H40.9022C40.9022 60.4229 40.3741 58.3879 39.258 56.7361L38.5348 57.2248ZM40.0294 62.7847H39.1567C39.1567 64.6628 38.6808 66.1857 37.7745 67.4057L38.4751 67.9261L39.1757 68.4466C40.3419 66.8767 40.9022 64.9719 40.9022 62.7847H40.0294ZM38.4751 67.9261L37.7719 67.4091C36.8857 68.6145 35.6312 69.5585 33.966 70.2246L34.2902 71.0349L34.6143 71.8453C36.5361 71.0765 38.0717 69.9481 39.1782 68.4432L38.4751 67.9261ZM34.2902 71.0349L33.9817 70.2185C32.3063 70.8514 30.3418 71.1785 28.0726 71.1785V72.0513V72.924C30.5064 72.924 32.687 72.5735 34.5986 71.8514L34.2902 71.0349ZM28.0726 72.0513V71.1785H21.317V72.0513V72.924H28.0726V72.0513ZM86.5748 87.2963L85.7514 87.5857L86.5841 89.9545L87.4002 87.58L86.5748 87.2963ZM98.4719 52.6811V51.8084H97.849L97.6465 52.3975L98.4719 52.6811ZM102.119 52.6811L102.941 52.974L103.356 51.8084H102.119V52.6811ZM86.6346 96.1444L85.8121 96.4363L86.633 98.7494L87.4568 96.4373L86.6346 96.1444ZM73.8408 60.0944L74.6633 59.8025L73.8408 57.4849L73.0183 59.8025L73.8408 60.0944ZM61.0469 96.1444L60.2248 96.4373L61.0485 98.7494L61.8694 96.4363L61.0469 96.1444ZM45.5628 52.6811V51.8084H44.3253L44.7406 52.974L45.5628 52.6811ZM49.2096 52.6811L50.0337 52.3936L49.8295 51.8084H49.2096V52.6811ZM61.2861 87.2963L60.462 87.5838L61.2888 89.9537L62.1107 87.582L61.2861 87.2963ZM73.8408 51.067L74.6641 50.7776L73.8349 48.4183L73.0161 50.7812L73.8408 51.067ZM86.5748 87.2963L87.4002 87.58L99.2973 52.9648L98.4719 52.6811L97.6465 52.3975L85.7495 87.0126L86.5748 87.2963ZM98.4719 52.6811V53.5539H102.119V52.6811V51.8084H98.4719V52.6811ZM102.119 52.6811L101.297 52.3882L85.8125 95.8515L86.6346 96.1444L87.4568 96.4373L102.941 52.974L102.119 52.6811ZM86.6346 96.1444L87.4571 95.8525L74.6633 59.8025L73.8408 60.0944L73.0183 60.3863L85.8121 96.4363L86.6346 96.1444ZM73.8408 60.0944L73.0183 59.8025L60.2244 95.8525L61.0469 96.1444L61.8694 96.4363L74.6633 60.3863L73.8408 60.0944ZM61.0469 96.1444L61.8691 95.8515L46.3849 52.3882L45.5628 52.6811L44.7406 52.974L60.2248 96.4373L61.0469 96.1444ZM45.5628 52.6811V53.5539H49.2096V52.6811V51.8084H45.5628V52.6811ZM49.2096 52.6811L48.3856 52.9686L60.462 87.5838L61.2861 87.2963L62.1101 87.0088L50.0337 52.3936L49.2096 52.6811ZM61.2861 87.2963L62.1107 87.582L74.6654 51.3527L73.8408 51.067L73.0161 50.7812L60.4614 87.0105L61.2861 87.2963ZM73.8408 51.067L73.0174 51.3564L85.7514 87.5857L86.5748 87.2963L87.3982 87.0069L74.6641 50.7776L73.8408 51.067ZM104.249 94.5302L103.616 93.9298L102.219 95.4029H104.249V94.5302ZM123.799 73.9046L124.432 74.505L124.442 74.4941L124.452 74.4829L123.799 73.9046ZM126.25 70.8556L125.555 70.3275L125.548 70.3365L125.541 70.3456L126.25 70.8556ZM127.983 67.687L127.167 67.3775L127.164 67.3854L127.162 67.3935L127.983 67.687ZM128.103 60.8716L128.928 60.5861V60.5861L128.103 60.8716ZM126.429 58.0617L125.769 58.6322L125.775 58.6398L125.782 58.6473L126.429 58.0617ZM123.559 55.9693L123.169 56.7499L123.186 56.7581L123.202 56.7657L123.559 55.9693ZM114.293 56.6269L114.768 57.3591L114.775 57.3547L114.781 57.3501L114.293 56.6269ZM110.885 60.752L111.683 61.1065L110.885 60.752ZM109.689 67.0294V67.9021H110.562V67.0294H109.689ZM106.401 67.0294H105.529V67.9021H106.401V67.0294ZM107.956 59.1976L107.167 58.824L107.164 58.8301L107.956 59.1976ZM112.499 53.9366L112.966 54.6742L112.97 54.6717L112.499 53.9366ZM125.174 53.1594L124.791 53.9441L124.799 53.9478L125.174 53.1594ZM129.06 56.0889L128.389 56.6476L128.399 56.6597L128.41 56.6715L129.06 56.0889ZM131.331 59.915L130.506 60.1981L130.508 60.2055L131.331 59.915ZM130.375 70.2577L129.613 69.8313L129.607 69.843L130.375 70.2577ZM126.369 75.6981L125.745 75.0886L125.743 75.0906L126.369 75.6981ZM111.124 91.4214L110.498 90.8139L109.062 92.2942H111.124V91.4214ZM132.826 91.4214H133.699V90.5486H132.826V91.4214ZM132.826 94.5302V95.4029H133.699V94.5302H132.826ZM104.249 94.5302L104.882 95.1306L124.432 74.505L123.799 73.9046L123.165 73.3042L103.616 93.9298L104.249 94.5302ZM123.799 73.9046L124.452 74.4829C125.386 73.4274 126.222 72.3884 126.958 71.3655L126.25 70.8556L125.541 70.3456C124.843 71.3156 124.045 72.3092 123.145 73.3263L123.799 73.9046ZM126.25 70.8556L126.945 71.3837C127.753 70.3201 128.375 69.1854 128.805 67.9806L127.983 67.687L127.162 67.3935C126.795 68.4206 126.261 69.3983 125.555 70.3275L126.25 70.8556ZM127.983 67.687L128.799 67.9965C129.278 66.7356 129.514 65.3946 129.514 63.9804H128.641H127.768C127.768 65.1967 127.566 66.3267 127.167 67.3775L127.983 67.687ZM128.641 63.9804H129.514C129.514 62.8414 129.316 61.7088 128.928 60.5861L128.103 60.8716L127.278 61.1571C127.607 62.1069 127.768 63.0468 127.768 63.9804H128.641ZM128.103 60.8716L128.928 60.5861C128.529 59.4356 127.91 58.3976 127.076 57.4762L126.429 58.0617L125.782 58.6473C126.463 59.3998 126.959 60.235 127.278 61.1571L128.103 60.8716ZM126.429 58.0617L127.09 57.4913C126.241 56.5091 125.178 55.7383 123.916 55.1729L123.559 55.9693L123.202 56.7657C124.253 57.2365 125.102 57.8607 125.769 58.6322L126.429 58.0617ZM123.559 55.9693L123.95 55.1887C122.686 54.557 121.211 54.2595 119.554 54.2595V55.1323V56.0051C121.005 56.0051 122.2 56.2656 123.169 56.7499L123.559 55.9693ZM119.554 55.1323V54.2595C117.373 54.2595 115.443 54.7965 113.804 55.9037L114.293 56.6269L114.781 57.3501C116.092 56.4645 117.67 56.0051 119.554 56.0051V55.1323ZM114.293 56.6269L113.818 55.8947C112.185 56.9538 110.945 58.4682 110.088 60.3976L110.885 60.752L111.683 61.1065C112.419 59.4488 113.451 58.2132 114.768 57.3591L114.293 56.6269ZM110.885 60.752L110.088 60.3976C109.231 62.3243 108.817 64.542 108.817 67.0294H109.689H110.562C110.562 64.7341 110.945 62.7668 111.683 61.1065L110.885 60.752ZM109.689 67.0294V66.1566H106.401V67.0294V67.9021H109.689V67.0294ZM106.401 67.0294H107.274C107.274 64.1404 107.775 61.6599 108.747 59.5652L107.956 59.1976L107.164 58.8301C106.064 61.1992 105.529 63.94 105.529 67.0294H106.401ZM107.956 59.1976L108.744 59.5713C109.756 57.4352 111.165 55.8136 112.966 54.6742L112.499 53.9366L112.033 53.1991C109.928 54.5307 108.307 56.4165 107.167 58.824L107.956 59.1976ZM112.499 53.9366L112.97 54.6717C114.803 53.4987 116.985 52.8963 119.554 52.8963V52.0235V51.1508C116.702 51.1508 114.182 51.8237 112.029 53.2015L112.499 53.9366ZM119.554 52.0235V52.8963C121.648 52.8963 123.383 53.2582 124.791 53.944L125.174 53.1594L125.556 52.3748C123.855 51.5461 121.844 51.1508 119.554 51.1508V52.0235ZM125.174 53.1594L124.799 53.9478C126.295 54.6581 127.484 55.5612 128.389 56.6476L129.06 56.0889L129.73 55.5301C128.643 54.2251 127.241 53.1753 125.548 52.3711L125.174 53.1594ZM129.06 56.0889L128.41 56.6715C129.372 57.7449 130.067 58.9195 130.506 60.1981L131.331 59.915L132.157 59.632C131.639 58.1206 130.82 56.7445 129.709 55.5062L129.06 56.0889ZM131.331 59.915L130.508 60.2055C130.958 61.479 131.176 62.6961 131.176 63.8608H132.049H132.922C132.922 62.4748 132.661 61.0613 132.154 59.6246L131.331 59.915ZM132.049 63.8608H131.176C131.176 65.9825 130.657 67.968 129.613 69.8313L130.375 70.2577L131.136 70.6842C132.325 68.5618 132.922 66.2828 132.922 63.8608H132.049ZM130.375 70.2577L129.607 69.843C128.57 71.764 127.283 73.512 125.745 75.0886L126.369 75.6981L126.994 76.3076C128.644 74.616 130.028 72.7371 131.143 70.6724L130.375 70.2577ZM126.369 75.6981L125.743 75.0906L110.498 90.8139L111.124 91.4214L111.751 92.0289L126.996 76.3056L126.369 75.6981ZM111.124 91.4214V92.2942H132.826V91.4214V90.5486H111.124V91.4214ZM132.826 91.4214H131.953V94.5302H132.826H133.699V91.4214H132.826ZM132.826 94.5302V93.6574H104.249V94.5302V95.4029H132.826V94.5302ZM142.444 80.8396L143.294 80.6422L142.444 80.8396ZM144.656 86.6984L143.898 87.1314L143.902 87.1382L143.906 87.1448L144.656 86.6984ZM148.243 90.6442L147.749 91.364L147.756 91.3689L147.764 91.3736L148.243 90.6442ZM157.689 90.6442L158.178 91.3671L158.182 91.364L157.689 90.6442ZM161.216 86.6984L160.466 86.252L160.462 86.2587L160.458 86.2654L161.216 86.6984ZM163.488 66.3718L162.638 66.5691L163.488 66.3718ZM161.216 60.5129L160.458 60.9459L160.462 60.9526L160.466 60.9593L161.216 60.5129ZM157.689 56.6269L157.185 57.3399L157.197 57.3483L157.209 57.3563L157.689 56.6269ZM148.243 56.6269L148.722 57.3563L148.729 57.3516L148.736 57.3467L148.243 56.6269ZM144.656 60.5129L143.906 60.0665L143.902 60.0731L143.898 60.0799L144.656 60.5129ZM142.444 66.3718L143.294 66.5691L142.444 66.3718ZM140.172 62.6053L139.354 62.3022L140.172 62.6053ZM145.254 54.9529L145.821 55.6165L145.827 55.6105L145.254 54.9529ZM160.678 54.9529L160.104 55.6105L160.111 55.6164L160.678 54.9529ZM165.76 62.6053L164.941 62.9085L165.76 62.6053ZM165.76 84.606L164.941 84.3029V84.3029L165.76 84.606ZM160.678 92.3182L161.245 92.9817L161.252 92.9757L160.678 92.3182ZM145.254 92.3182L144.68 92.9758L144.687 92.9817L145.254 92.3182ZM140.172 84.606L140.99 84.3029L140.172 84.606ZM141.667 73.6057H140.794C140.794 76.2543 141.059 78.7325 141.594 81.0369L142.444 80.8396L143.294 80.6422C142.793 78.4827 142.539 76.1384 142.539 73.6057H141.667ZM142.444 80.8396L141.594 81.0369C142.127 83.3364 142.892 85.3715 143.898 87.1314L144.656 86.6984L145.414 86.2654C144.506 84.6774 143.796 82.8066 143.294 80.6422L142.444 80.8396ZM144.656 86.6984L143.906 87.1448C144.957 88.911 146.235 90.3259 147.749 91.364L148.243 90.6442L148.736 89.9244C147.46 89.0494 146.347 87.8338 145.406 86.252L144.656 86.6984ZM148.243 90.6442L147.764 91.3736C149.308 92.3887 151.051 92.892 152.966 92.892V92.0192V91.1465C151.373 91.1465 149.967 90.7331 148.722 89.9148L148.243 90.6442ZM152.966 92.0192V92.892C154.916 92.892 156.664 92.3908 158.178 91.3671L157.689 90.6442L157.2 89.9213C156.003 90.7309 154.603 91.1465 152.966 91.1465V92.0192ZM157.689 90.6442L158.182 91.364C159.7 90.3232 160.961 88.9037 161.974 87.1314L161.216 86.6984L160.458 86.2654C159.558 87.8411 158.467 89.0521 157.195 89.9244L157.689 90.6442ZM161.216 86.6984L161.966 87.1448C163.016 85.3813 163.803 83.3415 164.338 81.0369L163.488 80.8396L162.638 80.6422C162.136 82.8015 161.409 84.6677 160.466 86.252L161.216 86.6984ZM163.488 80.8396L164.338 81.0369C164.873 78.7325 165.138 76.2543 165.138 73.6057H164.265H163.392C163.392 76.1384 163.139 78.4827 162.638 80.6422L163.488 80.8396ZM164.265 73.6057H165.138C165.138 70.9571 164.873 68.4788 164.338 66.1744L163.488 66.3718L162.638 66.5691C163.139 68.7286 163.392 71.073 163.392 73.6057H164.265ZM163.488 66.3718L164.338 66.1744C163.803 63.8698 163.016 61.83 161.966 60.0665L161.216 60.5129L160.466 60.9593C161.409 62.5437 162.136 64.4098 162.638 66.5691L163.488 66.3718ZM161.216 60.5129L161.974 60.0799C160.96 58.3051 159.695 56.9006 158.168 55.8975L157.689 56.6269L157.209 57.3563C158.473 58.1866 159.559 59.3727 160.458 60.9459L161.216 60.5129ZM157.689 56.6269L158.192 55.9139C156.678 54.8448 154.924 54.3193 152.966 54.3193V55.1921V56.0648C154.595 56.0648 155.99 56.4959 157.185 57.3399L157.689 56.6269ZM152.966 55.1921V54.3193C151.043 54.3193 149.295 54.8471 147.749 55.9071L148.243 56.6269L148.736 57.3467C149.98 56.4936 151.381 56.0648 152.966 56.0648V55.1921ZM148.243 56.6269L147.764 55.8975C146.241 56.898 144.959 58.2978 143.906 60.0665L144.656 60.5129L145.406 60.9593C146.346 59.38 147.455 58.1892 148.722 57.3563L148.243 56.6269ZM144.656 60.5129L143.898 60.0799C142.892 61.8398 142.127 63.8749 141.594 66.1744L142.444 66.3718L143.294 66.5691C143.796 64.4047 144.506 62.5339 145.414 60.9459L144.656 60.5129ZM142.444 66.3718L141.594 66.1744C141.059 68.4788 140.794 70.9571 140.794 73.6057H141.667H142.539C142.539 71.073 142.793 68.7286 143.294 66.5691L142.444 66.3718ZM138.378 73.6057H139.251C139.251 69.5845 139.837 66.0231 140.99 62.9085L140.172 62.6053L139.354 62.3022C138.116 65.6443 137.506 69.4164 137.506 73.6057H138.378ZM140.172 62.6053L140.99 62.9085C142.144 59.7927 143.762 57.3758 145.821 55.6164L145.254 54.9529L144.687 54.2894C142.361 56.2766 140.591 58.9613 139.354 62.3022L140.172 62.6053ZM145.254 54.9529L145.827 55.6105C147.858 53.8382 150.224 52.9561 152.966 52.9561V52.0833V51.2105C149.809 51.2105 147.033 52.2415 144.68 54.2954L145.254 54.9529ZM152.966 52.0833V52.9561C155.707 52.9561 158.073 53.8382 160.104 55.6105L160.678 54.9529L161.252 54.2954C158.898 52.2415 156.123 51.2105 152.966 51.2105V52.0833ZM160.678 54.9529L160.111 55.6164C162.17 57.3758 163.787 59.7927 164.941 62.9085L165.76 62.6053L166.578 62.3022C165.341 58.9613 163.57 56.2766 161.245 54.2894L160.678 54.9529ZM165.76 62.6053L164.941 62.9085C166.095 66.0231 166.68 69.5845 166.68 73.6057H167.553H168.426C168.426 69.4164 167.816 65.6443 166.578 62.3022L165.76 62.6053ZM167.553 73.6057H166.68C166.68 77.6268 166.095 81.1882 164.941 84.3029L165.76 84.606L166.578 84.9091C167.816 81.5671 168.426 77.7949 168.426 73.6057H167.553ZM165.76 84.606L164.941 84.3029C163.787 87.4196 162.168 89.8595 160.104 91.6606L160.678 92.3182L161.252 92.9757C163.572 90.9506 165.341 88.2491 166.578 84.9091L165.76 84.606ZM160.678 92.3182L160.111 91.6547C158.081 93.3895 155.712 94.2553 152.966 94.2553V95.128V96.0008C156.118 96.0008 158.891 94.9933 161.245 92.9817L160.678 92.3182ZM152.966 95.128V94.2553C150.219 94.2553 147.851 93.3895 145.821 91.6547L145.254 92.3182L144.687 92.9817C147.041 94.9933 149.814 96.0008 152.966 96.0008V95.128ZM145.254 92.3182L145.827 91.6606C143.764 89.8595 142.145 87.4196 140.99 84.3029L140.172 84.606L139.354 84.9091C140.591 88.2491 142.359 90.9506 144.68 92.9757L145.254 92.3182ZM140.172 84.606L140.99 84.3029C139.837 81.1882 139.251 77.6268 139.251 73.6057H138.378H137.506C137.506 77.7949 138.116 81.5671 139.354 84.9091L140.172 84.606ZM171.623 94.5302L170.99 93.9298L169.593 95.4029H171.623V94.5302ZM191.173 73.9046L191.806 74.505L191.816 74.4941L191.826 74.4829L191.173 73.9046ZM193.624 70.8556L192.929 70.3275L192.922 70.3365L192.916 70.3456L193.624 70.8556ZM195.358 67.687L194.542 67.3775L194.539 67.3854L194.536 67.3935L195.358 67.687ZM195.477 60.8716L196.302 60.5861V60.5861L195.477 60.8716ZM193.803 58.0617L193.143 58.6322L193.149 58.6398L193.156 58.6473L193.803 58.0617ZM190.934 55.9693L190.543 56.7499L190.56 56.7581L190.577 56.7657L190.934 55.9693ZM181.667 56.6269L182.142 57.3591L182.149 57.3547L182.156 57.3501L181.667 56.6269ZM178.259 60.752L179.057 61.1065L178.259 60.752ZM177.064 67.0294V67.9021H177.936V67.0294H177.064ZM173.775 67.0294H172.903V67.9021H173.775V67.0294ZM175.33 59.1976L174.541 58.824L174.538 58.8301L175.33 59.1976ZM179.873 53.9366L180.34 54.6742L180.344 54.6717L179.873 53.9366ZM192.548 53.1594L192.165 53.9441L192.173 53.9478L192.548 53.1594ZM196.434 56.0889L195.763 56.6476L195.773 56.6597L195.784 56.6715L196.434 56.0889ZM198.706 59.915L197.88 60.1981L197.882 60.2055L198.706 59.915ZM197.749 70.2577L196.987 69.8313L196.981 69.843L197.749 70.2577ZM193.743 75.6981L193.119 75.0886L193.117 75.0906L193.743 75.6981ZM178.498 91.4214L177.872 90.8139L176.437 92.2942H178.498V91.4214ZM200.2 91.4214H201.073V90.5486H200.2V91.4214ZM200.2 94.5302V95.4029H201.073V94.5302H200.2ZM171.623 94.5302L172.257 95.1306L191.806 74.505L191.173 73.9046L190.539 73.3042L170.99 93.9298L171.623 94.5302ZM191.173 73.9046L191.826 74.4829C192.76 73.4274 193.596 72.3884 194.332 71.3655L193.624 70.8556L192.916 70.3456C192.217 71.3156 191.419 72.3092 190.519 73.3263L191.173 73.9046ZM193.624 70.8556L194.319 71.3837C195.127 70.3201 195.749 69.1854 196.179 67.9806L195.358 67.687L194.536 67.3935C194.169 68.4206 193.635 69.3983 192.929 70.3275L193.624 70.8556ZM195.358 67.687L196.174 67.9965C196.652 66.7356 196.888 65.3946 196.888 63.9804H196.015H195.142C195.142 65.1967 194.94 66.3267 194.542 67.3775L195.358 67.687ZM196.015 63.9804H196.888C196.888 62.8414 196.691 61.7088 196.302 60.5861L195.477 60.8716L194.652 61.1571C194.981 62.1069 195.142 63.0468 195.142 63.9804H196.015ZM195.477 60.8716L196.302 60.5861C195.904 59.4356 195.284 58.3976 194.45 57.4762L193.803 58.0617L193.156 58.6473C193.837 59.3998 194.333 60.235 194.652 61.1571L195.477 60.8716ZM193.803 58.0617L194.464 57.4913C193.615 56.5091 192.552 55.7383 191.291 55.1729L190.934 55.9693L190.577 56.7657C191.627 57.2365 192.476 57.8607 193.143 58.6322L193.803 58.0617ZM190.934 55.9693L191.324 55.1887C190.061 54.557 188.585 54.2595 186.928 54.2595V55.1323V56.0051C188.379 56.0051 189.575 56.2656 190.543 56.7499L190.934 55.9693ZM186.928 55.1323V54.2595C184.747 54.2595 182.817 54.7965 181.178 55.9037L181.667 56.6269L182.156 57.3501C183.466 56.4645 185.044 56.0051 186.928 56.0051V55.1323ZM181.667 56.6269L181.192 55.8947C179.559 56.9538 178.319 58.4682 177.462 60.3976L178.259 60.752L179.057 61.1065C179.794 59.4488 180.825 58.2132 182.142 57.3591L181.667 56.6269ZM178.259 60.752L177.462 60.3976C176.605 62.3243 176.191 64.542 176.191 67.0294H177.064H177.936C177.936 64.7341 178.319 62.7668 179.057 61.1065L178.259 60.752ZM177.064 67.0294V66.1566H173.775V67.0294V67.9021H177.064V67.0294ZM173.775 67.0294H174.648C174.648 64.1404 175.149 61.6599 176.121 59.5652L175.33 59.1976L174.538 58.8301C173.438 61.1992 172.903 63.94 172.903 67.0294H173.775ZM175.33 59.1976L176.119 59.5713C177.13 57.4352 178.539 55.8136 180.34 54.6742L179.873 53.9366L179.407 53.1991C177.302 54.5307 175.681 56.4165 174.541 58.824L175.33 59.1976ZM179.873 53.9366L180.344 54.6717C182.177 53.4987 184.36 52.8963 186.928 52.8963V52.0235V51.1508C184.076 51.1508 181.556 51.8237 179.403 53.2015L179.873 53.9366ZM186.928 52.0235V52.8963C189.022 52.8963 190.758 53.2582 192.165 53.944L192.548 53.1594L192.93 52.3748C191.229 51.5461 189.218 51.1508 186.928 51.1508V52.0235ZM192.548 53.1594L192.173 53.9478C193.669 54.6581 194.858 55.5612 195.763 56.6476L196.434 56.0889L197.104 55.5301C196.017 54.2251 194.615 53.1753 192.922 52.3711L192.548 53.1594ZM196.434 56.0889L195.784 56.6715C196.746 57.7449 197.442 58.9195 197.88 60.1981L198.706 59.915L199.531 59.632C199.013 58.1206 198.194 56.7445 197.084 55.5062L196.434 56.0889ZM198.706 59.915L197.882 60.2055C198.332 61.479 198.55 62.6961 198.55 63.8608H199.423H200.296C200.296 62.4748 200.036 61.0613 199.529 59.6246L198.706 59.915ZM199.423 63.8608H198.55C198.55 65.9825 198.031 67.968 196.987 69.8313L197.749 70.2577L198.51 70.6842C199.699 68.5618 200.296 66.2828 200.296 63.8608H199.423ZM197.749 70.2577L196.981 69.843C195.944 71.764 194.657 73.512 193.119 75.0886L193.743 75.6981L194.368 76.3076C196.018 74.616 197.402 72.7371 198.517 70.6724L197.749 70.2577ZM193.743 75.6981L193.117 75.0906L177.872 90.8139L178.498 91.4214L179.125 92.0289L194.37 76.3056L193.743 75.6981ZM178.498 91.4214V92.2942H200.2V91.4214V90.5486H178.498V91.4214ZM200.2 91.4214H199.327V94.5302H200.2H201.073V91.4214H200.2ZM200.2 94.5302V93.6574H171.623V94.5302V95.4029H200.2V94.5302ZM232.357 87.0571L231.553 86.7177L231.549 86.7253L231.546 86.733L232.357 87.0571ZM229.308 91.541L228.72 90.8951L228.711 90.9043L229.308 91.541ZM224.824 94.2313L224.536 93.4072L224.824 94.2313ZM213.046 93.9921L212.7 94.7934L212.707 94.7962L213.046 93.9921ZM208.503 90.8833L207.858 91.4714L207.867 91.4813L207.876 91.4909L208.503 90.8833ZM205.394 86.3397L204.913 85.6112L204.267 86.0375L204.613 86.73L205.394 86.3397ZM208.204 84.4864L208.989 84.1051L208.554 83.2099L207.723 83.7579L208.204 84.4864ZM210.774 88.3126L210.125 88.8952L210.13 88.9013L210.136 88.9073L210.774 88.3126ZM214.541 91.0627L214.168 91.8519L214.177 91.8562L214.186 91.8602L214.541 91.0627ZM224.943 90.704L225.364 91.4687L225.37 91.4652L224.943 90.704ZM228.71 86.818L227.944 86.3988L227.94 86.4059L227.937 86.413L228.71 86.818ZM228.71 75.2198L227.945 75.6404L227.949 75.6477L227.953 75.6549L228.71 75.2198ZM225.123 71.5132L224.671 72.2599L224.678 72.2643L224.685 72.2685L225.123 71.5132ZM215.856 70.6164L216.074 71.4615L215.856 70.6164ZM212.269 72.1708L211.809 71.4293L212.269 72.1708ZM208.622 74.9807L207.775 74.7717L207.09 77.5468L209.208 75.6274L208.622 74.9807ZM214.122 52.6811V51.8084H213.439L213.275 52.4721L214.122 52.6811ZM233.851 52.6811H234.724V51.8084H233.851V52.6811ZM233.851 55.6106V56.4833H234.724V55.6106H233.851ZM216.633 55.6106V54.7378H215.95L215.786 55.4014L216.633 55.6106ZM213.046 70.1382L212.199 69.929L211.534 72.6209L213.621 70.795L213.046 70.1382ZM216.574 68.0457L216.898 68.8561L216.909 68.8513L216.574 68.0457ZM227.454 68.8827L226.989 69.621L226.996 69.6255L227.454 68.8827ZM231.878 73.6654L231.107 74.0738L231.878 73.6654ZM233.493 80.7798H232.62C232.62 83.0804 232.255 85.0531 231.553 86.7177L232.357 87.0571L233.161 87.3966C233.972 85.4741 234.365 83.2619 234.365 80.7798H233.493ZM232.357 87.0571L231.546 86.733C230.874 88.4146 229.93 89.7959 228.721 90.8952L229.308 91.541L229.895 92.1868C231.316 90.8946 232.405 89.2867 233.167 87.3813L232.357 87.0571ZM229.308 91.541L228.711 90.9043C227.528 92.0134 226.14 92.8479 224.536 93.4072L224.824 94.2313L225.111 95.0553C226.936 94.4189 228.537 93.4599 229.905 92.1777L229.308 91.541ZM224.824 94.2313L224.536 93.4072C222.922 93.9704 221.186 94.2553 219.324 94.2553V95.128V96.0008C221.367 96.0008 223.298 95.6878 225.111 95.0553L224.824 94.2313ZM219.324 95.128V94.2553C217.023 94.2553 215.05 93.8909 213.386 93.1881L213.046 93.9921L212.707 94.7962C214.629 95.6079 216.842 96.0008 219.324 96.0008V95.128ZM213.046 93.9921L213.392 93.1909C211.739 92.4771 210.321 91.5051 209.129 90.2758L208.503 90.8833L207.876 91.4909C209.235 92.892 210.846 93.9926 212.7 94.7934L213.046 93.9921ZM208.503 90.8833L209.148 90.2953C207.967 89.0008 206.976 87.553 206.174 85.9494L205.394 86.3397L204.613 86.73C205.485 88.4743 206.567 90.0557 207.858 91.4714L208.503 90.8833ZM205.394 86.3397L205.874 87.0683L208.684 85.215L208.204 84.4864L207.723 83.7579L204.913 85.6112L205.394 86.3397ZM208.204 84.4864L207.419 84.8677C208.132 86.3358 209.034 87.679 210.125 88.8952L210.774 88.3126L211.424 87.73C210.442 86.6346 209.631 85.4269 208.989 84.1051L208.204 84.4864ZM210.774 88.3126L210.136 88.9073C211.288 90.1447 212.634 91.1272 214.168 91.8519L214.541 91.0627L214.914 90.2735C213.578 89.643 212.413 88.7922 211.413 87.7179L210.774 88.3126ZM214.541 91.0627L214.186 91.8602C215.745 92.553 217.462 92.892 219.324 92.892V92.0192V91.1465C217.678 91.1465 216.206 90.8477 214.895 90.2651L214.541 91.0627ZM219.324 92.0192V92.892C221.596 92.892 223.619 92.4284 225.364 91.4687L224.943 90.704L224.523 89.9393C223.079 90.7333 221.356 91.1465 219.324 91.1465V92.0192ZM224.943 90.704L225.37 91.4652C227.153 90.465 228.528 89.0453 229.483 87.223L228.71 86.818L227.937 86.413C227.138 87.9386 226.002 89.1096 224.516 89.9428L224.943 90.704ZM228.71 86.818L229.475 87.2372C230.477 85.4082 230.958 83.2442 230.958 80.7798H230.085H229.212C229.212 83.0184 228.776 84.8799 227.944 86.3988L228.71 86.818ZM230.085 80.7798H230.958C230.958 78.5377 230.47 76.53 229.466 74.7848L228.71 75.2198L227.953 75.6549C228.783 77.0982 229.212 78.7971 229.212 80.7798H230.085ZM228.71 75.2198L229.475 74.7992C228.524 73.0715 227.218 71.7176 225.56 70.7579L225.123 71.5132L224.685 72.2685C226.057 73.0625 227.142 74.1797 227.945 75.6404L228.71 75.2198ZM225.123 71.5132L225.575 70.7666C223.91 69.759 222.017 69.2654 219.921 69.2654V70.1382V71.0109C221.732 71.0109 223.306 71.434 224.671 72.2599L225.123 71.5132ZM219.921 70.1382V69.2654C218.384 69.2654 216.955 69.4315 215.638 69.7714L215.856 70.6164L216.074 71.4615C217.228 71.1636 218.509 71.0109 219.921 71.0109V70.1382ZM215.856 70.6164L215.638 69.7714C214.312 70.1137 213.035 70.6684 211.809 71.4293L212.269 72.1708L212.729 72.9124C213.815 72.2384 214.93 71.7569 216.074 71.4615L215.856 70.6164ZM212.269 72.1708L211.809 71.4293C210.598 72.1806 209.341 73.1516 208.036 74.334L208.622 74.9807L209.208 75.6274C210.454 74.4981 211.628 73.5959 212.729 72.9124L212.269 72.1708ZM208.622 74.9807L209.47 75.1897L214.97 52.8901L214.122 52.6811L213.275 52.4721L207.775 74.7717L208.622 74.9807ZM214.122 52.6811V53.5539H233.851V52.6811V51.8084H214.122V52.6811ZM233.851 52.6811H232.978V55.6106H233.851H234.724V52.6811H233.851ZM233.851 55.6106V54.7378H216.633V55.6106V56.4833H233.851V55.6106ZM216.633 55.6106L215.786 55.4014L212.199 69.929L213.046 70.1382L213.894 70.3474L217.481 55.8198L216.633 55.6106ZM213.046 70.1382L213.621 70.795C214.491 70.0336 215.578 69.3839 216.898 68.8561L216.574 68.0457L216.249 67.2354C214.779 67.8235 213.514 68.5688 212.472 69.4813L213.046 70.1382ZM216.574 68.0457L216.909 68.8513C218.23 68.3011 219.669 68.0217 221.237 68.0217V67.149V66.2762C219.456 66.2762 217.787 66.5946 216.238 67.2401L216.574 68.0457ZM221.237 67.149V68.0217C223.395 68.0217 225.304 68.5589 226.989 69.621L227.454 68.8827L227.92 68.1444C225.938 66.8948 223.702 66.2762 221.237 66.2762V67.149ZM227.454 68.8827L226.996 69.6255C228.731 70.6959 230.1 72.1721 231.107 74.0738L231.878 73.6654L232.65 73.2571C231.504 71.0935 229.924 69.3811 227.913 68.1399L227.454 68.8827ZM231.878 73.6654L231.107 74.0738C232.106 75.96 232.62 78.1865 232.62 80.7798H233.493H234.365C234.365 77.9526 233.803 75.4362 232.65 73.2571L231.878 73.6654Z" fill="white" mask="url(#path-1-outside-1_95_147)"/>
<mask id="path-3-outside-2_95_147" maskUnits="userSpaceOnUse" x="5" y="106.661" width="411" height="66" fill="black">
<rect fill="white" x="5" y="106.661" width="411" height="66"/>
<path d="M6.66941 112.761H18.537V169.661H6.66941V112.761ZM26.0152 169.661H14.1476V159.094H25.6088C28.1015 159.094 30.4588 158.768 32.6806 158.118C34.9024 157.414 36.8532 156.33 38.5331 154.867C40.213 153.404 41.5136 151.561 42.4348 149.339C43.4102 147.063 43.8979 144.354 43.8979 141.211C43.8979 138.068 43.4102 135.385 42.4348 133.164C41.5136 130.888 40.213 129.018 38.5331 127.555C36.8532 126.092 34.9024 125.035 32.6806 124.385C30.4588 123.68 28.1015 123.328 25.6088 123.328H14.1476V112.761H26.0152C31.9761 112.761 37.1784 113.926 41.6219 116.256C46.1197 118.587 49.615 121.892 52.1077 126.173C54.6004 130.4 55.8468 135.413 55.8468 141.211C55.8468 147.009 54.6004 152.049 52.1077 156.33C49.615 160.557 46.1197 163.835 41.6219 166.165C37.1784 168.495 31.9761 169.661 26.0152 169.661ZM70.7073 169.661V159.825H99.4009V169.661H70.7073ZM70.7073 122.597V112.761H99.4009V122.597H70.7073ZM70.7073 144.3V134.627H97.7752V144.3H70.7073ZM63.2291 112.761H74.4464V169.661H63.2291V112.761ZM121.749 137.716L118.091 169.661H105.98L114.434 109.916L138.25 146.657L162.066 109.916L170.52 169.661H158.409L154.751 137.716L138.25 164.377L121.749 137.716ZM187.038 141.211C187.038 144.842 187.797 148.066 189.314 150.884C190.831 153.702 192.918 155.923 195.573 157.549C198.228 159.175 201.317 159.988 204.84 159.988C208.362 159.988 211.451 159.175 214.106 157.549C216.761 155.923 218.821 153.702 220.284 150.884C221.801 148.066 222.56 144.842 222.56 141.211C222.56 137.58 221.828 134.356 220.365 131.538C218.902 128.72 216.843 126.498 214.187 124.873C211.532 123.247 208.416 122.434 204.84 122.434C201.317 122.434 198.228 123.247 195.573 124.873C192.918 126.498 190.831 128.72 189.314 131.538C187.797 134.356 187.038 137.58 187.038 141.211ZM174.764 141.211C174.764 136.876 175.523 132.92 177.04 129.343C178.557 125.713 180.671 122.569 183.38 119.914C186.09 117.259 189.26 115.227 192.891 113.818C196.576 112.355 200.559 111.623 204.84 111.623C209.175 111.623 213.158 112.355 216.788 113.818C220.419 115.227 223.589 117.259 226.299 119.914C229.062 122.569 231.176 125.713 232.639 129.343C234.156 132.92 234.915 136.876 234.915 141.211C234.915 145.492 234.156 149.475 232.639 153.16C231.176 156.79 229.09 159.961 226.38 162.67C223.725 165.38 220.555 167.493 216.87 169.01C213.239 170.473 209.229 171.205 204.84 171.205C200.45 171.205 196.413 170.473 192.728 169.01C189.097 167.493 185.927 165.38 183.218 162.67C180.508 159.961 178.422 156.79 176.959 153.16C175.496 149.475 174.764 145.492 174.764 141.211ZM265.019 112.761H276.887V169.661H265.019V112.761ZM284.365 169.661H272.497V159.094H283.958C286.451 159.094 288.808 158.768 291.03 158.118C293.252 157.414 295.203 156.33 296.883 154.867C298.563 153.404 299.863 151.561 300.784 149.339C301.76 147.063 302.247 144.354 302.247 141.211C302.247 138.068 301.76 135.385 300.784 133.164C299.863 130.888 298.563 129.018 296.883 127.555C295.203 126.092 293.252 125.035 291.03 124.385C288.808 123.68 286.451 123.328 283.958 123.328H272.497V112.761H284.365C290.326 112.761 295.528 113.926 299.971 116.256C304.469 118.587 307.964 121.892 310.457 126.173C312.95 130.4 314.196 135.413 314.196 141.211C314.196 147.009 312.95 152.049 310.457 156.33C307.964 160.557 304.469 163.835 299.971 166.165C295.528 168.495 290.326 169.661 284.365 169.661ZM327.002 156.736L328.384 147.551H355.696L357.078 156.736H327.002ZM341.878 131.213L333.343 150.802L333.587 153.404L326.108 169.661H313.021L341.878 109.428L370.734 169.661H357.566L350.25 153.891L350.413 150.965L341.878 131.213ZM401.185 112.761H414.435L394.845 146.088V169.661H383.059V146.169L363.469 112.761H376.718L388.911 135.683L401.185 112.761Z"/>
</mask>
<path d="M6.66941 112.761H18.537V169.661H6.66941V112.761ZM26.0152 169.661H14.1476V159.094H25.6088C28.1015 159.094 30.4588 158.768 32.6806 158.118C34.9024 157.414 36.8532 156.33 38.5331 154.867C40.213 153.404 41.5136 151.561 42.4348 149.339C43.4102 147.063 43.8979 144.354 43.8979 141.211C43.8979 138.068 43.4102 135.385 42.4348 133.164C41.5136 130.888 40.213 129.018 38.5331 127.555C36.8532 126.092 34.9024 125.035 32.6806 124.385C30.4588 123.68 28.1015 123.328 25.6088 123.328H14.1476V112.761H26.0152C31.9761 112.761 37.1784 113.926 41.6219 116.256C46.1197 118.587 49.615 121.892 52.1077 126.173C54.6004 130.4 55.8468 135.413 55.8468 141.211C55.8468 147.009 54.6004 152.049 52.1077 156.33C49.615 160.557 46.1197 163.835 41.6219 166.165C37.1784 168.495 31.9761 169.661 26.0152 169.661ZM70.7073 169.661V159.825H99.4009V169.661H70.7073ZM70.7073 122.597V112.761H99.4009V122.597H70.7073ZM70.7073 144.3V134.627H97.7752V144.3H70.7073ZM63.2291 112.761H74.4464V169.661H63.2291V112.761ZM121.749 137.716L118.091 169.661H105.98L114.434 109.916L138.25 146.657L162.066 109.916L170.52 169.661H158.409L154.751 137.716L138.25 164.377L121.749 137.716ZM187.038 141.211C187.038 144.842 187.797 148.066 189.314 150.884C190.831 153.702 192.918 155.923 195.573 157.549C198.228 159.175 201.317 159.988 204.84 159.988C208.362 159.988 211.451 159.175 214.106 157.549C216.761 155.923 218.821 153.702 220.284 150.884C221.801 148.066 222.56 144.842 222.56 141.211C222.56 137.58 221.828 134.356 220.365 131.538C218.902 128.72 216.843 126.498 214.187 124.873C211.532 123.247 208.416 122.434 204.84 122.434C201.317 122.434 198.228 123.247 195.573 124.873C192.918 126.498 190.831 128.72 189.314 131.538C187.797 134.356 187.038 137.58 187.038 141.211ZM174.764 141.211C174.764 136.876 175.523 132.92 177.04 129.343C178.557 125.713 180.671 122.569 183.38 119.914C186.09 117.259 189.26 115.227 192.891 113.818C196.576 112.355 200.559 111.623 204.84 111.623C209.175 111.623 213.158 112.355 216.788 113.818C220.419 115.227 223.589 117.259 226.299 119.914C229.062 122.569 231.176 125.713 232.639 129.343C234.156 132.92 234.915 136.876 234.915 141.211C234.915 145.492 234.156 149.475 232.639 153.16C231.176 156.79 229.09 159.961 226.38 162.67C223.725 165.38 220.555 167.493 216.87 169.01C213.239 170.473 209.229 171.205 204.84 171.205C200.45 171.205 196.413 170.473 192.728 169.01C189.097 167.493 185.927 165.38 183.218 162.67C180.508 159.961 178.422 156.79 176.959 153.16C175.496 149.475 174.764 145.492 174.764 141.211ZM265.019 112.761H276.887V169.661H265.019V112.761ZM284.365 169.661H272.497V159.094H283.958C286.451 159.094 288.808 158.768 291.03 158.118C293.252 157.414 295.203 156.33 296.883 154.867C298.563 153.404 299.863 151.561 300.784 149.339C301.76 147.063 302.247 144.354 302.247 141.211C302.247 138.068 301.76 135.385 300.784 133.164C299.863 130.888 298.563 129.018 296.883 127.555C295.203 126.092 293.252 125.035 291.03 124.385C288.808 123.68 286.451 123.328 283.958 123.328H272.497V112.761H284.365C290.326 112.761 295.528 113.926 299.971 116.256C304.469 118.587 307.964 121.892 310.457 126.173C312.95 130.4 314.196 135.413 314.196 141.211C314.196 147.009 312.95 152.049 310.457 156.33C307.964 160.557 304.469 163.835 299.971 166.165C295.528 168.495 290.326 169.661 284.365 169.661ZM327.002 156.736L328.384 147.551H355.696L357.078 156.736H327.002ZM341.878 131.213L333.343 150.802L333.587 153.404L326.108 169.661H313.021L341.878 109.428L370.734 169.661H357.566L350.25 153.891L350.413 150.965L341.878 131.213ZM401.185 112.761H414.435L394.845 146.088V169.661H383.059V146.169L363.469 112.761H376.718L388.911 135.683L401.185 112.761Z" fill="white"/>
<path d="M6.66941 112.761V111.914H5.82267V112.761H6.66941ZM18.537 112.761H19.3838V111.914H18.537V112.761ZM18.537 169.661V170.507H19.3838V169.661H18.537ZM6.66941 169.661H5.82267V170.507H6.66941V169.661ZM14.1476 169.661H13.3009V170.507H14.1476V169.661ZM14.1476 159.094V158.247H13.3009V159.094H14.1476ZM32.6806 158.118L32.9184 158.931L32.9275 158.928L32.9365 158.925L32.6806 158.118ZM38.5331 154.867L39.0892 155.505L38.5331 154.867ZM42.4348 149.339L41.6564 149.006L41.6526 149.015L42.4348 149.339ZM42.4348 133.164L41.6499 133.481L41.6545 133.493L41.6595 133.504L42.4348 133.164ZM38.5331 127.555L37.977 128.193L38.5331 127.555ZM32.6806 124.385L32.4247 125.192L32.4337 125.195L32.4427 125.197L32.6806 124.385ZM14.1476 123.328H13.3009V124.175H14.1476V123.328ZM14.1476 112.761V111.914H13.3009V112.761H14.1476ZM41.6219 116.256L41.2287 117.006L41.2324 117.008L41.6219 116.256ZM52.1077 126.173L51.3759 126.599L51.3783 126.603L52.1077 126.173ZM52.1077 156.33L52.8371 156.76L52.8394 156.756L52.1077 156.33ZM41.6219 166.165L41.2324 165.413L41.2287 165.415L41.6219 166.165ZM6.66941 112.761V113.608H18.537V112.761V111.914H6.66941V112.761ZM18.537 112.761H17.6903V169.661H18.537H19.3838V112.761H18.537ZM18.537 169.661V168.814H6.66941V169.661V170.507H18.537V169.661ZM6.66941 169.661H7.51615V112.761H6.66941H5.82267V169.661H6.66941ZM26.0152 169.661V168.814H14.1476V169.661V170.507H26.0152V169.661ZM14.1476 169.661H14.9944V159.094H14.1476H13.3009V169.661H14.1476ZM14.1476 159.094V159.94H25.6088V159.094V158.247H14.1476V159.094ZM25.6088 159.094V159.94C28.1759 159.94 30.6137 159.605 32.9184 158.931L32.6806 158.118L32.4427 157.305C30.3039 157.931 28.0272 158.247 25.6088 158.247V159.094ZM32.6806 158.118L32.9365 158.925C35.2636 158.187 37.3178 157.048 39.0892 155.505L38.5331 154.867L37.977 154.228C36.3886 155.612 34.5411 156.64 32.4247 157.311L32.6806 158.118ZM38.5331 154.867L39.0892 155.505C40.8754 153.949 42.2497 151.996 43.2169 149.664L42.4348 149.339L41.6526 149.015C40.7774 151.126 39.5506 152.858 37.977 154.228L38.5331 154.867ZM42.4348 149.339L43.2131 149.673C44.244 147.267 44.7447 144.439 44.7447 141.211H43.8979H43.0512C43.0512 144.269 42.5764 146.859 41.6565 149.006L42.4348 149.339ZM43.8979 141.211H44.7447C44.7447 137.984 44.2443 135.179 43.2101 132.823L42.4348 133.164L41.6595 133.504C42.5761 135.592 43.0512 138.152 43.0512 141.211H43.8979ZM42.4348 133.164L43.2197 132.846C42.2537 130.459 40.8795 128.476 39.0892 126.916L38.5331 127.555L37.977 128.193C39.5465 129.56 40.7734 131.316 41.6499 133.481L42.4348 133.164ZM38.5331 127.555L39.0892 126.916C37.3134 125.37 35.2529 124.255 32.9184 123.572L32.6806 124.385L32.4427 125.197C34.5518 125.815 36.393 126.814 37.977 128.193L38.5331 127.555ZM32.6806 124.385L32.9365 123.578C30.6264 122.845 28.1823 122.481 25.6088 122.481V123.328V124.175C28.0207 124.175 30.2912 124.516 32.4247 125.192L32.6806 124.385ZM25.6088 123.328V122.481H14.1476V123.328V124.175H25.6088V123.328ZM14.1476 123.328H14.9944V112.761H14.1476H13.3009V123.328H14.1476ZM14.1476 112.761V113.608H26.0152V112.761V111.914H14.1476V112.761ZM26.0152 112.761V113.608C31.8648 113.608 36.9273 114.751 41.2287 117.006L41.6219 116.256L42.0152 115.506C37.4294 113.102 32.0874 111.914 26.0152 111.914V112.761ZM41.6219 116.256L41.2324 117.008C45.5909 119.266 48.966 122.46 51.376 126.599L52.1077 126.173L52.8394 125.747C50.2639 121.324 46.6485 117.907 42.0114 115.505L41.6219 116.256ZM52.1077 126.173L51.3783 126.603C53.7813 130.678 55.0001 135.536 55.0001 141.211H55.8468H56.6935C56.6935 135.289 55.4196 130.122 52.837 125.743L52.1077 126.173ZM55.8468 141.211H55.0001C55.0001 146.885 53.7814 151.773 51.376 155.904L52.1077 156.33L52.8394 156.756C55.4195 152.325 56.6935 147.133 56.6935 141.211H55.8468ZM52.1077 156.33L51.3783 155.9C48.9691 159.985 45.5937 163.154 41.2324 165.413L41.6219 166.165L42.0114 166.917C46.6457 164.516 50.2608 161.128 52.837 156.76L52.1077 156.33ZM41.6219 166.165L41.2287 165.415C36.9273 167.671 31.8648 168.814 26.0152 168.814V169.661V170.507C32.0874 170.507 37.4294 169.32 42.0152 166.915L41.6219 166.165ZM70.7073 169.661H69.8606V170.507H70.7073V169.661ZM70.7073 159.825V158.978H69.8606V159.825H70.7073ZM99.4009 159.825H100.248V158.978H99.4009V159.825ZM99.4009 169.661V170.507H100.248V169.661H99.4009ZM70.7073 122.597H69.8606V123.443H70.7073V122.597ZM70.7073 112.761V111.914H69.8606V112.761H70.7073ZM99.4009 112.761H100.248V111.914H99.4009V112.761ZM99.4009 122.597V123.443H100.248V122.597H99.4009ZM70.7073 144.3H69.8606V145.146H70.7073V144.3ZM70.7073 134.627V133.78H69.8606V134.627H70.7073ZM97.7752 134.627H98.6219V133.78H97.7752V134.627ZM97.7752 144.3V145.146H98.6219V144.3H97.7752ZM63.2291 112.761V111.914H62.3824V112.761H63.2291ZM74.4464 112.761H75.2932V111.914H74.4464V112.761ZM74.4464 169.661V170.507H75.2932V169.661H74.4464ZM63.2291 169.661H62.3824V170.507H63.2291V169.661ZM70.7073 169.661H71.5541V159.825H70.7073H69.8606V169.661H70.7073ZM70.7073 159.825V160.672H99.4009V159.825V158.978H70.7073V159.825ZM99.4009 159.825H98.5542V169.661H99.4009H100.248V159.825H99.4009ZM99.4009 169.661V168.814H70.7073V169.661V170.507H99.4009V169.661ZM70.7073 122.597H71.5541V112.761H70.7073H69.8606V122.597H70.7073ZM70.7073 112.761V113.608H99.4009V112.761V111.914H70.7073V112.761ZM99.4009 112.761H98.5542V122.597H99.4009H100.248V112.761H99.4009ZM99.4009 122.597V121.75H70.7073V122.597V123.443H99.4009V122.597ZM70.7073 144.3H71.5541V134.627H70.7073H69.8606V144.3H70.7073ZM70.7073 134.627V135.473H97.7752V134.627V133.78H70.7073V134.627ZM97.7752 134.627H96.9285V144.3H97.7752H98.6219V134.627H97.7752ZM97.7752 144.3V143.453H70.7073V144.3V145.146H97.7752V144.3ZM63.2291 112.761V113.608H74.4464V112.761V111.914H63.2291V112.761ZM74.4464 112.761H73.5997V169.661H74.4464H75.2932V112.761H74.4464ZM74.4464 169.661V168.814H63.2291V169.661V170.507H74.4464V169.661ZM63.2291 169.661H64.0759V112.761H63.2291H62.3824V169.661H63.2291ZM121.749 137.716L122.469 137.27L121.185 135.196L120.908 137.619L121.749 137.716ZM118.091 169.661V170.507H118.847L118.933 169.757L118.091 169.661ZM105.98 169.661L105.142 169.542L105.005 170.507H105.98V169.661ZM114.434 109.916L115.144 109.456L113.912 107.556L113.595 109.798L114.434 109.916ZM138.25 146.657L137.539 147.117L138.25 148.214L138.961 147.117L138.25 146.657ZM162.066 109.916L162.905 109.798L162.588 107.556L161.356 109.456L162.066 109.916ZM170.52 169.661V170.507H171.495L171.359 169.542L170.52 169.661ZM158.409 169.661L157.567 169.757L157.653 170.507H158.409V169.661ZM154.751 137.716L155.592 137.619L155.315 135.196L154.031 137.27L154.751 137.716ZM138.25 164.377L137.53 164.823L138.25 165.986L138.97 164.823L138.25 164.377ZM121.749 137.716L120.908 137.619L117.25 169.564L118.091 169.661L118.933 169.757L122.59 137.812L121.749 137.716ZM118.091 169.661V168.814H105.98V169.661V170.507H118.091V169.661ZM105.98 169.661L106.818 169.779L115.272 110.035L114.434 109.916L113.595 109.798L105.142 169.542L105.98 169.661ZM114.434 109.916L113.723 110.377L137.539 147.117L138.25 146.657L138.961 146.196L115.144 109.456L114.434 109.916ZM138.25 146.657L138.961 147.117L162.777 110.377L162.066 109.916L161.356 109.456L137.539 146.196L138.25 146.657ZM162.066 109.916L161.228 110.035L169.682 169.779L170.52 169.661L171.359 169.542L162.905 109.798L162.066 109.916ZM170.52 169.661V168.814H158.409V169.661V170.507H170.52V169.661ZM158.409 169.661L159.25 169.564L155.592 137.619L154.751 137.716L153.91 137.812L157.567 169.757L158.409 169.661ZM154.751 137.716L154.031 137.27L137.53 163.931L138.25 164.377L138.97 164.823L155.471 138.161L154.751 137.716ZM138.25 164.377L138.97 163.931L122.469 137.27L121.749 137.716L121.029 138.161L137.53 164.823L138.25 164.377ZM189.314 150.884L188.569 151.285L189.314 150.884ZM195.573 157.549L196.015 156.827L195.573 157.549ZM214.106 157.549L214.548 158.271L214.106 157.549ZM220.284 150.884L219.538 150.482L219.532 150.494L220.284 150.884ZM220.365 131.538L219.613 131.928V131.928L220.365 131.538ZM214.187 124.873L213.745 125.595L214.187 124.873ZM195.573 124.873L196.015 125.595L195.573 124.873ZM189.314 131.538L190.06 131.939L189.314 131.538ZM177.04 129.343L177.82 129.674L177.821 129.67L177.04 129.343ZM183.38 119.914L182.788 119.309V119.309L183.38 119.914ZM192.891 113.818L193.197 114.607L193.203 114.605L192.891 113.818ZM216.788 113.818L216.472 114.603L216.482 114.607L216.788 113.818ZM226.299 119.914L225.706 120.519L225.712 120.525L226.299 119.914ZM232.639 129.343L231.854 129.66L231.856 129.667L231.859 129.674L232.639 129.343ZM232.639 153.16L231.856 152.837L231.854 152.843L232.639 153.16ZM226.38 162.67L225.781 162.071L225.775 162.077L226.38 162.67ZM216.87 169.01L217.186 169.796L217.192 169.793L216.87 169.01ZM192.728 169.01L192.402 169.792L192.409 169.794L192.416 169.797L192.728 169.01ZM183.218 162.67L182.619 163.269L183.218 162.67ZM176.959 153.16L176.172 153.472L176.173 153.476L176.959 153.16ZM187.038 141.211H186.191C186.191 144.963 186.976 148.328 188.569 151.285L189.314 150.884L190.06 150.482C188.617 147.804 187.885 144.721 187.885 141.211H187.038ZM189.314 150.884L188.569 151.285C190.155 154.231 192.344 156.565 195.131 158.271L195.573 157.549L196.015 156.827C193.491 155.282 191.508 153.172 190.06 150.482L189.314 150.884ZM195.573 157.549L195.131 158.271C197.936 159.989 201.182 160.834 204.84 160.834V159.988V159.141C201.452 159.141 198.521 158.361 196.015 156.827L195.573 157.549ZM204.84 159.988V160.834C208.497 160.834 211.743 159.989 214.548 158.271L214.106 157.549L213.664 156.827C211.158 158.361 208.227 159.141 204.84 159.141V159.988ZM214.106 157.549L214.548 158.271C217.338 156.563 219.502 154.226 221.035 151.274L220.284 150.884L219.532 150.494C218.139 153.178 216.185 155.283 213.664 156.827L214.106 157.549ZM220.284 150.884L221.029 151.285C222.621 148.328 223.406 144.963 223.406 141.211H222.56H221.713C221.713 144.721 220.981 147.804 219.538 150.482L220.284 150.884ZM222.56 141.211H223.406C223.406 137.464 222.651 134.102 221.116 131.148L220.365 131.538L219.613 131.928C221.006 134.609 221.713 137.696 221.713 141.211H222.56ZM220.365 131.538L221.116 131.148C219.584 128.196 217.419 125.858 214.629 124.15L214.187 124.873L213.745 125.595C216.266 127.138 218.22 129.244 219.613 131.928L220.365 131.538ZM214.187 124.873L214.629 124.15C211.822 122.432 208.548 121.587 204.84 121.587V122.434V123.281C208.284 123.281 211.242 124.062 213.745 125.595L214.187 124.873ZM204.84 122.434V121.587C201.182 121.587 197.936 122.433 195.131 124.15L195.573 124.873L196.015 125.595C198.521 124.061 201.452 123.281 204.84 123.281V122.434ZM195.573 124.873L195.131 124.15C192.344 125.857 190.155 128.191 188.569 131.136L189.314 131.538L190.06 131.939C191.508 129.249 193.491 127.14 196.015 125.595L195.573 124.873ZM189.314 131.538L188.569 131.136C186.976 134.094 186.191 137.459 186.191 141.211H187.038H187.885C187.885 137.701 188.617 134.618 190.06 131.939L189.314 131.538ZM174.764 141.211H175.611C175.611 136.976 176.351 133.134 177.82 129.674L177.04 129.343L176.261 129.013C174.694 132.705 173.917 136.775 173.917 141.211H174.764ZM177.04 129.343L177.821 129.67C179.297 126.139 181.347 123.092 183.973 120.519L183.38 119.914L182.788 119.309C179.994 122.047 177.818 125.286 176.259 129.017L177.04 129.343ZM183.38 119.914L183.973 120.519C186.598 117.946 189.67 115.976 193.197 114.607L192.891 113.818L192.584 113.028C188.85 114.478 185.581 116.572 182.788 119.309L183.38 119.914ZM192.891 113.818L193.203 114.605C196.781 113.184 200.657 112.47 204.84 112.47V111.623V110.776C200.46 110.776 196.37 111.525 192.578 113.031L192.891 113.818ZM204.84 111.623V112.47C209.078 112.47 212.952 113.185 216.472 114.603L216.788 113.818L217.105 113.032C213.363 111.525 209.271 110.776 204.84 110.776V111.623ZM216.788 113.818L216.482 114.607C220.009 115.976 223.081 117.946 225.706 120.519L226.299 119.914L226.891 119.309C224.098 116.572 220.829 114.478 217.095 113.028L216.788 113.818ZM226.299 119.914L225.712 120.525C228.388 123.095 230.434 126.138 231.854 129.66L232.639 129.343L233.424 129.027C231.917 125.287 229.737 122.044 226.885 119.304L226.299 119.914ZM232.639 129.343L231.859 129.674C233.328 133.134 234.068 136.976 234.068 141.211H234.915H235.762C235.762 136.775 234.985 132.705 233.418 129.013L232.639 129.343ZM234.915 141.211H234.068C234.068 145.39 233.328 149.262 231.856 152.837L232.639 153.16L233.422 153.482C234.984 149.688 235.762 145.594 235.762 141.211H234.915ZM232.639 153.16L231.854 152.843C230.432 156.371 228.408 159.444 225.781 162.071L226.38 162.67L226.979 163.269C229.771 160.477 231.92 157.21 233.424 153.476L232.639 153.16ZM226.38 162.67L225.775 162.077C223.204 164.701 220.132 166.751 216.547 168.227L216.87 169.01L217.192 169.793C220.978 168.235 224.245 166.058 226.985 163.263L226.38 162.67ZM216.87 169.01L216.553 168.225C213.035 169.643 209.134 170.358 204.84 170.358V171.205V172.052C209.324 172.052 213.443 171.304 217.186 169.796L216.87 169.01ZM204.84 171.205V170.358C200.546 170.358 196.616 169.643 193.041 168.223L192.728 169.01L192.416 169.797C196.21 171.304 200.355 172.052 204.84 172.052V171.205ZM192.728 169.01L193.055 168.229C189.523 166.753 186.446 164.701 183.816 162.071L183.218 162.67L182.619 163.269C185.409 166.058 188.672 168.233 192.402 169.792L192.728 169.01ZM183.218 162.67L183.816 162.071C181.189 159.444 179.166 156.371 177.744 152.843L176.959 153.16L176.173 153.476C177.678 157.21 179.827 160.477 182.619 163.269L183.218 162.67ZM176.959 153.16L177.746 152.847C176.325 149.269 175.611 145.393 175.611 141.211H174.764H173.917C173.917 145.59 174.666 149.68 176.172 153.472L176.959 153.16ZM265.019 112.761V111.914H264.172V112.761H265.019ZM276.887 112.761H277.733V111.914H276.887V112.761ZM276.887 169.661V170.507H277.733V169.661H276.887ZM265.019 169.661H264.172V170.507H265.019V169.661ZM272.497 169.661H271.65V170.507H272.497V169.661ZM272.497 159.094V158.247H271.65V159.094H272.497ZM291.03 158.118L291.268 158.931L291.277 158.928L291.286 158.925L291.03 158.118ZM296.883 154.867L297.439 155.505L296.883 154.867ZM300.784 149.339L300.006 149.006L300.002 149.015L300.784 149.339ZM300.784 133.164L299.999 133.481L300.004 133.493L300.009 133.504L300.784 133.164ZM296.883 127.555L296.327 128.193L296.883 127.555ZM291.03 124.385L290.774 125.192L290.783 125.195L290.792 125.197L291.03 124.385ZM272.497 123.328H271.65V124.175H272.497V123.328ZM272.497 112.761V111.914H271.65V112.761H272.497ZM299.971 116.256L299.578 117.006L299.582 117.008L299.971 116.256ZM310.457 126.173L309.725 126.599L309.728 126.603L310.457 126.173ZM310.457 156.33L311.187 156.76L311.189 156.756L310.457 156.33ZM299.971 166.165L299.582 165.413L299.578 165.415L299.971 166.165ZM265.019 112.761V113.608H276.887V112.761V111.914H265.019V112.761ZM276.887 112.761H276.04V169.661H276.887H277.733V112.761H276.887ZM276.887 169.661V168.814H265.019V169.661V170.507H276.887V169.661ZM265.019 169.661H265.866V112.761H265.019H264.172V169.661H265.019ZM284.365 169.661V168.814H272.497V169.661V170.507H284.365V169.661ZM272.497 169.661H273.344V159.094H272.497H271.65V169.661H272.497ZM272.497 159.094V159.94H283.958V159.094V158.247H272.497V159.094ZM283.958 159.094V159.94C286.525 159.94 288.963 159.605 291.268 158.931L291.03 158.118L290.792 157.305C288.653 157.931 286.377 158.247 283.958 158.247V159.094ZM291.03 158.118L291.286 158.925C293.613 158.187 295.667 157.048 297.439 155.505L296.883 154.867L296.327 154.228C294.738 155.612 292.891 156.64 290.774 157.311L291.03 158.118ZM296.883 154.867L297.439 155.505C299.225 153.949 300.599 151.996 301.566 149.664L300.784 149.339L300.002 149.015C299.127 151.126 297.9 152.858 296.327 154.228L296.883 154.867ZM300.784 149.339L301.563 149.673C302.594 147.267 303.094 144.439 303.094 141.211H302.247H301.401C301.401 144.269 300.926 146.859 300.006 149.006L300.784 149.339ZM302.247 141.211H303.094C303.094 137.984 302.594 135.179 301.56 132.823L300.784 133.164L300.009 133.504C300.926 135.592 301.401 138.152 301.401 141.211H302.247ZM300.784 133.164L301.569 132.846C300.603 130.459 299.229 128.476 297.439 126.916L296.883 127.555L296.327 128.193C297.896 129.56 299.123 131.316 299.999 133.481L300.784 133.164ZM296.883 127.555L297.439 126.916C295.663 125.37 293.602 124.255 291.268 123.572L291.03 124.385L290.792 125.197C292.901 125.815 294.743 126.814 296.327 128.193L296.883 127.555ZM291.03 124.385L291.286 123.578C288.976 122.845 286.532 122.481 283.958 122.481V123.328V124.175C286.37 124.175 288.641 124.516 290.774 125.192L291.03 124.385ZM283.958 123.328V122.481H272.497V123.328V124.175H283.958V123.328ZM272.497 123.328H273.344V112.761H272.497H271.65V123.328H272.497ZM272.497 112.761V113.608H284.365V112.761V111.914H272.497V112.761ZM284.365 112.761V113.608C290.214 113.608 295.277 114.751 299.578 117.006L299.971 116.256L300.365 115.506C295.779 113.102 290.437 111.914 284.365 111.914V112.761ZM299.971 116.256L299.582 117.008C303.94 119.266 307.315 122.46 309.725 126.599L310.457 126.173L311.189 125.747C308.613 121.324 304.998 117.907 300.361 115.505L299.971 116.256ZM310.457 126.173L309.728 126.603C312.131 130.678 313.35 135.536 313.35 141.211H314.196H315.043C315.043 135.289 313.769 130.122 311.187 125.743L310.457 126.173ZM314.196 141.211H313.35C313.35 146.885 312.131 151.773 309.725 155.904L310.457 156.33L311.189 156.756C313.769 152.325 315.043 147.133 315.043 141.211H314.196ZM310.457 156.33L309.728 155.9C307.319 159.985 303.943 163.154 299.582 165.413L299.971 166.165L300.361 166.917C304.995 164.516 308.61 161.128 311.187 156.76L310.457 156.33ZM299.971 166.165L299.578 165.415C295.277 167.671 290.214 168.814 284.365 168.814V169.661V170.507C290.437 170.507 295.779 169.32 300.365 166.915L299.971 166.165ZM327.002 156.736L326.165 156.61L326.019 157.583H327.002V156.736ZM328.384 147.551V146.704H327.655L327.547 147.425L328.384 147.551ZM355.696 147.551L356.533 147.425L356.425 146.704H355.696V147.551ZM357.078 156.736V157.583H358.062L357.915 156.61L357.078 156.736ZM341.878 131.213L342.655 130.877L341.881 129.086L341.101 130.875L341.878 131.213ZM333.343 150.802L332.566 150.464L332.479 150.664L332.5 150.881L333.343 150.802ZM333.587 153.404L334.356 153.757L334.451 153.551L334.43 153.325L333.587 153.404ZM326.108 169.661V170.507H326.651L326.878 170.014L326.108 169.661ZM313.021 169.661L312.258 169.295L311.677 170.507H313.021V169.661ZM341.878 109.428L342.641 109.063L341.878 107.469L341.114 109.063L341.878 109.428ZM370.734 169.661V170.507H372.078L371.497 169.295L370.734 169.661ZM357.566 169.661L356.797 170.017L357.025 170.507H357.566V169.661ZM350.25 153.891L349.405 153.844L349.393 154.056L349.482 154.248L350.25 153.891ZM350.413 150.965L351.258 151.012L351.269 150.813L351.19 150.629L350.413 150.965ZM327.002 156.736L327.84 156.862L329.222 147.677L328.384 147.551L327.547 147.425L326.165 156.61L327.002 156.736ZM328.384 147.551V148.398H355.696V147.551V146.704H328.384V147.551ZM355.696 147.551L354.859 147.677L356.241 156.862L357.078 156.736L357.915 156.61L356.533 147.425L355.696 147.551ZM357.078 156.736V155.89H327.002V156.736V157.583H357.078V156.736ZM341.878 131.213L341.101 130.875L332.566 150.464L333.343 150.802L334.119 151.141L342.654 131.551L341.878 131.213ZM333.343 150.802L332.5 150.881L332.743 153.483L333.587 153.404L334.43 153.325L334.186 150.723L333.343 150.802ZM333.587 153.404L332.817 153.05L325.339 169.307L326.108 169.661L326.878 170.014L334.356 153.757L333.587 153.404ZM326.108 169.661V168.814H313.021V169.661V170.507H326.108V169.661ZM313.021 169.661L313.785 170.026L342.641 109.794L341.878 109.428L341.114 109.063L312.258 169.295L313.021 169.661ZM341.878 109.428L341.114 109.794L369.97 170.026L370.734 169.661L371.497 169.295L342.641 109.063L341.878 109.428ZM370.734 169.661V168.814H357.566V169.661V170.507H370.734V169.661ZM357.566 169.661L358.334 169.304L351.018 153.535L350.25 153.891L349.482 154.248L356.797 170.017L357.566 169.661ZM350.25 153.891L351.095 153.938L351.258 151.012L350.413 150.965L349.567 150.918L349.405 153.844L350.25 153.891ZM350.413 150.965L351.19 150.629L342.655 130.877L341.878 131.213L341.1 131.549L349.635 151.301L350.413 150.965ZM401.185 112.761V111.914H400.678L400.439 112.361L401.185 112.761ZM414.435 112.761L415.165 113.19L415.914 111.914H414.435V112.761ZM394.845 146.088L394.115 145.659L393.998 145.857V146.088H394.845ZM394.845 169.661V170.507H395.692V169.661H394.845ZM383.059 169.661H382.212V170.507H383.059V169.661ZM383.059 146.169H383.905V145.939L383.789 145.741L383.059 146.169ZM363.469 112.761V111.914H361.991L362.739 113.189L363.469 112.761ZM376.718 112.761L377.466 112.363L377.227 111.914H376.718V112.761ZM388.911 135.683L388.164 136.081L388.909 137.482L389.658 136.083L388.911 135.683ZM401.185 112.761V113.608H414.435V112.761V111.914H401.185V112.761ZM414.435 112.761L413.705 112.332L394.115 145.659L394.845 146.088L395.575 146.517L415.165 113.19L414.435 112.761ZM394.845 146.088H393.998V169.661H394.845H395.692V146.088H394.845ZM394.845 169.661V168.814H383.059V169.661V170.507H394.845V169.661ZM383.059 169.661H383.905V146.169H383.059H382.212V169.661H383.059ZM383.059 146.169L383.789 145.741L364.199 112.333L363.469 112.761L362.739 113.189L382.328 146.598L383.059 146.169ZM363.469 112.761V113.608H376.718V112.761V111.914H363.469V112.761ZM376.718 112.761L375.971 113.159L388.164 136.081L388.911 135.683L389.659 135.286L377.466 112.363L376.718 112.761ZM388.911 135.683L389.658 136.083L401.932 113.161L401.185 112.761L400.439 112.361L388.165 135.284L388.911 135.683Z" fill="white" mask="url(#path-3-outside-2_95_147)"/>
<path d="M344.05 8.60972L372.108 0.0326792C372.413 -0.0433085 372.699 0.0516819 372.966 0.317638L373.014 0.403115L386.762 26.2387C387.143 26.9226 387.21 27.73 386.952 28.4803C386.666 29.2402 386.113 29.8291 385.379 30.1425L356.386 42.101C355.996 42.2625 355.557 42.2625 355.147 42.101C354.947 42.0155 354.775 41.9015 354.623 41.7496C354.48 41.6071 354.356 41.4266 354.27 41.2272L342.276 12.3711C341.981 11.6207 342 10.8228 342.333 10.1105C342.686 9.37909 343.296 8.84718 344.05 8.60972ZM303.95 0.403127C304.122 0.0801825 304.484 -0.0717951 304.856 0.0326865L332.923 8.60022C333.705 8.84718 334.306 9.38859 334.63 10.1105C334.973 10.8133 335.002 11.6207 334.687 12.3711L322.684 41.2177C322.331 42.044 321.387 42.4334 320.568 42.1105L291.575 30.133C291.232 29.9811 290.936 29.7816 290.679 29.5252C290.393 29.2402 290.183 28.8983 290.03 28.4993C289.773 27.7489 289.83 26.9701 290.192 26.2482L303.95 0.403127ZM297.362 66.4643L268.379 78.4133C267.645 78.7267 266.834 78.6983 266.11 78.3373C265.805 78.2043 265.538 78.0144 265.309 77.7864C264.994 77.4729 264.756 77.0835 264.632 76.6371L255.994 48.6929C255.889 48.3414 256.071 47.952 256.395 47.781L282.327 34.0844C283.042 33.7139 283.824 33.6569 284.577 33.9134C285.33 34.1888 285.902 34.7208 286.236 35.4711L298.239 64.3557C298.573 65.1821 298.182 66.1224 297.362 66.4643ZM309.48 68.1265L309.356 68.0791C307.258 67.1862 305.399 65.9419 303.845 64.3937C302.291 62.8455 301.023 60.9743 300.146 58.8846L290.002 34.4168L290.536 33.8849L315.219 44.0767C319.319 45.8244 322.551 49.0443 324.295 53.1381L334.592 77.9099L334.744 78.5558L309.48 68.1265ZM327.975 51.8463C327.937 51.7704 327.899 51.6754 327.88 51.6374C326.193 47.4106 326.231 42.8324 327.937 38.7006L338.491 13.3494L349.074 38.8051C350.752 42.9464 350.771 47.4866 349.103 51.5994C349.055 51.7039 349.026 51.7514 349.026 51.7893L338.482 77.131L327.975 51.8463ZM367.818 67.9841L342.067 78.6128L352.687 53.0811C354.451 48.9493 357.721 45.7294 361.888 44.0102L387.343 33.505L376.741 59.0176C375.035 63.0354 371.87 66.2269 367.818 67.9841ZM410.844 78.3468C410.139 78.7078 409.328 78.7173 408.575 78.4228L379.592 66.4549C379.382 66.3599 379.22 66.2364 379.068 66.0844C378.925 65.9419 378.81 65.771 378.734 65.581C378.562 65.1821 378.562 64.7451 378.734 64.3462L390.747 35.4711C391.042 34.7398 391.624 34.1984 392.368 33.9324C393.13 33.6664 393.95 33.7234 394.637 34.1034L420.588 47.8C420.674 47.8285 420.74 47.895 420.779 47.933C420.979 48.1325 421.046 48.4269 420.969 48.6929L412.332 76.6561C412.208 77.0835 411.979 77.4635 411.664 77.7769C411.407 78.0334 411.14 78.2233 410.844 78.3468Z" fill="white"/>
<path d="M369.343 71.5555L343.239 82.3267L370.773 93.5994C371.059 93.7134 369.944 93.0693 370.23 93.1643C371.936 93.7627 373.71 94.0666 375.483 94.0856L375.95 94.0761C376.865 94.0571 377.762 93.9622 378.62 93.7912L378.715 93.7722L378.782 93.7057L379.859 93.4873L380.374 93.3543C380.545 93.2973 380.641 93.2593 380.641 93.2593L381.07 93.1168C381.241 93.0599 381.423 92.9932 381.604 92.9268L407.593 82.1937L381.804 71.546C377.781 69.8933 373.357 69.8933 369.343 71.5555Z" fill="white"/>
<path d="M324.724 85.6701C325.192 85.4706 333.248 82.1367 333.724 82.3266L307.954 71.6979L307.811 71.6315C303.645 69.9692 299.069 69.9692 294.94 71.6504L269.38 82.2031L295.246 92.8698C295.408 92.9363 295.56 92.9933 295.713 93.0503L296.332 93.2688L296.533 93.3352L296.676 93.3827C296.752 93.4017 296.819 93.4302 296.914 93.4492L297.314 93.5632C297.572 93.6297 297.801 93.6677 298.049 93.7247C299.002 93.9336 299.946 94.0381 300.851 94.0666L301.099 94.0666C303.235 94.1236 305.351 93.7437 307.401 92.9363L324.724 85.6701Z" fill="white"/>
</svg>
