<svg width="160" height="40" viewBox="0 0 160 40" fill="none" xmlns="http://www.w3.org/2000/svg">
<g clip-path="url(#clip0_14736_11478)">
<mask id="mask0_14736_11478" style="mask-type:luminance" maskUnits="userSpaceOnUse" x="0" y="0" width="160" height="40">
<path d="M160 0H0V40H160V0Z" fill="white"/>
</mask>
<g mask="url(#mask0_14736_11478)">
<path d="M26.0855 8.47075L34.0762 6.00938C34.1631 5.98757 34.2445 6.01483 34.3205 6.09115L34.3341 6.11568L38.2493 13.5298C38.3579 13.726 38.377 13.9577 38.3036 14.1731C38.2222 14.3911 38.0647 14.5601 37.8556 14.6501L29.5989 18.0818C29.4876 18.1282 29.3627 18.1282 29.2459 18.0818C29.1889 18.0573 29.14 18.0246 29.0966 17.981C29.0559 17.9401 29.0206 17.8883 28.9961 17.8311L25.5805 9.55016C25.4963 9.33482 25.5018 9.10586 25.5968 8.90142C25.6972 8.69154 25.871 8.5389 26.0855 8.47075ZM14.6656 6.11569C14.7145 6.02301 14.8177 5.9794 14.9236 6.00938L22.9169 8.46803C23.1396 8.5389 23.3106 8.69427 23.403 8.90143C23.5007 9.10313 23.5088 9.33483 23.4192 9.55016L20.0009 17.8283C19.9004 18.0655 19.6316 18.1772 19.3981 18.0846L11.1414 14.6474C11.0436 14.6037 10.9595 14.5465 10.8862 14.4729C10.8047 14.3911 10.745 14.293 10.7015 14.1785C10.6282 13.9632 10.6445 13.7397 10.7477 13.5325L14.6656 6.11569ZM12.7895 25.0734L4.53545 28.5025C4.32638 28.5924 4.0956 28.5842 3.88925 28.4807C3.80236 28.4425 3.72634 28.388 3.66117 28.3226C3.57157 28.2326 3.5037 28.1209 3.4684 27.9928L1.00848 19.9735C0.978617 19.8727 1.03021 19.7609 1.12252 19.7118L8.5077 15.7813C8.71134 15.675 8.93398 15.6586 9.14847 15.7322C9.36297 15.8113 9.52588 15.9639 9.62091 16.1792L13.0393 24.4683C13.1343 24.7055 13.023 24.9753 12.7895 25.0734ZM16.2404 25.5505L16.2051 25.5368C15.6078 25.2806 15.0783 24.9235 14.6358 24.4792C14.1932 24.0349 13.8321 23.4979 13.5823 22.8983L10.6934 15.8767L10.8454 15.724L17.8749 18.6488C19.0424 19.1503 19.9629 20.0744 20.4597 21.2492L23.3921 28.358L23.4355 28.5434L16.2404 25.5505ZM21.5078 20.8785C21.4969 20.8567 21.4861 20.8294 21.4806 20.8185C21.0001 19.6055 21.0109 18.2917 21.4969 17.106L24.5026 9.83091L27.5164 17.136C27.9943 18.3244 27.9997 19.6273 27.5245 20.8076C27.511 20.8376 27.5028 20.8512 27.5028 20.8621L24.4999 28.1345L21.5078 20.8785ZM32.8544 25.5096L25.5208 28.5597L28.5454 21.2328C29.0477 20.0471 29.979 19.1231 31.1655 18.6297L38.415 15.615L35.3957 22.9364C34.9097 24.0894 34.0083 25.0053 32.8544 25.5096ZM45.1078 28.4834C44.9069 28.587 44.6761 28.5897 44.4616 28.5052L36.2076 25.0707C36.1478 25.0435 36.1017 25.008 36.0582 24.9644C36.0175 24.9235 35.9849 24.8745 35.9632 24.82C35.9143 24.7055 35.9143 24.5801 35.9632 24.4656L39.3843 16.1792C39.4684 15.9694 39.6341 15.814 39.8458 15.7377C40.0631 15.6613 40.2966 15.6777 40.492 15.7867L47.8827 19.7173C47.9071 19.7255 47.9261 19.7446 47.937 19.7555C47.994 19.8127 48.013 19.8972 47.9913 19.9735L45.5313 27.9982C45.496 28.1209 45.4309 28.2299 45.3413 28.3198C45.268 28.3934 45.192 28.448 45.1078 28.4834Z" fill="white"/>
<path d="M33.2888 26.5345L25.8547 29.6255L33.6961 32.8605C33.7775 32.8932 33.4598 32.7083 33.5413 32.7356C34.0273 32.9073 34.5323 32.9945 35.0373 33L35.1704 32.9973C35.431 32.9918 35.6863 32.9646 35.9306 32.9155L35.9578 32.9101L35.9768 32.891L36.2836 32.8283L36.4302 32.7901C36.4791 32.7738 36.5062 32.7629 36.5062 32.7629L36.6284 32.722C36.6772 32.7056 36.729 32.6865 36.7805 32.6675L44.1819 29.5873L36.8375 26.5317C35.6917 26.0575 34.4319 26.0575 33.2888 26.5345Z" fill="white"/>
<path d="M20.582 30.585C20.715 30.5277 23.0093 29.571 23.145 29.6255L15.806 26.5753L15.7653 26.5563C14.5788 26.0793 13.2755 26.0793 12.0999 26.5617L4.82057 29.59L12.1867 32.6511C12.2329 32.6702 12.2763 32.6865 12.3198 32.7029L12.4963 32.7656L12.5533 32.7847L12.594 32.7983C12.6157 32.8037 12.6347 32.8119 12.6619 32.8174L12.7759 32.8501C12.8492 32.8692 12.9144 32.8801 12.985 32.8964C13.2565 32.9564 13.5253 32.9864 13.7832 32.9945L13.8538 32.9945C14.462 33.0109 15.0648 32.9019 15.6485 32.6702L20.582 30.585Z" fill="white"/>
<path d="M58.2383 11.8478H61.7509V28.8049H58.2383V11.8478ZM67.9983 20.2053V18.6307H70.7357C71.2363 18.6307 71.6723 18.5499 72.0438 18.3884C72.4152 18.2269 72.6978 17.9928 72.8916 17.6859C73.1016 17.3791 73.2066 17.0157 73.2066 16.5958C73.2066 15.9498 72.9805 15.4573 72.5283 15.1181C72.0922 14.779 71.4947 14.6094 70.7357 14.6094H68.8704V26.0434H71.099C71.6804 26.0434 72.2053 25.9626 72.6736 25.8011C73.142 25.6235 73.5053 25.3489 73.7637 24.9775C74.0383 24.606 74.1755 24.1296 74.1755 23.5482C74.1755 23.1284 74.0948 22.7731 73.9333 22.4824C73.7879 22.1755 73.5699 21.9252 73.2792 21.7314C73.0047 21.5215 72.6817 21.3761 72.3102 21.2954C71.9388 21.1985 71.5351 21.15 71.099 21.15H67.9983V19.2605H71.4139C72.2376 19.2605 73.0208 19.3493 73.7637 19.527C74.5227 19.7046 75.201 19.9873 75.7986 20.3748C76.3961 20.7463 76.8644 21.2308 77.2036 21.8283C77.5589 22.4258 77.7365 23.1445 77.7365 23.9843C77.7365 25.0986 77.4701 26.0111 76.9371 26.7216C76.4203 27.4322 75.6855 27.9571 74.7327 28.2962C73.7799 28.6354 72.6736 28.8049 71.4139 28.8049H65.4063V11.8478H71.0506C72.1811 11.8478 73.1743 12.0093 74.0302 12.3323C74.8861 12.6392 75.5563 13.1075 76.0408 13.7373C76.5253 14.3672 76.7675 15.1666 76.7675 16.1356C76.7675 16.9915 76.5253 17.7263 76.0408 18.34C75.5563 18.9537 74.8861 19.422 74.0302 19.745C73.1743 20.0519 72.1811 20.2053 71.0506 20.2053H67.9983ZM95.8857 22.3855L99.5194 11.8478H103.589L96.4429 29.7497L91.1135 18.6065L85.7599 29.7497L78.6379 11.8478H82.7076L86.3897 22.3855L91.1135 11L95.8857 22.3855ZM104.195 28.8049L112.214 20.2537C112.585 19.85 112.9 19.4543 113.158 19.0667C113.433 18.663 113.635 18.2592 113.764 17.8555C113.909 17.4356 113.982 16.9996 113.982 16.5474C113.982 16.1759 113.909 15.8126 113.764 15.4573C113.619 15.102 113.401 14.779 113.11 14.4883C112.835 14.1976 112.496 13.9634 112.092 13.7858C111.689 13.6082 111.228 13.5193 110.712 13.5193C109.985 13.5193 109.355 13.6889 108.822 14.028C108.305 14.351 107.91 14.8274 107.635 15.4573C107.361 16.071 107.223 16.8058 107.223 17.6617H105.164C105.164 16.4505 105.382 15.3927 105.818 14.4883C106.254 13.5678 106.884 12.8572 107.708 12.3566C108.548 11.8398 109.549 11.5814 110.712 11.5814C111.648 11.5814 112.456 11.7429 113.134 12.0659C113.812 12.3727 114.37 12.7764 114.806 13.2771C115.242 13.7616 115.565 14.2864 115.775 14.8517C115.985 15.4169 116.089 15.9579 116.089 16.4747C116.089 17.3468 115.88 18.2108 115.46 19.0667C115.04 19.9227 114.499 20.6898 113.837 21.368L108.435 26.867H116.162V28.8049H104.195ZM120.531 20.3264C120.531 21.3115 120.628 22.224 120.821 23.0638C121.015 23.8874 121.298 24.606 121.669 25.2197C122.041 25.8173 122.485 26.2856 123.002 26.6247C123.535 26.9477 124.124 27.1092 124.77 27.1092C125.432 27.1092 126.022 26.9477 126.538 26.6247C127.055 26.2856 127.499 25.8173 127.871 25.2197C128.242 24.606 128.525 23.8874 128.719 23.0638C128.912 22.224 129.009 21.3115 129.009 20.3264C129.009 19.3413 128.912 18.4369 128.719 17.6133C128.525 16.7735 128.242 16.0548 127.871 15.4573C127.499 14.8436 127.055 14.3753 126.538 14.0523C126.022 13.7131 125.432 13.5436 124.77 13.5436C124.124 13.5436 123.535 13.7131 123.002 14.0523C122.485 14.3753 122.041 14.8436 121.669 15.4573C121.298 16.0548 121.015 16.7735 120.821 17.6133C120.628 18.4369 120.531 19.3413 120.531 20.3264ZM118.472 20.3264C118.472 18.6307 118.738 17.1288 119.271 15.8207C119.804 14.5125 120.539 13.487 121.475 12.7441C122.428 11.9851 123.526 11.6056 124.77 11.6056C126.013 11.6056 127.104 11.9851 128.04 12.7441C128.993 13.487 129.736 14.5125 130.269 15.8207C130.802 17.1288 131.068 18.6307 131.068 20.3264C131.068 22.0221 130.802 23.524 130.269 24.8321C129.736 26.1403 128.993 27.1738 128.04 27.9329C127.104 28.6757 126.013 29.0472 124.77 29.0472C123.526 29.0472 122.428 28.6757 121.475 27.9329C120.539 27.1738 119.804 26.1403 119.271 24.8321C118.738 23.524 118.472 22.0221 118.472 20.3264ZM132.512 28.8049L140.531 20.2537C140.902 19.85 141.217 19.4543 141.475 19.0667C141.75 18.663 141.952 18.2592 142.081 17.8555C142.226 17.4356 142.299 16.9996 142.299 16.5474C142.299 16.1759 142.226 15.8126 142.081 15.4573C141.936 15.102 141.718 14.779 141.427 14.4883C141.152 14.1976 140.813 13.9634 140.409 13.7858C140.006 13.6082 139.545 13.5193 139.029 13.5193C138.302 13.5193 137.672 13.6889 137.139 14.028C136.622 14.351 136.227 14.8274 135.952 15.4573C135.678 16.071 135.54 16.8058 135.54 17.6617H133.481C133.481 16.4505 133.699 15.3927 134.135 14.4883C134.571 13.5678 135.201 12.8572 136.025 12.3566C136.865 11.8398 137.866 11.5814 139.029 11.5814C139.965 11.5814 140.773 11.7429 141.451 12.0659C142.129 12.3727 142.687 12.7764 143.123 13.2771C143.559 13.7616 143.882 14.2864 144.092 14.8517C144.302 15.4169 144.407 15.9579 144.407 16.4747C144.407 17.3468 144.197 18.2108 143.777 19.0667C143.357 19.9227 142.816 20.6898 142.154 21.368L136.752 26.867H144.479V28.8049H132.512ZM158.513 23.2333C158.513 24.2023 158.36 25.0502 158.053 25.7769C157.746 26.5036 157.318 27.1092 156.769 27.5937C156.22 28.0782 155.59 28.4416 154.88 28.6838C154.169 28.9261 153.402 29.0472 152.578 29.0472C151.545 29.0472 150.64 28.8857 149.865 28.5627C149.106 28.2397 148.452 27.8117 147.903 27.2788C147.37 26.7297 146.918 26.1322 146.546 25.4862L148.291 24.2992C148.549 24.7837 148.888 25.244 149.308 25.68C149.744 26.0999 150.245 26.4471 150.81 26.7216C151.375 26.98 151.965 27.1092 152.578 27.1092C153.386 27.1092 154.072 26.9477 154.637 26.6247C155.203 26.3018 155.631 25.8496 155.921 25.2682C156.228 24.6868 156.382 24.0085 156.382 23.2333C156.382 22.4581 156.212 21.7799 155.873 21.1985C155.55 20.6171 155.098 20.1649 154.516 19.8419C153.951 19.5189 153.305 19.3574 152.578 19.3574C152.045 19.3574 151.553 19.4059 151.101 19.5028C150.665 19.5835 150.22 19.7369 149.768 19.963C149.332 20.173 148.823 20.4798 148.242 20.8836L150.471 11.8478H158.465V13.6647H152.07L150.931 18.1462C151.335 17.9363 151.747 17.7828 152.166 17.6859C152.602 17.5729 153.03 17.5164 153.45 17.5164C154.419 17.5164 155.283 17.7586 156.042 18.2431C156.818 18.7276 157.423 19.3978 157.859 20.2537C158.295 21.1097 158.513 22.1029 158.513 23.2333Z" fill="white"/>
</g>
</g>
<defs>
<clipPath id="clip0_14736_11478">
<rect width="160" height="40" fill="white"/>
</clipPath>
</defs>
</svg>
