<svg width="20" height="20" viewBox="0 0 20 20" fill="none" xmlns="http://www.w3.org/2000/svg">
<path d="M16.6666 8.33332C16.6666 12.4942 12.0508 16.8275 10.5008 18.1658C10.3564 18.2744 10.1806 18.3331 9.99998 18.3331C9.81931 18.3331 9.64354 18.2744 9.49915 18.1658C7.94915 16.8275 3.33331 12.4942 3.33331 8.33332C3.33331 6.56521 4.03569 4.86952 5.28593 3.61928C6.53618 2.36904 8.23187 1.66666 9.99998 1.66666C11.7681 1.66666 13.4638 2.36904 14.714 3.61928C15.9643 4.86952 16.6666 6.56521 16.6666 8.33332Z" stroke="white" stroke-width="1.25" stroke-linecap="round" stroke-linejoin="round"/>
<path d="M9.99998 10.8333C11.3807 10.8333 12.5 9.71403 12.5 8.33332C12.5 6.95261 11.3807 5.83332 9.99998 5.83332C8.61927 5.83332 7.49998 6.95261 7.49998 8.33332C7.49998 9.71403 8.61927 10.8333 9.99998 10.8333Z" stroke="white" stroke-width="1.25" stroke-linecap="round" stroke-linejoin="round"/>
</svg>
