<svg width="33" height="33" viewBox="0 0 33 33" fill="none" xmlns="http://www.w3.org/2000/svg">
<g clip-path="url(#clip0_170_621)">
<path d="M9.20071 8.5681C9.94671 9.1741 10.2267 9.1281 11.6287 9.0341L24.8437 8.2411C25.1237 8.2411 24.8907 7.9611 24.7977 7.9151L22.6017 6.3281C22.1817 6.0021 21.6207 5.6281 20.5467 5.7211L7.75171 6.6551C7.28571 6.7011 7.19171 6.9351 7.37771 7.1211L9.20071 8.5681ZM9.99371 11.6481V25.5521C9.99371 26.2991 10.3667 26.5791 11.2077 26.5321L25.7307 25.6921C26.5717 25.6461 26.6657 25.1321 26.6657 24.5251V10.7141C26.6657 10.1081 26.4327 9.7811 25.9177 9.8271L10.7407 10.7141C10.1807 10.7611 9.99371 11.0411 9.99371 11.6471V11.6481ZM24.3307 12.3931C24.4237 12.8131 24.3307 13.2331 23.9107 13.2811L23.2107 13.4211V23.6851C22.6027 24.0121 22.0427 24.1991 21.5757 24.1991C20.8277 24.1991 20.6407 23.9651 20.0807 23.2661L15.5037 16.0801V23.0321L16.9517 23.3601C16.9517 23.3601 16.9517 24.2001 15.7837 24.2001L12.5617 24.3861C12.4687 24.2001 12.5617 23.7331 12.8887 23.6401L13.7287 23.4071V14.2141L12.5637 14.1201C12.4697 13.7001 12.7037 13.0941 13.3567 13.0471L16.8127 12.8141L21.5767 20.0931V13.6531L20.3617 13.5141C20.2687 13.0001 20.6417 12.6271 21.1087 12.5811L24.3307 12.3931ZM6.67771 5.3951L19.9877 4.4151C21.6217 4.2751 22.0427 4.3681 23.0697 5.1151L27.3187 8.1011C28.0187 8.6141 28.2527 8.7541 28.2527 9.3141V25.6921C28.2527 26.7181 27.8797 27.3261 26.5727 27.4181L11.1147 28.3521C10.1347 28.3991 9.66671 28.2591 9.15271 27.6051L6.02371 23.5451C5.46371 22.7981 5.23071 22.2391 5.23071 21.5851V7.0271C5.23071 6.1881 5.60471 5.4871 6.67771 5.3951Z" fill="white"/>
</g>
<defs>
<clipPath id="clip0_170_621">
<rect width="24" height="24" fill="white" transform="translate(4.74146 4.36035)"/>
</clipPath>
</defs>
</svg>
