<svg width="57" height="57" viewBox="0 0 57 57" fill="none" xmlns="http://www.w3.org/2000/svg">
<path d="M39.8174 25.0039C40.1854 25.0039 40.5419 25.1818 40.7676 25.4785L43.4395 29.041C43.7126 29.4032 43.7546 29.8785 43.5527 30.2822C43.3509 30.6919 42.9405 30.9414 42.4893 30.9414H40.708V42.8164C40.7079 44.455 39.3779 45.7852 37.7393 45.7852H19.9268C18.2883 45.7849 16.9581 44.4549 16.958 42.8164V30.9414H15.1768C14.7257 30.9412 14.3161 30.6917 14.1143 30.2822C13.9124 29.8785 13.9544 29.4032 14.2275 29.041L16.8994 25.4785C17.125 25.1819 17.4808 25.0041 17.8486 25.0039H39.8174ZM15.1768 29.7539H42.4893L39.8174 26.1914H17.8486L15.1768 29.7539ZM28.833 10.1602C29.2546 10.1602 29.6349 10.3857 29.8486 10.7598L31.4404 13.5498L34.4385 14.2568C34.8422 14.3518 35.1632 14.6489 35.2998 15.0586C35.4362 15.4801 35.3464 15.9488 35.0674 16.2812L33.0674 18.6445C33.0555 18.6564 33.0488 18.7041 33.0488 18.7041L33.334 21.875C33.3754 22.3202 33.1794 22.7536 32.8232 23.0088C32.4848 23.2462 32.0634 23.2873 31.6895 23.1211L28.8154 21.833L25.9775 23.1211C25.8292 23.1864 25.669 23.2226 25.5088 23.2227C25.2773 23.2227 25.0456 23.1512 24.8438 23.0088C24.4876 22.7535 24.2916 22.3202 24.333 21.875L24.6182 18.7041C24.6182 18.681 24.6071 18.6464 24.6064 18.6445L22.5986 16.2812C22.3199 15.9489 22.2308 15.4799 22.3672 15.0586C22.5038 14.6489 22.8248 14.3518 23.2285 14.2568L26.2266 13.5566L27.8184 10.7598C28.032 10.3858 28.4116 10.1603 28.833 10.1602ZM36.7305 17.4629C36.962 17.2315 37.3359 17.2315 37.5674 17.4629L38.7549 18.6504C38.9864 18.8819 38.9863 19.2557 38.7549 19.4873C38.6361 19.6001 38.4874 19.6602 38.333 19.6602C38.1788 19.6601 38.0307 19.6059 37.9121 19.4873H37.918L36.7305 18.2998C36.4991 18.0682 36.499 17.6944 36.7305 17.4629ZM20.1055 17.457C20.337 17.2256 20.7108 17.2256 20.9424 17.457C21.1739 17.6886 21.1738 18.0624 20.9424 18.2939L19.7549 19.4814C19.6361 19.5943 19.4874 19.6543 19.333 19.6543C19.1788 19.6542 19.0307 19.6001 18.9121 19.4814C18.6806 19.2499 18.6806 18.8761 18.9121 18.6445L20.0996 17.457H20.1055ZM19.9268 14.9102C20.2533 14.9102 20.5205 15.1773 20.5205 15.5039C20.5204 15.8304 20.2532 16.0977 19.9268 16.0977H18.1455C17.8192 16.0974 17.5519 15.8302 17.5518 15.5039C17.5518 15.1775 17.8192 14.9104 18.1455 14.9102H19.9268ZM39.5205 14.9102C39.8471 14.9102 40.1143 15.1773 40.1143 15.5039C40.1141 15.8304 39.847 16.0977 39.5205 16.0977H37.7393C37.413 16.0974 37.1456 15.8302 37.1455 15.5039C37.1455 15.1775 37.4129 14.9104 37.7393 14.9102H39.5205ZM18.918 11.5254C19.1495 11.294 19.5234 11.294 19.7549 11.5254L20.9424 12.7129C21.1739 12.9444 21.1738 13.3182 20.9424 13.5498C20.8236 13.6626 20.6749 13.7227 20.5205 13.7227C20.3663 13.7226 20.2182 13.6684 20.0996 13.5498H20.1055L18.918 12.3623C18.6866 12.1307 18.6865 11.7569 18.918 11.5254ZM37.1523 13.7227H37.1455L37.1484 13.7217C37.1496 13.7217 37.1512 13.7227 37.1523 13.7227ZM37.918 11.5254C38.1495 11.294 38.5234 11.294 38.7549 11.5254C38.9864 11.7569 38.9863 12.1307 38.7549 12.3623L37.5674 13.5498C37.4493 13.662 37.3019 13.721 37.1484 13.7217C36.9953 13.7209 36.8483 13.6677 36.7305 13.5498C36.4991 13.3182 36.499 12.9444 36.7305 12.7129L37.918 11.5254Z" fill="black"/>
<path d="M39.8174 25.0039C40.1854 25.0039 40.5419 25.1818 40.7676 25.4785L43.4395 29.041C43.7126 29.4032 43.7546 29.8785 43.5527 30.2822C43.3509 30.6919 42.9405 30.9414 42.4893 30.9414H40.708V42.8164C40.7079 44.455 39.3779 45.7852 37.7393 45.7852H19.9268C18.2883 45.7849 16.9581 44.4549 16.958 42.8164V30.9414H15.1768C14.7257 30.9412 14.3161 30.6917 14.1143 30.2822C13.9124 29.8785 13.9544 29.4032 14.2275 29.041L16.8994 25.4785C17.125 25.1819 17.4808 25.0041 17.8486 25.0039H39.8174ZM15.1768 29.7539H42.4893L39.8174 26.1914H17.8486L15.1768 29.7539ZM28.833 10.1602C29.2546 10.1602 29.6349 10.3857 29.8486 10.7598L31.4404 13.5498L34.4385 14.2568C34.8422 14.3518 35.1632 14.6489 35.2998 15.0586C35.4362 15.4801 35.3464 15.9488 35.0674 16.2812L33.0674 18.6445C33.0555 18.6564 33.0488 18.7041 33.0488 18.7041L33.334 21.875C33.3754 22.3202 33.1794 22.7536 32.8232 23.0088C32.4848 23.2462 32.0634 23.2873 31.6895 23.1211L28.8154 21.833L25.9775 23.1211C25.8292 23.1864 25.669 23.2226 25.5088 23.2227C25.2773 23.2227 25.0456 23.1512 24.8438 23.0088C24.4876 22.7535 24.2916 22.3202 24.333 21.875L24.6182 18.7041C24.6182 18.681 24.6071 18.6464 24.6064 18.6445L22.5986 16.2812C22.3199 15.9489 22.2308 15.4799 22.3672 15.0586C22.5038 14.6489 22.8248 14.3518 23.2285 14.2568L26.2266 13.5566L27.8184 10.7598C28.032 10.3858 28.4116 10.1603 28.833 10.1602ZM36.7305 17.4629C36.962 17.2315 37.3359 17.2315 37.5674 17.4629L38.7549 18.6504C38.9864 18.8819 38.9863 19.2557 38.7549 19.4873C38.6361 19.6001 38.4874 19.6602 38.333 19.6602C38.1788 19.6601 38.0307 19.6059 37.9121 19.4873H37.918L36.7305 18.2998C36.4991 18.0682 36.499 17.6944 36.7305 17.4629ZM20.1055 17.457C20.337 17.2256 20.7108 17.2256 20.9424 17.457C21.1739 17.6886 21.1738 18.0624 20.9424 18.2939L19.7549 19.4814C19.6361 19.5943 19.4874 19.6543 19.333 19.6543C19.1788 19.6542 19.0307 19.6001 18.9121 19.4814C18.6806 19.2499 18.6806 18.8761 18.9121 18.6445L20.0996 17.457H20.1055ZM19.9268 14.9102C20.2533 14.9102 20.5205 15.1773 20.5205 15.5039C20.5204 15.8304 20.2532 16.0977 19.9268 16.0977H18.1455C17.8192 16.0974 17.5519 15.8302 17.5518 15.5039C17.5518 15.1775 17.8192 14.9104 18.1455 14.9102H19.9268ZM39.5205 14.9102C39.8471 14.9102 40.1143 15.1773 40.1143 15.5039C40.1141 15.8304 39.847 16.0977 39.5205 16.0977H37.7393C37.413 16.0974 37.1456 15.8302 37.1455 15.5039C37.1455 15.1775 37.4129 14.9104 37.7393 14.9102H39.5205ZM18.918 11.5254C19.1495 11.294 19.5234 11.294 19.7549 11.5254L20.9424 12.7129C21.1739 12.9444 21.1738 13.3182 20.9424 13.5498C20.8236 13.6626 20.6749 13.7227 20.5205 13.7227C20.3663 13.7226 20.2182 13.6684 20.0996 13.5498H20.1055L18.918 12.3623C18.6866 12.1307 18.6865 11.7569 18.918 11.5254ZM37.1523 13.7227H37.1455L37.1484 13.7217C37.1496 13.7217 37.1512 13.7227 37.1523 13.7227ZM37.918 11.5254C38.1495 11.294 38.5234 11.294 38.7549 11.5254C38.9864 11.7569 38.9863 12.1307 38.7549 12.3623L37.5674 13.5498C37.4493 13.662 37.3019 13.721 37.1484 13.7217C36.9953 13.7209 36.8483 13.6677 36.7305 13.5498C36.4991 13.3182 36.499 12.9444 36.7305 12.7129L37.918 11.5254Z" fill="url(#paint0_linear_338_53178)"/>
<defs>
<linearGradient id="paint0_linear_338_53178" x1="13.9883" y1="15.5458" x2="38.305" y2="52.52" gradientUnits="userSpaceOnUse">
<stop stop-color="#0B3FA5"/>
<stop offset="1" stop-color="#7FAAFF"/>
</linearGradient>
</defs>
</svg>
