<svg width="56" height="56" viewBox="0 0 56 56" fill="none" xmlns="http://www.w3.org/2000/svg">
<path d="M16.7441 38.8955C19.0896 37.3154 22.112 37.1454 24.6201 38.4521L25.1309 38.7168C26.0115 39.1719 26.9835 39.4227 27.9746 39.4512L32.9941 39.5889C34.4846 39.6323 35.7378 40.7216 35.9893 42.1914L28.4053 41.9824C28.0701 41.9733 27.7904 42.2377 27.7812 42.5732C27.7723 42.9086 28.0367 43.1881 28.3721 43.1973L36.623 43.4238H36.6396C36.9684 43.4238 37.2383 43.1617 37.2471 42.833C37.2555 42.5152 37.2286 42.1978 37.168 41.8857L42.8057 39.2227C42.8107 39.2203 42.8159 39.2172 42.8203 39.2148C43.68 38.7797 44.7222 38.9534 45.3955 39.6426L33.5947 47.2754C32.0677 47.966 30.3613 48.1565 28.7197 47.8203L20.2021 45.4297C19.2654 45.165 18.2623 45.2744 17.4053 45.7354L16.543 46.1973L16.7441 38.8955ZM15.5889 36.7207L15.29 47.584L11 47.4658L11.2988 36.6025L15.5889 36.7207ZM28.7559 17.5098C33.5957 17.5098 37.5195 21.4336 37.5195 26.2734C37.5195 31.1132 33.5957 35.0371 28.7559 35.0371C23.916 35.0371 19.9922 31.1133 19.9922 26.2734C19.9976 21.436 23.9184 17.5152 28.7559 17.5098ZM28.6318 19.8096C28.2964 19.8096 28.0245 20.0816 28.0244 20.417V21.1582C26.6158 21.5191 25.697 22.8736 25.8828 24.3154C26.0689 25.7578 27.3016 26.8353 28.7559 26.8271C29.6668 26.8231 30.4116 27.5536 30.4248 28.4648C30.438 29.3758 29.7146 30.127 28.8037 30.1494C28.7591 30.1393 28.7136 30.1338 28.668 30.1338C28.6362 30.1341 28.6044 30.1365 28.5732 30.1416C27.7302 30.0491 27.0911 29.3383 27.0889 28.4902C27.0889 28.1511 26.8137 27.8752 26.4746 27.875C26.1354 27.875 25.8594 28.151 25.8594 28.4902C25.868 29.8026 26.7554 30.9461 28.0244 31.2812V32.043C28.0245 32.3784 28.2964 32.6504 28.6318 32.6504C28.9673 32.6503 29.2392 32.3784 29.2393 32.043V31.3193C30.7038 31.0604 31.7291 29.727 31.6035 28.2451C31.4778 26.7628 30.2423 25.6208 28.7549 25.6123C27.8376 25.6135 27.0929 24.871 27.0918 23.9541C27.0904 23.0367 27.8336 22.2921 28.751 22.291C29.6684 22.29 30.413 23.0328 30.4141 23.9502C30.4141 24.2816 30.6823 24.5507 31.0137 24.5508C31.3451 24.5508 31.6143 24.2816 31.6143 23.9502C31.6231 22.5523 30.6171 21.3543 29.2393 21.1211V20.417C29.2392 20.0816 28.9672 19.8096 28.6318 19.8096ZM23.5127 10.5264C23.8481 10.5264 24.12 10.7984 24.1201 11.1338V14.2578C24.1199 14.5931 23.8481 14.8643 23.5127 14.8643C23.1774 14.8641 22.9055 14.593 22.9053 14.2578V11.1338C22.9054 10.7985 23.1774 10.5265 23.5127 10.5264ZM28.7188 7.05664C29.054 7.05679 29.3259 7.32787 29.3262 7.66309V14.2568C29.3262 14.5923 29.0541 14.8641 28.7188 14.8643C28.3832 14.8643 28.1113 14.5923 28.1113 14.2568V7.66309C28.1116 7.32778 28.3834 7.05664 28.7188 7.05664ZM33.9238 10.5264C34.2593 10.5264 34.5311 10.7984 34.5312 11.1338V14.2578C34.531 14.5931 34.2592 14.8643 33.9238 14.8643C33.5885 14.8642 33.3166 14.5931 33.3164 14.2578V11.1338C33.3166 10.7985 33.5885 10.5265 33.9238 10.5264Z" fill="url(#paint0_linear_338_53119)"/>
<defs>
<linearGradient id="paint0_linear_338_53119" x1="11" y1="13.2436" x2="38.8412" y2="55.9335" gradientUnits="userSpaceOnUse">
<stop stop-color="#0B3FA5"/>
<stop offset="1" stop-color="#7FAAFF"/>
</linearGradient>
</defs>
</svg>
