<svg width="57" height="57" viewBox="0 0 57 57" fill="none" xmlns="http://www.w3.org/2000/svg">
<path d="M11.3242 36.5635C11.963 36.5635 12.4814 37.0771 12.4814 37.7158V44.3252H19.667C20.3057 44.3252 20.8242 44.8437 20.8242 45.4824C20.824 46.1209 20.3056 46.6387 19.667 46.6387H11.3242C10.6859 46.6384 10.1682 46.1207 10.168 45.4824V37.7158C10.168 37.0772 10.6857 36.5637 11.3242 36.5635ZM46.0117 36.5635C46.6502 36.5637 47.168 37.0811 47.168 37.7158V45.4824C47.1677 46.1207 46.65 46.6384 46.0117 46.6387H37.6689C37.0304 46.6387 36.512 46.1209 36.5117 45.4824C36.5117 44.8437 37.0302 44.3252 37.6689 44.3252H44.8545V37.7197C44.8545 37.081 45.373 36.5635 46.0117 36.5635ZM28.668 29.8994C31.5656 29.8994 34.152 30.6237 36.0137 31.8154C37.8752 33.0072 39.0088 34.6589 39.0088 36.5166H18.3271C18.3271 32.8049 22.8687 29.8994 28.668 29.8994ZM28.668 18.6045C31.258 18.6045 33.3613 20.7039 33.3613 23.2979C33.3612 25.8877 31.2579 27.9912 28.668 27.9912C27.375 27.9912 26.1986 27.4613 25.3496 26.6123C24.5006 25.7633 23.9786 24.5946 23.9746 23.2979C23.9746 20.7039 26.078 18.6045 28.668 18.6045ZM19.667 9.63867C20.3056 9.63867 20.824 10.1564 20.8242 10.7949C20.8242 11.4337 20.3057 11.9521 19.667 11.9521H12.4814V19.7139C12.4814 20.3526 11.963 20.8711 11.3242 20.8711C10.6857 20.8708 10.168 20.3525 10.168 19.7139V10.7949C10.1682 10.1566 10.6859 9.63893 11.3242 9.63867H19.667ZM46.0117 9.63867C46.65 9.63893 47.1677 10.1566 47.168 10.7949V19.7139C47.168 20.3525 46.6502 20.8708 46.0117 20.8711C45.373 20.8711 44.8545 20.3526 44.8545 19.7139V11.9521H37.6689C37.0302 11.9521 36.5117 11.4337 36.5117 10.7949C36.512 10.1564 37.0304 9.63867 37.6689 9.63867H46.0117Z" fill="black"/>
<path d="M11.3242 36.5635C11.963 36.5635 12.4814 37.0771 12.4814 37.7158V44.3252H19.667C20.3057 44.3252 20.8242 44.8437 20.8242 45.4824C20.824 46.1209 20.3056 46.6387 19.667 46.6387H11.3242C10.6859 46.6384 10.1682 46.1207 10.168 45.4824V37.7158C10.168 37.0772 10.6857 36.5637 11.3242 36.5635ZM46.0117 36.5635C46.6502 36.5637 47.168 37.0811 47.168 37.7158V45.4824C47.1677 46.1207 46.65 46.6384 46.0117 46.6387H37.6689C37.0304 46.6387 36.512 46.1209 36.5117 45.4824C36.5117 44.8437 37.0302 44.3252 37.6689 44.3252H44.8545V37.7197C44.8545 37.081 45.373 36.5635 46.0117 36.5635ZM28.668 29.8994C31.5656 29.8994 34.152 30.6237 36.0137 31.8154C37.8752 33.0072 39.0088 34.6589 39.0088 36.5166H18.3271C18.3271 32.8049 22.8687 29.8994 28.668 29.8994ZM28.668 18.6045C31.258 18.6045 33.3613 20.7039 33.3613 23.2979C33.3612 25.8877 31.2579 27.9912 28.668 27.9912C27.375 27.9912 26.1986 27.4613 25.3496 26.6123C24.5006 25.7633 23.9786 24.5946 23.9746 23.2979C23.9746 20.7039 26.078 18.6045 28.668 18.6045ZM19.667 9.63867C20.3056 9.63867 20.824 10.1564 20.8242 10.7949C20.8242 11.4337 20.3057 11.9521 19.667 11.9521H12.4814V19.7139C12.4814 20.3526 11.963 20.8711 11.3242 20.8711C10.6857 20.8708 10.168 20.3525 10.168 19.7139V10.7949C10.1682 10.1566 10.6859 9.63893 11.3242 9.63867H19.667ZM46.0117 9.63867C46.65 9.63893 47.1677 10.1566 47.168 10.7949V19.7139C47.168 20.3525 46.6502 20.8708 46.0117 20.8711C45.373 20.8711 44.8545 20.3526 44.8545 19.7139V11.9521H37.6689C37.0302 11.9521 36.5117 11.4337 36.5117 10.7949C36.512 10.1564 37.0304 9.63867 37.6689 9.63867H46.0117Z" fill="url(#paint0_linear_338_53172)"/>
<defs>
<linearGradient id="paint0_linear_338_53172" x1="10.168" y1="15.2322" x2="33.3543" y2="57.5342" gradientUnits="userSpaceOnUse">
<stop stop-color="#0B3FA5"/>
<stop offset="1" stop-color="#7FAAFF"/>
</linearGradient>
</defs>
</svg>
