<svg width="56" height="56" viewBox="0 0 56 56" fill="none" xmlns="http://www.w3.org/2000/svg">
<path d="M27.6426 10.0566C28.4096 10.0567 29.1451 10.3619 29.6875 10.9043C30.2298 11.4467 30.5352 12.1822 30.5352 12.9492C30.5485 13.1246 30.5485 13.3012 30.5352 13.4766L38.6201 18.1426C38.7505 18.0256 38.8925 17.922 39.0439 17.834C39.71 17.4543 40.4994 17.3516 41.2402 17.5488C41.9809 17.7461 42.6138 18.2273 43.0029 18.8877C43.3849 19.5545 43.488 20.3459 43.2881 21.0879C43.0881 21.8298 42.6018 22.4621 41.9365 22.8467C41.7862 22.9295 41.6265 22.9948 41.4609 23.04V32.3975C41.6252 32.4571 41.7843 32.5305 41.9365 32.6162C42.2771 32.8022 42.577 33.0546 42.8184 33.3584C43.0598 33.6623 43.2376 34.0119 43.3418 34.3857C43.446 34.7595 43.4751 35.1503 43.4258 35.5352C43.3764 35.9201 43.2499 36.2915 43.0547 36.627C42.8603 36.9465 42.6049 37.2248 42.3027 37.4453C42.0006 37.6659 41.6576 37.8244 41.2939 37.9121C41.0521 37.9841 40.8002 38.0185 40.5479 38.0146C40.0385 38.0145 39.538 37.8815 39.0957 37.6289C38.9442 37.5408 38.8023 37.4373 38.6719 37.3203L30.5859 41.9873C30.5992 42.1625 30.5992 42.3385 30.5859 42.5137C30.5859 43.2806 30.2815 44.0162 29.7393 44.5586C29.197 45.1009 28.4613 45.4061 27.6943 45.4062C26.9273 45.4062 26.1908 45.101 25.6484 44.5586C25.1063 44.0162 24.8018 43.2805 24.8018 42.5137C24.7885 42.3385 24.7885 42.1625 24.8018 41.9873L16.7168 37.3203C16.5863 37.4373 16.4435 37.5408 16.292 37.6289C15.8496 37.8815 15.3492 38.0145 14.8398 38.0146C14.6023 37.9968 14.3683 37.9448 14.1455 37.8604C13.7818 37.7726 13.4389 37.6141 13.1367 37.3936C12.8346 37.173 12.5792 36.8948 12.3848 36.5752C12.0028 35.9084 11.9006 35.117 12.1006 34.375C12.3006 33.6332 12.7861 33.0008 13.4512 32.6162C13.6034 32.5305 13.7626 32.4571 13.9268 32.3975V23.04C13.7612 22.9948 13.6015 22.9295 13.4512 22.8467C12.786 22.4621 12.3006 21.8297 12.1006 21.0879C11.9006 20.3459 12.0028 19.5545 12.3848 18.8877C12.7738 18.2273 13.4068 17.7461 14.1475 17.5488C14.8883 17.3516 15.6777 17.4543 16.3438 17.834C16.4952 17.9221 16.6371 18.0256 16.7676 18.1426L24.75 13.4766C24.7367 13.3012 24.7367 13.1246 24.75 12.9492C24.75 12.1822 25.0553 11.4467 25.5977 10.9043C26.1401 10.3619 26.8755 10.0566 27.6426 10.0566ZM29.5576 15.1348C29.0433 15.589 28.3806 15.8397 27.6943 15.8398C27.0079 15.8398 26.3445 15.5892 25.8301 15.1348L17.7188 19.7744C17.8535 20.4514 17.7394 21.1543 17.3975 21.7539C17.0579 22.3566 16.5095 22.8146 15.8555 23.04V32.4102C16.5084 32.6286 17.0589 33.079 17.4023 33.6758C17.7458 34.2727 17.858 34.975 17.7188 35.6494L25.8301 40.3291C26.3446 39.8746 27.0078 39.623 27.6943 39.623C28.3807 39.6231 29.0432 39.8746 29.5576 40.3291L37.6689 35.6494C37.5297 34.975 37.6419 34.2726 37.9854 33.6758C38.3288 33.0789 38.8801 32.6286 39.5332 32.4102L39.5195 23.0781C38.8657 22.8527 38.3171 22.3955 37.9775 21.793C37.64 21.1918 37.5304 20.4889 37.6689 19.8135L29.5576 15.1348ZM26.7295 28.2842V34.9688L21.4209 31.9092C21.2764 31.8227 21.1566 31.7001 21.0732 31.5537C20.99 31.4074 20.9458 31.2416 20.9453 31.0732V24.9424L26.7295 28.2842ZM34.4424 31.0732C34.4419 31.2416 34.3977 31.4073 34.3145 31.5537C34.2311 31.7001 34.1114 31.8227 33.9668 31.9092L28.6582 34.9688V28.2842L34.4424 24.9424V31.0732ZM27.6943 20.0869C27.865 20.087 28.033 20.1298 28.1826 20.2119L33.4785 23.2842L27.6943 26.6133L21.9092 23.2842L27.2051 20.2119C27.3548 20.1298 27.5236 20.0869 27.6943 20.0869Z" fill="black"/>
<path d="M27.6426 10.0566C28.4096 10.0567 29.1451 10.3619 29.6875 10.9043C30.2298 11.4467 30.5352 12.1822 30.5352 12.9492C30.5485 13.1246 30.5485 13.3012 30.5352 13.4766L38.6201 18.1426C38.7505 18.0256 38.8925 17.922 39.0439 17.834C39.71 17.4543 40.4994 17.3516 41.2402 17.5488C41.9809 17.7461 42.6138 18.2273 43.0029 18.8877C43.3849 19.5545 43.488 20.3459 43.2881 21.0879C43.0881 21.8298 42.6018 22.4621 41.9365 22.8467C41.7862 22.9295 41.6265 22.9948 41.4609 23.04V32.3975C41.6252 32.4571 41.7843 32.5305 41.9365 32.6162C42.2771 32.8022 42.577 33.0546 42.8184 33.3584C43.0598 33.6623 43.2376 34.0119 43.3418 34.3857C43.446 34.7595 43.4751 35.1503 43.4258 35.5352C43.3764 35.9201 43.2499 36.2915 43.0547 36.627C42.8603 36.9465 42.6049 37.2248 42.3027 37.4453C42.0006 37.6659 41.6576 37.8244 41.2939 37.9121C41.0521 37.9841 40.8002 38.0185 40.5479 38.0146C40.0385 38.0145 39.538 37.8815 39.0957 37.6289C38.9442 37.5408 38.8023 37.4373 38.6719 37.3203L30.5859 41.9873C30.5992 42.1625 30.5992 42.3385 30.5859 42.5137C30.5859 43.2806 30.2815 44.0162 29.7393 44.5586C29.197 45.1009 28.4613 45.4061 27.6943 45.4062C26.9273 45.4062 26.1908 45.101 25.6484 44.5586C25.1063 44.0162 24.8018 43.2805 24.8018 42.5137C24.7885 42.3385 24.7885 42.1625 24.8018 41.9873L16.7168 37.3203C16.5863 37.4373 16.4435 37.5408 16.292 37.6289C15.8496 37.8815 15.3492 38.0145 14.8398 38.0146C14.6023 37.9968 14.3683 37.9448 14.1455 37.8604C13.7818 37.7726 13.4389 37.6141 13.1367 37.3936C12.8346 37.173 12.5792 36.8948 12.3848 36.5752C12.0028 35.9084 11.9006 35.117 12.1006 34.375C12.3006 33.6332 12.7861 33.0008 13.4512 32.6162C13.6034 32.5305 13.7626 32.4571 13.9268 32.3975V23.04C13.7612 22.9948 13.6015 22.9295 13.4512 22.8467C12.786 22.4621 12.3006 21.8297 12.1006 21.0879C11.9006 20.3459 12.0028 19.5545 12.3848 18.8877C12.7738 18.2273 13.4068 17.7461 14.1475 17.5488C14.8883 17.3516 15.6777 17.4543 16.3438 17.834C16.4952 17.9221 16.6371 18.0256 16.7676 18.1426L24.75 13.4766C24.7367 13.3012 24.7367 13.1246 24.75 12.9492C24.75 12.1822 25.0553 11.4467 25.5977 10.9043C26.1401 10.3619 26.8755 10.0566 27.6426 10.0566ZM29.5576 15.1348C29.0433 15.589 28.3806 15.8397 27.6943 15.8398C27.0079 15.8398 26.3445 15.5892 25.8301 15.1348L17.7188 19.7744C17.8535 20.4514 17.7394 21.1543 17.3975 21.7539C17.0579 22.3566 16.5095 22.8146 15.8555 23.04V32.4102C16.5084 32.6286 17.0589 33.079 17.4023 33.6758C17.7458 34.2727 17.858 34.975 17.7188 35.6494L25.8301 40.3291C26.3446 39.8746 27.0078 39.623 27.6943 39.623C28.3807 39.6231 29.0432 39.8746 29.5576 40.3291L37.6689 35.6494C37.5297 34.975 37.6419 34.2726 37.9854 33.6758C38.3288 33.0789 38.8801 32.6286 39.5332 32.4102L39.5195 23.0781C38.8657 22.8527 38.3171 22.3955 37.9775 21.793C37.64 21.1918 37.5304 20.4889 37.6689 19.8135L29.5576 15.1348ZM26.7295 28.2842V34.9688L21.4209 31.9092C21.2764 31.8227 21.1566 31.7001 21.0732 31.5537C20.99 31.4074 20.9458 31.2416 20.9453 31.0732V24.9424L26.7295 28.2842ZM34.4424 31.0732C34.4419 31.2416 34.3977 31.4073 34.3145 31.5537C34.2311 31.7001 34.1114 31.8227 33.9668 31.9092L28.6582 34.9688V28.2842L34.4424 24.9424V31.0732ZM27.6943 20.0869C27.865 20.087 28.033 20.1298 28.1826 20.2119L33.4785 23.2842L27.6943 26.6133L21.9092 23.2842L27.2051 20.2119C27.3548 20.1298 27.5236 20.0869 27.6943 20.0869Z" fill="url(#paint0_linear_338_53165)"/>
<defs>
<linearGradient id="paint0_linear_338_53165" x1="12" y1="15.4006" x2="35.4713" y2="53.497" gradientUnits="userSpaceOnUse">
<stop stop-color="#0B3FA5"/>
<stop offset="1" stop-color="#7FAAFF"/>
</linearGradient>
</defs>
</svg>
