<svg width="56" height="56" viewBox="0 0 56 56" fill="none" xmlns="http://www.w3.org/2000/svg">
<path fill-rule="evenodd" clip-rule="evenodd" d="M18.4124 23.8489C18.7067 23.6171 18.9672 23.3403 19.1854 23.0276L21.782 24.619L20.3064 27.3317L18.4124 23.8488V23.8489ZM27.0222 16.762C27.4879 16.9774 27.9904 17.0886 28.4983 17.0886C29.0063 17.0886 29.5088 16.9774 29.9745 16.762L34.069 24.293L31.4735 25.8847C31.1296 25.3903 30.6813 24.9885 30.1646 24.7117C29.6478 24.4348 29.0771 24.2905 28.4983 24.2905C27.9195 24.2905 27.3488 24.4348 26.8321 24.7117C26.3154 24.9885 25.867 25.3903 25.5232 25.8847L22.9273 24.2933L27.0222 16.7624V16.762ZM37.8109 23.0276C38.0293 23.3401 38.2898 23.6168 38.5839 23.8489L36.69 27.3317L35.2147 24.619L37.8109 23.0276ZM38.5839 32.5959C38.2897 32.8278 38.0293 33.1044 37.8109 33.4168L35.2147 31.8258L36.69 29.1127L38.584 32.5957L38.5839 32.5959ZM29.9745 39.6823C29.5088 39.4669 29.0063 39.3557 28.4983 39.3557C27.9904 39.3557 27.4879 39.4669 27.0222 39.6823L22.9273 32.1517L25.5232 30.5604C25.867 31.0548 26.3154 31.4565 26.8321 31.7334C27.3488 32.0103 27.9195 32.1545 28.4983 32.1545C29.0771 32.1545 29.6478 32.0103 30.1646 31.7334C30.6813 31.4565 31.1296 31.0548 31.4735 30.5604L34.069 32.1517L29.9745 39.6823ZM25.1032 29.7896C24.8998 29.2953 24.7949 28.7617 24.7949 28.2222C24.7949 27.6828 24.8998 27.1492 25.1032 26.6549L22.508 25.0642L20.7906 28.2222L22.508 31.3807L25.1032 29.7897V29.7896ZM31.8935 26.6549C32.0968 27.1492 32.2018 27.6828 32.2018 28.2222C32.2018 28.7617 32.0968 29.2953 31.8935 29.7896L34.4884 31.3806L36.2057 28.2222L34.4884 25.0644L31.8935 26.655V26.6549ZM19.1854 33.4168C18.9672 33.1043 18.7067 32.8277 18.4124 32.596L20.3064 29.1127L21.782 31.8258L19.1854 33.4168ZM17.6864 32.1503C16.8954 31.7852 16.0091 31.7246 15.1805 31.979C14.3519 32.2334 13.6329 32.7869 13.1476 33.544C12.6622 34.3011 12.4409 35.2144 12.5218 36.1262C12.6027 37.038 12.9808 37.8913 13.5908 38.5388C14.2008 39.1863 15.0045 39.5875 15.8633 39.6731C16.7221 39.7587 17.5821 39.5234 18.295 39.0078C19.0078 38.4921 19.5289 37.7285 19.7683 36.8486C20.0076 35.9687 19.9503 35.0277 19.6061 34.1879L22.2013 32.597L26.2958 40.1283C25.6691 40.6204 25.2047 41.31 24.9685 42.0987C24.7324 42.8874 24.7366 43.7351 24.9806 44.5212C25.2246 45.3072 25.6959 45.9914 26.3275 46.4765C26.959 46.9615 27.7186 47.2227 28.4981 47.2227C29.2775 47.2227 30.0371 46.9615 30.6687 46.4765C31.3002 45.9914 31.7716 45.3072 32.0156 44.5212C32.2596 43.7351 32.2638 42.8874 32.0277 42.0987C31.7915 41.31 31.327 40.6204 30.7003 40.1283L34.7954 32.597L37.3903 34.1879C37.0452 35.0289 36.9874 35.9714 37.2268 36.8528C37.4663 37.7341 37.988 38.4991 38.7019 39.0157C39.4158 39.5323 40.2772 39.7681 41.1373 39.6824C41.9975 39.5967 42.8025 39.1949 43.4134 38.5463C44.0243 37.8977 44.4029 37.043 44.4837 36.1297C44.5646 35.2164 44.3426 34.3018 43.8562 33.5437C43.3698 32.7856 42.6494 32.2315 41.8193 31.9771C40.9893 31.7228 40.1017 31.784 39.3096 32.1503L37.1743 28.2222L39.3102 24.2948C40.1014 24.66 40.9878 24.7206 41.8165 24.4661C42.6452 24.2117 43.3643 23.6581 43.8498 22.9008C44.3352 22.1436 44.5565 21.2303 44.4756 20.3183C44.3947 19.4064 44.0166 18.553 43.4064 17.9054C42.7963 17.2578 41.9925 16.8566 41.1336 16.7709C40.2747 16.6853 39.4146 16.9206 38.7016 17.4363C37.9886 17.952 37.4675 18.7157 37.2281 19.5957C36.9887 20.4758 37.046 21.4169 37.3902 22.2568L34.7954 23.8479L30.7004 16.3161C31.327 15.824 31.7914 15.1346 32.0275 14.3459C32.2635 13.5573 32.2593 12.7097 32.0153 11.9238C31.7713 11.1378 31.3 10.4537 30.6685 9.96871C30.037 9.48373 29.2775 9.22266 28.4982 9.22266C27.7188 9.22266 26.9593 9.48373 26.3278 9.96871C25.6963 10.4537 25.225 11.1378 24.981 11.9238C24.737 12.7097 24.7328 13.5573 24.9689 14.3459C25.2049 15.1346 25.6693 15.824 26.2959 16.3161L22.2013 23.8479L19.606 22.2568C19.9506 21.4163 20.0082 20.4745 19.7687 19.5938C19.5292 18.7131 19.0077 17.9487 18.2942 17.4326C17.5807 16.9165 16.7199 16.681 15.8604 16.7667C15.0008 16.8525 14.1964 17.2541 13.5859 17.9022C12.9754 18.5504 12.5971 19.4045 12.5163 20.3171C12.4355 21.2298 12.6572 22.1438 13.1432 22.9014C13.6291 23.6591 14.3489 24.2129 15.1784 24.4672C16.0078 24.7216 16.8948 24.6606 17.6864 24.2948L19.822 28.2222L17.6864 32.1503Z" fill="black"/>
<path fill-rule="evenodd" clip-rule="evenodd" d="M18.4124 23.8489C18.7067 23.6171 18.9672 23.3403 19.1854 23.0276L21.782 24.619L20.3064 27.3317L18.4124 23.8488V23.8489ZM27.0222 16.762C27.4879 16.9774 27.9904 17.0886 28.4983 17.0886C29.0063 17.0886 29.5088 16.9774 29.9745 16.762L34.069 24.293L31.4735 25.8847C31.1296 25.3903 30.6813 24.9885 30.1646 24.7117C29.6478 24.4348 29.0771 24.2905 28.4983 24.2905C27.9195 24.2905 27.3488 24.4348 26.8321 24.7117C26.3154 24.9885 25.867 25.3903 25.5232 25.8847L22.9273 24.2933L27.0222 16.7624V16.762ZM37.8109 23.0276C38.0293 23.3401 38.2898 23.6168 38.5839 23.8489L36.69 27.3317L35.2147 24.619L37.8109 23.0276ZM38.5839 32.5959C38.2897 32.8278 38.0293 33.1044 37.8109 33.4168L35.2147 31.8258L36.69 29.1127L38.584 32.5957L38.5839 32.5959ZM29.9745 39.6823C29.5088 39.4669 29.0063 39.3557 28.4983 39.3557C27.9904 39.3557 27.4879 39.4669 27.0222 39.6823L22.9273 32.1517L25.5232 30.5604C25.867 31.0548 26.3154 31.4565 26.8321 31.7334C27.3488 32.0103 27.9195 32.1545 28.4983 32.1545C29.0771 32.1545 29.6478 32.0103 30.1646 31.7334C30.6813 31.4565 31.1296 31.0548 31.4735 30.5604L34.069 32.1517L29.9745 39.6823ZM25.1032 29.7896C24.8998 29.2953 24.7949 28.7617 24.7949 28.2222C24.7949 27.6828 24.8998 27.1492 25.1032 26.6549L22.508 25.0642L20.7906 28.2222L22.508 31.3807L25.1032 29.7897V29.7896ZM31.8935 26.6549C32.0968 27.1492 32.2018 27.6828 32.2018 28.2222C32.2018 28.7617 32.0968 29.2953 31.8935 29.7896L34.4884 31.3806L36.2057 28.2222L34.4884 25.0644L31.8935 26.655V26.6549ZM19.1854 33.4168C18.9672 33.1043 18.7067 32.8277 18.4124 32.596L20.3064 29.1127L21.782 31.8258L19.1854 33.4168ZM17.6864 32.1503C16.8954 31.7852 16.0091 31.7246 15.1805 31.979C14.3519 32.2334 13.6329 32.7869 13.1476 33.544C12.6622 34.3011 12.4409 35.2144 12.5218 36.1262C12.6027 37.038 12.9808 37.8913 13.5908 38.5388C14.2008 39.1863 15.0045 39.5875 15.8633 39.6731C16.7221 39.7587 17.5821 39.5234 18.295 39.0078C19.0078 38.4921 19.5289 37.7285 19.7683 36.8486C20.0076 35.9687 19.9503 35.0277 19.6061 34.1879L22.2013 32.597L26.2958 40.1283C25.6691 40.6204 25.2047 41.31 24.9685 42.0987C24.7324 42.8874 24.7366 43.7351 24.9806 44.5212C25.2246 45.3072 25.6959 45.9914 26.3275 46.4765C26.959 46.9615 27.7186 47.2227 28.4981 47.2227C29.2775 47.2227 30.0371 46.9615 30.6687 46.4765C31.3002 45.9914 31.7716 45.3072 32.0156 44.5212C32.2596 43.7351 32.2638 42.8874 32.0277 42.0987C31.7915 41.31 31.327 40.6204 30.7003 40.1283L34.7954 32.597L37.3903 34.1879C37.0452 35.0289 36.9874 35.9714 37.2268 36.8528C37.4663 37.7341 37.988 38.4991 38.7019 39.0157C39.4158 39.5323 40.2772 39.7681 41.1373 39.6824C41.9975 39.5967 42.8025 39.1949 43.4134 38.5463C44.0243 37.8977 44.4029 37.043 44.4837 36.1297C44.5646 35.2164 44.3426 34.3018 43.8562 33.5437C43.3698 32.7856 42.6494 32.2315 41.8193 31.9771C40.9893 31.7228 40.1017 31.784 39.3096 32.1503L37.1743 28.2222L39.3102 24.2948C40.1014 24.66 40.9878 24.7206 41.8165 24.4661C42.6452 24.2117 43.3643 23.6581 43.8498 22.9008C44.3352 22.1436 44.5565 21.2303 44.4756 20.3183C44.3947 19.4064 44.0166 18.553 43.4064 17.9054C42.7963 17.2578 41.9925 16.8566 41.1336 16.7709C40.2747 16.6853 39.4146 16.9206 38.7016 17.4363C37.9886 17.952 37.4675 18.7157 37.2281 19.5957C36.9887 20.4758 37.046 21.4169 37.3902 22.2568L34.7954 23.8479L30.7004 16.3161C31.327 15.824 31.7914 15.1346 32.0275 14.3459C32.2635 13.5573 32.2593 12.7097 32.0153 11.9238C31.7713 11.1378 31.3 10.4537 30.6685 9.96871C30.037 9.48373 29.2775 9.22266 28.4982 9.22266C27.7188 9.22266 26.9593 9.48373 26.3278 9.96871C25.6963 10.4537 25.225 11.1378 24.981 11.9238C24.737 12.7097 24.7328 13.5573 24.9689 14.3459C25.2049 15.1346 25.6693 15.824 26.2959 16.3161L22.2013 23.8479L19.606 22.2568C19.9506 21.4163 20.0082 20.4745 19.7687 19.5938C19.5292 18.7131 19.0077 17.9487 18.2942 17.4326C17.5807 16.9165 16.7199 16.681 15.8604 16.7667C15.0008 16.8525 14.1964 17.2541 13.5859 17.9022C12.9754 18.5504 12.5971 19.4045 12.5163 20.3171C12.4355 21.2298 12.6572 22.1438 13.1432 22.9014C13.6291 23.6591 14.3489 24.2129 15.1784 24.4672C16.0078 24.7216 16.8948 24.6606 17.6864 24.2948L19.822 28.2222L17.6864 32.1503Z" fill="url(#paint0_linear_338_53169)"/>
<defs>
<linearGradient id="paint0_linear_338_53169" x1="12.5" y1="14.9673" x2="38.3304" y2="54.6523" gradientUnits="userSpaceOnUse">
<stop stop-color="#0B3FA5"/>
<stop offset="1" stop-color="#7FAAFF"/>
</linearGradient>
</defs>
</svg>
