<svg width="33" height="33" viewBox="0 0 33 33" fill="none" xmlns="http://www.w3.org/2000/svg">
<path fill-rule="evenodd" clip-rule="evenodd" d="M16.7415 3.83984C9.56221 3.83984 3.74146 9.66059 3.74146 16.8398C3.74146 24.0191 9.56221 29.8398 16.7415 29.8398C23.9207 29.8398 29.7415 24.0191 29.7415 16.8398C29.7415 9.66059 23.9207 3.83984 16.7415 3.83984ZM22.767 12.6809C22.572 14.736 21.7248 19.7248 21.2947 22.0268C21.1127 23.0018 20.753 23.3279 20.4064 23.3593C19.6513 23.4287 19.0782 22.8599 18.347 22.3811C17.203 21.6314 16.5562 21.1645 15.4458 20.4322C14.162 19.5861 14.994 19.1213 15.7253 18.3619C15.917 18.1626 19.2429 15.1368 19.3079 14.8628C19.3155 14.8281 19.3241 14.7003 19.2472 14.6331C19.1703 14.5659 19.0587 14.5887 18.9785 14.6071C18.8637 14.6331 17.0361 15.841 13.4947 18.2308C12.9758 18.5873 12.5056 18.7606 12.0842 18.7519C11.6205 18.7422 10.7279 18.4898 10.0638 18.2731C9.25021 18.0088 8.60237 17.8679 8.65871 17.4194C8.68796 17.1854 9.00971 16.946 9.62504 16.7012C13.4145 15.0502 15.942 13.9614 17.2062 13.4349C20.817 11.9334 21.5666 11.6723 22.0563 11.6637C22.6695 11.655 22.8168 12.1609 22.767 12.6809Z" fill="white"/>
</svg>
