<svg width="33" height="33" viewBox="0 0 33 33" fill="none" xmlns="http://www.w3.org/2000/svg">
<path fill-rule="evenodd" clip-rule="evenodd" d="M23.0707 4.36035H10.4177C10.3819 4.36447 10.3461 4.36869 10.3103 4.37291C10.2336 4.38196 10.1569 4.39101 10.08 4.39907C8.71565 4.54289 7.53879 5.09337 6.55321 6.04498C5.67748 6.89054 5.1187 7.91521 4.86697 9.10658C4.78668 9.48654 4.74453 9.87146 4.74453 10.2592C4.74416 11.2523 4.74332 12.2454 4.74248 13.2384C4.73989 16.3144 4.73729 19.3904 4.74854 22.4663C4.75445 24.1222 5.37826 25.5384 6.56542 26.6941C7.49493 27.5988 8.61305 28.1317 9.89728 28.3082C10.1574 28.3439 10.4225 28.3568 10.6853 28.357C14.7249 28.3599 18.7647 28.3627 22.8044 28.3572C24.3721 28.3551 25.7328 27.806 26.8738 26.7334C27.8546 25.8114 28.4486 24.6751 28.6613 23.3462C28.7113 23.0344 28.7301 22.7143 28.7305 22.398C28.7315 21.5013 28.7331 20.6045 28.7348 19.7077C28.7404 16.5831 28.746 13.4585 28.7267 10.334C28.7122 7.99818 27.6364 6.2487 25.6174 5.08498C24.9331 4.69053 24.1852 4.47613 23.3987 4.39888C23.3233 4.39152 23.248 4.38218 23.1727 4.37283C23.1387 4.36861 23.1047 4.36439 23.0707 4.36035ZM9.87251 11.9475C9.8725 11.9475 9.8725 11.9475 9.87249 11.9475L9.87287 11.9467H10.0012C10.2046 11.9467 10.408 11.9468 10.6114 11.9468C11.3671 11.9471 12.1228 11.9473 12.8784 11.9444C12.973 11.9441 13.0079 11.9748 13.0316 12.0644C13.3482 13.2636 13.6676 14.4622 13.987 15.6606C14.0442 15.875 14.1013 16.0894 14.1585 16.3038C14.1624 16.3184 14.1674 16.3325 14.1749 16.3532C14.1791 16.3648 14.184 16.3785 14.1898 16.3955L14.3793 15.6867C14.4422 15.4516 14.5052 15.2165 14.5681 14.9814C14.831 13.9996 15.0939 13.0176 15.3554 12.0355C15.3591 12.0216 15.3633 12.0096 15.3684 11.9993C15.3876 11.9596 15.4184 11.9456 15.4736 11.9456C16.3247 11.9477 17.1757 11.9484 18.0268 11.9448C18.1103 11.9446 18.1344 11.9801 18.1529 12.0495C18.426 13.0774 18.7002 14.1051 18.9744 15.1327C19.0388 15.3741 19.1032 15.6155 19.1676 15.8569C19.2107 16.0188 19.254 16.1803 19.3125 16.3434C19.3273 16.2886 19.3421 16.2338 19.3569 16.179C19.3931 16.0455 19.4292 15.912 19.4647 15.7784C19.7964 14.5304 20.128 13.2822 20.4587 12.034C20.4623 12.0202 20.4665 12.0081 20.4716 11.9977C20.4887 11.9622 20.5162 11.9458 20.5693 11.9458C21.2853 11.9474 22.0013 11.9475 22.7173 11.9475C22.9858 11.9476 23.2542 11.9476 23.5226 11.9477C23.5389 11.9477 23.5551 11.9501 23.5748 11.9529C23.5846 11.9544 23.5953 11.9559 23.6073 11.9574C23.585 12.0343 23.563 12.1103 23.5413 12.1857C23.4992 12.3314 23.4578 12.4749 23.4157 12.6181C23.12 13.6254 22.8242 14.6326 22.5285 15.6399C22.2338 16.6433 21.9391 17.6468 21.6445 18.6503C21.3449 19.6708 21.0457 20.6915 20.7475 21.7123C20.7439 21.7246 20.7399 21.7355 20.7353 21.745C20.7176 21.7825 20.6899 21.8001 20.6353 21.7999C19.7907 21.7975 18.9458 21.7978 18.1012 21.7994C18.04 21.7994 18.0129 21.7786 17.9961 21.7183C17.591 20.2708 17.1839 18.8236 16.7767 17.3766C16.7712 17.357 16.7647 17.3376 16.7557 17.3103C16.751 17.2962 16.7457 17.2801 16.7394 17.2607C16.7187 17.3331 16.6988 17.4024 16.6794 17.4696C16.6442 17.5919 16.6109 17.7075 16.5784 17.8233C16.5214 18.0261 16.4644 18.2289 16.4075 18.4317C16.1014 19.521 15.7954 20.6104 15.4913 21.7003C15.4872 21.7151 15.4827 21.7279 15.4774 21.7389C15.4562 21.7843 15.4233 21.8005 15.3603 21.8003C14.5315 21.7975 13.7027 21.7975 12.8737 21.8003C12.7938 21.8005 12.7587 21.7769 12.7356 21.6981C12.3822 20.4857 12.0258 19.2743 11.6691 18.0631C11.3374 16.936 11.0054 15.8089 10.6734 14.6819C10.4187 13.8173 10.1641 12.9527 9.90948 12.0881C9.90198 12.0626 9.89531 12.037 9.88698 12.005C9.8826 11.9882 9.87776 11.9696 9.8721 11.9483L9.87248 11.9475H9.87251Z" fill="white"/>
</svg>
