<svg width="33" height="33" viewBox="0 0 33 33" fill="none" xmlns="http://www.w3.org/2000/svg">
<g clip-path="url(#clip0_170_625)">
<path d="M28.5021 11.5602C28.5021 11.5602 28.2678 9.90547 27.5459 9.17891C26.6318 8.22266 25.61 8.21797 25.1412 8.16172C21.785 7.91797 16.7459 7.91797 16.7459 7.91797H16.7365C16.7365 7.91797 11.6975 7.91797 8.34121 8.16172C7.87246 8.21797 6.85059 8.22266 5.93652 9.17891C5.21465 9.90547 4.98496 11.5602 4.98496 11.5602C4.98496 11.5602 4.74121 13.5055 4.74121 15.4461V17.2648C4.74121 19.2055 4.98027 21.1508 4.98027 21.1508C4.98027 21.1508 5.21465 22.8055 5.93184 23.532C6.8459 24.4883 8.0459 24.4555 8.58027 24.5586C10.5021 24.7414 16.7412 24.7977 16.7412 24.7977C16.7412 24.7977 21.785 24.7883 25.1412 24.5492C25.61 24.493 26.6318 24.4883 27.5459 23.532C28.2678 22.8055 28.5021 21.1508 28.5021 21.1508C28.5021 21.1508 28.7412 19.2102 28.7412 17.2648V15.4461C28.7412 13.5055 28.5021 11.5602 28.5021 11.5602ZM14.2615 19.4727V12.7273L20.7443 16.1117L14.2615 19.4727Z" fill="white"/>
</g>
<defs>
<clipPath id="clip0_170_625">
<rect width="24" height="24" fill="white" transform="translate(4.74121 4.36035)"/>
</clipPath>
</defs>
</svg>
